G04 #@! TF.GenerationSoftware,KiCad,Pcbnew,(5.1.0)-1*
G04 #@! TF.CreationDate,2020-06-14T14:54:15-05:00*
G04 #@! TF.ProjectId,ESP32_BridgeH,45535033-325f-4427-9269-646765482e6b,0*
G04 #@! TF.SameCoordinates,Original*
G04 #@! TF.FileFunction,Soldermask,Top*
G04 #@! TF.FilePolarity,Negative*
%FSLAX46Y46*%
G04 Gerber Fmt 4.6, Leading zero omitted, Abs format (unit mm)*
G04 Created by KiCad (PCBNEW (5.1.0)-1) date 2020-06-14 14:54:15*
%MOMM*%
%LPD*%
G04 APERTURE LIST*
%ADD10C,0.100000*%
G04 APERTURE END LIST*
D10*
G36*
X197087443Y-134868519D02*
G01*
X197153627Y-134875037D01*
X197323466Y-134926557D01*
X197479991Y-135010222D01*
X197515729Y-135039552D01*
X197617186Y-135122814D01*
X197700448Y-135224271D01*
X197729778Y-135260009D01*
X197813443Y-135416534D01*
X197864963Y-135586373D01*
X197882359Y-135763000D01*
X197864963Y-135939627D01*
X197813443Y-136109466D01*
X197729778Y-136265991D01*
X197700448Y-136301729D01*
X197617186Y-136403186D01*
X197515729Y-136486448D01*
X197479991Y-136515778D01*
X197323466Y-136599443D01*
X197153627Y-136650963D01*
X197087443Y-136657481D01*
X197021260Y-136664000D01*
X196932740Y-136664000D01*
X196866557Y-136657481D01*
X196800373Y-136650963D01*
X196630534Y-136599443D01*
X196474009Y-136515778D01*
X196438271Y-136486448D01*
X196336814Y-136403186D01*
X196253552Y-136301729D01*
X196224222Y-136265991D01*
X196140557Y-136109466D01*
X196089037Y-135939627D01*
X196071641Y-135763000D01*
X196089037Y-135586373D01*
X196140557Y-135416534D01*
X196224222Y-135260009D01*
X196253552Y-135224271D01*
X196336814Y-135122814D01*
X196438271Y-135039552D01*
X196474009Y-135010222D01*
X196630534Y-134926557D01*
X196800373Y-134875037D01*
X196866557Y-134868519D01*
X196932740Y-134862000D01*
X197021260Y-134862000D01*
X197087443Y-134868519D01*
X197087443Y-134868519D01*
G37*
G36*
X170065000Y-136664000D02*
G01*
X168263000Y-136664000D01*
X168263000Y-134862000D01*
X170065000Y-134862000D01*
X170065000Y-136664000D01*
X170065000Y-136664000D01*
G37*
G36*
X177685000Y-136664000D02*
G01*
X175883000Y-136664000D01*
X175883000Y-134862000D01*
X177685000Y-134862000D01*
X177685000Y-136664000D01*
X177685000Y-136664000D01*
G37*
G36*
X179434443Y-134868519D02*
G01*
X179500627Y-134875037D01*
X179670466Y-134926557D01*
X179826991Y-135010222D01*
X179862729Y-135039552D01*
X179964186Y-135122814D01*
X180047448Y-135224271D01*
X180076778Y-135260009D01*
X180160443Y-135416534D01*
X180211963Y-135586373D01*
X180229359Y-135763000D01*
X180211963Y-135939627D01*
X180160443Y-136109466D01*
X180076778Y-136265991D01*
X180047448Y-136301729D01*
X179964186Y-136403186D01*
X179862729Y-136486448D01*
X179826991Y-136515778D01*
X179670466Y-136599443D01*
X179500627Y-136650963D01*
X179434443Y-136657481D01*
X179368260Y-136664000D01*
X179279740Y-136664000D01*
X179213557Y-136657481D01*
X179147373Y-136650963D01*
X178977534Y-136599443D01*
X178821009Y-136515778D01*
X178785271Y-136486448D01*
X178683814Y-136403186D01*
X178600552Y-136301729D01*
X178571222Y-136265991D01*
X178487557Y-136109466D01*
X178436037Y-135939627D01*
X178418641Y-135763000D01*
X178436037Y-135586373D01*
X178487557Y-135416534D01*
X178571222Y-135260009D01*
X178600552Y-135224271D01*
X178683814Y-135122814D01*
X178785271Y-135039552D01*
X178821009Y-135010222D01*
X178977534Y-134926557D01*
X179147373Y-134875037D01*
X179213557Y-134868519D01*
X179279740Y-134862000D01*
X179368260Y-134862000D01*
X179434443Y-134868519D01*
X179434443Y-134868519D01*
G37*
G36*
X187718000Y-136664000D02*
G01*
X185916000Y-136664000D01*
X185916000Y-134862000D01*
X187718000Y-134862000D01*
X187718000Y-136664000D01*
X187718000Y-136664000D01*
G37*
G36*
X189467443Y-134868519D02*
G01*
X189533627Y-134875037D01*
X189703466Y-134926557D01*
X189859991Y-135010222D01*
X189895729Y-135039552D01*
X189997186Y-135122814D01*
X190080448Y-135224271D01*
X190109778Y-135260009D01*
X190193443Y-135416534D01*
X190244963Y-135586373D01*
X190262359Y-135763000D01*
X190244963Y-135939627D01*
X190193443Y-136109466D01*
X190109778Y-136265991D01*
X190080448Y-136301729D01*
X189997186Y-136403186D01*
X189895729Y-136486448D01*
X189859991Y-136515778D01*
X189703466Y-136599443D01*
X189533627Y-136650963D01*
X189467443Y-136657481D01*
X189401260Y-136664000D01*
X189312740Y-136664000D01*
X189246557Y-136657481D01*
X189180373Y-136650963D01*
X189010534Y-136599443D01*
X188854009Y-136515778D01*
X188818271Y-136486448D01*
X188716814Y-136403186D01*
X188633552Y-136301729D01*
X188604222Y-136265991D01*
X188520557Y-136109466D01*
X188469037Y-135939627D01*
X188451641Y-135763000D01*
X188469037Y-135586373D01*
X188520557Y-135416534D01*
X188604222Y-135260009D01*
X188633552Y-135224271D01*
X188716814Y-135122814D01*
X188818271Y-135039552D01*
X188854009Y-135010222D01*
X189010534Y-134926557D01*
X189180373Y-134875037D01*
X189246557Y-134868519D01*
X189312740Y-134862000D01*
X189401260Y-134862000D01*
X189467443Y-134868519D01*
X189467443Y-134868519D01*
G37*
G36*
X192007443Y-134868519D02*
G01*
X192073627Y-134875037D01*
X192243466Y-134926557D01*
X192399991Y-135010222D01*
X192435729Y-135039552D01*
X192537186Y-135122814D01*
X192620448Y-135224271D01*
X192649778Y-135260009D01*
X192733443Y-135416534D01*
X192784963Y-135586373D01*
X192802359Y-135763000D01*
X192784963Y-135939627D01*
X192733443Y-136109466D01*
X192649778Y-136265991D01*
X192620448Y-136301729D01*
X192537186Y-136403186D01*
X192435729Y-136486448D01*
X192399991Y-136515778D01*
X192243466Y-136599443D01*
X192073627Y-136650963D01*
X192007443Y-136657481D01*
X191941260Y-136664000D01*
X191852740Y-136664000D01*
X191786557Y-136657481D01*
X191720373Y-136650963D01*
X191550534Y-136599443D01*
X191394009Y-136515778D01*
X191358271Y-136486448D01*
X191256814Y-136403186D01*
X191173552Y-136301729D01*
X191144222Y-136265991D01*
X191060557Y-136109466D01*
X191009037Y-135939627D01*
X190991641Y-135763000D01*
X191009037Y-135586373D01*
X191060557Y-135416534D01*
X191144222Y-135260009D01*
X191173552Y-135224271D01*
X191256814Y-135122814D01*
X191358271Y-135039552D01*
X191394009Y-135010222D01*
X191550534Y-134926557D01*
X191720373Y-134875037D01*
X191786557Y-134868519D01*
X191852740Y-134862000D01*
X191941260Y-134862000D01*
X192007443Y-134868519D01*
X192007443Y-134868519D01*
G37*
G36*
X194547443Y-134868519D02*
G01*
X194613627Y-134875037D01*
X194783466Y-134926557D01*
X194939991Y-135010222D01*
X194975729Y-135039552D01*
X195077186Y-135122814D01*
X195160448Y-135224271D01*
X195189778Y-135260009D01*
X195273443Y-135416534D01*
X195324963Y-135586373D01*
X195342359Y-135763000D01*
X195324963Y-135939627D01*
X195273443Y-136109466D01*
X195189778Y-136265991D01*
X195160448Y-136301729D01*
X195077186Y-136403186D01*
X194975729Y-136486448D01*
X194939991Y-136515778D01*
X194783466Y-136599443D01*
X194613627Y-136650963D01*
X194547443Y-136657481D01*
X194481260Y-136664000D01*
X194392740Y-136664000D01*
X194326557Y-136657481D01*
X194260373Y-136650963D01*
X194090534Y-136599443D01*
X193934009Y-136515778D01*
X193898271Y-136486448D01*
X193796814Y-136403186D01*
X193713552Y-136301729D01*
X193684222Y-136265991D01*
X193600557Y-136109466D01*
X193549037Y-135939627D01*
X193531641Y-135763000D01*
X193549037Y-135586373D01*
X193600557Y-135416534D01*
X193684222Y-135260009D01*
X193713552Y-135224271D01*
X193796814Y-135122814D01*
X193898271Y-135039552D01*
X193934009Y-135010222D01*
X194090534Y-134926557D01*
X194260373Y-134875037D01*
X194326557Y-134868519D01*
X194392740Y-134862000D01*
X194481260Y-134862000D01*
X194547443Y-134868519D01*
X194547443Y-134868519D01*
G37*
G36*
X164194443Y-134868519D02*
G01*
X164260627Y-134875037D01*
X164430466Y-134926557D01*
X164586991Y-135010222D01*
X164622729Y-135039552D01*
X164724186Y-135122814D01*
X164807448Y-135224271D01*
X164836778Y-135260009D01*
X164920443Y-135416534D01*
X164971963Y-135586373D01*
X164989359Y-135763000D01*
X164971963Y-135939627D01*
X164920443Y-136109466D01*
X164836778Y-136265991D01*
X164807448Y-136301729D01*
X164724186Y-136403186D01*
X164622729Y-136486448D01*
X164586991Y-136515778D01*
X164430466Y-136599443D01*
X164260627Y-136650963D01*
X164194443Y-136657481D01*
X164128260Y-136664000D01*
X164039740Y-136664000D01*
X163973557Y-136657481D01*
X163907373Y-136650963D01*
X163737534Y-136599443D01*
X163581009Y-136515778D01*
X163545271Y-136486448D01*
X163443814Y-136403186D01*
X163360552Y-136301729D01*
X163331222Y-136265991D01*
X163247557Y-136109466D01*
X163196037Y-135939627D01*
X163178641Y-135763000D01*
X163196037Y-135586373D01*
X163247557Y-135416534D01*
X163331222Y-135260009D01*
X163360552Y-135224271D01*
X163443814Y-135122814D01*
X163545271Y-135039552D01*
X163581009Y-135010222D01*
X163737534Y-134926557D01*
X163907373Y-134875037D01*
X163973557Y-134868519D01*
X164039740Y-134862000D01*
X164128260Y-134862000D01*
X164194443Y-134868519D01*
X164194443Y-134868519D01*
G37*
G36*
X166734443Y-134868519D02*
G01*
X166800627Y-134875037D01*
X166970466Y-134926557D01*
X167126991Y-135010222D01*
X167162729Y-135039552D01*
X167264186Y-135122814D01*
X167347448Y-135224271D01*
X167376778Y-135260009D01*
X167460443Y-135416534D01*
X167511963Y-135586373D01*
X167529359Y-135763000D01*
X167511963Y-135939627D01*
X167460443Y-136109466D01*
X167376778Y-136265991D01*
X167347448Y-136301729D01*
X167264186Y-136403186D01*
X167162729Y-136486448D01*
X167126991Y-136515778D01*
X166970466Y-136599443D01*
X166800627Y-136650963D01*
X166734443Y-136657481D01*
X166668260Y-136664000D01*
X166579740Y-136664000D01*
X166513557Y-136657481D01*
X166447373Y-136650963D01*
X166277534Y-136599443D01*
X166121009Y-136515778D01*
X166085271Y-136486448D01*
X165983814Y-136403186D01*
X165900552Y-136301729D01*
X165871222Y-136265991D01*
X165787557Y-136109466D01*
X165736037Y-135939627D01*
X165718641Y-135763000D01*
X165736037Y-135586373D01*
X165787557Y-135416534D01*
X165871222Y-135260009D01*
X165900552Y-135224271D01*
X165983814Y-135122814D01*
X166085271Y-135039552D01*
X166121009Y-135010222D01*
X166277534Y-134926557D01*
X166447373Y-134875037D01*
X166513557Y-134868519D01*
X166579740Y-134862000D01*
X166668260Y-134862000D01*
X166734443Y-134868519D01*
X166734443Y-134868519D01*
G37*
G36*
X151494443Y-134868519D02*
G01*
X151560627Y-134875037D01*
X151730466Y-134926557D01*
X151886991Y-135010222D01*
X151922729Y-135039552D01*
X152024186Y-135122814D01*
X152107448Y-135224271D01*
X152136778Y-135260009D01*
X152220443Y-135416534D01*
X152271963Y-135586373D01*
X152289359Y-135763000D01*
X152271963Y-135939627D01*
X152220443Y-136109466D01*
X152136778Y-136265991D01*
X152107448Y-136301729D01*
X152024186Y-136403186D01*
X151922729Y-136486448D01*
X151886991Y-136515778D01*
X151730466Y-136599443D01*
X151560627Y-136650963D01*
X151494443Y-136657481D01*
X151428260Y-136664000D01*
X151339740Y-136664000D01*
X151273557Y-136657481D01*
X151207373Y-136650963D01*
X151037534Y-136599443D01*
X150881009Y-136515778D01*
X150845271Y-136486448D01*
X150743814Y-136403186D01*
X150660552Y-136301729D01*
X150631222Y-136265991D01*
X150547557Y-136109466D01*
X150496037Y-135939627D01*
X150478641Y-135763000D01*
X150496037Y-135586373D01*
X150547557Y-135416534D01*
X150631222Y-135260009D01*
X150660552Y-135224271D01*
X150743814Y-135122814D01*
X150845271Y-135039552D01*
X150881009Y-135010222D01*
X151037534Y-134926557D01*
X151207373Y-134875037D01*
X151273557Y-134868519D01*
X151339740Y-134862000D01*
X151428260Y-134862000D01*
X151494443Y-134868519D01*
X151494443Y-134868519D01*
G37*
G36*
X154034443Y-134868519D02*
G01*
X154100627Y-134875037D01*
X154270466Y-134926557D01*
X154426991Y-135010222D01*
X154462729Y-135039552D01*
X154564186Y-135122814D01*
X154647448Y-135224271D01*
X154676778Y-135260009D01*
X154760443Y-135416534D01*
X154811963Y-135586373D01*
X154829359Y-135763000D01*
X154811963Y-135939627D01*
X154760443Y-136109466D01*
X154676778Y-136265991D01*
X154647448Y-136301729D01*
X154564186Y-136403186D01*
X154462729Y-136486448D01*
X154426991Y-136515778D01*
X154270466Y-136599443D01*
X154100627Y-136650963D01*
X154034443Y-136657481D01*
X153968260Y-136664000D01*
X153879740Y-136664000D01*
X153813557Y-136657481D01*
X153747373Y-136650963D01*
X153577534Y-136599443D01*
X153421009Y-136515778D01*
X153385271Y-136486448D01*
X153283814Y-136403186D01*
X153200552Y-136301729D01*
X153171222Y-136265991D01*
X153087557Y-136109466D01*
X153036037Y-135939627D01*
X153018641Y-135763000D01*
X153036037Y-135586373D01*
X153087557Y-135416534D01*
X153171222Y-135260009D01*
X153200552Y-135224271D01*
X153283814Y-135122814D01*
X153385271Y-135039552D01*
X153421009Y-135010222D01*
X153577534Y-134926557D01*
X153747373Y-134875037D01*
X153813557Y-134868519D01*
X153879740Y-134862000D01*
X153968260Y-134862000D01*
X154034443Y-134868519D01*
X154034443Y-134868519D01*
G37*
G36*
X159114443Y-134868519D02*
G01*
X159180627Y-134875037D01*
X159350466Y-134926557D01*
X159506991Y-135010222D01*
X159542729Y-135039552D01*
X159644186Y-135122814D01*
X159727448Y-135224271D01*
X159756778Y-135260009D01*
X159840443Y-135416534D01*
X159891963Y-135586373D01*
X159909359Y-135763000D01*
X159891963Y-135939627D01*
X159840443Y-136109466D01*
X159756778Y-136265991D01*
X159727448Y-136301729D01*
X159644186Y-136403186D01*
X159542729Y-136486448D01*
X159506991Y-136515778D01*
X159350466Y-136599443D01*
X159180627Y-136650963D01*
X159114443Y-136657481D01*
X159048260Y-136664000D01*
X158959740Y-136664000D01*
X158893557Y-136657481D01*
X158827373Y-136650963D01*
X158657534Y-136599443D01*
X158501009Y-136515778D01*
X158465271Y-136486448D01*
X158363814Y-136403186D01*
X158280552Y-136301729D01*
X158251222Y-136265991D01*
X158167557Y-136109466D01*
X158116037Y-135939627D01*
X158098641Y-135763000D01*
X158116037Y-135586373D01*
X158167557Y-135416534D01*
X158251222Y-135260009D01*
X158280552Y-135224271D01*
X158363814Y-135122814D01*
X158465271Y-135039552D01*
X158501009Y-135010222D01*
X158657534Y-134926557D01*
X158827373Y-134875037D01*
X158893557Y-134868519D01*
X158959740Y-134862000D01*
X159048260Y-134862000D01*
X159114443Y-134868519D01*
X159114443Y-134868519D01*
G37*
G36*
X161654443Y-134868519D02*
G01*
X161720627Y-134875037D01*
X161890466Y-134926557D01*
X162046991Y-135010222D01*
X162082729Y-135039552D01*
X162184186Y-135122814D01*
X162267448Y-135224271D01*
X162296778Y-135260009D01*
X162380443Y-135416534D01*
X162431963Y-135586373D01*
X162449359Y-135763000D01*
X162431963Y-135939627D01*
X162380443Y-136109466D01*
X162296778Y-136265991D01*
X162267448Y-136301729D01*
X162184186Y-136403186D01*
X162082729Y-136486448D01*
X162046991Y-136515778D01*
X161890466Y-136599443D01*
X161720627Y-136650963D01*
X161654443Y-136657481D01*
X161588260Y-136664000D01*
X161499740Y-136664000D01*
X161433557Y-136657481D01*
X161367373Y-136650963D01*
X161197534Y-136599443D01*
X161041009Y-136515778D01*
X161005271Y-136486448D01*
X160903814Y-136403186D01*
X160820552Y-136301729D01*
X160791222Y-136265991D01*
X160707557Y-136109466D01*
X160656037Y-135939627D01*
X160638641Y-135763000D01*
X160656037Y-135586373D01*
X160707557Y-135416534D01*
X160791222Y-135260009D01*
X160820552Y-135224271D01*
X160903814Y-135122814D01*
X161005271Y-135039552D01*
X161041009Y-135010222D01*
X161197534Y-134926557D01*
X161367373Y-134875037D01*
X161433557Y-134868519D01*
X161499740Y-134862000D01*
X161588260Y-134862000D01*
X161654443Y-134868519D01*
X161654443Y-134868519D01*
G37*
G36*
X156574443Y-134868519D02*
G01*
X156640627Y-134875037D01*
X156810466Y-134926557D01*
X156966991Y-135010222D01*
X157002729Y-135039552D01*
X157104186Y-135122814D01*
X157187448Y-135224271D01*
X157216778Y-135260009D01*
X157300443Y-135416534D01*
X157351963Y-135586373D01*
X157369359Y-135763000D01*
X157351963Y-135939627D01*
X157300443Y-136109466D01*
X157216778Y-136265991D01*
X157187448Y-136301729D01*
X157104186Y-136403186D01*
X157002729Y-136486448D01*
X156966991Y-136515778D01*
X156810466Y-136599443D01*
X156640627Y-136650963D01*
X156574443Y-136657481D01*
X156508260Y-136664000D01*
X156419740Y-136664000D01*
X156353557Y-136657481D01*
X156287373Y-136650963D01*
X156117534Y-136599443D01*
X155961009Y-136515778D01*
X155925271Y-136486448D01*
X155823814Y-136403186D01*
X155740552Y-136301729D01*
X155711222Y-136265991D01*
X155627557Y-136109466D01*
X155576037Y-135939627D01*
X155558641Y-135763000D01*
X155576037Y-135586373D01*
X155627557Y-135416534D01*
X155711222Y-135260009D01*
X155740552Y-135224271D01*
X155823814Y-135122814D01*
X155925271Y-135039552D01*
X155961009Y-135010222D01*
X156117534Y-134926557D01*
X156287373Y-134875037D01*
X156353557Y-134868519D01*
X156419740Y-134862000D01*
X156508260Y-134862000D01*
X156574443Y-134868519D01*
X156574443Y-134868519D01*
G37*
G36*
X131599000Y-134901000D02*
G01*
X128497000Y-134901000D01*
X128497000Y-131799000D01*
X131599000Y-131799000D01*
X131599000Y-134901000D01*
X131599000Y-134901000D01*
G37*
G36*
X135430585Y-131828802D02*
G01*
X135580410Y-131858604D01*
X135862674Y-131975521D01*
X136116705Y-132145259D01*
X136332741Y-132361295D01*
X136502479Y-132615326D01*
X136619396Y-132897590D01*
X136679000Y-133197240D01*
X136679000Y-133502760D01*
X136619396Y-133802410D01*
X136502479Y-134084674D01*
X136332741Y-134338705D01*
X136116705Y-134554741D01*
X135862674Y-134724479D01*
X135580410Y-134841396D01*
X135430585Y-134871198D01*
X135280761Y-134901000D01*
X134975239Y-134901000D01*
X134825415Y-134871198D01*
X134675590Y-134841396D01*
X134393326Y-134724479D01*
X134139295Y-134554741D01*
X133923259Y-134338705D01*
X133753521Y-134084674D01*
X133636604Y-133802410D01*
X133577000Y-133502760D01*
X133577000Y-133197240D01*
X133636604Y-132897590D01*
X133753521Y-132615326D01*
X133923259Y-132361295D01*
X134139295Y-132145259D01*
X134393326Y-131975521D01*
X134675590Y-131858604D01*
X134825415Y-131828802D01*
X134975239Y-131799000D01*
X135280761Y-131799000D01*
X135430585Y-131828802D01*
X135430585Y-131828802D01*
G37*
G36*
X140510585Y-131828802D02*
G01*
X140660410Y-131858604D01*
X140942674Y-131975521D01*
X141196705Y-132145259D01*
X141412741Y-132361295D01*
X141582479Y-132615326D01*
X141699396Y-132897590D01*
X141759000Y-133197240D01*
X141759000Y-133502760D01*
X141699396Y-133802410D01*
X141582479Y-134084674D01*
X141412741Y-134338705D01*
X141196705Y-134554741D01*
X140942674Y-134724479D01*
X140660410Y-134841396D01*
X140510585Y-134871198D01*
X140360761Y-134901000D01*
X140055239Y-134901000D01*
X139905415Y-134871198D01*
X139755590Y-134841396D01*
X139473326Y-134724479D01*
X139219295Y-134554741D01*
X139003259Y-134338705D01*
X138833521Y-134084674D01*
X138716604Y-133802410D01*
X138657000Y-133502760D01*
X138657000Y-133197240D01*
X138716604Y-132897590D01*
X138833521Y-132615326D01*
X139003259Y-132361295D01*
X139219295Y-132145259D01*
X139473326Y-131975521D01*
X139755590Y-131858604D01*
X139905415Y-131828802D01*
X140055239Y-131799000D01*
X140360761Y-131799000D01*
X140510585Y-131828802D01*
X140510585Y-131828802D01*
G37*
G36*
X145590585Y-131828802D02*
G01*
X145740410Y-131858604D01*
X146022674Y-131975521D01*
X146276705Y-132145259D01*
X146492741Y-132361295D01*
X146662479Y-132615326D01*
X146779396Y-132897590D01*
X146839000Y-133197240D01*
X146839000Y-133502760D01*
X146779396Y-133802410D01*
X146662479Y-134084674D01*
X146492741Y-134338705D01*
X146276705Y-134554741D01*
X146022674Y-134724479D01*
X145740410Y-134841396D01*
X145590585Y-134871198D01*
X145440761Y-134901000D01*
X145135239Y-134901000D01*
X144985415Y-134871198D01*
X144835590Y-134841396D01*
X144553326Y-134724479D01*
X144299295Y-134554741D01*
X144083259Y-134338705D01*
X143913521Y-134084674D01*
X143796604Y-133802410D01*
X143737000Y-133502760D01*
X143737000Y-133197240D01*
X143796604Y-132897590D01*
X143913521Y-132615326D01*
X144083259Y-132361295D01*
X144299295Y-132145259D01*
X144553326Y-131975521D01*
X144835590Y-131858604D01*
X144985415Y-131828802D01*
X145135239Y-131799000D01*
X145440761Y-131799000D01*
X145590585Y-131828802D01*
X145590585Y-131828802D01*
G37*
G36*
X154616228Y-128491703D02*
G01*
X154771100Y-128555853D01*
X154910481Y-128648985D01*
X155029015Y-128767519D01*
X155122147Y-128906900D01*
X155186297Y-129061772D01*
X155219000Y-129226184D01*
X155219000Y-129393816D01*
X155186297Y-129558228D01*
X155122147Y-129713100D01*
X155029015Y-129852481D01*
X154910481Y-129971015D01*
X154771100Y-130064147D01*
X154616228Y-130128297D01*
X154451816Y-130161000D01*
X154284184Y-130161000D01*
X154119772Y-130128297D01*
X153964900Y-130064147D01*
X153825519Y-129971015D01*
X153706985Y-129852481D01*
X153613853Y-129713100D01*
X153549703Y-129558228D01*
X153517000Y-129393816D01*
X153517000Y-129226184D01*
X153549703Y-129061772D01*
X153613853Y-128906900D01*
X153706985Y-128767519D01*
X153825519Y-128648985D01*
X153964900Y-128555853D01*
X154119772Y-128491703D01*
X154284184Y-128459000D01*
X154451816Y-128459000D01*
X154616228Y-128491703D01*
X154616228Y-128491703D01*
G37*
G36*
X190031823Y-127875313D02*
G01*
X190192242Y-127923976D01*
X190259361Y-127959852D01*
X190340078Y-128002996D01*
X190469659Y-128109341D01*
X190576004Y-128238922D01*
X190576005Y-128238924D01*
X190655024Y-128386758D01*
X190703687Y-128547177D01*
X190720117Y-128714000D01*
X190703687Y-128880823D01*
X190655024Y-129041242D01*
X190614477Y-129117100D01*
X190576004Y-129189078D01*
X190469659Y-129318659D01*
X190340078Y-129425004D01*
X190340076Y-129425005D01*
X190192242Y-129504024D01*
X190031823Y-129552687D01*
X189906804Y-129565000D01*
X189823196Y-129565000D01*
X189698177Y-129552687D01*
X189537758Y-129504024D01*
X189389924Y-129425005D01*
X189389922Y-129425004D01*
X189260341Y-129318659D01*
X189153996Y-129189078D01*
X189115523Y-129117100D01*
X189074976Y-129041242D01*
X189026313Y-128880823D01*
X189009883Y-128714000D01*
X189026313Y-128547177D01*
X189074976Y-128386758D01*
X189153995Y-128238924D01*
X189153996Y-128238922D01*
X189260341Y-128109341D01*
X189389922Y-128002996D01*
X189470639Y-127959852D01*
X189537758Y-127923976D01*
X189698177Y-127875313D01*
X189823196Y-127863000D01*
X189906804Y-127863000D01*
X190031823Y-127875313D01*
X190031823Y-127875313D01*
G37*
G36*
X185033228Y-127895703D02*
G01*
X185188100Y-127959853D01*
X185327481Y-128052985D01*
X185446015Y-128171519D01*
X185539147Y-128310900D01*
X185603297Y-128465772D01*
X185636000Y-128630184D01*
X185636000Y-128797816D01*
X185603297Y-128962228D01*
X185539147Y-129117100D01*
X185446015Y-129256481D01*
X185327481Y-129375015D01*
X185188100Y-129468147D01*
X185033228Y-129532297D01*
X184868816Y-129565000D01*
X184701184Y-129565000D01*
X184536772Y-129532297D01*
X184381900Y-129468147D01*
X184242519Y-129375015D01*
X184123985Y-129256481D01*
X184030853Y-129117100D01*
X183966703Y-128962228D01*
X183934000Y-128797816D01*
X183934000Y-128630184D01*
X183966703Y-128465772D01*
X184030853Y-128310900D01*
X184123985Y-128171519D01*
X184242519Y-128052985D01*
X184381900Y-127959853D01*
X184536772Y-127895703D01*
X184701184Y-127863000D01*
X184868816Y-127863000D01*
X185033228Y-127895703D01*
X185033228Y-127895703D01*
G37*
G36*
X197127395Y-127545546D02*
G01*
X197300466Y-127617234D01*
X197300467Y-127617235D01*
X197456227Y-127721310D01*
X197588690Y-127853773D01*
X197616708Y-127895705D01*
X197692766Y-128009534D01*
X197764454Y-128182605D01*
X197801000Y-128366333D01*
X197801000Y-128553667D01*
X197764454Y-128737395D01*
X197692766Y-128910466D01*
X197692765Y-128910467D01*
X197588690Y-129066227D01*
X197456227Y-129198690D01*
X197377818Y-129251081D01*
X197300466Y-129302766D01*
X197127395Y-129374454D01*
X196943667Y-129411000D01*
X196756333Y-129411000D01*
X196572605Y-129374454D01*
X196399534Y-129302766D01*
X196322182Y-129251081D01*
X196243773Y-129198690D01*
X196111310Y-129066227D01*
X196007235Y-128910467D01*
X196007234Y-128910466D01*
X195935546Y-128737395D01*
X195899000Y-128553667D01*
X195899000Y-128366333D01*
X195935546Y-128182605D01*
X196007234Y-128009534D01*
X196083292Y-127895705D01*
X196111310Y-127853773D01*
X196243773Y-127721310D01*
X196399533Y-127617235D01*
X196399534Y-127617234D01*
X196572605Y-127545546D01*
X196756333Y-127509000D01*
X196943667Y-127509000D01*
X197127395Y-127545546D01*
X197127395Y-127545546D01*
G37*
G36*
X195261000Y-129411000D02*
G01*
X193359000Y-129411000D01*
X193359000Y-127509000D01*
X195261000Y-127509000D01*
X195261000Y-129411000D01*
X195261000Y-129411000D01*
G37*
G36*
X177604228Y-127030703D02*
G01*
X177759100Y-127094853D01*
X177898481Y-127187985D01*
X178017015Y-127306519D01*
X178110147Y-127445900D01*
X178174297Y-127600772D01*
X178207000Y-127765184D01*
X178207000Y-127932816D01*
X178174297Y-128097228D01*
X178110147Y-128252100D01*
X178017015Y-128391481D01*
X177898481Y-128510015D01*
X177759100Y-128603147D01*
X177604228Y-128667297D01*
X177439816Y-128700000D01*
X177272184Y-128700000D01*
X177107772Y-128667297D01*
X176952900Y-128603147D01*
X176813519Y-128510015D01*
X176694985Y-128391481D01*
X176601853Y-128252100D01*
X176537703Y-128097228D01*
X176505000Y-127932816D01*
X176505000Y-127765184D01*
X176537703Y-127600772D01*
X176601853Y-127445900D01*
X176694985Y-127306519D01*
X176813519Y-127187985D01*
X176952900Y-127094853D01*
X177107772Y-127030703D01*
X177272184Y-126998000D01*
X177439816Y-126998000D01*
X177604228Y-127030703D01*
X177604228Y-127030703D01*
G37*
G36*
X155219000Y-127661000D02*
G01*
X153517000Y-127661000D01*
X153517000Y-125959000D01*
X155219000Y-125959000D01*
X155219000Y-127661000D01*
X155219000Y-127661000D01*
G37*
G36*
X171044823Y-125780313D02*
G01*
X171205242Y-125828976D01*
X171272361Y-125864852D01*
X171353078Y-125907996D01*
X171482659Y-126014341D01*
X171589004Y-126143922D01*
X171589005Y-126143924D01*
X171668024Y-126291758D01*
X171716687Y-126452177D01*
X171733117Y-126619000D01*
X171716687Y-126785823D01*
X171668024Y-126946242D01*
X171597114Y-127078906D01*
X171589004Y-127094078D01*
X171482659Y-127223659D01*
X171353078Y-127330004D01*
X171353076Y-127330005D01*
X171205242Y-127409024D01*
X171044823Y-127457687D01*
X170919804Y-127470000D01*
X170836196Y-127470000D01*
X170711177Y-127457687D01*
X170550758Y-127409024D01*
X170402924Y-127330005D01*
X170402922Y-127330004D01*
X170273341Y-127223659D01*
X170166996Y-127094078D01*
X170158886Y-127078906D01*
X170087976Y-126946242D01*
X170039313Y-126785823D01*
X170022883Y-126619000D01*
X170039313Y-126452177D01*
X170087976Y-126291758D01*
X170166995Y-126143924D01*
X170166996Y-126143922D01*
X170273341Y-126014341D01*
X170402922Y-125907996D01*
X170483639Y-125864852D01*
X170550758Y-125828976D01*
X170711177Y-125780313D01*
X170836196Y-125768000D01*
X170919804Y-125768000D01*
X171044823Y-125780313D01*
X171044823Y-125780313D01*
G37*
G36*
X163506228Y-125800703D02*
G01*
X163661100Y-125864853D01*
X163800481Y-125957985D01*
X163919015Y-126076519D01*
X164012147Y-126215900D01*
X164076297Y-126370772D01*
X164109000Y-126535184D01*
X164109000Y-126702816D01*
X164076297Y-126867228D01*
X164012147Y-127022100D01*
X163919015Y-127161481D01*
X163800481Y-127280015D01*
X163661100Y-127373147D01*
X163506228Y-127437297D01*
X163341816Y-127470000D01*
X163174184Y-127470000D01*
X163009772Y-127437297D01*
X162854900Y-127373147D01*
X162715519Y-127280015D01*
X162596985Y-127161481D01*
X162503853Y-127022100D01*
X162439703Y-126867228D01*
X162407000Y-126702816D01*
X162407000Y-126535184D01*
X162439703Y-126370772D01*
X162503853Y-126215900D01*
X162596985Y-126076519D01*
X162715519Y-125957985D01*
X162854900Y-125864853D01*
X163009772Y-125800703D01*
X163174184Y-125768000D01*
X163341816Y-125768000D01*
X163506228Y-125800703D01*
X163506228Y-125800703D01*
G37*
G36*
X178207000Y-126200000D02*
G01*
X176505000Y-126200000D01*
X176505000Y-124498000D01*
X178207000Y-124498000D01*
X178207000Y-126200000D01*
X178207000Y-126200000D01*
G37*
G36*
X147049142Y-123234242D02*
G01*
X147197101Y-123295529D01*
X147330255Y-123384499D01*
X147443501Y-123497745D01*
X147532471Y-123630899D01*
X147593758Y-123778858D01*
X147625000Y-123935925D01*
X147625000Y-124096075D01*
X147593758Y-124253142D01*
X147532471Y-124401101D01*
X147443501Y-124534255D01*
X147330255Y-124647501D01*
X147197101Y-124736471D01*
X147049142Y-124797758D01*
X146892075Y-124829000D01*
X146731925Y-124829000D01*
X146574858Y-124797758D01*
X146426899Y-124736471D01*
X146293745Y-124647501D01*
X146180499Y-124534255D01*
X146091529Y-124401101D01*
X146030242Y-124253142D01*
X145999000Y-124096075D01*
X145999000Y-123935925D01*
X146030242Y-123778858D01*
X146091529Y-123630899D01*
X146180499Y-123497745D01*
X146293745Y-123384499D01*
X146426899Y-123295529D01*
X146574858Y-123234242D01*
X146731925Y-123203000D01*
X146892075Y-123203000D01*
X147049142Y-123234242D01*
X147049142Y-123234242D01*
G37*
G36*
X144509142Y-123234242D02*
G01*
X144657101Y-123295529D01*
X144790255Y-123384499D01*
X144903501Y-123497745D01*
X144992471Y-123630899D01*
X145053758Y-123778858D01*
X145085000Y-123935925D01*
X145085000Y-124096075D01*
X145053758Y-124253142D01*
X144992471Y-124401101D01*
X144903501Y-124534255D01*
X144790255Y-124647501D01*
X144657101Y-124736471D01*
X144509142Y-124797758D01*
X144352075Y-124829000D01*
X144191925Y-124829000D01*
X144034858Y-124797758D01*
X143886899Y-124736471D01*
X143753745Y-124647501D01*
X143640499Y-124534255D01*
X143551529Y-124401101D01*
X143490242Y-124253142D01*
X143459000Y-124096075D01*
X143459000Y-123935925D01*
X143490242Y-123778858D01*
X143551529Y-123630899D01*
X143640499Y-123497745D01*
X143753745Y-123384499D01*
X143886899Y-123295529D01*
X144034858Y-123234242D01*
X144191925Y-123203000D01*
X144352075Y-123203000D01*
X144509142Y-123234242D01*
X144509142Y-123234242D01*
G37*
G36*
X129845000Y-124829000D02*
G01*
X128219000Y-124829000D01*
X128219000Y-123203000D01*
X129845000Y-123203000D01*
X129845000Y-124829000D01*
X129845000Y-124829000D01*
G37*
G36*
X131809142Y-123234242D02*
G01*
X131957101Y-123295529D01*
X132090255Y-123384499D01*
X132203501Y-123497745D01*
X132292471Y-123630899D01*
X132353758Y-123778858D01*
X132385000Y-123935925D01*
X132385000Y-124096075D01*
X132353758Y-124253142D01*
X132292471Y-124401101D01*
X132203501Y-124534255D01*
X132090255Y-124647501D01*
X131957101Y-124736471D01*
X131809142Y-124797758D01*
X131652075Y-124829000D01*
X131491925Y-124829000D01*
X131334858Y-124797758D01*
X131186899Y-124736471D01*
X131053745Y-124647501D01*
X130940499Y-124534255D01*
X130851529Y-124401101D01*
X130790242Y-124253142D01*
X130759000Y-124096075D01*
X130759000Y-123935925D01*
X130790242Y-123778858D01*
X130851529Y-123630899D01*
X130940499Y-123497745D01*
X131053745Y-123384499D01*
X131186899Y-123295529D01*
X131334858Y-123234242D01*
X131491925Y-123203000D01*
X131652075Y-123203000D01*
X131809142Y-123234242D01*
X131809142Y-123234242D01*
G37*
G36*
X141969142Y-123234242D02*
G01*
X142117101Y-123295529D01*
X142250255Y-123384499D01*
X142363501Y-123497745D01*
X142452471Y-123630899D01*
X142513758Y-123778858D01*
X142545000Y-123935925D01*
X142545000Y-124096075D01*
X142513758Y-124253142D01*
X142452471Y-124401101D01*
X142363501Y-124534255D01*
X142250255Y-124647501D01*
X142117101Y-124736471D01*
X141969142Y-124797758D01*
X141812075Y-124829000D01*
X141651925Y-124829000D01*
X141494858Y-124797758D01*
X141346899Y-124736471D01*
X141213745Y-124647501D01*
X141100499Y-124534255D01*
X141011529Y-124401101D01*
X140950242Y-124253142D01*
X140919000Y-124096075D01*
X140919000Y-123935925D01*
X140950242Y-123778858D01*
X141011529Y-123630899D01*
X141100499Y-123497745D01*
X141213745Y-123384499D01*
X141346899Y-123295529D01*
X141494858Y-123234242D01*
X141651925Y-123203000D01*
X141812075Y-123203000D01*
X141969142Y-123234242D01*
X141969142Y-123234242D01*
G37*
G36*
X139429142Y-123234242D02*
G01*
X139577101Y-123295529D01*
X139710255Y-123384499D01*
X139823501Y-123497745D01*
X139912471Y-123630899D01*
X139973758Y-123778858D01*
X140005000Y-123935925D01*
X140005000Y-124096075D01*
X139973758Y-124253142D01*
X139912471Y-124401101D01*
X139823501Y-124534255D01*
X139710255Y-124647501D01*
X139577101Y-124736471D01*
X139429142Y-124797758D01*
X139272075Y-124829000D01*
X139111925Y-124829000D01*
X138954858Y-124797758D01*
X138806899Y-124736471D01*
X138673745Y-124647501D01*
X138560499Y-124534255D01*
X138471529Y-124401101D01*
X138410242Y-124253142D01*
X138379000Y-124096075D01*
X138379000Y-123935925D01*
X138410242Y-123778858D01*
X138471529Y-123630899D01*
X138560499Y-123497745D01*
X138673745Y-123384499D01*
X138806899Y-123295529D01*
X138954858Y-123234242D01*
X139111925Y-123203000D01*
X139272075Y-123203000D01*
X139429142Y-123234242D01*
X139429142Y-123234242D01*
G37*
G36*
X136889142Y-123234242D02*
G01*
X137037101Y-123295529D01*
X137170255Y-123384499D01*
X137283501Y-123497745D01*
X137372471Y-123630899D01*
X137433758Y-123778858D01*
X137465000Y-123935925D01*
X137465000Y-124096075D01*
X137433758Y-124253142D01*
X137372471Y-124401101D01*
X137283501Y-124534255D01*
X137170255Y-124647501D01*
X137037101Y-124736471D01*
X136889142Y-124797758D01*
X136732075Y-124829000D01*
X136571925Y-124829000D01*
X136414858Y-124797758D01*
X136266899Y-124736471D01*
X136133745Y-124647501D01*
X136020499Y-124534255D01*
X135931529Y-124401101D01*
X135870242Y-124253142D01*
X135839000Y-124096075D01*
X135839000Y-123935925D01*
X135870242Y-123778858D01*
X135931529Y-123630899D01*
X136020499Y-123497745D01*
X136133745Y-123384499D01*
X136266899Y-123295529D01*
X136414858Y-123234242D01*
X136571925Y-123203000D01*
X136732075Y-123203000D01*
X136889142Y-123234242D01*
X136889142Y-123234242D01*
G37*
G36*
X134349142Y-123234242D02*
G01*
X134497101Y-123295529D01*
X134630255Y-123384499D01*
X134743501Y-123497745D01*
X134832471Y-123630899D01*
X134893758Y-123778858D01*
X134925000Y-123935925D01*
X134925000Y-124096075D01*
X134893758Y-124253142D01*
X134832471Y-124401101D01*
X134743501Y-124534255D01*
X134630255Y-124647501D01*
X134497101Y-124736471D01*
X134349142Y-124797758D01*
X134192075Y-124829000D01*
X134031925Y-124829000D01*
X133874858Y-124797758D01*
X133726899Y-124736471D01*
X133593745Y-124647501D01*
X133480499Y-124534255D01*
X133391529Y-124401101D01*
X133330242Y-124253142D01*
X133299000Y-124096075D01*
X133299000Y-123935925D01*
X133330242Y-123778858D01*
X133391529Y-123630899D01*
X133480499Y-123497745D01*
X133593745Y-123384499D01*
X133726899Y-123295529D01*
X133874858Y-123234242D01*
X134031925Y-123203000D01*
X134192075Y-123203000D01*
X134349142Y-123234242D01*
X134349142Y-123234242D01*
G37*
G36*
X199023212Y-121117249D02*
G01*
X199117651Y-121145897D01*
X199204687Y-121192418D01*
X199280975Y-121255025D01*
X199343582Y-121331313D01*
X199390103Y-121418348D01*
X199418751Y-121512787D01*
X199426000Y-121586388D01*
X199426000Y-123235612D01*
X199418751Y-123309213D01*
X199390103Y-123403652D01*
X199343582Y-123490687D01*
X199280975Y-123566975D01*
X199204687Y-123629582D01*
X199117652Y-123676103D01*
X199023213Y-123704751D01*
X198925000Y-123714424D01*
X198826788Y-123704751D01*
X198732349Y-123676103D01*
X198645314Y-123629582D01*
X198569026Y-123566975D01*
X198506419Y-123490687D01*
X198459898Y-123403652D01*
X198431250Y-123309213D01*
X198424001Y-123235612D01*
X198424000Y-121586389D01*
X198431249Y-121512788D01*
X198459897Y-121418349D01*
X198506418Y-121331313D01*
X198569025Y-121255025D01*
X198645313Y-121192418D01*
X198732348Y-121145897D01*
X198826787Y-121117249D01*
X198925000Y-121107576D01*
X199023212Y-121117249D01*
X199023212Y-121117249D01*
G37*
G36*
X204103212Y-121117249D02*
G01*
X204197651Y-121145897D01*
X204284687Y-121192418D01*
X204360975Y-121255025D01*
X204423582Y-121331313D01*
X204470103Y-121418348D01*
X204498751Y-121512787D01*
X204506000Y-121586388D01*
X204506000Y-123235612D01*
X204498751Y-123309213D01*
X204470103Y-123403652D01*
X204423582Y-123490687D01*
X204360975Y-123566975D01*
X204284687Y-123629582D01*
X204197652Y-123676103D01*
X204103213Y-123704751D01*
X204005000Y-123714424D01*
X203906788Y-123704751D01*
X203812349Y-123676103D01*
X203725314Y-123629582D01*
X203649026Y-123566975D01*
X203586419Y-123490687D01*
X203539898Y-123403652D01*
X203511250Y-123309213D01*
X203504001Y-123235612D01*
X203504000Y-121586389D01*
X203511249Y-121512788D01*
X203539897Y-121418349D01*
X203586418Y-121331313D01*
X203649025Y-121255025D01*
X203725313Y-121192418D01*
X203812348Y-121145897D01*
X203906787Y-121117249D01*
X204005000Y-121107576D01*
X204103212Y-121117249D01*
X204103212Y-121117249D01*
G37*
G36*
X202833212Y-121117249D02*
G01*
X202927651Y-121145897D01*
X203014687Y-121192418D01*
X203090975Y-121255025D01*
X203153582Y-121331313D01*
X203200103Y-121418348D01*
X203228751Y-121512787D01*
X203236000Y-121586388D01*
X203236000Y-123235612D01*
X203228751Y-123309213D01*
X203200103Y-123403652D01*
X203153582Y-123490687D01*
X203090975Y-123566975D01*
X203014687Y-123629582D01*
X202927652Y-123676103D01*
X202833213Y-123704751D01*
X202735000Y-123714424D01*
X202636788Y-123704751D01*
X202542349Y-123676103D01*
X202455314Y-123629582D01*
X202379026Y-123566975D01*
X202316419Y-123490687D01*
X202269898Y-123403652D01*
X202241250Y-123309213D01*
X202234001Y-123235612D01*
X202234000Y-121586389D01*
X202241249Y-121512788D01*
X202269897Y-121418349D01*
X202316418Y-121331313D01*
X202379025Y-121255025D01*
X202455313Y-121192418D01*
X202542348Y-121145897D01*
X202636787Y-121117249D01*
X202735000Y-121107576D01*
X202833212Y-121117249D01*
X202833212Y-121117249D01*
G37*
G36*
X201563212Y-121117249D02*
G01*
X201657651Y-121145897D01*
X201744687Y-121192418D01*
X201820975Y-121255025D01*
X201883582Y-121331313D01*
X201930103Y-121418348D01*
X201958751Y-121512787D01*
X201966000Y-121586388D01*
X201966000Y-123235612D01*
X201958751Y-123309213D01*
X201930103Y-123403652D01*
X201883582Y-123490687D01*
X201820975Y-123566975D01*
X201744687Y-123629582D01*
X201657652Y-123676103D01*
X201563213Y-123704751D01*
X201465000Y-123714424D01*
X201366788Y-123704751D01*
X201272349Y-123676103D01*
X201185314Y-123629582D01*
X201109026Y-123566975D01*
X201046419Y-123490687D01*
X200999898Y-123403652D01*
X200971250Y-123309213D01*
X200964001Y-123235612D01*
X200964000Y-121586389D01*
X200971249Y-121512788D01*
X200999897Y-121418349D01*
X201046418Y-121331313D01*
X201109025Y-121255025D01*
X201185313Y-121192418D01*
X201272348Y-121145897D01*
X201366787Y-121117249D01*
X201465000Y-121107576D01*
X201563212Y-121117249D01*
X201563212Y-121117249D01*
G37*
G36*
X200293212Y-121117249D02*
G01*
X200387651Y-121145897D01*
X200474687Y-121192418D01*
X200550975Y-121255025D01*
X200613582Y-121331313D01*
X200660103Y-121418348D01*
X200688751Y-121512787D01*
X200696000Y-121586388D01*
X200696000Y-123235612D01*
X200688751Y-123309213D01*
X200660103Y-123403652D01*
X200613582Y-123490687D01*
X200550975Y-123566975D01*
X200474687Y-123629582D01*
X200387652Y-123676103D01*
X200293213Y-123704751D01*
X200195000Y-123714424D01*
X200096788Y-123704751D01*
X200002349Y-123676103D01*
X199915314Y-123629582D01*
X199839026Y-123566975D01*
X199776419Y-123490687D01*
X199729898Y-123403652D01*
X199701250Y-123309213D01*
X199694001Y-123235612D01*
X199694000Y-121586389D01*
X199701249Y-121512788D01*
X199729897Y-121418349D01*
X199776418Y-121331313D01*
X199839025Y-121255025D01*
X199915313Y-121192418D01*
X200002348Y-121145897D01*
X200096787Y-121117249D01*
X200195000Y-121107576D01*
X200293212Y-121117249D01*
X200293212Y-121117249D01*
G37*
G36*
X197753212Y-121117249D02*
G01*
X197847651Y-121145897D01*
X197934687Y-121192418D01*
X198010975Y-121255025D01*
X198073582Y-121331313D01*
X198120103Y-121418348D01*
X198148751Y-121512787D01*
X198156000Y-121586388D01*
X198156000Y-123235612D01*
X198148751Y-123309213D01*
X198120103Y-123403652D01*
X198073582Y-123490687D01*
X198010975Y-123566975D01*
X197934687Y-123629582D01*
X197847652Y-123676103D01*
X197753213Y-123704751D01*
X197655000Y-123714424D01*
X197556788Y-123704751D01*
X197462349Y-123676103D01*
X197375314Y-123629582D01*
X197299026Y-123566975D01*
X197236419Y-123490687D01*
X197189898Y-123403652D01*
X197161250Y-123309213D01*
X197154001Y-123235612D01*
X197154000Y-121586389D01*
X197161249Y-121512788D01*
X197189897Y-121418349D01*
X197236418Y-121331313D01*
X197299025Y-121255025D01*
X197375313Y-121192418D01*
X197462348Y-121145897D01*
X197556787Y-121117249D01*
X197655000Y-121107576D01*
X197753212Y-121117249D01*
X197753212Y-121117249D01*
G37*
G36*
X196483212Y-121117249D02*
G01*
X196577651Y-121145897D01*
X196664687Y-121192418D01*
X196740975Y-121255025D01*
X196803582Y-121331313D01*
X196850103Y-121418348D01*
X196878751Y-121512787D01*
X196886000Y-121586388D01*
X196886000Y-123235612D01*
X196878751Y-123309213D01*
X196850103Y-123403652D01*
X196803582Y-123490687D01*
X196740975Y-123566975D01*
X196664687Y-123629582D01*
X196577652Y-123676103D01*
X196483213Y-123704751D01*
X196385000Y-123714424D01*
X196286788Y-123704751D01*
X196192349Y-123676103D01*
X196105314Y-123629582D01*
X196029026Y-123566975D01*
X195966419Y-123490687D01*
X195919898Y-123403652D01*
X195891250Y-123309213D01*
X195884001Y-123235612D01*
X195884000Y-121586389D01*
X195891249Y-121512788D01*
X195919897Y-121418349D01*
X195966418Y-121331313D01*
X196029025Y-121255025D01*
X196105313Y-121192418D01*
X196192348Y-121145897D01*
X196286787Y-121117249D01*
X196385000Y-121107576D01*
X196483212Y-121117249D01*
X196483212Y-121117249D01*
G37*
G36*
X195213212Y-121117249D02*
G01*
X195307651Y-121145897D01*
X195394687Y-121192418D01*
X195470975Y-121255025D01*
X195533582Y-121331313D01*
X195580103Y-121418348D01*
X195608751Y-121512787D01*
X195616000Y-121586388D01*
X195616000Y-123235612D01*
X195608751Y-123309213D01*
X195580103Y-123403652D01*
X195533582Y-123490687D01*
X195470975Y-123566975D01*
X195394687Y-123629582D01*
X195307652Y-123676103D01*
X195213213Y-123704751D01*
X195115000Y-123714424D01*
X195016788Y-123704751D01*
X194922349Y-123676103D01*
X194835314Y-123629582D01*
X194759026Y-123566975D01*
X194696419Y-123490687D01*
X194649898Y-123403652D01*
X194621250Y-123309213D01*
X194614001Y-123235612D01*
X194614000Y-121586389D01*
X194621249Y-121512788D01*
X194649897Y-121418349D01*
X194696418Y-121331313D01*
X194759025Y-121255025D01*
X194835313Y-121192418D01*
X194922348Y-121145897D01*
X195016787Y-121117249D01*
X195115000Y-121107576D01*
X195213212Y-121117249D01*
X195213212Y-121117249D01*
G37*
G36*
X193943212Y-121117249D02*
G01*
X194037651Y-121145897D01*
X194124687Y-121192418D01*
X194200975Y-121255025D01*
X194263582Y-121331313D01*
X194310103Y-121418348D01*
X194338751Y-121512787D01*
X194346000Y-121586388D01*
X194346000Y-123235612D01*
X194338751Y-123309213D01*
X194310103Y-123403652D01*
X194263582Y-123490687D01*
X194200975Y-123566975D01*
X194124687Y-123629582D01*
X194037652Y-123676103D01*
X193943213Y-123704751D01*
X193845000Y-123714424D01*
X193746788Y-123704751D01*
X193652349Y-123676103D01*
X193565314Y-123629582D01*
X193489026Y-123566975D01*
X193426419Y-123490687D01*
X193379898Y-123403652D01*
X193351250Y-123309213D01*
X193344001Y-123235612D01*
X193344000Y-121586389D01*
X193351249Y-121512788D01*
X193379897Y-121418349D01*
X193426418Y-121331313D01*
X193489025Y-121255025D01*
X193565313Y-121192418D01*
X193652348Y-121145897D01*
X193746787Y-121117249D01*
X193845000Y-121107576D01*
X193943212Y-121117249D01*
X193943212Y-121117249D01*
G37*
G36*
X192673212Y-121117249D02*
G01*
X192767651Y-121145897D01*
X192854687Y-121192418D01*
X192930975Y-121255025D01*
X192993582Y-121331313D01*
X193040103Y-121418348D01*
X193068751Y-121512787D01*
X193076000Y-121586388D01*
X193076000Y-123235612D01*
X193068751Y-123309213D01*
X193040103Y-123403652D01*
X192993582Y-123490687D01*
X192930975Y-123566975D01*
X192854687Y-123629582D01*
X192767652Y-123676103D01*
X192673213Y-123704751D01*
X192575000Y-123714424D01*
X192476788Y-123704751D01*
X192382349Y-123676103D01*
X192295314Y-123629582D01*
X192219026Y-123566975D01*
X192156419Y-123490687D01*
X192109898Y-123403652D01*
X192081250Y-123309213D01*
X192074001Y-123235612D01*
X192074000Y-121586389D01*
X192081249Y-121512788D01*
X192109897Y-121418349D01*
X192156418Y-121331313D01*
X192219025Y-121255025D01*
X192295313Y-121192418D01*
X192382348Y-121145897D01*
X192476787Y-121117249D01*
X192575000Y-121107576D01*
X192673212Y-121117249D01*
X192673212Y-121117249D01*
G37*
G36*
X191403212Y-121117249D02*
G01*
X191497651Y-121145897D01*
X191584687Y-121192418D01*
X191660975Y-121255025D01*
X191723582Y-121331313D01*
X191770103Y-121418348D01*
X191798751Y-121512787D01*
X191806000Y-121586388D01*
X191806000Y-123235612D01*
X191798751Y-123309213D01*
X191770103Y-123403652D01*
X191723582Y-123490687D01*
X191660975Y-123566975D01*
X191584687Y-123629582D01*
X191497652Y-123676103D01*
X191403213Y-123704751D01*
X191305000Y-123714424D01*
X191206788Y-123704751D01*
X191112349Y-123676103D01*
X191025314Y-123629582D01*
X190949026Y-123566975D01*
X190886419Y-123490687D01*
X190839898Y-123403652D01*
X190811250Y-123309213D01*
X190804001Y-123235612D01*
X190804000Y-121586389D01*
X190811249Y-121512788D01*
X190839897Y-121418349D01*
X190886418Y-121331313D01*
X190949025Y-121255025D01*
X191025313Y-121192418D01*
X191112348Y-121145897D01*
X191206787Y-121117249D01*
X191305000Y-121107576D01*
X191403212Y-121117249D01*
X191403212Y-121117249D01*
G37*
G36*
X190133212Y-121117249D02*
G01*
X190227651Y-121145897D01*
X190314687Y-121192418D01*
X190390975Y-121255025D01*
X190453582Y-121331313D01*
X190500103Y-121418348D01*
X190528751Y-121512787D01*
X190536000Y-121586388D01*
X190536000Y-123235612D01*
X190528751Y-123309213D01*
X190500103Y-123403652D01*
X190453582Y-123490687D01*
X190390975Y-123566975D01*
X190314687Y-123629582D01*
X190227652Y-123676103D01*
X190133213Y-123704751D01*
X190035000Y-123714424D01*
X189936788Y-123704751D01*
X189842349Y-123676103D01*
X189755314Y-123629582D01*
X189679026Y-123566975D01*
X189616419Y-123490687D01*
X189569898Y-123403652D01*
X189541250Y-123309213D01*
X189534001Y-123235612D01*
X189534000Y-121586389D01*
X189541249Y-121512788D01*
X189569897Y-121418349D01*
X189616418Y-121331313D01*
X189679025Y-121255025D01*
X189755313Y-121192418D01*
X189842348Y-121145897D01*
X189936787Y-121117249D01*
X190035000Y-121107576D01*
X190133212Y-121117249D01*
X190133212Y-121117249D01*
G37*
G36*
X205373212Y-121117249D02*
G01*
X205467651Y-121145897D01*
X205554687Y-121192418D01*
X205630975Y-121255025D01*
X205693582Y-121331313D01*
X205740103Y-121418348D01*
X205768751Y-121512787D01*
X205776000Y-121586388D01*
X205776000Y-123235612D01*
X205768751Y-123309213D01*
X205740103Y-123403652D01*
X205693582Y-123490687D01*
X205630975Y-123566975D01*
X205554687Y-123629582D01*
X205467652Y-123676103D01*
X205373213Y-123704751D01*
X205275000Y-123714424D01*
X205176788Y-123704751D01*
X205082349Y-123676103D01*
X204995314Y-123629582D01*
X204919026Y-123566975D01*
X204856419Y-123490687D01*
X204809898Y-123403652D01*
X204781250Y-123309213D01*
X204774001Y-123235612D01*
X204774000Y-121586389D01*
X204781249Y-121512788D01*
X204809897Y-121418349D01*
X204856418Y-121331313D01*
X204919025Y-121255025D01*
X204995313Y-121192418D01*
X205082348Y-121145897D01*
X205176787Y-121117249D01*
X205275000Y-121107576D01*
X205373212Y-121117249D01*
X205373212Y-121117249D01*
G37*
G36*
X188863212Y-121117249D02*
G01*
X188957651Y-121145897D01*
X189044687Y-121192418D01*
X189120975Y-121255025D01*
X189183582Y-121331313D01*
X189230103Y-121418348D01*
X189258751Y-121512787D01*
X189266000Y-121586388D01*
X189266000Y-123235612D01*
X189258751Y-123309213D01*
X189230103Y-123403652D01*
X189183582Y-123490687D01*
X189120975Y-123566975D01*
X189044687Y-123629582D01*
X188957652Y-123676103D01*
X188863213Y-123704751D01*
X188765000Y-123714424D01*
X188666788Y-123704751D01*
X188572349Y-123676103D01*
X188485314Y-123629582D01*
X188409026Y-123566975D01*
X188346419Y-123490687D01*
X188299898Y-123403652D01*
X188271250Y-123309213D01*
X188264001Y-123235612D01*
X188264000Y-121586389D01*
X188271249Y-121512788D01*
X188299897Y-121418349D01*
X188346418Y-121331313D01*
X188409025Y-121255025D01*
X188485313Y-121192418D01*
X188572348Y-121145897D01*
X188666787Y-121117249D01*
X188765000Y-121107576D01*
X188863212Y-121117249D01*
X188863212Y-121117249D01*
G37*
G36*
X154186000Y-122627000D02*
G01*
X151884000Y-122627000D01*
X151884000Y-120325000D01*
X154186000Y-120325000D01*
X154186000Y-122627000D01*
X154186000Y-122627000D01*
G37*
G36*
X163364271Y-120336103D02*
G01*
X163420635Y-120341654D01*
X163637600Y-120407470D01*
X163637602Y-120407471D01*
X163837555Y-120514347D01*
X164012818Y-120658182D01*
X164156653Y-120833445D01*
X164217071Y-120946481D01*
X164263530Y-121033400D01*
X164329346Y-121250365D01*
X164329805Y-121255025D01*
X164351569Y-121476000D01*
X164329346Y-121701634D01*
X164263529Y-121918602D01*
X164156653Y-122118555D01*
X164012818Y-122293818D01*
X163837555Y-122437653D01*
X163637602Y-122544529D01*
X163637600Y-122544530D01*
X163420635Y-122610346D01*
X163364271Y-122615897D01*
X163251545Y-122627000D01*
X163138455Y-122627000D01*
X163025729Y-122615897D01*
X162969365Y-122610346D01*
X162752400Y-122544530D01*
X162752398Y-122544529D01*
X162552445Y-122437653D01*
X162377182Y-122293818D01*
X162233347Y-122118555D01*
X162126471Y-121918602D01*
X162060654Y-121701634D01*
X162038431Y-121476000D01*
X162060195Y-121255025D01*
X162060654Y-121250365D01*
X162126470Y-121033400D01*
X162172929Y-120946481D01*
X162233347Y-120833445D01*
X162377182Y-120658182D01*
X162552445Y-120514347D01*
X162752398Y-120407471D01*
X162752400Y-120407470D01*
X162969365Y-120341654D01*
X163025729Y-120336103D01*
X163138455Y-120325000D01*
X163251545Y-120325000D01*
X163364271Y-120336103D01*
X163364271Y-120336103D01*
G37*
G36*
X178556228Y-119585703D02*
G01*
X178711100Y-119649853D01*
X178850481Y-119742985D01*
X178969015Y-119861519D01*
X179062147Y-120000900D01*
X179126297Y-120155772D01*
X179159000Y-120320184D01*
X179159000Y-120487816D01*
X179126297Y-120652228D01*
X179062147Y-120807100D01*
X178969015Y-120946481D01*
X178850481Y-121065015D01*
X178711100Y-121158147D01*
X178556228Y-121222297D01*
X178391816Y-121255000D01*
X178224184Y-121255000D01*
X178059772Y-121222297D01*
X177904900Y-121158147D01*
X177765519Y-121065015D01*
X177646985Y-120946481D01*
X177553853Y-120807100D01*
X177489703Y-120652228D01*
X177457000Y-120487816D01*
X177457000Y-120320184D01*
X177489703Y-120155772D01*
X177553853Y-120000900D01*
X177646985Y-119861519D01*
X177765519Y-119742985D01*
X177904900Y-119649853D01*
X178059772Y-119585703D01*
X178224184Y-119553000D01*
X178391816Y-119553000D01*
X178556228Y-119585703D01*
X178556228Y-119585703D01*
G37*
G36*
X169912823Y-118033313D02*
G01*
X170073242Y-118081976D01*
X170205906Y-118152886D01*
X170221078Y-118160996D01*
X170350659Y-118267341D01*
X170457004Y-118396922D01*
X170457005Y-118396924D01*
X170536024Y-118544758D01*
X170584687Y-118705177D01*
X170601117Y-118872000D01*
X170584687Y-119038823D01*
X170536024Y-119199242D01*
X170472199Y-119318650D01*
X170457004Y-119347078D01*
X170350659Y-119476659D01*
X170221078Y-119583004D01*
X170221076Y-119583005D01*
X170073242Y-119662024D01*
X169912823Y-119710687D01*
X169787804Y-119723000D01*
X169704196Y-119723000D01*
X169579177Y-119710687D01*
X169418758Y-119662024D01*
X169270924Y-119583005D01*
X169270922Y-119583004D01*
X169141341Y-119476659D01*
X169034996Y-119347078D01*
X169019801Y-119318650D01*
X168955976Y-119199242D01*
X168907313Y-119038823D01*
X168890883Y-118872000D01*
X168907313Y-118705177D01*
X168955976Y-118544758D01*
X169034995Y-118396924D01*
X169034996Y-118396922D01*
X169141341Y-118267341D01*
X169270922Y-118160996D01*
X169286094Y-118152886D01*
X169418758Y-118081976D01*
X169579177Y-118033313D01*
X169704196Y-118021000D01*
X169787804Y-118021000D01*
X169912823Y-118033313D01*
X169912823Y-118033313D01*
G37*
G36*
X188173213Y-118632249D02*
G01*
X188267652Y-118660897D01*
X188354687Y-118707418D01*
X188430975Y-118770025D01*
X188493582Y-118846313D01*
X188540103Y-118933348D01*
X188568751Y-119027787D01*
X188578424Y-119126000D01*
X188568751Y-119224213D01*
X188540103Y-119318652D01*
X188493582Y-119405687D01*
X188430975Y-119481975D01*
X188354687Y-119544582D01*
X188267652Y-119591103D01*
X188173213Y-119619751D01*
X188099612Y-119627000D01*
X186450388Y-119627000D01*
X186376787Y-119619751D01*
X186282348Y-119591103D01*
X186195313Y-119544582D01*
X186119025Y-119481975D01*
X186056418Y-119405687D01*
X186009897Y-119318652D01*
X185981249Y-119224213D01*
X185971576Y-119126000D01*
X185981249Y-119027787D01*
X186009897Y-118933348D01*
X186056418Y-118846313D01*
X186119025Y-118770025D01*
X186195313Y-118707418D01*
X186282348Y-118660897D01*
X186376787Y-118632249D01*
X186450388Y-118625000D01*
X188099612Y-118625000D01*
X188173213Y-118632249D01*
X188173213Y-118632249D01*
G37*
G36*
X188173213Y-117362249D02*
G01*
X188267652Y-117390897D01*
X188354687Y-117437418D01*
X188430975Y-117500025D01*
X188493582Y-117576313D01*
X188540103Y-117663348D01*
X188568751Y-117757787D01*
X188578424Y-117856000D01*
X188568751Y-117954213D01*
X188540103Y-118048652D01*
X188493582Y-118135687D01*
X188430975Y-118211975D01*
X188354687Y-118274582D01*
X188267652Y-118321103D01*
X188173213Y-118349751D01*
X188099612Y-118357000D01*
X186450388Y-118357000D01*
X186376787Y-118349751D01*
X186282348Y-118321103D01*
X186195313Y-118274582D01*
X186119025Y-118211975D01*
X186056418Y-118135687D01*
X186009897Y-118048652D01*
X185981249Y-117954213D01*
X185971576Y-117856000D01*
X185981249Y-117757787D01*
X186009897Y-117663348D01*
X186056418Y-117576313D01*
X186119025Y-117500025D01*
X186195313Y-117437418D01*
X186282348Y-117390897D01*
X186376787Y-117362249D01*
X186450388Y-117355000D01*
X188099612Y-117355000D01*
X188173213Y-117362249D01*
X188173213Y-117362249D01*
G37*
G36*
X179159000Y-117755000D02*
G01*
X177457000Y-117755000D01*
X177457000Y-116053000D01*
X179159000Y-116053000D01*
X179159000Y-117755000D01*
X179159000Y-117755000D01*
G37*
G36*
X188173213Y-116092249D02*
G01*
X188267652Y-116120897D01*
X188354687Y-116167418D01*
X188430975Y-116230025D01*
X188493582Y-116306313D01*
X188540103Y-116393348D01*
X188568751Y-116487787D01*
X188578424Y-116586000D01*
X188568751Y-116684213D01*
X188540103Y-116778652D01*
X188493582Y-116865687D01*
X188430975Y-116941975D01*
X188354687Y-117004582D01*
X188267652Y-117051103D01*
X188173213Y-117079751D01*
X188099612Y-117087000D01*
X186450388Y-117087000D01*
X186376787Y-117079751D01*
X186282348Y-117051103D01*
X186195313Y-117004582D01*
X186119025Y-116941975D01*
X186056418Y-116865687D01*
X186009897Y-116778652D01*
X185981249Y-116684213D01*
X185971576Y-116586000D01*
X185981249Y-116487787D01*
X186009897Y-116393348D01*
X186056418Y-116306313D01*
X186119025Y-116230025D01*
X186195313Y-116167418D01*
X186282348Y-116120897D01*
X186376787Y-116092249D01*
X186450388Y-116085000D01*
X188099612Y-116085000D01*
X188173213Y-116092249D01*
X188173213Y-116092249D01*
G37*
G36*
X155823228Y-114815703D02*
G01*
X155978100Y-114879853D01*
X156117481Y-114972985D01*
X156236015Y-115091519D01*
X156329147Y-115230900D01*
X156393297Y-115385772D01*
X156426000Y-115550184D01*
X156426000Y-115717816D01*
X156393297Y-115882228D01*
X156329147Y-116037100D01*
X156236015Y-116176481D01*
X156117481Y-116295015D01*
X155978100Y-116388147D01*
X155823228Y-116452297D01*
X155658816Y-116485000D01*
X155491184Y-116485000D01*
X155326772Y-116452297D01*
X155171900Y-116388147D01*
X155032519Y-116295015D01*
X154913985Y-116176481D01*
X154820853Y-116037100D01*
X154756703Y-115882228D01*
X154724000Y-115717816D01*
X154724000Y-115550184D01*
X154756703Y-115385772D01*
X154820853Y-115230900D01*
X154913985Y-115091519D01*
X155032519Y-114972985D01*
X155171900Y-114879853D01*
X155326772Y-114815703D01*
X155491184Y-114783000D01*
X155658816Y-114783000D01*
X155823228Y-114815703D01*
X155823228Y-114815703D01*
G37*
G36*
X160823228Y-114815703D02*
G01*
X160978100Y-114879853D01*
X161117481Y-114972985D01*
X161236015Y-115091519D01*
X161329147Y-115230900D01*
X161393297Y-115385772D01*
X161426000Y-115550184D01*
X161426000Y-115717816D01*
X161393297Y-115882228D01*
X161329147Y-116037100D01*
X161236015Y-116176481D01*
X161117481Y-116295015D01*
X160978100Y-116388147D01*
X160823228Y-116452297D01*
X160658816Y-116485000D01*
X160491184Y-116485000D01*
X160326772Y-116452297D01*
X160171900Y-116388147D01*
X160032519Y-116295015D01*
X159913985Y-116176481D01*
X159820853Y-116037100D01*
X159756703Y-115882228D01*
X159724000Y-115717816D01*
X159724000Y-115550184D01*
X159756703Y-115385772D01*
X159820853Y-115230900D01*
X159913985Y-115091519D01*
X160032519Y-114972985D01*
X160171900Y-114879853D01*
X160326772Y-114815703D01*
X160491184Y-114783000D01*
X160658816Y-114783000D01*
X160823228Y-114815703D01*
X160823228Y-114815703D01*
G37*
G36*
X200626000Y-116162000D02*
G01*
X194524000Y-116162000D01*
X194524000Y-110060000D01*
X200626000Y-110060000D01*
X200626000Y-116162000D01*
X200626000Y-116162000D01*
G37*
G36*
X188173213Y-114822249D02*
G01*
X188267652Y-114850897D01*
X188354687Y-114897418D01*
X188430975Y-114960025D01*
X188493582Y-115036313D01*
X188540103Y-115123348D01*
X188568751Y-115217787D01*
X188578424Y-115316000D01*
X188568751Y-115414213D01*
X188540103Y-115508652D01*
X188493582Y-115595687D01*
X188430975Y-115671975D01*
X188354687Y-115734582D01*
X188267652Y-115781103D01*
X188173213Y-115809751D01*
X188099612Y-115817000D01*
X186450388Y-115817000D01*
X186376787Y-115809751D01*
X186282348Y-115781103D01*
X186195313Y-115734582D01*
X186119025Y-115671975D01*
X186056418Y-115595687D01*
X186009897Y-115508652D01*
X185981249Y-115414213D01*
X185971576Y-115316000D01*
X185981249Y-115217787D01*
X186009897Y-115123348D01*
X186056418Y-115036313D01*
X186119025Y-114960025D01*
X186195313Y-114897418D01*
X186282348Y-114850897D01*
X186376787Y-114822249D01*
X186450388Y-114815000D01*
X188099612Y-114815000D01*
X188173213Y-114822249D01*
X188173213Y-114822249D01*
G37*
G36*
X188173213Y-113552249D02*
G01*
X188267652Y-113580897D01*
X188354687Y-113627418D01*
X188430975Y-113690025D01*
X188493582Y-113766313D01*
X188540103Y-113853348D01*
X188568751Y-113947787D01*
X188578424Y-114046000D01*
X188568751Y-114144213D01*
X188540103Y-114238652D01*
X188493582Y-114325687D01*
X188430975Y-114401975D01*
X188354687Y-114464582D01*
X188267652Y-114511103D01*
X188173213Y-114539751D01*
X188099612Y-114547000D01*
X186450388Y-114547000D01*
X186376787Y-114539751D01*
X186282348Y-114511103D01*
X186195313Y-114464582D01*
X186119025Y-114401975D01*
X186056418Y-114325687D01*
X186009897Y-114238652D01*
X185981249Y-114144213D01*
X185971576Y-114046000D01*
X185981249Y-113947787D01*
X186009897Y-113853348D01*
X186056418Y-113766313D01*
X186119025Y-113690025D01*
X186195313Y-113627418D01*
X186282348Y-113580897D01*
X186376787Y-113552249D01*
X186450388Y-113545000D01*
X188099612Y-113545000D01*
X188173213Y-113552249D01*
X188173213Y-113552249D01*
G37*
G36*
X188173213Y-112282249D02*
G01*
X188267652Y-112310897D01*
X188354687Y-112357418D01*
X188430975Y-112420025D01*
X188493582Y-112496313D01*
X188540103Y-112583348D01*
X188568751Y-112677787D01*
X188578424Y-112776000D01*
X188568751Y-112874213D01*
X188540103Y-112968652D01*
X188493582Y-113055687D01*
X188430975Y-113131975D01*
X188354687Y-113194582D01*
X188267652Y-113241103D01*
X188173213Y-113269751D01*
X188099612Y-113277000D01*
X186450388Y-113277000D01*
X186376787Y-113269751D01*
X186282348Y-113241103D01*
X186195313Y-113194582D01*
X186119025Y-113131975D01*
X186056418Y-113055687D01*
X186009897Y-112968652D01*
X185981249Y-112874213D01*
X185971576Y-112776000D01*
X185981249Y-112677787D01*
X186009897Y-112583348D01*
X186056418Y-112496313D01*
X186119025Y-112420025D01*
X186195313Y-112357418D01*
X186282348Y-112310897D01*
X186376787Y-112282249D01*
X186450388Y-112275000D01*
X188099612Y-112275000D01*
X188173213Y-112282249D01*
X188173213Y-112282249D01*
G37*
G36*
X169994228Y-110433703D02*
G01*
X170149100Y-110497853D01*
X170288481Y-110590985D01*
X170407015Y-110709519D01*
X170500147Y-110848900D01*
X170564297Y-111003772D01*
X170597000Y-111168184D01*
X170597000Y-111335816D01*
X170564297Y-111500228D01*
X170500147Y-111655100D01*
X170407015Y-111794481D01*
X170288481Y-111913015D01*
X170149100Y-112006147D01*
X169994228Y-112070297D01*
X169829816Y-112103000D01*
X169662184Y-112103000D01*
X169497772Y-112070297D01*
X169342900Y-112006147D01*
X169203519Y-111913015D01*
X169084985Y-111794481D01*
X168991853Y-111655100D01*
X168927703Y-111500228D01*
X168895000Y-111335816D01*
X168895000Y-111168184D01*
X168927703Y-111003772D01*
X168991853Y-110848900D01*
X169084985Y-110709519D01*
X169203519Y-110590985D01*
X169342900Y-110497853D01*
X169497772Y-110433703D01*
X169662184Y-110401000D01*
X169829816Y-110401000D01*
X169994228Y-110433703D01*
X169994228Y-110433703D01*
G37*
G36*
X188173213Y-111012249D02*
G01*
X188267652Y-111040897D01*
X188354687Y-111087418D01*
X188430975Y-111150025D01*
X188493582Y-111226313D01*
X188540103Y-111313348D01*
X188568751Y-111407787D01*
X188578424Y-111506000D01*
X188568751Y-111604213D01*
X188540103Y-111698652D01*
X188493582Y-111785687D01*
X188430975Y-111861975D01*
X188354687Y-111924582D01*
X188267652Y-111971103D01*
X188173213Y-111999751D01*
X188099612Y-112007000D01*
X186450388Y-112007000D01*
X186376787Y-111999751D01*
X186282348Y-111971103D01*
X186195313Y-111924582D01*
X186119025Y-111861975D01*
X186056418Y-111785687D01*
X186009897Y-111698652D01*
X185981249Y-111604213D01*
X185971576Y-111506000D01*
X185981249Y-111407787D01*
X186009897Y-111313348D01*
X186056418Y-111226313D01*
X186119025Y-111150025D01*
X186195313Y-111087418D01*
X186282348Y-111040897D01*
X186376787Y-111012249D01*
X186450388Y-111005000D01*
X188099612Y-111005000D01*
X188173213Y-111012249D01*
X188173213Y-111012249D01*
G37*
G36*
X176016228Y-109861703D02*
G01*
X176171100Y-109925853D01*
X176310481Y-110018985D01*
X176429015Y-110137519D01*
X176522147Y-110276900D01*
X176586297Y-110431772D01*
X176619000Y-110596184D01*
X176619000Y-110763816D01*
X176586297Y-110928228D01*
X176522147Y-111083100D01*
X176429015Y-111222481D01*
X176310481Y-111341015D01*
X176171100Y-111434147D01*
X176016228Y-111498297D01*
X175851816Y-111531000D01*
X175684184Y-111531000D01*
X175519772Y-111498297D01*
X175364900Y-111434147D01*
X175225519Y-111341015D01*
X175106985Y-111222481D01*
X175013853Y-111083100D01*
X174949703Y-110928228D01*
X174917000Y-110763816D01*
X174917000Y-110596184D01*
X174949703Y-110431772D01*
X175013853Y-110276900D01*
X175106985Y-110137519D01*
X175225519Y-110018985D01*
X175364900Y-109925853D01*
X175519772Y-109861703D01*
X175684184Y-109829000D01*
X175851816Y-109829000D01*
X176016228Y-109861703D01*
X176016228Y-109861703D01*
G37*
G36*
X181014823Y-109841313D02*
G01*
X181175242Y-109889976D01*
X181225800Y-109917000D01*
X181323078Y-109968996D01*
X181452659Y-110075341D01*
X181559004Y-110204922D01*
X181559005Y-110204924D01*
X181638024Y-110352758D01*
X181686687Y-110513177D01*
X181703117Y-110680000D01*
X181686687Y-110846823D01*
X181638024Y-111007242D01*
X181597477Y-111083100D01*
X181559004Y-111155078D01*
X181452659Y-111284659D01*
X181323078Y-111391004D01*
X181323076Y-111391005D01*
X181175242Y-111470024D01*
X181014823Y-111518687D01*
X180889804Y-111531000D01*
X180806196Y-111531000D01*
X180681177Y-111518687D01*
X180520758Y-111470024D01*
X180372924Y-111391005D01*
X180372922Y-111391004D01*
X180243341Y-111284659D01*
X180136996Y-111155078D01*
X180098523Y-111083100D01*
X180057976Y-111007242D01*
X180009313Y-110846823D01*
X179992883Y-110680000D01*
X180009313Y-110513177D01*
X180057976Y-110352758D01*
X180136995Y-110204924D01*
X180136996Y-110204922D01*
X180243341Y-110075341D01*
X180372922Y-109968996D01*
X180470200Y-109917000D01*
X180520758Y-109889976D01*
X180681177Y-109841313D01*
X180806196Y-109829000D01*
X180889804Y-109829000D01*
X181014823Y-109841313D01*
X181014823Y-109841313D01*
G37*
G36*
X188173213Y-109742249D02*
G01*
X188267652Y-109770897D01*
X188354687Y-109817418D01*
X188430975Y-109880025D01*
X188493582Y-109956313D01*
X188540103Y-110043348D01*
X188568751Y-110137787D01*
X188578424Y-110236000D01*
X188568751Y-110334213D01*
X188540103Y-110428652D01*
X188493582Y-110515687D01*
X188430975Y-110591975D01*
X188354687Y-110654582D01*
X188267652Y-110701103D01*
X188173213Y-110729751D01*
X188099612Y-110737000D01*
X186450388Y-110737000D01*
X186376787Y-110729751D01*
X186282348Y-110701103D01*
X186195313Y-110654582D01*
X186119025Y-110591975D01*
X186056418Y-110515687D01*
X186009897Y-110428652D01*
X185981249Y-110334213D01*
X185971576Y-110236000D01*
X185981249Y-110137787D01*
X186009897Y-110043348D01*
X186056418Y-109956313D01*
X186119025Y-109880025D01*
X186195313Y-109817418D01*
X186282348Y-109770897D01*
X186376787Y-109742249D01*
X186450388Y-109735000D01*
X188099612Y-109735000D01*
X188173213Y-109742249D01*
X188173213Y-109742249D01*
G37*
G36*
X159671719Y-107829520D02*
G01*
X159860880Y-107886901D01*
X159860883Y-107886902D01*
X159953333Y-107936318D01*
X160035212Y-107980083D01*
X160188015Y-108105485D01*
X160313417Y-108258288D01*
X160406599Y-108432619D01*
X160463980Y-108621780D01*
X160478500Y-108769206D01*
X160478500Y-108962793D01*
X160463980Y-109110219D01*
X160406599Y-109299380D01*
X160406598Y-109299383D01*
X160394522Y-109321975D01*
X160313417Y-109473712D01*
X160188015Y-109626515D01*
X160035212Y-109751917D01*
X159860881Y-109845099D01*
X159671720Y-109902480D01*
X159475000Y-109921855D01*
X159278281Y-109902480D01*
X159089120Y-109845099D01*
X158914788Y-109751917D01*
X158761985Y-109626515D01*
X158636583Y-109473712D01*
X158543401Y-109299381D01*
X158486020Y-109110220D01*
X158471500Y-108962794D01*
X158471500Y-108769207D01*
X158486020Y-108621781D01*
X158543401Y-108432620D01*
X158543402Y-108432617D01*
X158592818Y-108340167D01*
X158636583Y-108258288D01*
X158761985Y-108105485D01*
X158914788Y-107980083D01*
X159089119Y-107886901D01*
X159278280Y-107829520D01*
X159475000Y-107810145D01*
X159671719Y-107829520D01*
X159671719Y-107829520D01*
G37*
G36*
X157131719Y-107829520D02*
G01*
X157320880Y-107886901D01*
X157320883Y-107886902D01*
X157413333Y-107936318D01*
X157495212Y-107980083D01*
X157648015Y-108105485D01*
X157773417Y-108258288D01*
X157866599Y-108432619D01*
X157923980Y-108621780D01*
X157938500Y-108769206D01*
X157938500Y-108962793D01*
X157923980Y-109110219D01*
X157866599Y-109299380D01*
X157866598Y-109299383D01*
X157854522Y-109321975D01*
X157773417Y-109473712D01*
X157648015Y-109626515D01*
X157495212Y-109751917D01*
X157320881Y-109845099D01*
X157131720Y-109902480D01*
X156935000Y-109921855D01*
X156738281Y-109902480D01*
X156549120Y-109845099D01*
X156374788Y-109751917D01*
X156221985Y-109626515D01*
X156096583Y-109473712D01*
X156003401Y-109299381D01*
X155946020Y-109110220D01*
X155931500Y-108962794D01*
X155931500Y-108769207D01*
X155946020Y-108621781D01*
X156003401Y-108432620D01*
X156003402Y-108432617D01*
X156052818Y-108340167D01*
X156096583Y-108258288D01*
X156221985Y-108105485D01*
X156374788Y-107980083D01*
X156549119Y-107886901D01*
X156738280Y-107829520D01*
X156935000Y-107810145D01*
X157131719Y-107829520D01*
X157131719Y-107829520D01*
G37*
G36*
X155398500Y-109917000D02*
G01*
X153391500Y-109917000D01*
X153391500Y-107815000D01*
X155398500Y-107815000D01*
X155398500Y-109917000D01*
X155398500Y-109917000D01*
G37*
G36*
X188173213Y-108472249D02*
G01*
X188267652Y-108500897D01*
X188354687Y-108547418D01*
X188430975Y-108610025D01*
X188493582Y-108686313D01*
X188540103Y-108773348D01*
X188568751Y-108867787D01*
X188578424Y-108966000D01*
X188568751Y-109064213D01*
X188540103Y-109158652D01*
X188493582Y-109245687D01*
X188430975Y-109321975D01*
X188354687Y-109384582D01*
X188267652Y-109431103D01*
X188173213Y-109459751D01*
X188099612Y-109467000D01*
X186450388Y-109467000D01*
X186376787Y-109459751D01*
X186282348Y-109431103D01*
X186195313Y-109384582D01*
X186119025Y-109321975D01*
X186056418Y-109245687D01*
X186009897Y-109158652D01*
X185981249Y-109064213D01*
X185971576Y-108966000D01*
X185981249Y-108867787D01*
X186009897Y-108773348D01*
X186056418Y-108686313D01*
X186119025Y-108610025D01*
X186195313Y-108547418D01*
X186282348Y-108500897D01*
X186376787Y-108472249D01*
X186450388Y-108465000D01*
X188099612Y-108465000D01*
X188173213Y-108472249D01*
X188173213Y-108472249D01*
G37*
G36*
X188173213Y-107202249D02*
G01*
X188267652Y-107230897D01*
X188354687Y-107277418D01*
X188430975Y-107340025D01*
X188493582Y-107416313D01*
X188540103Y-107503348D01*
X188568751Y-107597787D01*
X188578424Y-107696000D01*
X188568751Y-107794213D01*
X188540103Y-107888652D01*
X188493582Y-107975687D01*
X188430975Y-108051975D01*
X188354687Y-108114582D01*
X188267652Y-108161103D01*
X188173213Y-108189751D01*
X188099612Y-108197000D01*
X186450388Y-108197000D01*
X186376787Y-108189751D01*
X186282348Y-108161103D01*
X186195313Y-108114582D01*
X186119025Y-108051975D01*
X186056418Y-107975687D01*
X186009897Y-107888652D01*
X185981249Y-107794213D01*
X185971576Y-107696000D01*
X185981249Y-107597787D01*
X186009897Y-107503348D01*
X186056418Y-107416313D01*
X186119025Y-107340025D01*
X186195313Y-107277418D01*
X186282348Y-107230897D01*
X186376787Y-107202249D01*
X186450388Y-107195000D01*
X188099612Y-107195000D01*
X188173213Y-107202249D01*
X188173213Y-107202249D01*
G37*
G36*
X144509142Y-106470242D02*
G01*
X144657101Y-106531529D01*
X144790255Y-106620499D01*
X144903501Y-106733745D01*
X144992471Y-106866899D01*
X145053758Y-107014858D01*
X145085000Y-107171925D01*
X145085000Y-107332075D01*
X145053758Y-107489142D01*
X144992471Y-107637101D01*
X144903501Y-107770255D01*
X144790255Y-107883501D01*
X144657101Y-107972471D01*
X144509142Y-108033758D01*
X144352075Y-108065000D01*
X144191925Y-108065000D01*
X144034858Y-108033758D01*
X143886899Y-107972471D01*
X143753745Y-107883501D01*
X143640499Y-107770255D01*
X143551529Y-107637101D01*
X143490242Y-107489142D01*
X143459000Y-107332075D01*
X143459000Y-107171925D01*
X143490242Y-107014858D01*
X143551529Y-106866899D01*
X143640499Y-106733745D01*
X143753745Y-106620499D01*
X143886899Y-106531529D01*
X144034858Y-106470242D01*
X144191925Y-106439000D01*
X144352075Y-106439000D01*
X144509142Y-106470242D01*
X144509142Y-106470242D01*
G37*
G36*
X129269142Y-106470242D02*
G01*
X129417101Y-106531529D01*
X129550255Y-106620499D01*
X129663501Y-106733745D01*
X129752471Y-106866899D01*
X129813758Y-107014858D01*
X129845000Y-107171925D01*
X129845000Y-107332075D01*
X129813758Y-107489142D01*
X129752471Y-107637101D01*
X129663501Y-107770255D01*
X129550255Y-107883501D01*
X129417101Y-107972471D01*
X129269142Y-108033758D01*
X129112075Y-108065000D01*
X128951925Y-108065000D01*
X128794858Y-108033758D01*
X128646899Y-107972471D01*
X128513745Y-107883501D01*
X128400499Y-107770255D01*
X128311529Y-107637101D01*
X128250242Y-107489142D01*
X128219000Y-107332075D01*
X128219000Y-107171925D01*
X128250242Y-107014858D01*
X128311529Y-106866899D01*
X128400499Y-106733745D01*
X128513745Y-106620499D01*
X128646899Y-106531529D01*
X128794858Y-106470242D01*
X128951925Y-106439000D01*
X129112075Y-106439000D01*
X129269142Y-106470242D01*
X129269142Y-106470242D01*
G37*
G36*
X136889142Y-106470242D02*
G01*
X137037101Y-106531529D01*
X137170255Y-106620499D01*
X137283501Y-106733745D01*
X137372471Y-106866899D01*
X137433758Y-107014858D01*
X137465000Y-107171925D01*
X137465000Y-107332075D01*
X137433758Y-107489142D01*
X137372471Y-107637101D01*
X137283501Y-107770255D01*
X137170255Y-107883501D01*
X137037101Y-107972471D01*
X136889142Y-108033758D01*
X136732075Y-108065000D01*
X136571925Y-108065000D01*
X136414858Y-108033758D01*
X136266899Y-107972471D01*
X136133745Y-107883501D01*
X136020499Y-107770255D01*
X135931529Y-107637101D01*
X135870242Y-107489142D01*
X135839000Y-107332075D01*
X135839000Y-107171925D01*
X135870242Y-107014858D01*
X135931529Y-106866899D01*
X136020499Y-106733745D01*
X136133745Y-106620499D01*
X136266899Y-106531529D01*
X136414858Y-106470242D01*
X136571925Y-106439000D01*
X136732075Y-106439000D01*
X136889142Y-106470242D01*
X136889142Y-106470242D01*
G37*
G36*
X141969142Y-106470242D02*
G01*
X142117101Y-106531529D01*
X142250255Y-106620499D01*
X142363501Y-106733745D01*
X142452471Y-106866899D01*
X142513758Y-107014858D01*
X142545000Y-107171925D01*
X142545000Y-107332075D01*
X142513758Y-107489142D01*
X142452471Y-107637101D01*
X142363501Y-107770255D01*
X142250255Y-107883501D01*
X142117101Y-107972471D01*
X141969142Y-108033758D01*
X141812075Y-108065000D01*
X141651925Y-108065000D01*
X141494858Y-108033758D01*
X141346899Y-107972471D01*
X141213745Y-107883501D01*
X141100499Y-107770255D01*
X141011529Y-107637101D01*
X140950242Y-107489142D01*
X140919000Y-107332075D01*
X140919000Y-107171925D01*
X140950242Y-107014858D01*
X141011529Y-106866899D01*
X141100499Y-106733745D01*
X141213745Y-106620499D01*
X141346899Y-106531529D01*
X141494858Y-106470242D01*
X141651925Y-106439000D01*
X141812075Y-106439000D01*
X141969142Y-106470242D01*
X141969142Y-106470242D01*
G37*
G36*
X147049142Y-106470242D02*
G01*
X147197101Y-106531529D01*
X147330255Y-106620499D01*
X147443501Y-106733745D01*
X147532471Y-106866899D01*
X147593758Y-107014858D01*
X147625000Y-107171925D01*
X147625000Y-107332075D01*
X147593758Y-107489142D01*
X147532471Y-107637101D01*
X147443501Y-107770255D01*
X147330255Y-107883501D01*
X147197101Y-107972471D01*
X147049142Y-108033758D01*
X146892075Y-108065000D01*
X146731925Y-108065000D01*
X146574858Y-108033758D01*
X146426899Y-107972471D01*
X146293745Y-107883501D01*
X146180499Y-107770255D01*
X146091529Y-107637101D01*
X146030242Y-107489142D01*
X145999000Y-107332075D01*
X145999000Y-107171925D01*
X146030242Y-107014858D01*
X146091529Y-106866899D01*
X146180499Y-106733745D01*
X146293745Y-106620499D01*
X146426899Y-106531529D01*
X146574858Y-106470242D01*
X146731925Y-106439000D01*
X146892075Y-106439000D01*
X147049142Y-106470242D01*
X147049142Y-106470242D01*
G37*
G36*
X131809142Y-106470242D02*
G01*
X131957101Y-106531529D01*
X132090255Y-106620499D01*
X132203501Y-106733745D01*
X132292471Y-106866899D01*
X132353758Y-107014858D01*
X132385000Y-107171925D01*
X132385000Y-107332075D01*
X132353758Y-107489142D01*
X132292471Y-107637101D01*
X132203501Y-107770255D01*
X132090255Y-107883501D01*
X131957101Y-107972471D01*
X131809142Y-108033758D01*
X131652075Y-108065000D01*
X131491925Y-108065000D01*
X131334858Y-108033758D01*
X131186899Y-107972471D01*
X131053745Y-107883501D01*
X130940499Y-107770255D01*
X130851529Y-107637101D01*
X130790242Y-107489142D01*
X130759000Y-107332075D01*
X130759000Y-107171925D01*
X130790242Y-107014858D01*
X130851529Y-106866899D01*
X130940499Y-106733745D01*
X131053745Y-106620499D01*
X131186899Y-106531529D01*
X131334858Y-106470242D01*
X131491925Y-106439000D01*
X131652075Y-106439000D01*
X131809142Y-106470242D01*
X131809142Y-106470242D01*
G37*
G36*
X134349142Y-106470242D02*
G01*
X134497101Y-106531529D01*
X134630255Y-106620499D01*
X134743501Y-106733745D01*
X134832471Y-106866899D01*
X134893758Y-107014858D01*
X134925000Y-107171925D01*
X134925000Y-107332075D01*
X134893758Y-107489142D01*
X134832471Y-107637101D01*
X134743501Y-107770255D01*
X134630255Y-107883501D01*
X134497101Y-107972471D01*
X134349142Y-108033758D01*
X134192075Y-108065000D01*
X134031925Y-108065000D01*
X133874858Y-108033758D01*
X133726899Y-107972471D01*
X133593745Y-107883501D01*
X133480499Y-107770255D01*
X133391529Y-107637101D01*
X133330242Y-107489142D01*
X133299000Y-107332075D01*
X133299000Y-107171925D01*
X133330242Y-107014858D01*
X133391529Y-106866899D01*
X133480499Y-106733745D01*
X133593745Y-106620499D01*
X133726899Y-106531529D01*
X133874858Y-106470242D01*
X134031925Y-106439000D01*
X134192075Y-106439000D01*
X134349142Y-106470242D01*
X134349142Y-106470242D01*
G37*
G36*
X139429142Y-106470242D02*
G01*
X139577101Y-106531529D01*
X139710255Y-106620499D01*
X139823501Y-106733745D01*
X139912471Y-106866899D01*
X139973758Y-107014858D01*
X140005000Y-107171925D01*
X140005000Y-107332075D01*
X139973758Y-107489142D01*
X139912471Y-107637101D01*
X139823501Y-107770255D01*
X139710255Y-107883501D01*
X139577101Y-107972471D01*
X139429142Y-108033758D01*
X139272075Y-108065000D01*
X139111925Y-108065000D01*
X138954858Y-108033758D01*
X138806899Y-107972471D01*
X138673745Y-107883501D01*
X138560499Y-107770255D01*
X138471529Y-107637101D01*
X138410242Y-107489142D01*
X138379000Y-107332075D01*
X138379000Y-107171925D01*
X138410242Y-107014858D01*
X138471529Y-106866899D01*
X138560499Y-106733745D01*
X138673745Y-106620499D01*
X138806899Y-106531529D01*
X138954858Y-106470242D01*
X139111925Y-106439000D01*
X139272075Y-106439000D01*
X139429142Y-106470242D01*
X139429142Y-106470242D01*
G37*
G36*
X181604228Y-104527703D02*
G01*
X181759100Y-104591853D01*
X181898481Y-104684985D01*
X182017015Y-104803519D01*
X182110147Y-104942900D01*
X182174297Y-105097772D01*
X182207000Y-105262184D01*
X182207000Y-105429816D01*
X182174297Y-105594228D01*
X182110147Y-105749100D01*
X182017015Y-105888481D01*
X181898481Y-106007015D01*
X181759100Y-106100147D01*
X181604228Y-106164297D01*
X181439816Y-106197000D01*
X181272184Y-106197000D01*
X181107772Y-106164297D01*
X180952900Y-106100147D01*
X180813519Y-106007015D01*
X180694985Y-105888481D01*
X180601853Y-105749100D01*
X180537703Y-105594228D01*
X180505000Y-105429816D01*
X180505000Y-105262184D01*
X180537703Y-105097772D01*
X180601853Y-104942900D01*
X180694985Y-104803519D01*
X180813519Y-104684985D01*
X180952900Y-104591853D01*
X181107772Y-104527703D01*
X181272184Y-104495000D01*
X181439816Y-104495000D01*
X181604228Y-104527703D01*
X181604228Y-104527703D01*
G37*
G36*
X176604228Y-104527703D02*
G01*
X176759100Y-104591853D01*
X176898481Y-104684985D01*
X177017015Y-104803519D01*
X177110147Y-104942900D01*
X177174297Y-105097772D01*
X177207000Y-105262184D01*
X177207000Y-105429816D01*
X177174297Y-105594228D01*
X177110147Y-105749100D01*
X177017015Y-105888481D01*
X176898481Y-106007015D01*
X176759100Y-106100147D01*
X176604228Y-106164297D01*
X176439816Y-106197000D01*
X176272184Y-106197000D01*
X176107772Y-106164297D01*
X175952900Y-106100147D01*
X175813519Y-106007015D01*
X175694985Y-105888481D01*
X175601853Y-105749100D01*
X175537703Y-105594228D01*
X175505000Y-105429816D01*
X175505000Y-105262184D01*
X175537703Y-105097772D01*
X175601853Y-104942900D01*
X175694985Y-104803519D01*
X175813519Y-104684985D01*
X175952900Y-104591853D01*
X176107772Y-104527703D01*
X176272184Y-104495000D01*
X176439816Y-104495000D01*
X176604228Y-104527703D01*
X176604228Y-104527703D01*
G37*
G36*
X166999228Y-104401703D02*
G01*
X167154100Y-104465853D01*
X167293481Y-104558985D01*
X167412015Y-104677519D01*
X167505147Y-104816900D01*
X167569297Y-104971772D01*
X167602000Y-105136184D01*
X167602000Y-105303816D01*
X167569297Y-105468228D01*
X167505147Y-105623100D01*
X167412015Y-105762481D01*
X167293481Y-105881015D01*
X167154100Y-105974147D01*
X166999228Y-106038297D01*
X166834816Y-106071000D01*
X166667184Y-106071000D01*
X166502772Y-106038297D01*
X166347900Y-105974147D01*
X166208519Y-105881015D01*
X166089985Y-105762481D01*
X165996853Y-105623100D01*
X165932703Y-105468228D01*
X165900000Y-105303816D01*
X165900000Y-105136184D01*
X165932703Y-104971772D01*
X165996853Y-104816900D01*
X166089985Y-104677519D01*
X166208519Y-104558985D01*
X166347900Y-104465853D01*
X166502772Y-104401703D01*
X166667184Y-104369000D01*
X166834816Y-104369000D01*
X166999228Y-104401703D01*
X166999228Y-104401703D01*
G37*
G36*
X171997823Y-104381313D02*
G01*
X172158242Y-104429976D01*
X172225361Y-104465852D01*
X172306078Y-104508996D01*
X172435659Y-104615341D01*
X172542004Y-104744922D01*
X172542005Y-104744924D01*
X172621024Y-104892758D01*
X172669687Y-105053177D01*
X172686117Y-105220000D01*
X172669687Y-105386823D01*
X172621024Y-105547242D01*
X172580477Y-105623100D01*
X172542004Y-105695078D01*
X172435659Y-105824659D01*
X172306078Y-105931004D01*
X172306076Y-105931005D01*
X172158242Y-106010024D01*
X171997823Y-106058687D01*
X171872804Y-106071000D01*
X171789196Y-106071000D01*
X171664177Y-106058687D01*
X171503758Y-106010024D01*
X171355924Y-105931005D01*
X171355922Y-105931004D01*
X171226341Y-105824659D01*
X171119996Y-105695078D01*
X171081523Y-105623100D01*
X171040976Y-105547242D01*
X170992313Y-105386823D01*
X170975883Y-105220000D01*
X170992313Y-105053177D01*
X171040976Y-104892758D01*
X171119995Y-104744924D01*
X171119996Y-104744922D01*
X171226341Y-104615341D01*
X171355922Y-104508996D01*
X171436639Y-104465852D01*
X171503758Y-104429976D01*
X171664177Y-104381313D01*
X171789196Y-104369000D01*
X171872804Y-104369000D01*
X171997823Y-104381313D01*
X171997823Y-104381313D01*
G37*
G36*
X196483212Y-103117249D02*
G01*
X196577651Y-103145897D01*
X196664687Y-103192418D01*
X196740975Y-103255025D01*
X196803582Y-103331313D01*
X196850103Y-103418348D01*
X196878751Y-103512787D01*
X196886000Y-103586388D01*
X196886000Y-105235612D01*
X196878751Y-105309213D01*
X196850103Y-105403652D01*
X196803582Y-105490687D01*
X196740975Y-105566975D01*
X196664687Y-105629582D01*
X196577652Y-105676103D01*
X196483213Y-105704751D01*
X196385000Y-105714424D01*
X196286788Y-105704751D01*
X196192349Y-105676103D01*
X196105314Y-105629582D01*
X196029026Y-105566975D01*
X195966419Y-105490687D01*
X195919898Y-105403652D01*
X195891250Y-105309213D01*
X195884001Y-105235612D01*
X195884000Y-103586389D01*
X195891249Y-103512788D01*
X195919897Y-103418349D01*
X195966418Y-103331313D01*
X196029025Y-103255025D01*
X196105313Y-103192418D01*
X196192348Y-103145897D01*
X196286787Y-103117249D01*
X196385000Y-103107576D01*
X196483212Y-103117249D01*
X196483212Y-103117249D01*
G37*
G36*
X197753212Y-103117249D02*
G01*
X197847651Y-103145897D01*
X197934687Y-103192418D01*
X198010975Y-103255025D01*
X198073582Y-103331313D01*
X198120103Y-103418348D01*
X198148751Y-103512787D01*
X198156000Y-103586388D01*
X198156000Y-105235612D01*
X198148751Y-105309213D01*
X198120103Y-105403652D01*
X198073582Y-105490687D01*
X198010975Y-105566975D01*
X197934687Y-105629582D01*
X197847652Y-105676103D01*
X197753213Y-105704751D01*
X197655000Y-105714424D01*
X197556788Y-105704751D01*
X197462349Y-105676103D01*
X197375314Y-105629582D01*
X197299026Y-105566975D01*
X197236419Y-105490687D01*
X197189898Y-105403652D01*
X197161250Y-105309213D01*
X197154001Y-105235612D01*
X197154000Y-103586389D01*
X197161249Y-103512788D01*
X197189897Y-103418349D01*
X197236418Y-103331313D01*
X197299025Y-103255025D01*
X197375313Y-103192418D01*
X197462348Y-103145897D01*
X197556787Y-103117249D01*
X197655000Y-103107576D01*
X197753212Y-103117249D01*
X197753212Y-103117249D01*
G37*
G36*
X195213212Y-103117249D02*
G01*
X195307651Y-103145897D01*
X195394687Y-103192418D01*
X195470975Y-103255025D01*
X195533582Y-103331313D01*
X195580103Y-103418348D01*
X195608751Y-103512787D01*
X195616000Y-103586388D01*
X195616000Y-105235612D01*
X195608751Y-105309213D01*
X195580103Y-105403652D01*
X195533582Y-105490687D01*
X195470975Y-105566975D01*
X195394687Y-105629582D01*
X195307652Y-105676103D01*
X195213213Y-105704751D01*
X195115000Y-105714424D01*
X195016788Y-105704751D01*
X194922349Y-105676103D01*
X194835314Y-105629582D01*
X194759026Y-105566975D01*
X194696419Y-105490687D01*
X194649898Y-105403652D01*
X194621250Y-105309213D01*
X194614001Y-105235612D01*
X194614000Y-103586389D01*
X194621249Y-103512788D01*
X194649897Y-103418349D01*
X194696418Y-103331313D01*
X194759025Y-103255025D01*
X194835313Y-103192418D01*
X194922348Y-103145897D01*
X195016787Y-103117249D01*
X195115000Y-103107576D01*
X195213212Y-103117249D01*
X195213212Y-103117249D01*
G37*
G36*
X193943212Y-103117249D02*
G01*
X194037651Y-103145897D01*
X194124687Y-103192418D01*
X194200975Y-103255025D01*
X194263582Y-103331313D01*
X194310103Y-103418348D01*
X194338751Y-103512787D01*
X194346000Y-103586388D01*
X194346000Y-105235612D01*
X194338751Y-105309213D01*
X194310103Y-105403652D01*
X194263582Y-105490687D01*
X194200975Y-105566975D01*
X194124687Y-105629582D01*
X194037652Y-105676103D01*
X193943213Y-105704751D01*
X193845000Y-105714424D01*
X193746788Y-105704751D01*
X193652349Y-105676103D01*
X193565314Y-105629582D01*
X193489026Y-105566975D01*
X193426419Y-105490687D01*
X193379898Y-105403652D01*
X193351250Y-105309213D01*
X193344001Y-105235612D01*
X193344000Y-103586389D01*
X193351249Y-103512788D01*
X193379897Y-103418349D01*
X193426418Y-103331313D01*
X193489025Y-103255025D01*
X193565313Y-103192418D01*
X193652348Y-103145897D01*
X193746787Y-103117249D01*
X193845000Y-103107576D01*
X193943212Y-103117249D01*
X193943212Y-103117249D01*
G37*
G36*
X192673212Y-103117249D02*
G01*
X192767651Y-103145897D01*
X192854687Y-103192418D01*
X192930975Y-103255025D01*
X192993582Y-103331313D01*
X193040103Y-103418348D01*
X193068751Y-103512787D01*
X193076000Y-103586388D01*
X193076000Y-105235612D01*
X193068751Y-105309213D01*
X193040103Y-105403652D01*
X192993582Y-105490687D01*
X192930975Y-105566975D01*
X192854687Y-105629582D01*
X192767652Y-105676103D01*
X192673213Y-105704751D01*
X192575000Y-105714424D01*
X192476788Y-105704751D01*
X192382349Y-105676103D01*
X192295314Y-105629582D01*
X192219026Y-105566975D01*
X192156419Y-105490687D01*
X192109898Y-105403652D01*
X192081250Y-105309213D01*
X192074001Y-105235612D01*
X192074000Y-103586389D01*
X192081249Y-103512788D01*
X192109897Y-103418349D01*
X192156418Y-103331313D01*
X192219025Y-103255025D01*
X192295313Y-103192418D01*
X192382348Y-103145897D01*
X192476787Y-103117249D01*
X192575000Y-103107576D01*
X192673212Y-103117249D01*
X192673212Y-103117249D01*
G37*
G36*
X191403212Y-103117249D02*
G01*
X191497651Y-103145897D01*
X191584687Y-103192418D01*
X191660975Y-103255025D01*
X191723582Y-103331313D01*
X191770103Y-103418348D01*
X191798751Y-103512787D01*
X191806000Y-103586388D01*
X191806000Y-105235612D01*
X191798751Y-105309213D01*
X191770103Y-105403652D01*
X191723582Y-105490687D01*
X191660975Y-105566975D01*
X191584687Y-105629582D01*
X191497652Y-105676103D01*
X191403213Y-105704751D01*
X191305000Y-105714424D01*
X191206788Y-105704751D01*
X191112349Y-105676103D01*
X191025314Y-105629582D01*
X190949026Y-105566975D01*
X190886419Y-105490687D01*
X190839898Y-105403652D01*
X190811250Y-105309213D01*
X190804001Y-105235612D01*
X190804000Y-103586389D01*
X190811249Y-103512788D01*
X190839897Y-103418349D01*
X190886418Y-103331313D01*
X190949025Y-103255025D01*
X191025313Y-103192418D01*
X191112348Y-103145897D01*
X191206787Y-103117249D01*
X191305000Y-103107576D01*
X191403212Y-103117249D01*
X191403212Y-103117249D01*
G37*
G36*
X190133212Y-103117249D02*
G01*
X190227651Y-103145897D01*
X190314687Y-103192418D01*
X190390975Y-103255025D01*
X190453582Y-103331313D01*
X190500103Y-103418348D01*
X190528751Y-103512787D01*
X190536000Y-103586388D01*
X190536000Y-105235612D01*
X190528751Y-105309213D01*
X190500103Y-105403652D01*
X190453582Y-105490687D01*
X190390975Y-105566975D01*
X190314687Y-105629582D01*
X190227652Y-105676103D01*
X190133213Y-105704751D01*
X190035000Y-105714424D01*
X189936788Y-105704751D01*
X189842349Y-105676103D01*
X189755314Y-105629582D01*
X189679026Y-105566975D01*
X189616419Y-105490687D01*
X189569898Y-105403652D01*
X189541250Y-105309213D01*
X189534001Y-105235612D01*
X189534000Y-103586389D01*
X189541249Y-103512788D01*
X189569897Y-103418349D01*
X189616418Y-103331313D01*
X189679025Y-103255025D01*
X189755313Y-103192418D01*
X189842348Y-103145897D01*
X189936787Y-103117249D01*
X190035000Y-103107576D01*
X190133212Y-103117249D01*
X190133212Y-103117249D01*
G37*
G36*
X199023212Y-103117249D02*
G01*
X199117651Y-103145897D01*
X199204687Y-103192418D01*
X199280975Y-103255025D01*
X199343582Y-103331313D01*
X199390103Y-103418348D01*
X199418751Y-103512787D01*
X199426000Y-103586388D01*
X199426000Y-105235612D01*
X199418751Y-105309213D01*
X199390103Y-105403652D01*
X199343582Y-105490687D01*
X199280975Y-105566975D01*
X199204687Y-105629582D01*
X199117652Y-105676103D01*
X199023213Y-105704751D01*
X198925000Y-105714424D01*
X198826788Y-105704751D01*
X198732349Y-105676103D01*
X198645314Y-105629582D01*
X198569026Y-105566975D01*
X198506419Y-105490687D01*
X198459898Y-105403652D01*
X198431250Y-105309213D01*
X198424001Y-105235612D01*
X198424000Y-103586389D01*
X198431249Y-103512788D01*
X198459897Y-103418349D01*
X198506418Y-103331313D01*
X198569025Y-103255025D01*
X198645313Y-103192418D01*
X198732348Y-103145897D01*
X198826787Y-103117249D01*
X198925000Y-103107576D01*
X199023212Y-103117249D01*
X199023212Y-103117249D01*
G37*
G36*
X200293212Y-103117249D02*
G01*
X200387651Y-103145897D01*
X200474687Y-103192418D01*
X200550975Y-103255025D01*
X200613582Y-103331313D01*
X200660103Y-103418348D01*
X200688751Y-103512787D01*
X200696000Y-103586388D01*
X200696000Y-105235612D01*
X200688751Y-105309213D01*
X200660103Y-105403652D01*
X200613582Y-105490687D01*
X200550975Y-105566975D01*
X200474687Y-105629582D01*
X200387652Y-105676103D01*
X200293213Y-105704751D01*
X200195000Y-105714424D01*
X200096788Y-105704751D01*
X200002349Y-105676103D01*
X199915314Y-105629582D01*
X199839026Y-105566975D01*
X199776419Y-105490687D01*
X199729898Y-105403652D01*
X199701250Y-105309213D01*
X199694001Y-105235612D01*
X199694000Y-103586389D01*
X199701249Y-103512788D01*
X199729897Y-103418349D01*
X199776418Y-103331313D01*
X199839025Y-103255025D01*
X199915313Y-103192418D01*
X200002348Y-103145897D01*
X200096787Y-103117249D01*
X200195000Y-103107576D01*
X200293212Y-103117249D01*
X200293212Y-103117249D01*
G37*
G36*
X201563212Y-103117249D02*
G01*
X201657651Y-103145897D01*
X201744687Y-103192418D01*
X201820975Y-103255025D01*
X201883582Y-103331313D01*
X201930103Y-103418348D01*
X201958751Y-103512787D01*
X201966000Y-103586388D01*
X201966000Y-105235612D01*
X201958751Y-105309213D01*
X201930103Y-105403652D01*
X201883582Y-105490687D01*
X201820975Y-105566975D01*
X201744687Y-105629582D01*
X201657652Y-105676103D01*
X201563213Y-105704751D01*
X201465000Y-105714424D01*
X201366788Y-105704751D01*
X201272349Y-105676103D01*
X201185314Y-105629582D01*
X201109026Y-105566975D01*
X201046419Y-105490687D01*
X200999898Y-105403652D01*
X200971250Y-105309213D01*
X200964001Y-105235612D01*
X200964000Y-103586389D01*
X200971249Y-103512788D01*
X200999897Y-103418349D01*
X201046418Y-103331313D01*
X201109025Y-103255025D01*
X201185313Y-103192418D01*
X201272348Y-103145897D01*
X201366787Y-103117249D01*
X201465000Y-103107576D01*
X201563212Y-103117249D01*
X201563212Y-103117249D01*
G37*
G36*
X202833212Y-103117249D02*
G01*
X202927651Y-103145897D01*
X203014687Y-103192418D01*
X203090975Y-103255025D01*
X203153582Y-103331313D01*
X203200103Y-103418348D01*
X203228751Y-103512787D01*
X203236000Y-103586388D01*
X203236000Y-105235612D01*
X203228751Y-105309213D01*
X203200103Y-105403652D01*
X203153582Y-105490687D01*
X203090975Y-105566975D01*
X203014687Y-105629582D01*
X202927652Y-105676103D01*
X202833213Y-105704751D01*
X202735000Y-105714424D01*
X202636788Y-105704751D01*
X202542349Y-105676103D01*
X202455314Y-105629582D01*
X202379026Y-105566975D01*
X202316419Y-105490687D01*
X202269898Y-105403652D01*
X202241250Y-105309213D01*
X202234001Y-105235612D01*
X202234000Y-103586389D01*
X202241249Y-103512788D01*
X202269897Y-103418349D01*
X202316418Y-103331313D01*
X202379025Y-103255025D01*
X202455313Y-103192418D01*
X202542348Y-103145897D01*
X202636787Y-103117249D01*
X202735000Y-103107576D01*
X202833212Y-103117249D01*
X202833212Y-103117249D01*
G37*
G36*
X204103212Y-103117249D02*
G01*
X204197651Y-103145897D01*
X204284687Y-103192418D01*
X204360975Y-103255025D01*
X204423582Y-103331313D01*
X204470103Y-103418348D01*
X204498751Y-103512787D01*
X204506000Y-103586388D01*
X204506000Y-105235612D01*
X204498751Y-105309213D01*
X204470103Y-105403652D01*
X204423582Y-105490687D01*
X204360975Y-105566975D01*
X204284687Y-105629582D01*
X204197652Y-105676103D01*
X204103213Y-105704751D01*
X204005000Y-105714424D01*
X203906788Y-105704751D01*
X203812349Y-105676103D01*
X203725314Y-105629582D01*
X203649026Y-105566975D01*
X203586419Y-105490687D01*
X203539898Y-105403652D01*
X203511250Y-105309213D01*
X203504001Y-105235612D01*
X203504000Y-103586389D01*
X203511249Y-103512788D01*
X203539897Y-103418349D01*
X203586418Y-103331313D01*
X203649025Y-103255025D01*
X203725313Y-103192418D01*
X203812348Y-103145897D01*
X203906787Y-103117249D01*
X204005000Y-103107576D01*
X204103212Y-103117249D01*
X204103212Y-103117249D01*
G37*
G36*
X205373212Y-103117249D02*
G01*
X205467651Y-103145897D01*
X205554687Y-103192418D01*
X205630975Y-103255025D01*
X205693582Y-103331313D01*
X205740103Y-103418348D01*
X205768751Y-103512787D01*
X205776000Y-103586388D01*
X205776000Y-105235612D01*
X205768751Y-105309213D01*
X205740103Y-105403652D01*
X205693582Y-105490687D01*
X205630975Y-105566975D01*
X205554687Y-105629582D01*
X205467652Y-105676103D01*
X205373213Y-105704751D01*
X205275000Y-105714424D01*
X205176788Y-105704751D01*
X205082349Y-105676103D01*
X204995314Y-105629582D01*
X204919026Y-105566975D01*
X204856419Y-105490687D01*
X204809898Y-105403652D01*
X204781250Y-105309213D01*
X204774001Y-105235612D01*
X204774000Y-103586389D01*
X204781249Y-103512788D01*
X204809897Y-103418349D01*
X204856418Y-103331313D01*
X204919025Y-103255025D01*
X204995313Y-103192418D01*
X205082348Y-103145897D01*
X205176787Y-103117249D01*
X205275000Y-103107576D01*
X205373212Y-103117249D01*
X205373212Y-103117249D01*
G37*
G36*
X188863212Y-103117249D02*
G01*
X188957651Y-103145897D01*
X189044687Y-103192418D01*
X189120975Y-103255025D01*
X189183582Y-103331313D01*
X189230103Y-103418348D01*
X189258751Y-103512787D01*
X189266000Y-103586388D01*
X189266000Y-105235612D01*
X189258751Y-105309213D01*
X189230103Y-105403652D01*
X189183582Y-105490687D01*
X189120975Y-105566975D01*
X189044687Y-105629582D01*
X188957652Y-105676103D01*
X188863213Y-105704751D01*
X188765000Y-105714424D01*
X188666788Y-105704751D01*
X188572349Y-105676103D01*
X188485314Y-105629582D01*
X188409026Y-105566975D01*
X188346419Y-105490687D01*
X188299898Y-105403652D01*
X188271250Y-105309213D01*
X188264001Y-105235612D01*
X188264000Y-103586389D01*
X188271249Y-103512788D01*
X188299897Y-103418349D01*
X188346418Y-103331313D01*
X188409025Y-103255025D01*
X188485313Y-103192418D01*
X188572348Y-103145897D01*
X188666787Y-103117249D01*
X188765000Y-103107576D01*
X188863212Y-103117249D01*
X188863212Y-103117249D01*
G37*
G36*
X189200549Y-99256116D02*
G01*
X189311734Y-99278232D01*
X189521203Y-99364997D01*
X189709720Y-99490960D01*
X189870040Y-99651280D01*
X189996003Y-99839797D01*
X190082768Y-100049266D01*
X190104884Y-100160451D01*
X190127000Y-100271635D01*
X190127000Y-100498365D01*
X190104884Y-100609549D01*
X190082768Y-100720734D01*
X189996003Y-100930203D01*
X189870040Y-101118720D01*
X189709720Y-101279040D01*
X189521203Y-101405003D01*
X189311734Y-101491768D01*
X189200549Y-101513884D01*
X189089365Y-101536000D01*
X188862635Y-101536000D01*
X188751451Y-101513884D01*
X188640266Y-101491768D01*
X188430797Y-101405003D01*
X188242280Y-101279040D01*
X188081960Y-101118720D01*
X187955997Y-100930203D01*
X187869232Y-100720734D01*
X187847116Y-100609549D01*
X187825000Y-100498365D01*
X187825000Y-100271635D01*
X187847116Y-100160451D01*
X187869232Y-100049266D01*
X187955997Y-99839797D01*
X188081960Y-99651280D01*
X188242280Y-99490960D01*
X188430797Y-99364997D01*
X188640266Y-99278232D01*
X188751451Y-99256116D01*
X188862635Y-99234000D01*
X189089365Y-99234000D01*
X189200549Y-99256116D01*
X189200549Y-99256116D01*
G37*
G36*
X195700549Y-99256116D02*
G01*
X195811734Y-99278232D01*
X196021203Y-99364997D01*
X196209720Y-99490960D01*
X196370040Y-99651280D01*
X196496003Y-99839797D01*
X196582768Y-100049266D01*
X196604884Y-100160451D01*
X196627000Y-100271635D01*
X196627000Y-100498365D01*
X196604884Y-100609549D01*
X196582768Y-100720734D01*
X196496003Y-100930203D01*
X196370040Y-101118720D01*
X196209720Y-101279040D01*
X196021203Y-101405003D01*
X195811734Y-101491768D01*
X195700549Y-101513884D01*
X195589365Y-101536000D01*
X195362635Y-101536000D01*
X195251451Y-101513884D01*
X195140266Y-101491768D01*
X194930797Y-101405003D01*
X194742280Y-101279040D01*
X194581960Y-101118720D01*
X194455997Y-100930203D01*
X194369232Y-100720734D01*
X194347116Y-100609549D01*
X194325000Y-100498365D01*
X194325000Y-100271635D01*
X194347116Y-100160451D01*
X194369232Y-100049266D01*
X194455997Y-99839797D01*
X194581960Y-99651280D01*
X194742280Y-99490960D01*
X194930797Y-99364997D01*
X195140266Y-99278232D01*
X195251451Y-99256116D01*
X195362635Y-99234000D01*
X195589365Y-99234000D01*
X195700549Y-99256116D01*
X195700549Y-99256116D01*
G37*
G36*
X201162228Y-99829703D02*
G01*
X201317100Y-99893853D01*
X201456481Y-99986985D01*
X201575015Y-100105519D01*
X201668147Y-100244900D01*
X201732297Y-100399772D01*
X201765000Y-100564184D01*
X201765000Y-100731816D01*
X201732297Y-100896228D01*
X201668147Y-101051100D01*
X201575015Y-101190481D01*
X201456481Y-101309015D01*
X201317100Y-101402147D01*
X201162228Y-101466297D01*
X200997816Y-101499000D01*
X200830184Y-101499000D01*
X200665772Y-101466297D01*
X200510900Y-101402147D01*
X200371519Y-101309015D01*
X200252985Y-101190481D01*
X200159853Y-101051100D01*
X200095703Y-100896228D01*
X200063000Y-100731816D01*
X200063000Y-100564184D01*
X200095703Y-100399772D01*
X200159853Y-100244900D01*
X200252985Y-100105519D01*
X200371519Y-99986985D01*
X200510900Y-99893853D01*
X200665772Y-99829703D01*
X200830184Y-99797000D01*
X200997816Y-99797000D01*
X201162228Y-99829703D01*
X201162228Y-99829703D01*
G37*
G36*
X154697585Y-96395802D02*
G01*
X154847410Y-96425604D01*
X155129674Y-96542521D01*
X155383705Y-96712259D01*
X155599741Y-96928295D01*
X155769479Y-97182326D01*
X155886396Y-97464590D01*
X155946000Y-97764240D01*
X155946000Y-98069760D01*
X155886396Y-98369410D01*
X155769479Y-98651674D01*
X155599741Y-98905705D01*
X155383705Y-99121741D01*
X155129674Y-99291479D01*
X154847410Y-99408396D01*
X154697585Y-99438198D01*
X154547761Y-99468000D01*
X154242239Y-99468000D01*
X154092415Y-99438198D01*
X153942590Y-99408396D01*
X153660326Y-99291479D01*
X153406295Y-99121741D01*
X153190259Y-98905705D01*
X153020521Y-98651674D01*
X152903604Y-98369410D01*
X152844000Y-98069760D01*
X152844000Y-97764240D01*
X152903604Y-97464590D01*
X153020521Y-97182326D01*
X153190259Y-96928295D01*
X153406295Y-96712259D01*
X153660326Y-96542521D01*
X153942590Y-96425604D01*
X154092415Y-96395802D01*
X154242239Y-96366000D01*
X154547761Y-96366000D01*
X154697585Y-96395802D01*
X154697585Y-96395802D01*
G37*
G36*
X161026000Y-99468000D02*
G01*
X157924000Y-99468000D01*
X157924000Y-96366000D01*
X161026000Y-96366000D01*
X161026000Y-99468000D01*
X161026000Y-99468000D01*
G37*
G36*
X141018585Y-96268802D02*
G01*
X141168410Y-96298604D01*
X141450674Y-96415521D01*
X141704705Y-96585259D01*
X141920741Y-96801295D01*
X142090479Y-97055326D01*
X142207396Y-97337590D01*
X142267000Y-97637240D01*
X142267000Y-97942760D01*
X142207396Y-98242410D01*
X142090479Y-98524674D01*
X141920741Y-98778705D01*
X141704705Y-98994741D01*
X141450674Y-99164479D01*
X141168410Y-99281396D01*
X141117719Y-99291479D01*
X140868761Y-99341000D01*
X140563239Y-99341000D01*
X140314281Y-99291479D01*
X140263590Y-99281396D01*
X139981326Y-99164479D01*
X139727295Y-98994741D01*
X139511259Y-98778705D01*
X139341521Y-98524674D01*
X139224604Y-98242410D01*
X139165000Y-97942760D01*
X139165000Y-97637240D01*
X139224604Y-97337590D01*
X139341521Y-97055326D01*
X139511259Y-96801295D01*
X139727295Y-96585259D01*
X139981326Y-96415521D01*
X140263590Y-96298604D01*
X140413415Y-96268802D01*
X140563239Y-96239000D01*
X140868761Y-96239000D01*
X141018585Y-96268802D01*
X141018585Y-96268802D01*
G37*
G36*
X135938585Y-96268802D02*
G01*
X136088410Y-96298604D01*
X136370674Y-96415521D01*
X136624705Y-96585259D01*
X136840741Y-96801295D01*
X137010479Y-97055326D01*
X137127396Y-97337590D01*
X137187000Y-97637240D01*
X137187000Y-97942760D01*
X137127396Y-98242410D01*
X137010479Y-98524674D01*
X136840741Y-98778705D01*
X136624705Y-98994741D01*
X136370674Y-99164479D01*
X136088410Y-99281396D01*
X136037719Y-99291479D01*
X135788761Y-99341000D01*
X135483239Y-99341000D01*
X135234281Y-99291479D01*
X135183590Y-99281396D01*
X134901326Y-99164479D01*
X134647295Y-98994741D01*
X134431259Y-98778705D01*
X134261521Y-98524674D01*
X134144604Y-98242410D01*
X134085000Y-97942760D01*
X134085000Y-97637240D01*
X134144604Y-97337590D01*
X134261521Y-97055326D01*
X134431259Y-96801295D01*
X134647295Y-96585259D01*
X134901326Y-96415521D01*
X135183590Y-96298604D01*
X135333415Y-96268802D01*
X135483239Y-96239000D01*
X135788761Y-96239000D01*
X135938585Y-96268802D01*
X135938585Y-96268802D01*
G37*
G36*
X130858585Y-96268802D02*
G01*
X131008410Y-96298604D01*
X131290674Y-96415521D01*
X131544705Y-96585259D01*
X131760741Y-96801295D01*
X131930479Y-97055326D01*
X132047396Y-97337590D01*
X132107000Y-97637240D01*
X132107000Y-97942760D01*
X132047396Y-98242410D01*
X131930479Y-98524674D01*
X131760741Y-98778705D01*
X131544705Y-98994741D01*
X131290674Y-99164479D01*
X131008410Y-99281396D01*
X130957719Y-99291479D01*
X130708761Y-99341000D01*
X130403239Y-99341000D01*
X130154281Y-99291479D01*
X130103590Y-99281396D01*
X129821326Y-99164479D01*
X129567295Y-98994741D01*
X129351259Y-98778705D01*
X129181521Y-98524674D01*
X129064604Y-98242410D01*
X129005000Y-97942760D01*
X129005000Y-97637240D01*
X129064604Y-97337590D01*
X129181521Y-97055326D01*
X129351259Y-96801295D01*
X129567295Y-96585259D01*
X129821326Y-96415521D01*
X130103590Y-96298604D01*
X130253415Y-96268802D01*
X130403239Y-96239000D01*
X130708761Y-96239000D01*
X130858585Y-96268802D01*
X130858585Y-96268802D01*
G37*
G36*
X147347000Y-99341000D02*
G01*
X144245000Y-99341000D01*
X144245000Y-96239000D01*
X147347000Y-96239000D01*
X147347000Y-99341000D01*
X147347000Y-99341000D01*
G37*
G36*
X190127000Y-97036000D02*
G01*
X187825000Y-97036000D01*
X187825000Y-94734000D01*
X190127000Y-94734000D01*
X190127000Y-97036000D01*
X190127000Y-97036000D01*
G37*
G36*
X195700549Y-94756116D02*
G01*
X195811734Y-94778232D01*
X196021203Y-94864997D01*
X196209720Y-94990960D01*
X196370040Y-95151280D01*
X196496003Y-95339797D01*
X196582768Y-95549266D01*
X196627000Y-95771636D01*
X196627000Y-95998364D01*
X196585031Y-96209359D01*
X196582768Y-96220733D01*
X196502085Y-96415521D01*
X196496003Y-96430203D01*
X196370040Y-96618720D01*
X196209720Y-96779040D01*
X196021203Y-96905003D01*
X195811734Y-96991768D01*
X195700549Y-97013884D01*
X195589365Y-97036000D01*
X195362635Y-97036000D01*
X195251451Y-97013884D01*
X195140266Y-96991768D01*
X194930797Y-96905003D01*
X194742280Y-96779040D01*
X194581960Y-96618720D01*
X194455997Y-96430203D01*
X194449916Y-96415521D01*
X194369232Y-96220733D01*
X194366970Y-96209359D01*
X194325000Y-95998364D01*
X194325000Y-95771636D01*
X194369232Y-95549266D01*
X194455997Y-95339797D01*
X194581960Y-95151280D01*
X194742280Y-94990960D01*
X194930797Y-94864997D01*
X195140266Y-94778232D01*
X195251451Y-94756116D01*
X195362635Y-94734000D01*
X195589365Y-94734000D01*
X195700549Y-94756116D01*
X195700549Y-94756116D01*
G37*
G36*
X176057153Y-94456922D02*
G01*
X176149194Y-94495047D01*
X176279359Y-94548963D01*
X176479342Y-94682587D01*
X176649413Y-94852658D01*
X176783037Y-95052641D01*
X176823895Y-95151281D01*
X176875078Y-95274847D01*
X176922000Y-95510742D01*
X176922000Y-95751258D01*
X176875078Y-95987153D01*
X176848591Y-96051097D01*
X176783037Y-96209359D01*
X176649413Y-96409342D01*
X176479342Y-96579413D01*
X176279359Y-96713037D01*
X176149194Y-96766953D01*
X176057153Y-96805078D01*
X175821259Y-96852000D01*
X175580741Y-96852000D01*
X175344847Y-96805078D01*
X175252806Y-96766953D01*
X175122641Y-96713037D01*
X174922658Y-96579413D01*
X174752587Y-96409342D01*
X174618963Y-96209359D01*
X174553409Y-96051097D01*
X174526922Y-95987153D01*
X174480000Y-95751258D01*
X174480000Y-95510742D01*
X174526922Y-95274847D01*
X174578105Y-95151281D01*
X174618963Y-95052641D01*
X174752587Y-94852658D01*
X174922658Y-94682587D01*
X175122641Y-94548963D01*
X175252806Y-94495047D01*
X175344847Y-94456922D01*
X175462795Y-94433461D01*
X175580741Y-94410000D01*
X175821259Y-94410000D01*
X176057153Y-94456922D01*
X176057153Y-94456922D01*
G37*
G36*
X181057153Y-94456922D02*
G01*
X181149194Y-94495047D01*
X181279359Y-94548963D01*
X181479342Y-94682587D01*
X181649413Y-94852658D01*
X181783037Y-95052641D01*
X181823895Y-95151281D01*
X181875078Y-95274847D01*
X181922000Y-95510742D01*
X181922000Y-95751258D01*
X181875078Y-95987153D01*
X181848591Y-96051097D01*
X181783037Y-96209359D01*
X181649413Y-96409342D01*
X181479342Y-96579413D01*
X181279359Y-96713037D01*
X181149194Y-96766953D01*
X181057153Y-96805078D01*
X180821259Y-96852000D01*
X180580741Y-96852000D01*
X180344847Y-96805078D01*
X180252806Y-96766953D01*
X180122641Y-96713037D01*
X179922658Y-96579413D01*
X179752587Y-96409342D01*
X179618963Y-96209359D01*
X179553409Y-96051097D01*
X179526922Y-95987153D01*
X179480000Y-95751258D01*
X179480000Y-95510742D01*
X179526922Y-95274847D01*
X179578105Y-95151281D01*
X179618963Y-95052641D01*
X179752587Y-94852658D01*
X179922658Y-94682587D01*
X180122641Y-94548963D01*
X180252806Y-94495047D01*
X180344847Y-94456922D01*
X180462795Y-94433461D01*
X180580741Y-94410000D01*
X180821259Y-94410000D01*
X181057153Y-94456922D01*
X181057153Y-94456922D01*
G37*
G36*
X171057153Y-94456922D02*
G01*
X171149194Y-94495047D01*
X171279359Y-94548963D01*
X171479342Y-94682587D01*
X171649413Y-94852658D01*
X171783037Y-95052641D01*
X171823895Y-95151281D01*
X171875078Y-95274847D01*
X171922000Y-95510742D01*
X171922000Y-95751258D01*
X171875078Y-95987153D01*
X171848591Y-96051097D01*
X171783037Y-96209359D01*
X171649413Y-96409342D01*
X171479342Y-96579413D01*
X171279359Y-96713037D01*
X171149194Y-96766953D01*
X171057153Y-96805078D01*
X170821259Y-96852000D01*
X170580741Y-96852000D01*
X170344847Y-96805078D01*
X170252806Y-96766953D01*
X170122641Y-96713037D01*
X169922658Y-96579413D01*
X169752587Y-96409342D01*
X169618963Y-96209359D01*
X169553409Y-96051097D01*
X169526922Y-95987153D01*
X169480000Y-95751258D01*
X169480000Y-95510742D01*
X169526922Y-95274847D01*
X169578105Y-95151281D01*
X169618963Y-95052641D01*
X169752587Y-94852658D01*
X169922658Y-94682587D01*
X170122641Y-94548963D01*
X170252806Y-94495047D01*
X170344847Y-94456922D01*
X170462795Y-94433461D01*
X170580741Y-94410000D01*
X170821259Y-94410000D01*
X171057153Y-94456922D01*
X171057153Y-94456922D01*
G37*
G36*
X201162228Y-94829703D02*
G01*
X201317100Y-94893853D01*
X201456481Y-94986985D01*
X201575015Y-95105519D01*
X201668147Y-95244900D01*
X201732297Y-95399772D01*
X201765000Y-95564184D01*
X201765000Y-95731816D01*
X201732297Y-95896228D01*
X201668147Y-96051100D01*
X201575015Y-96190481D01*
X201456481Y-96309015D01*
X201317100Y-96402147D01*
X201162228Y-96466297D01*
X200997816Y-96499000D01*
X200830184Y-96499000D01*
X200665772Y-96466297D01*
X200510900Y-96402147D01*
X200371519Y-96309015D01*
X200252985Y-96190481D01*
X200159853Y-96051100D01*
X200095703Y-95896228D01*
X200063000Y-95731816D01*
X200063000Y-95564184D01*
X200095703Y-95399772D01*
X200159853Y-95244900D01*
X200252985Y-95105519D01*
X200371519Y-94986985D01*
X200510900Y-94893853D01*
X200665772Y-94829703D01*
X200830184Y-94797000D01*
X200997816Y-94797000D01*
X201162228Y-94829703D01*
X201162228Y-94829703D01*
G37*
M02*
