G04 #@! TF.GenerationSoftware,KiCad,Pcbnew,(5.1.0)-1*
G04 #@! TF.CreationDate,2020-06-14T14:54:15-05:00*
G04 #@! TF.ProjectId,ESP32_BridgeH,45535033-325f-4427-9269-646765482e6b,0*
G04 #@! TF.SameCoordinates,Original*
G04 #@! TF.FileFunction,Copper,L1,Top*
G04 #@! TF.FilePolarity,Positive*
%FSLAX46Y46*%
G04 Gerber Fmt 4.6, Leading zero omitted, Abs format (unit mm)*
G04 Created by KiCad (PCBNEW (5.1.0)-1) date 2020-06-14 14:54:15*
%MOMM*%
%LPD*%
G04 APERTURE LIST*
%ADD10R,6.000000X6.000000*%
%ADD11O,0.900000X2.500000*%
%ADD12O,2.500000X0.900000*%
%ADD13C,1.600000*%
%ADD14O,1.700000X1.700000*%
%ADD15R,1.700000X1.700000*%
%ADD16O,1.905000X2.000000*%
%ADD17R,1.905000X2.000000*%
%ADD18C,1.524000*%
%ADD19R,1.524000X1.524000*%
%ADD20O,1.600000X1.600000*%
%ADD21C,3.000000*%
%ADD22R,3.000000X3.000000*%
%ADD23O,2.200000X2.200000*%
%ADD24R,2.200000X2.200000*%
%ADD25C,1.800000*%
%ADD26R,1.800000X1.800000*%
%ADD27R,1.600000X1.600000*%
%ADD28C,2.340000*%
%ADD29C,2.200000*%
%ADD30C,0.800000*%
%ADD31C,1.000000*%
%ADD32C,0.889000*%
%ADD33C,0.762000*%
%ADD34C,0.508000*%
%ADD35C,1.016000*%
G04 APERTURE END LIST*
D10*
X197575000Y-113111000D03*
D11*
X205275000Y-104411000D03*
X204005000Y-104411000D03*
X202735000Y-104411000D03*
X201465000Y-104411000D03*
X200195000Y-104411000D03*
X198925000Y-104411000D03*
X197655000Y-104411000D03*
X196385000Y-104411000D03*
X195115000Y-104411000D03*
X193845000Y-104411000D03*
X192575000Y-104411000D03*
X191305000Y-104411000D03*
X190035000Y-104411000D03*
X188765000Y-104411000D03*
D12*
X187275000Y-107696000D03*
X187275000Y-108966000D03*
X187275000Y-110236000D03*
X187275000Y-111506000D03*
X187275000Y-112776000D03*
X187275000Y-114046000D03*
X187275000Y-115316000D03*
X187275000Y-116586000D03*
X187275000Y-117856000D03*
X187275000Y-119126000D03*
D11*
X188765000Y-122411000D03*
X190035000Y-122411000D03*
X191305000Y-122411000D03*
X192575000Y-122411000D03*
X193845000Y-122411000D03*
X195115000Y-122411000D03*
X196385000Y-122411000D03*
X197655000Y-122411000D03*
X198925000Y-122411000D03*
X200195000Y-122411000D03*
X201465000Y-122411000D03*
X202735000Y-122411000D03*
X204005000Y-122411000D03*
X205275000Y-122411000D03*
D13*
X176356000Y-105346000D03*
X181356000Y-105346000D03*
D14*
X151384000Y-135763000D03*
X153924000Y-135763000D03*
X156464000Y-135763000D03*
X159004000Y-135763000D03*
X161544000Y-135763000D03*
X164084000Y-135763000D03*
X166624000Y-135763000D03*
D15*
X169164000Y-135763000D03*
D16*
X159475000Y-108866000D03*
X156935000Y-108866000D03*
D17*
X154395000Y-108866000D03*
D18*
X146812000Y-107252000D03*
X146812000Y-124016000D03*
X144272000Y-124016000D03*
X144272000Y-107252000D03*
X141732000Y-124016000D03*
X141732000Y-107252000D03*
X139192000Y-107252000D03*
X139192000Y-124016000D03*
X136652000Y-124016000D03*
X136652000Y-107252000D03*
X134112000Y-124016000D03*
X134112000Y-107252000D03*
X131572000Y-107252000D03*
X129032000Y-107252000D03*
X131572000Y-124016000D03*
D19*
X129032000Y-124016000D03*
D20*
X170878000Y-126619000D03*
D13*
X163258000Y-126619000D03*
X169746000Y-111252000D03*
D20*
X169746000Y-118872000D03*
D14*
X196977000Y-135763000D03*
X194437000Y-135763000D03*
X191897000Y-135763000D03*
X189357000Y-135763000D03*
D15*
X186817000Y-135763000D03*
D14*
X179324000Y-135763000D03*
D15*
X176784000Y-135763000D03*
D21*
X130556000Y-97790000D03*
D22*
X145796000Y-97790000D03*
D21*
X135636000Y-97790000D03*
X140716000Y-97790000D03*
X135128000Y-133350000D03*
X140208000Y-133350000D03*
D22*
X130048000Y-133350000D03*
D21*
X145288000Y-133350000D03*
D23*
X163195000Y-121476000D03*
D24*
X153035000Y-121476000D03*
D25*
X196850000Y-128460000D03*
D26*
X194310000Y-128460000D03*
D27*
X177356000Y-125349000D03*
D13*
X177356000Y-127849000D03*
X178308000Y-120404000D03*
D27*
X178308000Y-116904000D03*
D13*
X154368000Y-129310000D03*
D27*
X154368000Y-126810000D03*
D21*
X154395000Y-97917000D03*
D22*
X159475000Y-97917000D03*
D28*
X170701000Y-95631000D03*
X175701000Y-95631000D03*
X180701000Y-95631000D03*
D13*
X200914000Y-95648000D03*
X200914000Y-100648000D03*
X155575000Y-115634000D03*
X160575000Y-115634000D03*
X184785000Y-128714000D03*
D20*
X189865000Y-128714000D03*
D13*
X166751000Y-105220000D03*
D20*
X171831000Y-105220000D03*
X180848000Y-110680000D03*
D13*
X175768000Y-110680000D03*
D24*
X188976000Y-95885000D03*
D29*
X195476000Y-95885000D03*
X195476000Y-100385000D03*
X188976000Y-100385000D03*
D30*
X198437500Y-114363500D03*
X197231000Y-114363500D03*
X196024500Y-114363500D03*
X198501000Y-111696500D03*
X197167500Y-111760000D03*
X195961000Y-111760000D03*
X198420000Y-113111000D03*
D31*
X184589700Y-115651800D03*
X202410600Y-102442100D03*
X181500000Y-108350000D03*
X184050000Y-104700000D03*
X186940000Y-129275100D03*
X177459300Y-132153400D03*
X178311700Y-105678600D03*
X191774200Y-102435900D03*
X145984800Y-112826000D03*
X185272600Y-114560300D03*
X193531800Y-106421400D03*
X179139700Y-98040300D03*
X147410100Y-101551800D03*
X173027000Y-100316500D03*
X191300000Y-100700000D03*
X183850000Y-101350000D03*
X150250000Y-99100000D03*
D18*
X203950000Y-129950000D03*
D31*
X166949000Y-128076400D03*
D18*
X183850000Y-117800000D03*
D31*
X180139500Y-116661600D03*
X185693200Y-120490600D03*
X199458600Y-106305800D03*
D30*
X180350000Y-99500000D03*
D32*
X187275000Y-107696000D02*
X185380200Y-107696000D01*
X180848000Y-110680000D02*
X182396200Y-110680000D01*
X182396200Y-110680000D02*
X185380200Y-107696000D01*
X163195000Y-121476000D02*
X177236000Y-121476000D01*
X177236000Y-121476000D02*
X178308000Y-120404000D01*
X199397400Y-113111000D02*
X198420000Y-113111000D01*
X199397400Y-113111000D02*
X201219800Y-113111000D01*
X205275000Y-122411000D02*
X205275000Y-120516200D01*
X205275000Y-120516200D02*
X201219800Y-116461000D01*
X201219800Y-116461000D02*
X201219800Y-113111000D01*
X170878000Y-126619000D02*
X172322800Y-126619000D01*
X177356000Y-127849000D02*
X173552800Y-127849000D01*
X173552800Y-127849000D02*
X172322800Y-126619000D01*
X200914000Y-100648000D02*
X203406800Y-100648000D01*
X203406800Y-100648000D02*
X205275000Y-102516200D01*
X195476000Y-100385000D02*
X200651000Y-100385000D01*
X200651000Y-100385000D02*
X200914000Y-100648000D01*
X205275000Y-104411000D02*
X205275000Y-102516200D01*
X198420000Y-113111000D02*
X197575000Y-113111000D01*
D33*
X134112000Y-125093630D02*
X135418370Y-126400000D01*
X134112000Y-124016000D02*
X134112000Y-125093630D01*
X135418370Y-126400000D02*
X146300000Y-126400000D01*
X146812000Y-125888000D02*
X146812000Y-124016000D01*
X146300000Y-126400000D02*
X146812000Y-125888000D01*
D34*
X189033000Y-107696000D02*
X189037000Y-107700000D01*
X187275000Y-107696000D02*
X189033000Y-107696000D01*
X189037000Y-107700000D02*
X189850000Y-107700000D01*
X189850000Y-107700000D02*
X192400000Y-110250000D01*
X194067000Y-113111000D02*
X197575000Y-113111000D01*
X192400000Y-111444000D02*
X194067000Y-113111000D01*
X192400000Y-110250000D02*
X192400000Y-111444000D01*
D35*
X156935000Y-110882000D02*
X156667000Y-111150000D01*
X156935000Y-108866000D02*
X156935000Y-110882000D01*
X156667000Y-111150000D02*
X148950000Y-111150000D01*
X146812000Y-109012000D02*
X146812000Y-107252000D01*
X148950000Y-111150000D02*
X146812000Y-109012000D01*
D33*
X169746000Y-118872000D02*
X173678100Y-118872000D01*
X173678100Y-118872000D02*
X177027400Y-115522700D01*
X177027400Y-115522700D02*
X184460600Y-115522700D01*
X184460600Y-115522700D02*
X184589700Y-115651800D01*
X202410600Y-102442100D02*
X202548200Y-102579700D01*
X202548200Y-102579700D02*
X202735000Y-102579700D01*
X202735000Y-104411000D02*
X202735000Y-102579700D01*
X190657300Y-95885000D02*
X188976000Y-95885000D01*
X192700000Y-98050000D02*
X190657300Y-95885000D01*
X200914000Y-95648000D02*
X199400000Y-98050000D01*
X199400000Y-98050000D02*
X192700000Y-98050000D01*
X169746000Y-111252000D02*
X163394800Y-111252000D01*
X163394800Y-111252000D02*
X161008800Y-108866000D01*
X159475000Y-108866000D02*
X161008800Y-108866000D01*
X131572000Y-122828000D02*
X131572000Y-124016000D01*
X175794000Y-125349000D02*
X175745000Y-125300000D01*
X132450000Y-121950000D02*
X131572000Y-122828000D01*
X177356000Y-125349000D02*
X175794000Y-125349000D01*
X173900000Y-125300000D02*
X172950000Y-124350000D01*
X172950000Y-124350000D02*
X151700000Y-124350000D01*
X149300000Y-121950000D02*
X132450000Y-121950000D01*
X175745000Y-125300000D02*
X173900000Y-125300000D01*
X151700000Y-124350000D02*
X149300000Y-121950000D01*
X157300000Y-105600000D02*
X159475000Y-108866000D01*
X136652000Y-107252000D02*
X138200000Y-105500000D01*
X138200000Y-105500000D02*
X157300000Y-105600000D01*
D34*
X204005000Y-104411000D02*
X204005000Y-106169000D01*
X204005000Y-106169000D02*
X202324000Y-107850000D01*
X191850000Y-107850000D02*
X190450000Y-106450000D01*
X202324000Y-107850000D02*
X191850000Y-107850000D01*
D33*
X170545999Y-110452001D02*
X170547999Y-110452001D01*
X169746000Y-111252000D02*
X170545999Y-110452001D01*
X170547999Y-110452001D02*
X172650000Y-108350000D01*
X172650000Y-108350000D02*
X178352000Y-108350000D01*
X178352000Y-108350000D02*
X181500000Y-108350000D01*
D34*
X184050000Y-106450000D02*
X184050000Y-107200000D01*
X190450000Y-106450000D02*
X184050000Y-106450000D01*
X182900000Y-108350000D02*
X181500000Y-108350000D01*
X184050000Y-107200000D02*
X182900000Y-108350000D01*
X184050000Y-104700000D02*
X184050000Y-106450000D01*
D33*
X185500000Y-130800000D02*
X186940000Y-129275100D01*
X163258000Y-126619000D02*
X167600000Y-130600000D01*
X167600000Y-130600000D02*
X185500000Y-130800000D01*
D35*
X153035000Y-121476000D02*
X153035000Y-120435000D01*
X153035000Y-120435000D02*
X152050000Y-119450000D01*
X152050000Y-119450000D02*
X130750000Y-119450000D01*
X129032000Y-121168000D02*
X129032000Y-124016000D01*
X130750000Y-119450000D02*
X129032000Y-121168000D01*
D33*
X189865000Y-128714000D02*
X189865000Y-128023300D01*
D34*
X188765000Y-127614000D02*
X188765000Y-122411000D01*
X189865000Y-128714000D02*
X188765000Y-127614000D01*
D33*
X186425600Y-132153400D02*
X189865000Y-128714000D01*
X177459300Y-132153400D02*
X186425600Y-132153400D01*
X200202800Y-129641600D02*
X200195000Y-122411000D01*
X198120000Y-132080000D02*
X200202800Y-129641600D01*
X189357000Y-135763000D02*
X193021700Y-132098300D01*
X193021700Y-132098300D02*
X198120000Y-132080000D01*
X201465000Y-130970200D02*
X201465000Y-122411000D01*
X199034400Y-133400800D02*
X201465000Y-130970200D01*
X191897000Y-135763000D02*
X194259200Y-133400800D01*
X194259200Y-133400800D02*
X199034400Y-133400800D01*
X130900000Y-104450000D02*
X163450000Y-104400000D01*
X165400000Y-107100000D02*
X177150000Y-107200000D01*
X129032000Y-107252000D02*
X130900000Y-104450000D01*
X163450000Y-104400000D02*
X165400000Y-107100000D01*
X177150000Y-107200000D02*
X178311700Y-105678600D01*
X191305000Y-104411000D02*
X191305000Y-102579700D01*
X191774200Y-102435900D02*
X191630400Y-102579700D01*
X191630400Y-102579700D02*
X191305000Y-102579700D01*
X130400000Y-109050000D02*
X131572000Y-107252000D01*
X128250000Y-109050000D02*
X130400000Y-109050000D01*
X185568000Y-104411000D02*
X183860300Y-102703300D01*
X188765000Y-104411000D02*
X185568000Y-104411000D01*
X183860300Y-102703300D02*
X129750000Y-102650000D01*
X129750000Y-102650000D02*
X127200000Y-105100000D01*
X127200000Y-105100000D02*
X127250000Y-108200000D01*
X127250000Y-108200000D02*
X128250000Y-109050000D01*
X186034000Y-108966000D02*
X187275000Y-108966000D01*
X145984800Y-112826000D02*
X182550000Y-112800000D01*
X182550000Y-112800000D02*
X186034000Y-108966000D01*
X196385000Y-106242300D02*
X196205900Y-106421400D01*
X196205900Y-106421400D02*
X193531800Y-106421400D01*
X196385000Y-104411000D02*
X196385000Y-106242300D01*
X176150000Y-114450000D02*
X185272600Y-114560300D01*
X173624131Y-117025869D02*
X176150000Y-114450000D01*
X147150000Y-117200000D02*
X173624131Y-117025869D01*
X139192000Y-107252000D02*
X139192000Y-107562400D01*
X139192000Y-107562400D02*
X147150000Y-117200000D01*
X195115000Y-104411000D02*
X195115000Y-102579700D01*
X179139700Y-98040300D02*
X190575600Y-98040300D01*
X190575600Y-98040300D02*
X195115000Y-102579700D01*
X171791700Y-101551800D02*
X147410100Y-101551800D01*
X173027000Y-100316500D02*
X171791700Y-101551800D01*
D34*
X192575000Y-104411000D02*
X192575000Y-103475000D01*
X192575000Y-103475000D02*
X193350000Y-102700000D01*
X193350000Y-102700000D02*
X193350000Y-102350000D01*
X193350000Y-102350000D02*
X191700000Y-100700000D01*
X191700000Y-100700000D02*
X191300000Y-100700000D01*
X183350000Y-100850000D02*
X183850000Y-101350000D01*
X151250000Y-100600000D02*
X161366759Y-100513354D01*
X150250000Y-99100000D02*
X151250000Y-100600000D01*
X161366759Y-100513354D02*
X162459202Y-98750000D01*
X162459202Y-98750000D02*
X173500000Y-98750000D01*
X173500000Y-98750000D02*
X175600000Y-100850000D01*
X175600000Y-100850000D02*
X183350000Y-100850000D01*
X204005000Y-122411000D02*
X204005000Y-129895000D01*
X204005000Y-129895000D02*
X203950000Y-129950000D01*
D33*
X168140300Y-129267700D02*
X166949000Y-128076400D01*
X179614200Y-129267700D02*
X168140300Y-129267700D01*
X188303822Y-120353822D02*
X179614200Y-129267700D01*
X202735000Y-122411000D02*
X202700000Y-120100000D01*
X202700000Y-120100000D02*
X188303822Y-120353822D01*
X199034400Y-129133600D02*
X198925000Y-122411000D01*
X197662800Y-130860800D02*
X199034400Y-129133600D01*
X191898610Y-131001390D02*
X197662800Y-130860800D01*
X188500000Y-134200000D02*
X191898610Y-131001390D01*
X161544000Y-135763000D02*
X163110000Y-134197000D01*
X163110000Y-134197000D02*
X188500000Y-134200000D01*
X190035000Y-124242300D02*
X190035000Y-122411000D01*
X191700000Y-125650000D02*
X190035000Y-124242300D01*
X191550000Y-129600000D02*
X191700000Y-125650000D01*
X187330000Y-133234700D02*
X191550000Y-129600000D01*
X151384000Y-135763000D02*
X153912300Y-133234700D01*
X153912300Y-133234700D02*
X187330000Y-133234700D01*
D34*
X187275000Y-117856000D02*
X183906000Y-117856000D01*
X183906000Y-117856000D02*
X183850000Y-117800000D01*
X175701000Y-98501000D02*
X175701000Y-95631000D01*
X190035000Y-102785000D02*
X189550000Y-102300000D01*
X189550000Y-102300000D02*
X186350000Y-102300000D01*
X186350000Y-102300000D02*
X183550000Y-99500000D01*
X190035000Y-104411000D02*
X190035000Y-102785000D01*
X183550000Y-99500000D02*
X176700000Y-99500000D01*
X176700000Y-99500000D02*
X175701000Y-98501000D01*
D32*
X198925000Y-106305800D02*
X199458600Y-106305800D01*
X198925000Y-104411000D02*
X198925000Y-106305800D01*
X180139500Y-116661600D02*
X183968500Y-120490600D01*
X183968500Y-120490600D02*
X185693200Y-120490600D01*
M02*
