G04 #@! TF.GenerationSoftware,KiCad,Pcbnew,5.1.5+dfsg1-2build2*
G04 #@! TF.CreationDate,2020-06-09T15:57:13-05:00*
G04 #@! TF.ProjectId,ESP32_BridgeH,45535033-325f-4427-9269-646765482e6b,0*
G04 #@! TF.SameCoordinates,Original*
G04 #@! TF.FileFunction,Copper,L2,Bot*
G04 #@! TF.FilePolarity,Positive*
%FSLAX46Y46*%
G04 Gerber Fmt 4.6, Leading zero omitted, Abs format (unit mm)*
G04 Created by KiCad (PCBNEW 5.1.5+dfsg1-2build2) date 2020-06-09 15:57:13*
%MOMM*%
%LPD*%
G04 APERTURE LIST*
%ADD10C,1.600000*%
%ADD11O,1.700000X1.700000*%
%ADD12R,1.700000X1.700000*%
%ADD13O,1.905000X2.000000*%
%ADD14R,1.905000X2.000000*%
%ADD15C,1.524000*%
%ADD16R,1.524000X1.524000*%
%ADD17O,1.600000X1.600000*%
%ADD18C,3.000000*%
%ADD19R,3.000000X3.000000*%
%ADD20O,2.200000X2.200000*%
%ADD21R,2.200000X2.200000*%
%ADD22C,1.800000*%
%ADD23R,1.800000X1.800000*%
%ADD24R,1.600000X1.600000*%
%ADD25C,2.340000*%
%ADD26C,2.200000*%
%ADD27C,0.800000*%
%ADD28C,1.000000*%
%ADD29C,0.889000*%
%ADD30C,0.762000*%
%ADD31C,0.254000*%
G04 APERTURE END LIST*
D10*
X176356000Y-105346000D03*
X181356000Y-105346000D03*
D11*
X151384000Y-135763000D03*
X153924000Y-135763000D03*
X156464000Y-135763000D03*
X159004000Y-135763000D03*
X161544000Y-135763000D03*
X164084000Y-135763000D03*
X166624000Y-135763000D03*
D12*
X169164000Y-135763000D03*
D13*
X159475000Y-108866000D03*
X156935000Y-108866000D03*
D14*
X154395000Y-108866000D03*
D15*
X146812000Y-107252000D03*
X146812000Y-124016000D03*
X144272000Y-124016000D03*
X144272000Y-107252000D03*
X141732000Y-124016000D03*
X141732000Y-107252000D03*
X139192000Y-107252000D03*
X139192000Y-124016000D03*
X136652000Y-124016000D03*
X136652000Y-107252000D03*
X134112000Y-124016000D03*
X134112000Y-107252000D03*
X131572000Y-107252000D03*
X129032000Y-107252000D03*
X131572000Y-124016000D03*
D16*
X129032000Y-124016000D03*
D17*
X170878000Y-126619000D03*
D10*
X163258000Y-126619000D03*
X169746000Y-111252000D03*
D17*
X169746000Y-118872000D03*
D11*
X196977000Y-135763000D03*
X194437000Y-135763000D03*
X191897000Y-135763000D03*
X189357000Y-135763000D03*
D12*
X186817000Y-135763000D03*
D11*
X179324000Y-135763000D03*
D12*
X176784000Y-135763000D03*
D18*
X130556000Y-97790000D03*
D19*
X145796000Y-97790000D03*
D18*
X135636000Y-97790000D03*
X140716000Y-97790000D03*
X135128000Y-133350000D03*
X140208000Y-133350000D03*
D19*
X130048000Y-133350000D03*
D18*
X145288000Y-133350000D03*
D20*
X163195000Y-121476000D03*
D21*
X153035000Y-121476000D03*
D22*
X196850000Y-128460000D03*
D23*
X194310000Y-128460000D03*
D24*
X177356000Y-125349000D03*
D10*
X177356000Y-127849000D03*
X178308000Y-120404000D03*
D24*
X178308000Y-116904000D03*
D10*
X154368000Y-129310000D03*
D24*
X154368000Y-126810000D03*
D18*
X154395000Y-97917000D03*
D19*
X159475000Y-97917000D03*
D25*
X170701000Y-95631000D03*
X175701000Y-95631000D03*
X180701000Y-95631000D03*
D10*
X200914000Y-95648000D03*
X200914000Y-100648000D03*
X155575000Y-115634000D03*
X160575000Y-115634000D03*
X184785000Y-128714000D03*
D17*
X189865000Y-128714000D03*
D10*
X166751000Y-105220000D03*
D17*
X171831000Y-105220000D03*
X180848000Y-110680000D03*
D10*
X175768000Y-110680000D03*
D21*
X188976000Y-95885000D03*
D26*
X195476000Y-95885000D03*
X195476000Y-100385000D03*
X188976000Y-100385000D03*
D27*
X198437500Y-114363500D03*
X197231000Y-114363500D03*
X196024500Y-114363500D03*
X198501000Y-111696500D03*
X197167500Y-111760000D03*
X195961000Y-111760000D03*
X196007000Y-113111000D03*
X197150000Y-113111000D03*
X198420000Y-113111000D03*
D28*
X184589700Y-115651800D03*
X202410600Y-102442100D03*
X186940000Y-129275100D03*
X177459300Y-132153400D03*
X191774200Y-102435900D03*
X178311700Y-105678600D03*
X145984800Y-112826000D03*
X185272600Y-114560300D03*
X193531800Y-106421400D03*
X179139700Y-98040300D03*
X173027000Y-100316500D03*
X147410100Y-101551800D03*
X190910500Y-101353300D03*
X183287200Y-103831500D03*
X147233600Y-103831500D03*
X166949000Y-128076400D03*
X180139500Y-116661600D03*
X185693200Y-120490600D03*
X199458600Y-106305800D03*
D29*
X180848000Y-110680000D02*
X180848000Y-112124800D01*
X178308000Y-120404000D02*
X181284300Y-117427700D01*
X181284300Y-117427700D02*
X181284300Y-112561100D01*
X181284300Y-112561100D02*
X180848000Y-112124800D01*
X155722500Y-117846100D02*
X158362900Y-117846100D01*
X158362900Y-117846100D02*
X160575000Y-115634000D01*
X156935000Y-108866000D02*
X156935000Y-111926200D01*
X156935000Y-111926200D02*
X154127300Y-114733900D01*
X154127300Y-114733900D02*
X154127300Y-116250900D01*
X154127300Y-116250900D02*
X155722500Y-117846100D01*
X151987000Y-125635900D02*
X155722500Y-121900400D01*
X155722500Y-121900400D02*
X155722500Y-117846100D01*
X146812000Y-124016000D02*
X148431900Y-125635900D01*
X148431900Y-125635900D02*
X151987000Y-125635900D01*
X151987000Y-125635900D02*
X151987000Y-127070400D01*
X151987000Y-127070400D02*
X154226600Y-129310000D01*
X154226600Y-129310000D02*
X154368000Y-129310000D01*
X146812000Y-107252000D02*
X154395000Y-99669000D01*
X154395000Y-99669000D02*
X154395000Y-97917000D01*
X176356000Y-105346000D02*
X180245200Y-109235200D01*
X180245200Y-109235200D02*
X180848000Y-109235200D01*
X170701000Y-95631000D02*
X170701000Y-99691000D01*
X170701000Y-99691000D02*
X176356000Y-105346000D01*
X195476000Y-100385000D02*
X185584500Y-110276500D01*
X185584500Y-110276500D02*
X180848000Y-110276500D01*
X180848000Y-110276500D02*
X180848000Y-109235200D01*
X180848000Y-110680000D02*
X180848000Y-110276500D01*
X195476000Y-100385000D02*
X195476000Y-95885000D01*
X169433200Y-126619000D02*
X169433200Y-125969400D01*
X169433200Y-125969400D02*
X164939800Y-121476000D01*
X154368000Y-129310000D02*
X155361000Y-129310000D01*
X155361000Y-129310000D02*
X163195000Y-121476000D01*
X170155600Y-126619000D02*
X166624000Y-130150600D01*
X166624000Y-130150600D02*
X166624000Y-135763000D01*
X170155600Y-126619000D02*
X169433200Y-126619000D01*
X170878000Y-126619000D02*
X170155600Y-126619000D01*
X194437000Y-135763000D02*
X194437000Y-134268200D01*
X194437000Y-134268200D02*
X200914000Y-127791200D01*
X200914000Y-127791200D02*
X200914000Y-100648000D01*
X179324000Y-135763000D02*
X179324000Y-129817000D01*
X179324000Y-129817000D02*
X177356000Y-127849000D01*
X163195000Y-121476000D02*
X164939800Y-121476000D01*
D30*
X188976000Y-95885000D02*
X188976000Y-97566300D01*
X188976000Y-100385000D02*
X188976000Y-97566300D01*
X154368000Y-126810000D02*
X155749300Y-126810000D01*
X155749300Y-126810000D02*
X155749300Y-126464700D01*
X155749300Y-126464700D02*
X163342000Y-118872000D01*
X163342000Y-118872000D02*
X169746000Y-118872000D01*
X200914000Y-95648000D02*
X202410600Y-97144600D01*
X202410600Y-97144600D02*
X202410600Y-102442100D01*
X185899200Y-115651800D02*
X184589700Y-115651800D01*
X198310500Y-104902000D02*
X187560700Y-115651800D01*
X187560700Y-115651800D02*
X185899200Y-115651800D01*
X198310500Y-96837500D02*
X198310500Y-104902000D01*
X200914000Y-95648000D02*
X198310500Y-96837500D01*
X186817000Y-131115400D02*
X186817000Y-135763000D01*
X184785000Y-128714000D02*
X186817000Y-130746000D01*
X186817000Y-130746000D02*
X186817000Y-131115400D01*
X186817000Y-131115400D02*
X194299900Y-131115400D01*
X194299900Y-131115400D02*
X196850000Y-128565300D01*
X196850000Y-128565300D02*
X196850000Y-128460000D01*
X177356000Y-125003600D02*
X169164000Y-133195600D01*
X169164000Y-133195600D02*
X169164000Y-135763000D01*
X177356000Y-125003600D02*
X177356000Y-124658300D01*
X177356000Y-125349000D02*
X177356000Y-125003600D01*
X177543700Y-119049600D02*
X176880400Y-119712900D01*
X176880400Y-119712900D02*
X176880400Y-123492100D01*
X176880400Y-123492100D02*
X177356000Y-123967700D01*
X178308000Y-118285300D02*
X177543700Y-119049600D01*
X177543700Y-119049600D02*
X169746000Y-111252000D01*
X177356000Y-124658300D02*
X180729300Y-124658300D01*
X180729300Y-124658300D02*
X184785000Y-128714000D01*
X177356000Y-124658300D02*
X177356000Y-123967700D01*
X178308000Y-116904000D02*
X178308000Y-118285300D01*
X180701000Y-95631000D02*
X181356000Y-96286000D01*
X181356000Y-96286000D02*
X181356000Y-105346000D01*
X192828700Y-128460000D02*
X191188500Y-130100200D01*
X191188500Y-130100200D02*
X187765100Y-130100200D01*
X187765100Y-130100200D02*
X186940000Y-129275100D01*
X194310000Y-128460000D02*
X192828700Y-128460000D01*
D29*
X161395500Y-101865500D02*
X159475000Y-99945000D01*
X159475000Y-99945000D02*
X159475000Y-98989400D01*
X166751000Y-105220000D02*
X164750000Y-105220000D01*
X164750000Y-105220000D02*
X161395500Y-101865500D01*
X161395500Y-101865500D02*
X154395000Y-108866000D01*
X154395000Y-108866000D02*
X154395000Y-110510800D01*
X153035000Y-121476000D02*
X153035000Y-111870800D01*
X153035000Y-111870800D02*
X154395000Y-110510800D01*
X159475000Y-97917000D02*
X159475000Y-98989400D01*
D30*
X145288000Y-133350000D02*
X145288000Y-130112000D01*
X145288000Y-130112000D02*
X139192000Y-124016000D01*
X137247800Y-136715500D02*
X135128000Y-133350000D01*
X142938500Y-136715500D02*
X137247800Y-136715500D01*
X145288000Y-133350000D02*
X142938500Y-136715500D01*
X136652000Y-129794000D02*
X136652000Y-124016000D01*
X140208000Y-133350000D02*
X136652000Y-129794000D01*
X130048000Y-131088000D02*
X130048000Y-133350000D01*
X131342000Y-129794000D02*
X130048000Y-131088000D01*
X136652000Y-129794000D02*
X131342000Y-129794000D01*
X132778500Y-94615000D02*
X130556000Y-97790000D01*
X139192000Y-94615000D02*
X132778500Y-94615000D01*
X140716000Y-97790000D02*
X139192000Y-94615000D01*
X130556000Y-97790000D02*
X124968000Y-101790500D01*
X124968000Y-101790500D02*
X124968000Y-108648500D01*
X140970001Y-123254001D02*
X141732000Y-124016000D01*
X140005660Y-122289660D02*
X140970001Y-123254001D01*
X138609160Y-122289660D02*
X140005660Y-122289660D01*
X124968000Y-108648500D02*
X138609160Y-122289660D01*
X144272000Y-124016000D02*
X143772000Y-124016000D01*
X128968500Y-109537500D02*
X143510001Y-123254001D01*
X127137001Y-108595001D02*
X128968500Y-109537500D01*
X126555500Y-108013500D02*
X127137001Y-108595001D01*
X126555500Y-105854500D02*
X126555500Y-108013500D01*
X143510001Y-123254001D02*
X144272000Y-124016000D01*
X145796000Y-100052000D02*
X144629000Y-101219000D01*
X145796000Y-97790000D02*
X145796000Y-100052000D01*
X131191000Y-101219000D02*
X126555500Y-105854500D01*
X135636000Y-99911320D02*
X135636000Y-101219000D01*
X135636000Y-97790000D02*
X135636000Y-99911320D01*
X135636000Y-101219000D02*
X131191000Y-101219000D01*
X144629000Y-101219000D02*
X135636000Y-101219000D01*
X176784000Y-135763000D02*
X176784000Y-132828700D01*
X176784000Y-132828700D02*
X177459300Y-132153400D01*
X178311700Y-105678600D02*
X179380800Y-106747700D01*
X179380800Y-106747700D02*
X187462400Y-106747700D01*
X187462400Y-106747700D02*
X191774200Y-102435900D01*
X134112000Y-107252000D02*
X139686000Y-112826000D01*
X139686000Y-112826000D02*
X145984800Y-112826000D01*
X193531800Y-106421400D02*
X185392900Y-114560300D01*
X185392900Y-114560300D02*
X185272600Y-114560300D01*
X147410100Y-101551800D02*
X141732000Y-107229900D01*
X141732000Y-107229900D02*
X141732000Y-107252000D01*
X179139700Y-98040300D02*
X175303200Y-98040300D01*
X175303200Y-98040300D02*
X173027000Y-100316500D01*
X144272000Y-107252000D02*
X144272000Y-106793100D01*
X144272000Y-106793100D02*
X147233600Y-103831500D01*
X190910500Y-101353300D02*
X188432300Y-103831500D01*
X188432300Y-103831500D02*
X183287200Y-103831500D01*
X164084000Y-135763000D02*
X164084000Y-130941400D01*
X164084000Y-130941400D02*
X166949000Y-128076400D01*
D29*
X185693200Y-120490600D02*
X199458600Y-106725200D01*
X199458600Y-106725200D02*
X199458600Y-106305800D01*
X180139500Y-116661600D02*
X180139500Y-115051500D01*
X180139500Y-115051500D02*
X175768000Y-110680000D01*
X171831000Y-106933200D02*
X164275800Y-106933200D01*
X164275800Y-106933200D02*
X155575000Y-115634000D01*
X175768000Y-110680000D02*
X172021200Y-106933200D01*
X172021200Y-106933200D02*
X171831000Y-106933200D01*
X171831000Y-106933200D02*
X171831000Y-105220000D01*
D31*
G36*
X130804933Y-95662689D02*
G01*
X130766279Y-95655000D01*
X130345721Y-95655000D01*
X129933244Y-95737047D01*
X129544698Y-95897988D01*
X129195017Y-96131637D01*
X128897637Y-96429017D01*
X128663988Y-96778698D01*
X128503047Y-97167244D01*
X128421000Y-97579721D01*
X128421000Y-98000279D01*
X128432955Y-98060383D01*
X124430535Y-100925752D01*
X124400810Y-100941640D01*
X124349343Y-100983878D01*
X124335999Y-100993431D01*
X124310808Y-101015503D01*
X124246104Y-101068604D01*
X124235614Y-101081386D01*
X124223185Y-101092276D01*
X124172235Y-101158613D01*
X124119140Y-101223310D01*
X124111346Y-101237892D01*
X124101280Y-101250998D01*
X124064242Y-101326019D01*
X124024798Y-101399814D01*
X124020000Y-101415630D01*
X124012682Y-101430453D01*
X123990988Y-101511270D01*
X123966702Y-101591330D01*
X123965082Y-101607779D01*
X123960796Y-101623745D01*
X123955286Y-101707235D01*
X123952000Y-101740599D01*
X123952000Y-101757029D01*
X123947617Y-101823444D01*
X123952000Y-101856852D01*
X123952001Y-108598588D01*
X123947085Y-108648500D01*
X123966702Y-108847670D01*
X124017401Y-109014798D01*
X124024799Y-109039187D01*
X124119141Y-109215690D01*
X124246105Y-109370396D01*
X124284868Y-109402208D01*
X137855452Y-122972793D01*
X137887264Y-123011556D01*
X138041970Y-123138520D01*
X138083371Y-123160649D01*
X137953995Y-123354273D01*
X137922000Y-123431515D01*
X137890005Y-123354273D01*
X137737120Y-123125465D01*
X137542535Y-122930880D01*
X137313727Y-122777995D01*
X137059490Y-122672686D01*
X136789592Y-122619000D01*
X136514408Y-122619000D01*
X136244510Y-122672686D01*
X135990273Y-122777995D01*
X135761465Y-122930880D01*
X135566880Y-123125465D01*
X135413995Y-123354273D01*
X135384308Y-123425943D01*
X135379636Y-123412977D01*
X135317656Y-123297020D01*
X135077565Y-123230040D01*
X134291605Y-124016000D01*
X135077565Y-124801960D01*
X135317656Y-124734980D01*
X135381485Y-124599240D01*
X135413995Y-124677727D01*
X135566880Y-124906535D01*
X135636001Y-124975656D01*
X135636000Y-128778000D01*
X131391893Y-128778000D01*
X131341999Y-128773086D01*
X131292105Y-128778000D01*
X131292098Y-128778000D01*
X131162177Y-128790796D01*
X131142828Y-128792702D01*
X131084732Y-128810326D01*
X130951313Y-128850798D01*
X130774810Y-128945140D01*
X130620104Y-129072104D01*
X130588292Y-129110867D01*
X129364872Y-130334288D01*
X129326104Y-130366104D01*
X129199140Y-130520810D01*
X129104798Y-130697314D01*
X129088750Y-130750217D01*
X129046702Y-130888830D01*
X129027085Y-131088000D01*
X129032000Y-131137902D01*
X129032000Y-131211928D01*
X128548000Y-131211928D01*
X128423518Y-131224188D01*
X128303820Y-131260498D01*
X128193506Y-131319463D01*
X128096815Y-131398815D01*
X128017463Y-131495506D01*
X127958498Y-131605820D01*
X127922188Y-131725518D01*
X127909928Y-131850000D01*
X127909928Y-134850000D01*
X127922188Y-134974482D01*
X127958498Y-135094180D01*
X128017463Y-135204494D01*
X128096815Y-135301185D01*
X128193506Y-135380537D01*
X128303820Y-135439502D01*
X128423518Y-135475812D01*
X128548000Y-135488072D01*
X131548000Y-135488072D01*
X131672482Y-135475812D01*
X131792180Y-135439502D01*
X131902494Y-135380537D01*
X131999185Y-135301185D01*
X132078537Y-135204494D01*
X132137502Y-135094180D01*
X132173812Y-134974482D01*
X132186072Y-134850000D01*
X132186072Y-131850000D01*
X132173812Y-131725518D01*
X132137502Y-131605820D01*
X132078537Y-131495506D01*
X131999185Y-131398815D01*
X131902494Y-131319463D01*
X131792180Y-131260498D01*
X131672482Y-131224188D01*
X131548000Y-131211928D01*
X131360912Y-131211928D01*
X131762841Y-130810000D01*
X136231160Y-130810000D01*
X138153945Y-132732785D01*
X138073000Y-133139721D01*
X138073000Y-133560279D01*
X138155047Y-133972756D01*
X138315988Y-134361302D01*
X138549637Y-134710983D01*
X138847017Y-135008363D01*
X139196698Y-135242012D01*
X139585244Y-135402953D01*
X139997721Y-135485000D01*
X140418279Y-135485000D01*
X140830756Y-135402953D01*
X141219302Y-135242012D01*
X141568983Y-135008363D01*
X141866363Y-134710983D01*
X142100012Y-134361302D01*
X142260953Y-133972756D01*
X142343000Y-133560279D01*
X142343000Y-133139721D01*
X142260953Y-132727244D01*
X142100012Y-132338698D01*
X141866363Y-131989017D01*
X141568983Y-131691637D01*
X141219302Y-131457988D01*
X140830756Y-131297047D01*
X140418279Y-131215000D01*
X139997721Y-131215000D01*
X139590785Y-131295945D01*
X137668000Y-129373160D01*
X137668000Y-124975655D01*
X137737120Y-124906535D01*
X137890005Y-124677727D01*
X137922000Y-124600485D01*
X137953995Y-124677727D01*
X138106880Y-124906535D01*
X138301465Y-125101120D01*
X138530273Y-125254005D01*
X138784510Y-125359314D01*
X139054408Y-125413000D01*
X139152160Y-125413000D01*
X144272001Y-130532842D01*
X144272001Y-131461127D01*
X143927017Y-131691637D01*
X143629637Y-131989017D01*
X143395988Y-132338698D01*
X143235047Y-132727244D01*
X143153000Y-133139721D01*
X143153000Y-133560279D01*
X143235047Y-133972756D01*
X143376222Y-134313584D01*
X142408696Y-135699500D01*
X137808601Y-135699500D01*
X136992065Y-134403127D01*
X137020012Y-134361302D01*
X137180953Y-133972756D01*
X137263000Y-133560279D01*
X137263000Y-133139721D01*
X137180953Y-132727244D01*
X137020012Y-132338698D01*
X136786363Y-131989017D01*
X136488983Y-131691637D01*
X136139302Y-131457988D01*
X135750756Y-131297047D01*
X135338279Y-131215000D01*
X134917721Y-131215000D01*
X134505244Y-131297047D01*
X134116698Y-131457988D01*
X133767017Y-131691637D01*
X133469637Y-131989017D01*
X133235988Y-132338698D01*
X133075047Y-132727244D01*
X132993000Y-133139721D01*
X132993000Y-133560279D01*
X133075047Y-133972756D01*
X133235988Y-134361302D01*
X133469637Y-134710983D01*
X133767017Y-135008363D01*
X134116698Y-135242012D01*
X134505244Y-135402953D01*
X134917721Y-135485000D01*
X135272014Y-135485000D01*
X136231293Y-137008000D01*
X126129487Y-137008000D01*
X126130524Y-137006963D01*
X126365887Y-136654718D01*
X126528007Y-136263323D01*
X126610656Y-135847821D01*
X126610656Y-135424179D01*
X126528007Y-135008677D01*
X126365887Y-134617282D01*
X126130524Y-134265037D01*
X125830963Y-133965476D01*
X125478718Y-133730113D01*
X125087323Y-133567993D01*
X124671821Y-133485344D01*
X124248179Y-133485344D01*
X123832677Y-133567993D01*
X123441282Y-133730113D01*
X123089037Y-133965476D01*
X123088000Y-133966513D01*
X123088000Y-123254000D01*
X127631928Y-123254000D01*
X127631928Y-124778000D01*
X127644188Y-124902482D01*
X127680498Y-125022180D01*
X127739463Y-125132494D01*
X127818815Y-125229185D01*
X127915506Y-125308537D01*
X128025820Y-125367502D01*
X128145518Y-125403812D01*
X128270000Y-125416072D01*
X129794000Y-125416072D01*
X129918482Y-125403812D01*
X130038180Y-125367502D01*
X130148494Y-125308537D01*
X130245185Y-125229185D01*
X130324537Y-125132494D01*
X130383502Y-125022180D01*
X130419812Y-124902482D01*
X130428080Y-124818535D01*
X130486880Y-124906535D01*
X130681465Y-125101120D01*
X130910273Y-125254005D01*
X131164510Y-125359314D01*
X131434408Y-125413000D01*
X131709592Y-125413000D01*
X131979490Y-125359314D01*
X132233727Y-125254005D01*
X132462535Y-125101120D01*
X132582090Y-124981565D01*
X133326040Y-124981565D01*
X133393020Y-125221656D01*
X133642048Y-125338756D01*
X133909135Y-125405023D01*
X134184017Y-125417910D01*
X134456133Y-125376922D01*
X134715023Y-125283636D01*
X134830980Y-125221656D01*
X134897960Y-124981565D01*
X134112000Y-124195605D01*
X133326040Y-124981565D01*
X132582090Y-124981565D01*
X132657120Y-124906535D01*
X132810005Y-124677727D01*
X132839692Y-124606057D01*
X132844364Y-124619023D01*
X132906344Y-124734980D01*
X133146435Y-124801960D01*
X133932395Y-124016000D01*
X133146435Y-123230040D01*
X132906344Y-123297020D01*
X132842515Y-123432760D01*
X132810005Y-123354273D01*
X132657120Y-123125465D01*
X132582090Y-123050435D01*
X133326040Y-123050435D01*
X134112000Y-123836395D01*
X134897960Y-123050435D01*
X134830980Y-122810344D01*
X134581952Y-122693244D01*
X134314865Y-122626977D01*
X134039983Y-122614090D01*
X133767867Y-122655078D01*
X133508977Y-122748364D01*
X133393020Y-122810344D01*
X133326040Y-123050435D01*
X132582090Y-123050435D01*
X132462535Y-122930880D01*
X132233727Y-122777995D01*
X131979490Y-122672686D01*
X131709592Y-122619000D01*
X131434408Y-122619000D01*
X131164510Y-122672686D01*
X130910273Y-122777995D01*
X130681465Y-122930880D01*
X130486880Y-123125465D01*
X130428080Y-123213465D01*
X130419812Y-123129518D01*
X130383502Y-123009820D01*
X130324537Y-122899506D01*
X130245185Y-122802815D01*
X130148494Y-122723463D01*
X130038180Y-122664498D01*
X129918482Y-122628188D01*
X129794000Y-122615928D01*
X128270000Y-122615928D01*
X128145518Y-122628188D01*
X128025820Y-122664498D01*
X127915506Y-122723463D01*
X127818815Y-122802815D01*
X127739463Y-122899506D01*
X127680498Y-123009820D01*
X127644188Y-123129518D01*
X127631928Y-123254000D01*
X123088000Y-123254000D01*
X123088000Y-97427487D01*
X123089037Y-97428524D01*
X123441282Y-97663887D01*
X123832677Y-97826007D01*
X124248179Y-97908656D01*
X124671821Y-97908656D01*
X125087323Y-97826007D01*
X125478718Y-97663887D01*
X125830963Y-97428524D01*
X126130524Y-97128963D01*
X126365887Y-96776718D01*
X126528007Y-96385323D01*
X126610656Y-95969821D01*
X126610656Y-95546179D01*
X126528007Y-95130677D01*
X126365887Y-94739282D01*
X126130524Y-94387037D01*
X126129487Y-94386000D01*
X131698614Y-94386000D01*
X130804933Y-95662689D01*
G37*
X130804933Y-95662689D02*
X130766279Y-95655000D01*
X130345721Y-95655000D01*
X129933244Y-95737047D01*
X129544698Y-95897988D01*
X129195017Y-96131637D01*
X128897637Y-96429017D01*
X128663988Y-96778698D01*
X128503047Y-97167244D01*
X128421000Y-97579721D01*
X128421000Y-98000279D01*
X128432955Y-98060383D01*
X124430535Y-100925752D01*
X124400810Y-100941640D01*
X124349343Y-100983878D01*
X124335999Y-100993431D01*
X124310808Y-101015503D01*
X124246104Y-101068604D01*
X124235614Y-101081386D01*
X124223185Y-101092276D01*
X124172235Y-101158613D01*
X124119140Y-101223310D01*
X124111346Y-101237892D01*
X124101280Y-101250998D01*
X124064242Y-101326019D01*
X124024798Y-101399814D01*
X124020000Y-101415630D01*
X124012682Y-101430453D01*
X123990988Y-101511270D01*
X123966702Y-101591330D01*
X123965082Y-101607779D01*
X123960796Y-101623745D01*
X123955286Y-101707235D01*
X123952000Y-101740599D01*
X123952000Y-101757029D01*
X123947617Y-101823444D01*
X123952000Y-101856852D01*
X123952001Y-108598588D01*
X123947085Y-108648500D01*
X123966702Y-108847670D01*
X124017401Y-109014798D01*
X124024799Y-109039187D01*
X124119141Y-109215690D01*
X124246105Y-109370396D01*
X124284868Y-109402208D01*
X137855452Y-122972793D01*
X137887264Y-123011556D01*
X138041970Y-123138520D01*
X138083371Y-123160649D01*
X137953995Y-123354273D01*
X137922000Y-123431515D01*
X137890005Y-123354273D01*
X137737120Y-123125465D01*
X137542535Y-122930880D01*
X137313727Y-122777995D01*
X137059490Y-122672686D01*
X136789592Y-122619000D01*
X136514408Y-122619000D01*
X136244510Y-122672686D01*
X135990273Y-122777995D01*
X135761465Y-122930880D01*
X135566880Y-123125465D01*
X135413995Y-123354273D01*
X135384308Y-123425943D01*
X135379636Y-123412977D01*
X135317656Y-123297020D01*
X135077565Y-123230040D01*
X134291605Y-124016000D01*
X135077565Y-124801960D01*
X135317656Y-124734980D01*
X135381485Y-124599240D01*
X135413995Y-124677727D01*
X135566880Y-124906535D01*
X135636001Y-124975656D01*
X135636000Y-128778000D01*
X131391893Y-128778000D01*
X131341999Y-128773086D01*
X131292105Y-128778000D01*
X131292098Y-128778000D01*
X131162177Y-128790796D01*
X131142828Y-128792702D01*
X131084732Y-128810326D01*
X130951313Y-128850798D01*
X130774810Y-128945140D01*
X130620104Y-129072104D01*
X130588292Y-129110867D01*
X129364872Y-130334288D01*
X129326104Y-130366104D01*
X129199140Y-130520810D01*
X129104798Y-130697314D01*
X129088750Y-130750217D01*
X129046702Y-130888830D01*
X129027085Y-131088000D01*
X129032000Y-131137902D01*
X129032000Y-131211928D01*
X128548000Y-131211928D01*
X128423518Y-131224188D01*
X128303820Y-131260498D01*
X128193506Y-131319463D01*
X128096815Y-131398815D01*
X128017463Y-131495506D01*
X127958498Y-131605820D01*
X127922188Y-131725518D01*
X127909928Y-131850000D01*
X127909928Y-134850000D01*
X127922188Y-134974482D01*
X127958498Y-135094180D01*
X128017463Y-135204494D01*
X128096815Y-135301185D01*
X128193506Y-135380537D01*
X128303820Y-135439502D01*
X128423518Y-135475812D01*
X128548000Y-135488072D01*
X131548000Y-135488072D01*
X131672482Y-135475812D01*
X131792180Y-135439502D01*
X131902494Y-135380537D01*
X131999185Y-135301185D01*
X132078537Y-135204494D01*
X132137502Y-135094180D01*
X132173812Y-134974482D01*
X132186072Y-134850000D01*
X132186072Y-131850000D01*
X132173812Y-131725518D01*
X132137502Y-131605820D01*
X132078537Y-131495506D01*
X131999185Y-131398815D01*
X131902494Y-131319463D01*
X131792180Y-131260498D01*
X131672482Y-131224188D01*
X131548000Y-131211928D01*
X131360912Y-131211928D01*
X131762841Y-130810000D01*
X136231160Y-130810000D01*
X138153945Y-132732785D01*
X138073000Y-133139721D01*
X138073000Y-133560279D01*
X138155047Y-133972756D01*
X138315988Y-134361302D01*
X138549637Y-134710983D01*
X138847017Y-135008363D01*
X139196698Y-135242012D01*
X139585244Y-135402953D01*
X139997721Y-135485000D01*
X140418279Y-135485000D01*
X140830756Y-135402953D01*
X141219302Y-135242012D01*
X141568983Y-135008363D01*
X141866363Y-134710983D01*
X142100012Y-134361302D01*
X142260953Y-133972756D01*
X142343000Y-133560279D01*
X142343000Y-133139721D01*
X142260953Y-132727244D01*
X142100012Y-132338698D01*
X141866363Y-131989017D01*
X141568983Y-131691637D01*
X141219302Y-131457988D01*
X140830756Y-131297047D01*
X140418279Y-131215000D01*
X139997721Y-131215000D01*
X139590785Y-131295945D01*
X137668000Y-129373160D01*
X137668000Y-124975655D01*
X137737120Y-124906535D01*
X137890005Y-124677727D01*
X137922000Y-124600485D01*
X137953995Y-124677727D01*
X138106880Y-124906535D01*
X138301465Y-125101120D01*
X138530273Y-125254005D01*
X138784510Y-125359314D01*
X139054408Y-125413000D01*
X139152160Y-125413000D01*
X144272001Y-130532842D01*
X144272001Y-131461127D01*
X143927017Y-131691637D01*
X143629637Y-131989017D01*
X143395988Y-132338698D01*
X143235047Y-132727244D01*
X143153000Y-133139721D01*
X143153000Y-133560279D01*
X143235047Y-133972756D01*
X143376222Y-134313584D01*
X142408696Y-135699500D01*
X137808601Y-135699500D01*
X136992065Y-134403127D01*
X137020012Y-134361302D01*
X137180953Y-133972756D01*
X137263000Y-133560279D01*
X137263000Y-133139721D01*
X137180953Y-132727244D01*
X137020012Y-132338698D01*
X136786363Y-131989017D01*
X136488983Y-131691637D01*
X136139302Y-131457988D01*
X135750756Y-131297047D01*
X135338279Y-131215000D01*
X134917721Y-131215000D01*
X134505244Y-131297047D01*
X134116698Y-131457988D01*
X133767017Y-131691637D01*
X133469637Y-131989017D01*
X133235988Y-132338698D01*
X133075047Y-132727244D01*
X132993000Y-133139721D01*
X132993000Y-133560279D01*
X133075047Y-133972756D01*
X133235988Y-134361302D01*
X133469637Y-134710983D01*
X133767017Y-135008363D01*
X134116698Y-135242012D01*
X134505244Y-135402953D01*
X134917721Y-135485000D01*
X135272014Y-135485000D01*
X136231293Y-137008000D01*
X126129487Y-137008000D01*
X126130524Y-137006963D01*
X126365887Y-136654718D01*
X126528007Y-136263323D01*
X126610656Y-135847821D01*
X126610656Y-135424179D01*
X126528007Y-135008677D01*
X126365887Y-134617282D01*
X126130524Y-134265037D01*
X125830963Y-133965476D01*
X125478718Y-133730113D01*
X125087323Y-133567993D01*
X124671821Y-133485344D01*
X124248179Y-133485344D01*
X123832677Y-133567993D01*
X123441282Y-133730113D01*
X123089037Y-133965476D01*
X123088000Y-133966513D01*
X123088000Y-123254000D01*
X127631928Y-123254000D01*
X127631928Y-124778000D01*
X127644188Y-124902482D01*
X127680498Y-125022180D01*
X127739463Y-125132494D01*
X127818815Y-125229185D01*
X127915506Y-125308537D01*
X128025820Y-125367502D01*
X128145518Y-125403812D01*
X128270000Y-125416072D01*
X129794000Y-125416072D01*
X129918482Y-125403812D01*
X130038180Y-125367502D01*
X130148494Y-125308537D01*
X130245185Y-125229185D01*
X130324537Y-125132494D01*
X130383502Y-125022180D01*
X130419812Y-124902482D01*
X130428080Y-124818535D01*
X130486880Y-124906535D01*
X130681465Y-125101120D01*
X130910273Y-125254005D01*
X131164510Y-125359314D01*
X131434408Y-125413000D01*
X131709592Y-125413000D01*
X131979490Y-125359314D01*
X132233727Y-125254005D01*
X132462535Y-125101120D01*
X132582090Y-124981565D01*
X133326040Y-124981565D01*
X133393020Y-125221656D01*
X133642048Y-125338756D01*
X133909135Y-125405023D01*
X134184017Y-125417910D01*
X134456133Y-125376922D01*
X134715023Y-125283636D01*
X134830980Y-125221656D01*
X134897960Y-124981565D01*
X134112000Y-124195605D01*
X133326040Y-124981565D01*
X132582090Y-124981565D01*
X132657120Y-124906535D01*
X132810005Y-124677727D01*
X132839692Y-124606057D01*
X132844364Y-124619023D01*
X132906344Y-124734980D01*
X133146435Y-124801960D01*
X133932395Y-124016000D01*
X133146435Y-123230040D01*
X132906344Y-123297020D01*
X132842515Y-123432760D01*
X132810005Y-123354273D01*
X132657120Y-123125465D01*
X132582090Y-123050435D01*
X133326040Y-123050435D01*
X134112000Y-123836395D01*
X134897960Y-123050435D01*
X134830980Y-122810344D01*
X134581952Y-122693244D01*
X134314865Y-122626977D01*
X134039983Y-122614090D01*
X133767867Y-122655078D01*
X133508977Y-122748364D01*
X133393020Y-122810344D01*
X133326040Y-123050435D01*
X132582090Y-123050435D01*
X132462535Y-122930880D01*
X132233727Y-122777995D01*
X131979490Y-122672686D01*
X131709592Y-122619000D01*
X131434408Y-122619000D01*
X131164510Y-122672686D01*
X130910273Y-122777995D01*
X130681465Y-122930880D01*
X130486880Y-123125465D01*
X130428080Y-123213465D01*
X130419812Y-123129518D01*
X130383502Y-123009820D01*
X130324537Y-122899506D01*
X130245185Y-122802815D01*
X130148494Y-122723463D01*
X130038180Y-122664498D01*
X129918482Y-122628188D01*
X129794000Y-122615928D01*
X128270000Y-122615928D01*
X128145518Y-122628188D01*
X128025820Y-122664498D01*
X127915506Y-122723463D01*
X127818815Y-122802815D01*
X127739463Y-122899506D01*
X127680498Y-123009820D01*
X127644188Y-123129518D01*
X127631928Y-123254000D01*
X123088000Y-123254000D01*
X123088000Y-97427487D01*
X123089037Y-97428524D01*
X123441282Y-97663887D01*
X123832677Y-97826007D01*
X124248179Y-97908656D01*
X124671821Y-97908656D01*
X125087323Y-97826007D01*
X125478718Y-97663887D01*
X125830963Y-97428524D01*
X126130524Y-97128963D01*
X126365887Y-96776718D01*
X126528007Y-96385323D01*
X126610656Y-95969821D01*
X126610656Y-95546179D01*
X126528007Y-95130677D01*
X126365887Y-94739282D01*
X126130524Y-94387037D01*
X126129487Y-94386000D01*
X131698614Y-94386000D01*
X130804933Y-95662689D01*
G36*
X169329127Y-94438735D02*
G01*
X169444396Y-94554004D01*
X169162611Y-94670275D01*
X169004743Y-94988860D01*
X168912062Y-95332122D01*
X168888127Y-95686869D01*
X168933861Y-96039470D01*
X169047505Y-96376373D01*
X169162611Y-96591725D01*
X169444398Y-96707997D01*
X170521395Y-95631000D01*
X170507253Y-95616858D01*
X170686858Y-95437253D01*
X170701000Y-95451395D01*
X170715143Y-95437253D01*
X170894748Y-95616858D01*
X170880605Y-95631000D01*
X171957602Y-96707997D01*
X172239389Y-96591725D01*
X172397257Y-96273140D01*
X172489938Y-95929878D01*
X172513873Y-95575131D01*
X172468139Y-95222530D01*
X172354495Y-94885627D01*
X172239389Y-94670275D01*
X171957604Y-94554004D01*
X172072873Y-94438735D01*
X172020138Y-94386000D01*
X174393344Y-94386000D01*
X174298965Y-94480379D01*
X174101429Y-94776012D01*
X173965365Y-95104501D01*
X173896000Y-95453223D01*
X173896000Y-95808777D01*
X173965365Y-96157499D01*
X174101429Y-96485988D01*
X174298965Y-96781621D01*
X174550379Y-97033035D01*
X174764588Y-97176165D01*
X174736010Y-97191440D01*
X174581304Y-97318404D01*
X174549492Y-97357167D01*
X172671367Y-99235292D01*
X172489376Y-99310676D01*
X172303480Y-99434888D01*
X172145388Y-99592980D01*
X172021176Y-99778876D01*
X171935617Y-99985433D01*
X171892000Y-100204712D01*
X171892000Y-100428288D01*
X171935617Y-100647567D01*
X172021176Y-100854124D01*
X172145388Y-101040020D01*
X172303480Y-101198112D01*
X172489376Y-101322324D01*
X172695933Y-101407883D01*
X172915212Y-101451500D01*
X173138788Y-101451500D01*
X173358067Y-101407883D01*
X173564624Y-101322324D01*
X173750520Y-101198112D01*
X173908612Y-101040020D01*
X174032824Y-100854124D01*
X174108208Y-100672133D01*
X175724041Y-99056300D01*
X178626643Y-99056300D01*
X178808633Y-99131683D01*
X179027912Y-99175300D01*
X179251488Y-99175300D01*
X179470767Y-99131683D01*
X179677324Y-99046124D01*
X179863220Y-98921912D01*
X180021312Y-98763820D01*
X180145524Y-98577924D01*
X180231083Y-98371367D01*
X180274700Y-98152088D01*
X180274700Y-97928512D01*
X180231083Y-97709233D01*
X180145524Y-97502676D01*
X180021312Y-97316780D01*
X179998099Y-97293567D01*
X180174501Y-97366635D01*
X180340000Y-97399555D01*
X180340001Y-104332603D01*
X180241363Y-104431241D01*
X180084320Y-104666273D01*
X179976147Y-104927426D01*
X179921000Y-105204665D01*
X179921000Y-105487335D01*
X179969608Y-105731700D01*
X179801641Y-105731700D01*
X179392907Y-105322967D01*
X179317524Y-105140976D01*
X179193312Y-104955080D01*
X179035220Y-104796988D01*
X178849324Y-104672776D01*
X178642767Y-104587217D01*
X178423488Y-104543600D01*
X178199912Y-104543600D01*
X177980633Y-104587217D01*
X177774076Y-104672776D01*
X177665248Y-104745493D01*
X177659603Y-104729708D01*
X177592671Y-104604486D01*
X177348702Y-104532903D01*
X176535605Y-105346000D01*
X177235198Y-106045593D01*
X177305876Y-106216224D01*
X177430088Y-106402120D01*
X177588180Y-106560212D01*
X177774076Y-106684424D01*
X177956067Y-106759807D01*
X178627092Y-107430833D01*
X178658904Y-107469596D01*
X178813610Y-107596560D01*
X178930475Y-107659025D01*
X178990113Y-107690902D01*
X179181629Y-107748998D01*
X179380800Y-107768615D01*
X179430702Y-107763700D01*
X187412498Y-107763700D01*
X187462400Y-107768615D01*
X187512302Y-107763700D01*
X187661571Y-107748998D01*
X187853087Y-107690902D01*
X188029590Y-107596560D01*
X188184296Y-107469596D01*
X188216112Y-107430828D01*
X192129834Y-103517107D01*
X192311824Y-103441724D01*
X192497720Y-103317512D01*
X192655812Y-103159420D01*
X192780024Y-102973524D01*
X192865583Y-102766967D01*
X192909200Y-102547688D01*
X192909200Y-102324112D01*
X192865583Y-102104833D01*
X192780024Y-101898276D01*
X192655812Y-101712380D01*
X192535144Y-101591712D01*
X194448893Y-101591712D01*
X194556726Y-101866338D01*
X194863384Y-102017216D01*
X195193585Y-102105369D01*
X195534639Y-102127409D01*
X195873439Y-102082489D01*
X196196966Y-101972336D01*
X196395274Y-101866338D01*
X196503107Y-101591712D01*
X195476000Y-100564605D01*
X194448893Y-101591712D01*
X192535144Y-101591712D01*
X192497720Y-101554288D01*
X192311824Y-101430076D01*
X192105267Y-101344517D01*
X192045500Y-101332629D01*
X192045500Y-101241512D01*
X192001883Y-101022233D01*
X191916324Y-100815676D01*
X191792112Y-100629780D01*
X191634020Y-100471688D01*
X191592042Y-100443639D01*
X193733591Y-100443639D01*
X193778511Y-100782439D01*
X193888664Y-101105966D01*
X193994662Y-101304274D01*
X194269288Y-101412107D01*
X195296395Y-100385000D01*
X195655605Y-100385000D01*
X196682712Y-101412107D01*
X196957338Y-101304274D01*
X197108216Y-100997616D01*
X197196369Y-100667415D01*
X197218409Y-100326361D01*
X197173489Y-99987561D01*
X197063336Y-99664034D01*
X196957338Y-99465726D01*
X196682712Y-99357893D01*
X195655605Y-100385000D01*
X195296395Y-100385000D01*
X194269288Y-99357893D01*
X193994662Y-99465726D01*
X193843784Y-99772384D01*
X193755631Y-100102585D01*
X193733591Y-100443639D01*
X191592042Y-100443639D01*
X191448124Y-100347476D01*
X191241567Y-100261917D01*
X191022288Y-100218300D01*
X190798712Y-100218300D01*
X190711000Y-100235747D01*
X190711000Y-100214117D01*
X190644325Y-99878919D01*
X190513537Y-99563169D01*
X190323663Y-99279002D01*
X190222949Y-99178288D01*
X194448893Y-99178288D01*
X195476000Y-100205395D01*
X196503107Y-99178288D01*
X196395274Y-98903662D01*
X196088616Y-98752784D01*
X195758415Y-98664631D01*
X195417361Y-98642591D01*
X195078561Y-98687511D01*
X194755034Y-98797664D01*
X194556726Y-98903662D01*
X194448893Y-99178288D01*
X190222949Y-99178288D01*
X190081998Y-99037337D01*
X189992000Y-98977202D01*
X189992000Y-97623072D01*
X190076000Y-97623072D01*
X190200482Y-97610812D01*
X190320180Y-97574502D01*
X190430494Y-97515537D01*
X190527185Y-97436185D01*
X190606537Y-97339494D01*
X190665502Y-97229180D01*
X190701812Y-97109482D01*
X190703562Y-97091712D01*
X194448893Y-97091712D01*
X194556726Y-97366338D01*
X194863384Y-97517216D01*
X195193585Y-97605369D01*
X195534639Y-97627409D01*
X195873439Y-97582489D01*
X196196966Y-97472336D01*
X196395274Y-97366338D01*
X196503107Y-97091712D01*
X195476000Y-96064605D01*
X194448893Y-97091712D01*
X190703562Y-97091712D01*
X190714072Y-96985000D01*
X190714072Y-95943639D01*
X193733591Y-95943639D01*
X193778511Y-96282439D01*
X193888664Y-96605966D01*
X193994662Y-96804274D01*
X194269288Y-96912107D01*
X195296395Y-95885000D01*
X195655605Y-95885000D01*
X196682712Y-96912107D01*
X196957338Y-96804274D01*
X197108216Y-96497616D01*
X197196369Y-96167415D01*
X197218409Y-95826361D01*
X197173489Y-95487561D01*
X197063336Y-95164034D01*
X196957338Y-94965726D01*
X196682712Y-94857893D01*
X195655605Y-95885000D01*
X195296395Y-95885000D01*
X194269288Y-94857893D01*
X193994662Y-94965726D01*
X193843784Y-95272384D01*
X193755631Y-95602585D01*
X193733591Y-95943639D01*
X190714072Y-95943639D01*
X190714072Y-94785000D01*
X190701812Y-94660518D01*
X190665502Y-94540820D01*
X190606537Y-94430506D01*
X190570012Y-94386000D01*
X194589769Y-94386000D01*
X194556726Y-94403662D01*
X194448893Y-94678288D01*
X195476000Y-95705395D01*
X196503107Y-94678288D01*
X196395274Y-94403662D01*
X196359376Y-94386000D01*
X200219786Y-94386000D01*
X199999241Y-94533363D01*
X199799363Y-94733241D01*
X199642320Y-94968273D01*
X199568894Y-95145540D01*
X197950309Y-95885047D01*
X197919813Y-95894298D01*
X197859492Y-95926540D01*
X197842897Y-95934122D01*
X197815512Y-95950047D01*
X197743310Y-95988640D01*
X197729108Y-96000295D01*
X197713237Y-96009525D01*
X197651900Y-96063659D01*
X197588604Y-96115604D01*
X197576946Y-96129809D01*
X197563184Y-96141955D01*
X197513583Y-96207018D01*
X197461640Y-96270310D01*
X197452982Y-96286509D01*
X197441848Y-96301113D01*
X197405876Y-96374639D01*
X197367298Y-96446814D01*
X197361968Y-96464386D01*
X197353895Y-96480886D01*
X197332958Y-96560018D01*
X197309202Y-96638330D01*
X197307402Y-96656606D01*
X197302704Y-96674362D01*
X197297609Y-96756034D01*
X197294500Y-96787599D01*
X197294500Y-96805869D01*
X197290243Y-96874107D01*
X197294500Y-96905677D01*
X197294501Y-104481158D01*
X187139860Y-114635800D01*
X186754240Y-114635800D01*
X193887434Y-107502607D01*
X194069424Y-107427224D01*
X194255320Y-107303012D01*
X194413412Y-107144920D01*
X194537624Y-106959024D01*
X194623183Y-106752467D01*
X194666800Y-106533188D01*
X194666800Y-106309612D01*
X194623183Y-106090333D01*
X194537624Y-105883776D01*
X194413412Y-105697880D01*
X194255320Y-105539788D01*
X194069424Y-105415576D01*
X193862867Y-105330017D01*
X193643588Y-105286400D01*
X193420012Y-105286400D01*
X193200733Y-105330017D01*
X192994176Y-105415576D01*
X192808280Y-105539788D01*
X192650188Y-105697880D01*
X192525976Y-105883776D01*
X192450593Y-106065766D01*
X185073740Y-113442619D01*
X184941533Y-113468917D01*
X184734976Y-113554476D01*
X184549080Y-113678688D01*
X184390988Y-113836780D01*
X184266776Y-114022676D01*
X184181217Y-114229233D01*
X184137600Y-114448512D01*
X184137600Y-114610551D01*
X184052076Y-114645976D01*
X183866180Y-114770188D01*
X183708088Y-114928280D01*
X183583876Y-115114176D01*
X183498317Y-115320733D01*
X183454700Y-115540012D01*
X183454700Y-115763588D01*
X183498317Y-115982867D01*
X183583876Y-116189424D01*
X183708088Y-116375320D01*
X183866180Y-116533412D01*
X184052076Y-116657624D01*
X184258633Y-116743183D01*
X184477912Y-116786800D01*
X184701488Y-116786800D01*
X184920767Y-116743183D01*
X185102757Y-116667800D01*
X187510798Y-116667800D01*
X187560700Y-116672715D01*
X187610602Y-116667800D01*
X187759871Y-116653098D01*
X187951387Y-116595002D01*
X188127890Y-116500660D01*
X188282596Y-116373696D01*
X188314412Y-116334928D01*
X198323600Y-106325741D01*
X198323600Y-106333557D01*
X185184266Y-119472892D01*
X185155576Y-119484776D01*
X184969680Y-119608988D01*
X184811588Y-119767080D01*
X184687376Y-119952976D01*
X184601817Y-120159533D01*
X184558200Y-120378812D01*
X184558200Y-120602388D01*
X184601817Y-120821667D01*
X184687376Y-121028224D01*
X184811588Y-121214120D01*
X184969680Y-121372212D01*
X185155576Y-121496424D01*
X185362133Y-121581983D01*
X185581412Y-121625600D01*
X185804988Y-121625600D01*
X186024267Y-121581983D01*
X186230824Y-121496424D01*
X186416720Y-121372212D01*
X186574812Y-121214120D01*
X186699024Y-121028224D01*
X186710908Y-120999534D01*
X200184421Y-107526022D01*
X200225615Y-107492215D01*
X200360514Y-107327840D01*
X200460753Y-107140306D01*
X200522480Y-106936819D01*
X200538100Y-106778229D01*
X200538100Y-106778222D01*
X200543322Y-106725201D01*
X200538100Y-106672179D01*
X200538100Y-106665555D01*
X200549983Y-106636867D01*
X200593600Y-106417588D01*
X200593600Y-106194012D01*
X200549983Y-105974733D01*
X200464424Y-105768176D01*
X200340212Y-105582280D01*
X200182120Y-105424188D01*
X199996224Y-105299976D01*
X199789667Y-105214417D01*
X199570388Y-105170800D01*
X199346812Y-105170800D01*
X199287071Y-105182683D01*
X199311798Y-105101171D01*
X199326500Y-104951902D01*
X199331415Y-104902000D01*
X199326500Y-104852098D01*
X199326500Y-100718512D01*
X199473783Y-100718512D01*
X199515213Y-100998130D01*
X199610397Y-101264292D01*
X199677329Y-101389514D01*
X199921298Y-101461097D01*
X200734395Y-100648000D01*
X199921298Y-99834903D01*
X199677329Y-99906486D01*
X199556429Y-100161996D01*
X199487700Y-100436184D01*
X199473783Y-100718512D01*
X199326500Y-100718512D01*
X199326500Y-97490324D01*
X200413238Y-96993810D01*
X200495426Y-97027853D01*
X200772665Y-97083000D01*
X200912160Y-97083000D01*
X201394600Y-97565441D01*
X201394600Y-99289075D01*
X201125816Y-99221700D01*
X200843488Y-99207783D01*
X200563870Y-99249213D01*
X200297708Y-99344397D01*
X200172486Y-99411329D01*
X200100903Y-99655298D01*
X200914000Y-100468395D01*
X200928143Y-100454253D01*
X201107748Y-100633858D01*
X201093605Y-100648000D01*
X201107748Y-100662143D01*
X200928143Y-100841748D01*
X200914000Y-100827605D01*
X200100903Y-101640702D01*
X200172486Y-101884671D01*
X200427996Y-102005571D01*
X200702184Y-102074300D01*
X200984512Y-102088217D01*
X201264130Y-102046787D01*
X201360035Y-102012490D01*
X201319217Y-102111033D01*
X201275600Y-102330312D01*
X201275600Y-102553888D01*
X201319217Y-102773167D01*
X201404776Y-102979724D01*
X201528988Y-103165620D01*
X201687080Y-103323712D01*
X201872976Y-103447924D01*
X202079533Y-103533483D01*
X202298812Y-103577100D01*
X202522388Y-103577100D01*
X202741667Y-103533483D01*
X202948224Y-103447924D01*
X203134120Y-103323712D01*
X203292212Y-103165620D01*
X203416424Y-102979724D01*
X203501983Y-102773167D01*
X203545600Y-102553888D01*
X203545600Y-102330312D01*
X203501983Y-102111033D01*
X203426600Y-101929043D01*
X203426600Y-97562536D01*
X203578282Y-97663887D01*
X203969677Y-97826007D01*
X204385179Y-97908656D01*
X204808821Y-97908656D01*
X205224323Y-97826007D01*
X205615718Y-97663887D01*
X205967963Y-97428524D01*
X205969001Y-97427486D01*
X205969000Y-133966513D01*
X205967963Y-133965476D01*
X205615718Y-133730113D01*
X205224323Y-133567993D01*
X204808821Y-133485344D01*
X204385179Y-133485344D01*
X203969677Y-133567993D01*
X203578282Y-133730113D01*
X203226037Y-133965476D01*
X202926476Y-134265037D01*
X202691113Y-134617282D01*
X202528993Y-135008677D01*
X202446344Y-135424179D01*
X202446344Y-135847821D01*
X202528993Y-136263323D01*
X202691113Y-136654718D01*
X202926476Y-137006963D01*
X202927513Y-137008000D01*
X197786655Y-137008000D01*
X197923632Y-136916475D01*
X198130475Y-136709632D01*
X198292990Y-136466411D01*
X198404932Y-136196158D01*
X198462000Y-135909260D01*
X198462000Y-135616740D01*
X198404932Y-135329842D01*
X198292990Y-135059589D01*
X198130475Y-134816368D01*
X197923632Y-134609525D01*
X197680411Y-134447010D01*
X197410158Y-134335068D01*
X197123260Y-134278000D01*
X196830740Y-134278000D01*
X196543842Y-134335068D01*
X196273589Y-134447010D01*
X196030368Y-134609525D01*
X195823525Y-134816368D01*
X195701805Y-134998534D01*
X195632178Y-134881645D01*
X195437269Y-134665412D01*
X195203920Y-134491359D01*
X194941099Y-134366175D01*
X194793890Y-134321524D01*
X194564000Y-134442845D01*
X194564000Y-135636000D01*
X194584000Y-135636000D01*
X194584000Y-135890000D01*
X194564000Y-135890000D01*
X194564000Y-135910000D01*
X194310000Y-135910000D01*
X194310000Y-135890000D01*
X194290000Y-135890000D01*
X194290000Y-135636000D01*
X194310000Y-135636000D01*
X194310000Y-134442845D01*
X194080110Y-134321524D01*
X193932901Y-134366175D01*
X193670080Y-134491359D01*
X193436731Y-134665412D01*
X193241822Y-134881645D01*
X193172195Y-134998534D01*
X193050475Y-134816368D01*
X192843632Y-134609525D01*
X192600411Y-134447010D01*
X192330158Y-134335068D01*
X192043260Y-134278000D01*
X191750740Y-134278000D01*
X191463842Y-134335068D01*
X191193589Y-134447010D01*
X190950368Y-134609525D01*
X190743525Y-134816368D01*
X190627000Y-134990760D01*
X190510475Y-134816368D01*
X190303632Y-134609525D01*
X190060411Y-134447010D01*
X189790158Y-134335068D01*
X189503260Y-134278000D01*
X189210740Y-134278000D01*
X188923842Y-134335068D01*
X188653589Y-134447010D01*
X188410368Y-134609525D01*
X188278513Y-134741380D01*
X188256502Y-134668820D01*
X188197537Y-134558506D01*
X188118185Y-134461815D01*
X188021494Y-134382463D01*
X187911180Y-134323498D01*
X187833000Y-134299782D01*
X187833000Y-132131400D01*
X194249998Y-132131400D01*
X194299900Y-132136315D01*
X194349802Y-132131400D01*
X194499071Y-132116698D01*
X194690587Y-132058602D01*
X194867090Y-131964260D01*
X195021796Y-131837296D01*
X195053612Y-131798528D01*
X196857141Y-129995000D01*
X197001184Y-129995000D01*
X197297743Y-129936011D01*
X197577095Y-129820299D01*
X197828505Y-129652312D01*
X198042312Y-129438505D01*
X198210299Y-129187095D01*
X198326011Y-128907743D01*
X198385000Y-128611184D01*
X198385000Y-128308816D01*
X198326011Y-128012257D01*
X198210299Y-127732905D01*
X198042312Y-127481495D01*
X197828505Y-127267688D01*
X197577095Y-127099701D01*
X197297743Y-126983989D01*
X197001184Y-126925000D01*
X196698816Y-126925000D01*
X196402257Y-126983989D01*
X196122905Y-127099701D01*
X195871495Y-127267688D01*
X195805056Y-127334127D01*
X195799502Y-127315820D01*
X195740537Y-127205506D01*
X195661185Y-127108815D01*
X195564494Y-127029463D01*
X195454180Y-126970498D01*
X195334482Y-126934188D01*
X195210000Y-126921928D01*
X193410000Y-126921928D01*
X193285518Y-126934188D01*
X193165820Y-126970498D01*
X193055506Y-127029463D01*
X192958815Y-127108815D01*
X192879463Y-127205506D01*
X192820498Y-127315820D01*
X192784188Y-127435518D01*
X192783397Y-127443547D01*
X192629529Y-127458702D01*
X192438013Y-127516798D01*
X192261510Y-127611140D01*
X192106804Y-127738104D01*
X192074992Y-127776867D01*
X191296548Y-128555311D01*
X191244853Y-128295426D01*
X191136680Y-128034273D01*
X190979637Y-127799241D01*
X190779759Y-127599363D01*
X190544727Y-127442320D01*
X190283574Y-127334147D01*
X190006335Y-127279000D01*
X189723665Y-127279000D01*
X189446426Y-127334147D01*
X189185273Y-127442320D01*
X188950241Y-127599363D01*
X188750363Y-127799241D01*
X188593320Y-128034273D01*
X188485147Y-128295426D01*
X188430000Y-128572665D01*
X188430000Y-128855335D01*
X188475525Y-129084200D01*
X188185941Y-129084200D01*
X188021207Y-128919467D01*
X187945824Y-128737476D01*
X187821612Y-128551580D01*
X187663520Y-128393488D01*
X187477624Y-128269276D01*
X187271067Y-128183717D01*
X187051788Y-128140100D01*
X186828212Y-128140100D01*
X186608933Y-128183717D01*
X186402376Y-128269276D01*
X186216480Y-128393488D01*
X186189688Y-128420280D01*
X186164853Y-128295426D01*
X186056680Y-128034273D01*
X185899637Y-127799241D01*
X185699759Y-127599363D01*
X185464727Y-127442320D01*
X185203574Y-127334147D01*
X184926335Y-127279000D01*
X184786841Y-127279000D01*
X181483012Y-123975172D01*
X181451196Y-123936404D01*
X181296490Y-123809440D01*
X181119987Y-123715098D01*
X180928471Y-123657002D01*
X180779202Y-123642300D01*
X180729300Y-123637385D01*
X180679398Y-123642300D01*
X178319007Y-123642300D01*
X178299202Y-123577013D01*
X178204860Y-123400510D01*
X178077896Y-123245804D01*
X178039127Y-123213987D01*
X177896400Y-123071260D01*
X177896400Y-121780221D01*
X178096184Y-121830300D01*
X178378512Y-121844217D01*
X178658130Y-121802787D01*
X178924292Y-121707603D01*
X179049514Y-121640671D01*
X179121097Y-121396702D01*
X178308000Y-120583605D01*
X178293858Y-120597748D01*
X178114253Y-120418143D01*
X178128395Y-120404000D01*
X178487605Y-120404000D01*
X179300702Y-121217097D01*
X179544671Y-121145514D01*
X179665571Y-120890004D01*
X179734300Y-120615816D01*
X179748217Y-120333488D01*
X179706787Y-120053870D01*
X179611603Y-119787708D01*
X179544671Y-119662486D01*
X179300702Y-119590903D01*
X178487605Y-120404000D01*
X178128395Y-120404000D01*
X178114253Y-120389858D01*
X178293858Y-120210253D01*
X178308000Y-120224395D01*
X179121097Y-119411298D01*
X179049514Y-119167329D01*
X178922779Y-119107362D01*
X178991133Y-119039008D01*
X179029896Y-119007196D01*
X179156860Y-118852490D01*
X179251202Y-118675987D01*
X179309298Y-118484471D01*
X179324000Y-118335202D01*
X179324000Y-118335195D01*
X179327365Y-118301030D01*
X179352180Y-118293502D01*
X179462494Y-118234537D01*
X179559185Y-118155185D01*
X179638537Y-118058494D01*
X179697502Y-117948180D01*
X179733812Y-117828482D01*
X179743881Y-117726245D01*
X179808433Y-117752983D01*
X180027712Y-117796600D01*
X180251288Y-117796600D01*
X180470567Y-117752983D01*
X180677124Y-117667424D01*
X180863020Y-117543212D01*
X181021112Y-117385120D01*
X181145324Y-117199224D01*
X181230883Y-116992667D01*
X181274500Y-116773388D01*
X181274500Y-116549812D01*
X181230883Y-116330533D01*
X181219000Y-116301845D01*
X181219000Y-115104529D01*
X181224223Y-115051500D01*
X181203380Y-114839881D01*
X181163556Y-114708598D01*
X181141653Y-114636394D01*
X181041414Y-114448860D01*
X180999124Y-114397329D01*
X180940319Y-114325675D01*
X180940318Y-114325674D01*
X180906515Y-114284485D01*
X180865326Y-114250682D01*
X177643682Y-111029039D01*
X179456096Y-111029039D01*
X179496754Y-111163087D01*
X179616963Y-111417420D01*
X179784481Y-111643414D01*
X179992869Y-111832385D01*
X180234119Y-111977070D01*
X180498960Y-112071909D01*
X180721000Y-111950624D01*
X180721000Y-110807000D01*
X180975000Y-110807000D01*
X180975000Y-111950624D01*
X181197040Y-112071909D01*
X181461881Y-111977070D01*
X181703131Y-111832385D01*
X181911519Y-111643414D01*
X182079037Y-111417420D01*
X182199246Y-111163087D01*
X182239904Y-111029039D01*
X182117915Y-110807000D01*
X180975000Y-110807000D01*
X180721000Y-110807000D01*
X179578085Y-110807000D01*
X179456096Y-111029039D01*
X177643682Y-111029039D01*
X177203000Y-110588358D01*
X177203000Y-110538665D01*
X177161685Y-110330961D01*
X179456096Y-110330961D01*
X179578085Y-110553000D01*
X180721000Y-110553000D01*
X180721000Y-109409376D01*
X180975000Y-109409376D01*
X180975000Y-110553000D01*
X182117915Y-110553000D01*
X182239904Y-110330961D01*
X182199246Y-110196913D01*
X182079037Y-109942580D01*
X181911519Y-109716586D01*
X181703131Y-109527615D01*
X181461881Y-109382930D01*
X181197040Y-109288091D01*
X180975000Y-109409376D01*
X180721000Y-109409376D01*
X180498960Y-109288091D01*
X180234119Y-109382930D01*
X179992869Y-109527615D01*
X179784481Y-109716586D01*
X179616963Y-109942580D01*
X179496754Y-110196913D01*
X179456096Y-110330961D01*
X177161685Y-110330961D01*
X177147853Y-110261426D01*
X177039680Y-110000273D01*
X176882637Y-109765241D01*
X176682759Y-109565363D01*
X176447727Y-109408320D01*
X176186574Y-109300147D01*
X175909335Y-109245000D01*
X175859643Y-109245000D01*
X172953345Y-106338702D01*
X175542903Y-106338702D01*
X175614486Y-106582671D01*
X175869996Y-106703571D01*
X176144184Y-106772300D01*
X176426512Y-106786217D01*
X176706130Y-106744787D01*
X176972292Y-106649603D01*
X177097514Y-106582671D01*
X177169097Y-106338702D01*
X176356000Y-105525605D01*
X175542903Y-106338702D01*
X172953345Y-106338702D01*
X172910500Y-106295858D01*
X172910500Y-106169896D01*
X172945637Y-106134759D01*
X173102680Y-105899727D01*
X173210853Y-105638574D01*
X173255024Y-105416512D01*
X174915783Y-105416512D01*
X174957213Y-105696130D01*
X175052397Y-105962292D01*
X175119329Y-106087514D01*
X175363298Y-106159097D01*
X176176395Y-105346000D01*
X175363298Y-104532903D01*
X175119329Y-104604486D01*
X174998429Y-104859996D01*
X174929700Y-105134184D01*
X174915783Y-105416512D01*
X173255024Y-105416512D01*
X173266000Y-105361335D01*
X173266000Y-105078665D01*
X173210853Y-104801426D01*
X173102680Y-104540273D01*
X172977748Y-104353298D01*
X175542903Y-104353298D01*
X176356000Y-105166395D01*
X177169097Y-104353298D01*
X177097514Y-104109329D01*
X176842004Y-103988429D01*
X176567816Y-103919700D01*
X176285488Y-103905783D01*
X176005870Y-103947213D01*
X175739708Y-104042397D01*
X175614486Y-104109329D01*
X175542903Y-104353298D01*
X172977748Y-104353298D01*
X172945637Y-104305241D01*
X172745759Y-104105363D01*
X172510727Y-103948320D01*
X172249574Y-103840147D01*
X171972335Y-103785000D01*
X171689665Y-103785000D01*
X171412426Y-103840147D01*
X171151273Y-103948320D01*
X170916241Y-104105363D01*
X170716363Y-104305241D01*
X170559320Y-104540273D01*
X170451147Y-104801426D01*
X170396000Y-105078665D01*
X170396000Y-105361335D01*
X170451147Y-105638574D01*
X170540255Y-105853700D01*
X168041745Y-105853700D01*
X168130853Y-105638574D01*
X168186000Y-105361335D01*
X168186000Y-105078665D01*
X168130853Y-104801426D01*
X168022680Y-104540273D01*
X167865637Y-104305241D01*
X167665759Y-104105363D01*
X167430727Y-103948320D01*
X167169574Y-103840147D01*
X166892335Y-103785000D01*
X166609665Y-103785000D01*
X166332426Y-103840147D01*
X166071273Y-103948320D01*
X165836241Y-104105363D01*
X165801104Y-104140500D01*
X165197143Y-104140500D01*
X162196322Y-101139680D01*
X162196318Y-101139675D01*
X162196312Y-101139669D01*
X162162514Y-101098486D01*
X162121331Y-101064688D01*
X161099457Y-100042814D01*
X161099482Y-100042812D01*
X161219180Y-100006502D01*
X161329494Y-99947537D01*
X161426185Y-99868185D01*
X161505537Y-99771494D01*
X161564502Y-99661180D01*
X161600812Y-99541482D01*
X161613072Y-99417000D01*
X161613072Y-96887602D01*
X169624003Y-96887602D01*
X169740275Y-97169389D01*
X170058860Y-97327257D01*
X170402122Y-97419938D01*
X170756869Y-97443873D01*
X171109470Y-97398139D01*
X171446373Y-97284495D01*
X171661725Y-97169389D01*
X171777997Y-96887602D01*
X170701000Y-95810605D01*
X169624003Y-96887602D01*
X161613072Y-96887602D01*
X161613072Y-96417000D01*
X161600812Y-96292518D01*
X161564502Y-96172820D01*
X161505537Y-96062506D01*
X161426185Y-95965815D01*
X161329494Y-95886463D01*
X161219180Y-95827498D01*
X161099482Y-95791188D01*
X160975000Y-95778928D01*
X157975000Y-95778928D01*
X157850518Y-95791188D01*
X157730820Y-95827498D01*
X157620506Y-95886463D01*
X157523815Y-95965815D01*
X157444463Y-96062506D01*
X157385498Y-96172820D01*
X157349188Y-96292518D01*
X157336928Y-96417000D01*
X157336928Y-99417000D01*
X157349188Y-99541482D01*
X157385498Y-99661180D01*
X157444463Y-99771494D01*
X157523815Y-99868185D01*
X157620506Y-99947537D01*
X157730820Y-100006502D01*
X157850518Y-100042812D01*
X157975000Y-100055072D01*
X158401118Y-100055072D01*
X158411120Y-100156618D01*
X158472847Y-100360105D01*
X158573086Y-100547640D01*
X158707985Y-100712015D01*
X158749184Y-100745827D01*
X159868857Y-101865500D01*
X154506430Y-107227928D01*
X153442500Y-107227928D01*
X153318018Y-107240188D01*
X153198320Y-107276498D01*
X153088006Y-107335463D01*
X152991315Y-107414815D01*
X152911963Y-107511506D01*
X152852998Y-107621820D01*
X152816688Y-107741518D01*
X152804428Y-107866000D01*
X152804428Y-109866000D01*
X152816688Y-109990482D01*
X152852998Y-110110180D01*
X152911963Y-110220494D01*
X152991315Y-110317185D01*
X153030123Y-110349034D01*
X152309180Y-111069978D01*
X152267986Y-111103785D01*
X152133087Y-111268160D01*
X152066180Y-111393335D01*
X152032847Y-111455696D01*
X151971120Y-111659182D01*
X151950277Y-111870800D01*
X151955501Y-111923839D01*
X151955500Y-119737928D01*
X151935000Y-119737928D01*
X151810518Y-119750188D01*
X151690820Y-119786498D01*
X151580506Y-119845463D01*
X151483815Y-119924815D01*
X151404463Y-120021506D01*
X151345498Y-120131820D01*
X151309188Y-120251518D01*
X151296928Y-120376000D01*
X151296928Y-122576000D01*
X151309188Y-122700482D01*
X151345498Y-122820180D01*
X151404463Y-122930494D01*
X151483815Y-123027185D01*
X151580506Y-123106537D01*
X151690820Y-123165502D01*
X151810518Y-123201812D01*
X151935000Y-123214072D01*
X154135000Y-123214072D01*
X154259482Y-123201812D01*
X154379180Y-123165502D01*
X154489494Y-123106537D01*
X154586185Y-123027185D01*
X154665537Y-122930494D01*
X154724502Y-122820180D01*
X154760812Y-122700482D01*
X154773072Y-122576000D01*
X154773072Y-120376000D01*
X154760812Y-120251518D01*
X154724502Y-120131820D01*
X154665537Y-120021506D01*
X154586185Y-119924815D01*
X154489494Y-119845463D01*
X154379180Y-119786498D01*
X154259482Y-119750188D01*
X154135000Y-119737928D01*
X154114500Y-119737928D01*
X154114500Y-112317942D01*
X155120821Y-111311622D01*
X155162015Y-111277815D01*
X155296914Y-111113440D01*
X155397153Y-110925906D01*
X155458880Y-110722419D01*
X155474500Y-110563829D01*
X155474500Y-110563822D01*
X155479722Y-110510801D01*
X155477682Y-110490083D01*
X155591680Y-110455502D01*
X155701994Y-110396537D01*
X155798685Y-110317185D01*
X155878037Y-110220494D01*
X155927059Y-110128781D01*
X156068077Y-110241969D01*
X156343906Y-110385571D01*
X156562020Y-110456563D01*
X156808000Y-110336594D01*
X156808000Y-108993000D01*
X156788000Y-108993000D01*
X156788000Y-108739000D01*
X156808000Y-108739000D01*
X156808000Y-108719000D01*
X157062000Y-108719000D01*
X157062000Y-108739000D01*
X157082000Y-108739000D01*
X157082000Y-108993000D01*
X157062000Y-108993000D01*
X157062000Y-110336594D01*
X157307980Y-110456563D01*
X157526094Y-110385571D01*
X157801923Y-110241969D01*
X158044437Y-110047315D01*
X158199837Y-109862101D01*
X158347037Y-110041463D01*
X158588766Y-110239845D01*
X158864552Y-110387255D01*
X159163797Y-110478030D01*
X159200693Y-110481664D01*
X155483358Y-114199000D01*
X155433665Y-114199000D01*
X155156426Y-114254147D01*
X154895273Y-114362320D01*
X154660241Y-114519363D01*
X154460363Y-114719241D01*
X154303320Y-114954273D01*
X154195147Y-115215426D01*
X154140000Y-115492665D01*
X154140000Y-115775335D01*
X154195147Y-116052574D01*
X154303320Y-116313727D01*
X154460363Y-116548759D01*
X154660241Y-116748637D01*
X154895273Y-116905680D01*
X155156426Y-117013853D01*
X155433665Y-117069000D01*
X155716335Y-117069000D01*
X155993574Y-117013853D01*
X156254727Y-116905680D01*
X156489759Y-116748637D01*
X156611694Y-116626702D01*
X159761903Y-116626702D01*
X159833486Y-116870671D01*
X160088996Y-116991571D01*
X160363184Y-117060300D01*
X160645512Y-117074217D01*
X160925130Y-117032787D01*
X161191292Y-116937603D01*
X161316514Y-116870671D01*
X161388097Y-116626702D01*
X160575000Y-115813605D01*
X159761903Y-116626702D01*
X156611694Y-116626702D01*
X156689637Y-116548759D01*
X156846680Y-116313727D01*
X156954853Y-116052574D01*
X157010000Y-115775335D01*
X157010000Y-115725642D01*
X157031130Y-115704512D01*
X159134783Y-115704512D01*
X159176213Y-115984130D01*
X159271397Y-116250292D01*
X159338329Y-116375514D01*
X159582298Y-116447097D01*
X160395395Y-115634000D01*
X160754605Y-115634000D01*
X161567702Y-116447097D01*
X161811671Y-116375514D01*
X161932571Y-116120004D01*
X162001300Y-115845816D01*
X162015217Y-115563488D01*
X161973787Y-115283870D01*
X161878603Y-115017708D01*
X161811671Y-114892486D01*
X161567702Y-114820903D01*
X160754605Y-115634000D01*
X160395395Y-115634000D01*
X159582298Y-114820903D01*
X159338329Y-114892486D01*
X159217429Y-115147996D01*
X159148700Y-115422184D01*
X159134783Y-115704512D01*
X157031130Y-115704512D01*
X158094344Y-114641298D01*
X159761903Y-114641298D01*
X160575000Y-115454395D01*
X161388097Y-114641298D01*
X161316514Y-114397329D01*
X161061004Y-114276429D01*
X160786816Y-114207700D01*
X160504488Y-114193783D01*
X160224870Y-114235213D01*
X159958708Y-114330397D01*
X159833486Y-114397329D01*
X159761903Y-114641298D01*
X158094344Y-114641298D01*
X164722943Y-108012700D01*
X171574058Y-108012700D01*
X174333000Y-110771643D01*
X174333000Y-110821335D01*
X174388147Y-111098574D01*
X174496320Y-111359727D01*
X174653363Y-111594759D01*
X174853241Y-111794637D01*
X175088273Y-111951680D01*
X175349426Y-112059853D01*
X175626665Y-112115000D01*
X175676358Y-112115000D01*
X179027284Y-115465928D01*
X177508000Y-115465928D01*
X177383518Y-115478188D01*
X177263820Y-115514498D01*
X177153506Y-115573463D01*
X177056815Y-115652815D01*
X176977463Y-115749506D01*
X176918498Y-115859820D01*
X176882188Y-115979518D01*
X176869928Y-116104000D01*
X176869928Y-116939006D01*
X171181000Y-111250151D01*
X171181000Y-111110665D01*
X171125853Y-110833426D01*
X171017680Y-110572273D01*
X170860637Y-110337241D01*
X170660759Y-110137363D01*
X170425727Y-109980320D01*
X170164574Y-109872147D01*
X169887335Y-109817000D01*
X169604665Y-109817000D01*
X169327426Y-109872147D01*
X169066273Y-109980320D01*
X168831241Y-110137363D01*
X168631363Y-110337241D01*
X168474320Y-110572273D01*
X168366147Y-110833426D01*
X168311000Y-111110665D01*
X168311000Y-111393335D01*
X168366147Y-111670574D01*
X168474320Y-111931727D01*
X168631363Y-112166759D01*
X168831241Y-112366637D01*
X169066273Y-112523680D01*
X169327426Y-112631853D01*
X169604665Y-112687000D01*
X169744169Y-112687000D01*
X176108808Y-119051558D01*
X176031540Y-119145710D01*
X175937198Y-119322214D01*
X175887885Y-119484776D01*
X175879102Y-119513730D01*
X175859485Y-119712900D01*
X175864400Y-119762802D01*
X175864401Y-123442188D01*
X175859485Y-123492100D01*
X175879102Y-123691270D01*
X175923126Y-123836395D01*
X175937199Y-123882787D01*
X176031541Y-124059290D01*
X176083986Y-124123195D01*
X176025463Y-124194506D01*
X175966498Y-124304820D01*
X175930188Y-124424518D01*
X175917928Y-124549000D01*
X175917928Y-125004831D01*
X168480872Y-132441888D01*
X168442104Y-132473704D01*
X168315140Y-132628410D01*
X168220798Y-132804914D01*
X168181631Y-132934029D01*
X168162702Y-132996430D01*
X168143085Y-133195600D01*
X168148000Y-133245502D01*
X168148000Y-134299782D01*
X168069820Y-134323498D01*
X167959506Y-134382463D01*
X167862815Y-134461815D01*
X167783463Y-134558506D01*
X167724498Y-134668820D01*
X167700034Y-134749466D01*
X167624269Y-134665412D01*
X167390920Y-134491359D01*
X167128099Y-134366175D01*
X166980890Y-134321524D01*
X166751000Y-134442845D01*
X166751000Y-135636000D01*
X166771000Y-135636000D01*
X166771000Y-135890000D01*
X166751000Y-135890000D01*
X166751000Y-135910000D01*
X166497000Y-135910000D01*
X166497000Y-135890000D01*
X166477000Y-135890000D01*
X166477000Y-135636000D01*
X166497000Y-135636000D01*
X166497000Y-134442845D01*
X166267110Y-134321524D01*
X166119901Y-134366175D01*
X165857080Y-134491359D01*
X165623731Y-134665412D01*
X165428822Y-134881645D01*
X165359195Y-134998534D01*
X165237475Y-134816368D01*
X165100000Y-134678893D01*
X165100000Y-131362240D01*
X167304634Y-129157607D01*
X167486624Y-129082224D01*
X167672520Y-128958012D01*
X167830612Y-128799920D01*
X167954824Y-128614024D01*
X168040383Y-128407467D01*
X168084000Y-128188188D01*
X168084000Y-127964612D01*
X168040383Y-127745333D01*
X167954824Y-127538776D01*
X167830612Y-127352880D01*
X167672520Y-127194788D01*
X167486624Y-127070576D01*
X167280067Y-126985017D01*
X167194713Y-126968039D01*
X169486096Y-126968039D01*
X169526754Y-127102087D01*
X169646963Y-127356420D01*
X169814481Y-127582414D01*
X170022869Y-127771385D01*
X170264119Y-127916070D01*
X170528960Y-128010909D01*
X170751000Y-127889624D01*
X170751000Y-126746000D01*
X171005000Y-126746000D01*
X171005000Y-127889624D01*
X171227040Y-128010909D01*
X171491881Y-127916070D01*
X171733131Y-127771385D01*
X171941519Y-127582414D01*
X172109037Y-127356420D01*
X172229246Y-127102087D01*
X172269904Y-126968039D01*
X172147915Y-126746000D01*
X171005000Y-126746000D01*
X170751000Y-126746000D01*
X169608085Y-126746000D01*
X169486096Y-126968039D01*
X167194713Y-126968039D01*
X167060788Y-126941400D01*
X166837212Y-126941400D01*
X166617933Y-126985017D01*
X166411376Y-127070576D01*
X166225480Y-127194788D01*
X166067388Y-127352880D01*
X165943176Y-127538776D01*
X165867793Y-127720766D01*
X163400868Y-130187692D01*
X163362105Y-130219504D01*
X163235141Y-130374210D01*
X163142137Y-130548210D01*
X163140799Y-130550713D01*
X163082702Y-130742230D01*
X163063085Y-130941400D01*
X163068001Y-130991312D01*
X163068000Y-134678893D01*
X162930525Y-134816368D01*
X162814000Y-134990760D01*
X162697475Y-134816368D01*
X162490632Y-134609525D01*
X162247411Y-134447010D01*
X161977158Y-134335068D01*
X161690260Y-134278000D01*
X161397740Y-134278000D01*
X161110842Y-134335068D01*
X160840589Y-134447010D01*
X160597368Y-134609525D01*
X160390525Y-134816368D01*
X160274000Y-134990760D01*
X160157475Y-134816368D01*
X159950632Y-134609525D01*
X159707411Y-134447010D01*
X159437158Y-134335068D01*
X159150260Y-134278000D01*
X158857740Y-134278000D01*
X158570842Y-134335068D01*
X158300589Y-134447010D01*
X158057368Y-134609525D01*
X157850525Y-134816368D01*
X157734000Y-134990760D01*
X157617475Y-134816368D01*
X157410632Y-134609525D01*
X157167411Y-134447010D01*
X156897158Y-134335068D01*
X156610260Y-134278000D01*
X156317740Y-134278000D01*
X156030842Y-134335068D01*
X155760589Y-134447010D01*
X155517368Y-134609525D01*
X155310525Y-134816368D01*
X155194000Y-134990760D01*
X155077475Y-134816368D01*
X154870632Y-134609525D01*
X154627411Y-134447010D01*
X154357158Y-134335068D01*
X154070260Y-134278000D01*
X153777740Y-134278000D01*
X153490842Y-134335068D01*
X153220589Y-134447010D01*
X152977368Y-134609525D01*
X152770525Y-134816368D01*
X152654000Y-134990760D01*
X152537475Y-134816368D01*
X152330632Y-134609525D01*
X152087411Y-134447010D01*
X151817158Y-134335068D01*
X151530260Y-134278000D01*
X151237740Y-134278000D01*
X150950842Y-134335068D01*
X150680589Y-134447010D01*
X150437368Y-134609525D01*
X150230525Y-134816368D01*
X150068010Y-135059589D01*
X149956068Y-135329842D01*
X149899000Y-135616740D01*
X149899000Y-135909260D01*
X149956068Y-136196158D01*
X150068010Y-136466411D01*
X150230525Y-136709632D01*
X150437368Y-136916475D01*
X150574345Y-137008000D01*
X143973389Y-137008000D01*
X145041627Y-135477821D01*
X145077721Y-135485000D01*
X145498279Y-135485000D01*
X145910756Y-135402953D01*
X146299302Y-135242012D01*
X146648983Y-135008363D01*
X146946363Y-134710983D01*
X147180012Y-134361302D01*
X147340953Y-133972756D01*
X147423000Y-133560279D01*
X147423000Y-133139721D01*
X147340953Y-132727244D01*
X147180012Y-132338698D01*
X146946363Y-131989017D01*
X146648983Y-131691637D01*
X146304000Y-131461127D01*
X146304000Y-130302702D01*
X153554903Y-130302702D01*
X153626486Y-130546671D01*
X153881996Y-130667571D01*
X154156184Y-130736300D01*
X154438512Y-130750217D01*
X154718130Y-130708787D01*
X154984292Y-130613603D01*
X155109514Y-130546671D01*
X155181097Y-130302702D01*
X154368000Y-129489605D01*
X153554903Y-130302702D01*
X146304000Y-130302702D01*
X146304000Y-130161902D01*
X146308915Y-130112000D01*
X146289298Y-129912829D01*
X146231202Y-129721312D01*
X146196934Y-129657201D01*
X146136860Y-129544810D01*
X146009896Y-129390104D01*
X145998209Y-129380512D01*
X152927783Y-129380512D01*
X152969213Y-129660130D01*
X153064397Y-129926292D01*
X153131329Y-130051514D01*
X153375298Y-130123097D01*
X154188395Y-129310000D01*
X154547605Y-129310000D01*
X155360702Y-130123097D01*
X155604671Y-130051514D01*
X155725571Y-129796004D01*
X155794300Y-129521816D01*
X155808217Y-129239488D01*
X155766787Y-128959870D01*
X155671603Y-128693708D01*
X155604671Y-128568486D01*
X155360702Y-128496903D01*
X154547605Y-129310000D01*
X154188395Y-129310000D01*
X153375298Y-128496903D01*
X153131329Y-128568486D01*
X153010429Y-128823996D01*
X152941700Y-129098184D01*
X152927783Y-129380512D01*
X145998209Y-129380512D01*
X145971133Y-129358292D01*
X142622841Y-126010000D01*
X152929928Y-126010000D01*
X152929928Y-127610000D01*
X152942188Y-127734482D01*
X152978498Y-127854180D01*
X153037463Y-127964494D01*
X153116815Y-128061185D01*
X153213506Y-128140537D01*
X153323820Y-128199502D01*
X153443518Y-128235812D01*
X153568000Y-128248072D01*
X153575215Y-128248072D01*
X153554903Y-128317298D01*
X154368000Y-129130395D01*
X155181097Y-128317298D01*
X155160785Y-128248072D01*
X155168000Y-128248072D01*
X155292482Y-128235812D01*
X155412180Y-128199502D01*
X155522494Y-128140537D01*
X155619185Y-128061185D01*
X155698537Y-127964494D01*
X155757502Y-127854180D01*
X155765029Y-127829366D01*
X155799202Y-127826000D01*
X155948471Y-127811298D01*
X156139987Y-127753202D01*
X156316490Y-127658860D01*
X156471196Y-127531896D01*
X156598160Y-127377190D01*
X156692502Y-127200687D01*
X156750598Y-127009171D01*
X156762499Y-126888341D01*
X157173175Y-126477665D01*
X161823000Y-126477665D01*
X161823000Y-126760335D01*
X161878147Y-127037574D01*
X161986320Y-127298727D01*
X162143363Y-127533759D01*
X162343241Y-127733637D01*
X162578273Y-127890680D01*
X162839426Y-127998853D01*
X163116665Y-128054000D01*
X163399335Y-128054000D01*
X163676574Y-127998853D01*
X163937727Y-127890680D01*
X164172759Y-127733637D01*
X164372637Y-127533759D01*
X164529680Y-127298727D01*
X164637853Y-127037574D01*
X164693000Y-126760335D01*
X164693000Y-126477665D01*
X164651685Y-126269961D01*
X169486096Y-126269961D01*
X169608085Y-126492000D01*
X170751000Y-126492000D01*
X170751000Y-125348376D01*
X171005000Y-125348376D01*
X171005000Y-126492000D01*
X172147915Y-126492000D01*
X172269904Y-126269961D01*
X172229246Y-126135913D01*
X172109037Y-125881580D01*
X171941519Y-125655586D01*
X171733131Y-125466615D01*
X171491881Y-125321930D01*
X171227040Y-125227091D01*
X171005000Y-125348376D01*
X170751000Y-125348376D01*
X170528960Y-125227091D01*
X170264119Y-125321930D01*
X170022869Y-125466615D01*
X169814481Y-125655586D01*
X169646963Y-125881580D01*
X169526754Y-126135913D01*
X169486096Y-126269961D01*
X164651685Y-126269961D01*
X164637853Y-126200426D01*
X164529680Y-125939273D01*
X164372637Y-125704241D01*
X164172759Y-125504363D01*
X163937727Y-125347320D01*
X163676574Y-125239147D01*
X163399335Y-125184000D01*
X163116665Y-125184000D01*
X162839426Y-125239147D01*
X162578273Y-125347320D01*
X162343241Y-125504363D01*
X162143363Y-125704241D01*
X161986320Y-125939273D01*
X161878147Y-126200426D01*
X161823000Y-126477665D01*
X157173175Y-126477665D01*
X161569336Y-122081504D01*
X161570425Y-122085094D01*
X161720469Y-122390329D01*
X161927178Y-122660427D01*
X162182609Y-122885008D01*
X162476946Y-123055442D01*
X162798877Y-123165179D01*
X163068000Y-123047600D01*
X163068000Y-121603000D01*
X163322000Y-121603000D01*
X163322000Y-123047600D01*
X163591123Y-123165179D01*
X163913054Y-123055442D01*
X164207391Y-122885008D01*
X164462822Y-122660427D01*
X164669531Y-122390329D01*
X164819575Y-122085094D01*
X164884175Y-121872122D01*
X164766125Y-121603000D01*
X163322000Y-121603000D01*
X163068000Y-121603000D01*
X163048000Y-121603000D01*
X163048000Y-121349000D01*
X163068000Y-121349000D01*
X163068000Y-121329000D01*
X163322000Y-121329000D01*
X163322000Y-121349000D01*
X164766125Y-121349000D01*
X164884175Y-121079878D01*
X164819575Y-120866906D01*
X164669531Y-120561671D01*
X164462822Y-120291573D01*
X164207391Y-120066992D01*
X163913054Y-119896558D01*
X163887948Y-119888000D01*
X168732604Y-119888000D01*
X168831241Y-119986637D01*
X169066273Y-120143680D01*
X169327426Y-120251853D01*
X169604665Y-120307000D01*
X169887335Y-120307000D01*
X170164574Y-120251853D01*
X170425727Y-120143680D01*
X170660759Y-119986637D01*
X170860637Y-119786759D01*
X171017680Y-119551727D01*
X171125853Y-119290574D01*
X171181000Y-119013335D01*
X171181000Y-118730665D01*
X171125853Y-118453426D01*
X171017680Y-118192273D01*
X170860637Y-117957241D01*
X170660759Y-117757363D01*
X170425727Y-117600320D01*
X170164574Y-117492147D01*
X169887335Y-117437000D01*
X169604665Y-117437000D01*
X169327426Y-117492147D01*
X169066273Y-117600320D01*
X168831241Y-117757363D01*
X168732604Y-117856000D01*
X163391893Y-117856000D01*
X163341999Y-117851086D01*
X163292105Y-117856000D01*
X163292098Y-117856000D01*
X163142829Y-117870702D01*
X162951313Y-117928798D01*
X162774810Y-118023140D01*
X162620104Y-118150104D01*
X162588292Y-118188867D01*
X155369583Y-125407576D01*
X155292482Y-125384188D01*
X155168000Y-125371928D01*
X153568000Y-125371928D01*
X153443518Y-125384188D01*
X153323820Y-125420498D01*
X153213506Y-125479463D01*
X153116815Y-125558815D01*
X153037463Y-125655506D01*
X152978498Y-125765820D01*
X152942188Y-125885518D01*
X152929928Y-126010000D01*
X142622841Y-126010000D01*
X141999917Y-125387077D01*
X142139490Y-125359314D01*
X142393727Y-125254005D01*
X142622535Y-125101120D01*
X142817120Y-124906535D01*
X142970005Y-124677727D01*
X142980309Y-124652851D01*
X143050104Y-124737896D01*
X143103454Y-124781679D01*
X143186880Y-124906535D01*
X143381465Y-125101120D01*
X143610273Y-125254005D01*
X143864510Y-125359314D01*
X144134408Y-125413000D01*
X144409592Y-125413000D01*
X144679490Y-125359314D01*
X144933727Y-125254005D01*
X145162535Y-125101120D01*
X145282090Y-124981565D01*
X146026040Y-124981565D01*
X146093020Y-125221656D01*
X146342048Y-125338756D01*
X146609135Y-125405023D01*
X146884017Y-125417910D01*
X147156133Y-125376922D01*
X147415023Y-125283636D01*
X147530980Y-125221656D01*
X147597960Y-124981565D01*
X146812000Y-124195605D01*
X146026040Y-124981565D01*
X145282090Y-124981565D01*
X145357120Y-124906535D01*
X145510005Y-124677727D01*
X145539692Y-124606057D01*
X145544364Y-124619023D01*
X145606344Y-124734980D01*
X145846435Y-124801960D01*
X146632395Y-124016000D01*
X146991605Y-124016000D01*
X147777565Y-124801960D01*
X148017656Y-124734980D01*
X148134756Y-124485952D01*
X148201023Y-124218865D01*
X148213910Y-123943983D01*
X148172922Y-123671867D01*
X148079636Y-123412977D01*
X148017656Y-123297020D01*
X147777565Y-123230040D01*
X146991605Y-124016000D01*
X146632395Y-124016000D01*
X145846435Y-123230040D01*
X145606344Y-123297020D01*
X145542515Y-123432760D01*
X145510005Y-123354273D01*
X145357120Y-123125465D01*
X145282090Y-123050435D01*
X146026040Y-123050435D01*
X146812000Y-123836395D01*
X147597960Y-123050435D01*
X147530980Y-122810344D01*
X147281952Y-122693244D01*
X147014865Y-122626977D01*
X146739983Y-122614090D01*
X146467867Y-122655078D01*
X146208977Y-122748364D01*
X146093020Y-122810344D01*
X146026040Y-123050435D01*
X145282090Y-123050435D01*
X145162535Y-122930880D01*
X144933727Y-122777995D01*
X144679490Y-122672686D01*
X144409592Y-122619000D01*
X144311840Y-122619000D01*
X144253204Y-122560363D01*
X144243450Y-122549162D01*
X144217928Y-122525088D01*
X144193135Y-122500295D01*
X144181661Y-122490879D01*
X129670634Y-108803123D01*
X129603764Y-108738308D01*
X129555814Y-108707340D01*
X129510675Y-108672450D01*
X129427434Y-108631033D01*
X129380734Y-108607001D01*
X129439490Y-108595314D01*
X129693727Y-108490005D01*
X129922535Y-108337120D01*
X130117120Y-108142535D01*
X130270005Y-107913727D01*
X130302000Y-107836485D01*
X130333995Y-107913727D01*
X130486880Y-108142535D01*
X130681465Y-108337120D01*
X130910273Y-108490005D01*
X131164510Y-108595314D01*
X131434408Y-108649000D01*
X131709592Y-108649000D01*
X131979490Y-108595314D01*
X132233727Y-108490005D01*
X132462535Y-108337120D01*
X132657120Y-108142535D01*
X132810005Y-107913727D01*
X132842000Y-107836485D01*
X132873995Y-107913727D01*
X133026880Y-108142535D01*
X133221465Y-108337120D01*
X133450273Y-108490005D01*
X133704510Y-108595314D01*
X133974408Y-108649000D01*
X134072160Y-108649000D01*
X138932292Y-113509133D01*
X138964104Y-113547896D01*
X139118810Y-113674860D01*
X139295313Y-113769202D01*
X139428732Y-113809674D01*
X139486828Y-113827298D01*
X139506177Y-113829204D01*
X139636098Y-113842000D01*
X139636105Y-113842000D01*
X139685999Y-113846914D01*
X139735893Y-113842000D01*
X145471743Y-113842000D01*
X145653733Y-113917383D01*
X145873012Y-113961000D01*
X146096588Y-113961000D01*
X146315867Y-113917383D01*
X146522424Y-113831824D01*
X146708320Y-113707612D01*
X146866412Y-113549520D01*
X146990624Y-113363624D01*
X147076183Y-113157067D01*
X147119800Y-112937788D01*
X147119800Y-112714212D01*
X147076183Y-112494933D01*
X146990624Y-112288376D01*
X146866412Y-112102480D01*
X146708320Y-111944388D01*
X146522424Y-111820176D01*
X146315867Y-111734617D01*
X146096588Y-111691000D01*
X145873012Y-111691000D01*
X145653733Y-111734617D01*
X145471743Y-111810000D01*
X140106841Y-111810000D01*
X136919917Y-108623077D01*
X137059490Y-108595314D01*
X137313727Y-108490005D01*
X137542535Y-108337120D01*
X137737120Y-108142535D01*
X137890005Y-107913727D01*
X137922000Y-107836485D01*
X137953995Y-107913727D01*
X138106880Y-108142535D01*
X138301465Y-108337120D01*
X138530273Y-108490005D01*
X138784510Y-108595314D01*
X139054408Y-108649000D01*
X139329592Y-108649000D01*
X139599490Y-108595314D01*
X139853727Y-108490005D01*
X140082535Y-108337120D01*
X140277120Y-108142535D01*
X140430005Y-107913727D01*
X140462000Y-107836485D01*
X140493995Y-107913727D01*
X140646880Y-108142535D01*
X140841465Y-108337120D01*
X141070273Y-108490005D01*
X141324510Y-108595314D01*
X141594408Y-108649000D01*
X141869592Y-108649000D01*
X142139490Y-108595314D01*
X142393727Y-108490005D01*
X142622535Y-108337120D01*
X142817120Y-108142535D01*
X142970005Y-107913727D01*
X143002000Y-107836485D01*
X143033995Y-107913727D01*
X143186880Y-108142535D01*
X143381465Y-108337120D01*
X143610273Y-108490005D01*
X143864510Y-108595314D01*
X144134408Y-108649000D01*
X144409592Y-108649000D01*
X144679490Y-108595314D01*
X144933727Y-108490005D01*
X145162535Y-108337120D01*
X145282090Y-108217565D01*
X146026040Y-108217565D01*
X146093020Y-108457656D01*
X146342048Y-108574756D01*
X146609135Y-108641023D01*
X146884017Y-108653910D01*
X147156133Y-108612922D01*
X147415023Y-108519636D01*
X147530980Y-108457656D01*
X147597960Y-108217565D01*
X146812000Y-107431605D01*
X146026040Y-108217565D01*
X145282090Y-108217565D01*
X145357120Y-108142535D01*
X145510005Y-107913727D01*
X145539692Y-107842057D01*
X145544364Y-107855023D01*
X145606344Y-107970980D01*
X145846435Y-108037960D01*
X146632395Y-107252000D01*
X146991605Y-107252000D01*
X147777565Y-108037960D01*
X148017656Y-107970980D01*
X148134756Y-107721952D01*
X148201023Y-107454865D01*
X148213910Y-107179983D01*
X148172922Y-106907867D01*
X148079636Y-106648977D01*
X148017656Y-106533020D01*
X147777565Y-106466040D01*
X146991605Y-107252000D01*
X146632395Y-107252000D01*
X146618253Y-107237858D01*
X146797858Y-107058253D01*
X146812000Y-107072395D01*
X147597960Y-106286435D01*
X147530980Y-106046344D01*
X147281952Y-105929244D01*
X147014865Y-105862977D01*
X146739983Y-105850090D01*
X146636221Y-105865719D01*
X147589234Y-104912707D01*
X147771224Y-104837324D01*
X147957120Y-104713112D01*
X148115212Y-104555020D01*
X148239424Y-104369124D01*
X148324983Y-104162567D01*
X148368600Y-103943288D01*
X148368600Y-103719712D01*
X148324983Y-103500433D01*
X148239424Y-103293876D01*
X148115212Y-103107980D01*
X147957120Y-102949888D01*
X147771224Y-102825676D01*
X147631105Y-102767636D01*
X147765734Y-102633007D01*
X147947724Y-102557624D01*
X148133620Y-102433412D01*
X148291712Y-102275320D01*
X148415924Y-102089424D01*
X148501483Y-101882867D01*
X148545100Y-101663588D01*
X148545100Y-101440012D01*
X148501483Y-101220733D01*
X148415924Y-101014176D01*
X148291712Y-100828280D01*
X148133620Y-100670188D01*
X147947724Y-100545976D01*
X147741167Y-100460417D01*
X147521888Y-100416800D01*
X147298312Y-100416800D01*
X147079033Y-100460417D01*
X146872476Y-100545976D01*
X146686580Y-100670188D01*
X146528488Y-100828280D01*
X146404276Y-101014176D01*
X146328893Y-101196166D01*
X141670060Y-105855000D01*
X141594408Y-105855000D01*
X141324510Y-105908686D01*
X141070273Y-106013995D01*
X140841465Y-106166880D01*
X140646880Y-106361465D01*
X140493995Y-106590273D01*
X140462000Y-106667515D01*
X140430005Y-106590273D01*
X140277120Y-106361465D01*
X140082535Y-106166880D01*
X139853727Y-106013995D01*
X139599490Y-105908686D01*
X139329592Y-105855000D01*
X139054408Y-105855000D01*
X138784510Y-105908686D01*
X138530273Y-106013995D01*
X138301465Y-106166880D01*
X138106880Y-106361465D01*
X137953995Y-106590273D01*
X137922000Y-106667515D01*
X137890005Y-106590273D01*
X137737120Y-106361465D01*
X137542535Y-106166880D01*
X137313727Y-106013995D01*
X137059490Y-105908686D01*
X136789592Y-105855000D01*
X136514408Y-105855000D01*
X136244510Y-105908686D01*
X135990273Y-106013995D01*
X135761465Y-106166880D01*
X135566880Y-106361465D01*
X135413995Y-106590273D01*
X135382000Y-106667515D01*
X135350005Y-106590273D01*
X135197120Y-106361465D01*
X135002535Y-106166880D01*
X134773727Y-106013995D01*
X134519490Y-105908686D01*
X134249592Y-105855000D01*
X133974408Y-105855000D01*
X133704510Y-105908686D01*
X133450273Y-106013995D01*
X133221465Y-106166880D01*
X133026880Y-106361465D01*
X132873995Y-106590273D01*
X132842000Y-106667515D01*
X132810005Y-106590273D01*
X132657120Y-106361465D01*
X132462535Y-106166880D01*
X132233727Y-106013995D01*
X131979490Y-105908686D01*
X131709592Y-105855000D01*
X131434408Y-105855000D01*
X131164510Y-105908686D01*
X130910273Y-106013995D01*
X130681465Y-106166880D01*
X130486880Y-106361465D01*
X130333995Y-106590273D01*
X130302000Y-106667515D01*
X130270005Y-106590273D01*
X130117120Y-106361465D01*
X129922535Y-106166880D01*
X129693727Y-106013995D01*
X129439490Y-105908686D01*
X129169592Y-105855000D01*
X128894408Y-105855000D01*
X128624510Y-105908686D01*
X128370273Y-106013995D01*
X128141465Y-106166880D01*
X127946880Y-106361465D01*
X127793995Y-106590273D01*
X127688686Y-106844510D01*
X127635000Y-107114408D01*
X127635000Y-107389592D01*
X127688686Y-107659490D01*
X127724293Y-107745453D01*
X127571500Y-107592660D01*
X127571500Y-106275340D01*
X131611841Y-102235000D01*
X135586098Y-102235000D01*
X135636000Y-102239915D01*
X135685902Y-102235000D01*
X144579098Y-102235000D01*
X144629000Y-102239915D01*
X144678902Y-102235000D01*
X144828171Y-102220298D01*
X145019687Y-102162202D01*
X145196190Y-102067860D01*
X145350896Y-101940896D01*
X145382712Y-101902128D01*
X146479133Y-100805708D01*
X146517896Y-100773896D01*
X146644860Y-100619190D01*
X146739202Y-100442687D01*
X146797298Y-100251171D01*
X146812000Y-100101902D01*
X146812000Y-100101895D01*
X146816914Y-100052001D01*
X146812000Y-100002107D01*
X146812000Y-99928072D01*
X147296000Y-99928072D01*
X147420482Y-99915812D01*
X147540180Y-99879502D01*
X147650494Y-99820537D01*
X147747185Y-99741185D01*
X147826537Y-99644494D01*
X147885502Y-99534180D01*
X147921812Y-99414482D01*
X147922386Y-99408653D01*
X153082952Y-99408653D01*
X153238962Y-99724214D01*
X153613745Y-99915020D01*
X154018551Y-100029044D01*
X154437824Y-100061902D01*
X154855451Y-100012334D01*
X155255383Y-99882243D01*
X155551038Y-99724214D01*
X155707048Y-99408653D01*
X154395000Y-98096605D01*
X153082952Y-99408653D01*
X147922386Y-99408653D01*
X147934072Y-99290000D01*
X147934072Y-97959824D01*
X152250098Y-97959824D01*
X152299666Y-98377451D01*
X152429757Y-98777383D01*
X152587786Y-99073038D01*
X152903347Y-99229048D01*
X154215395Y-97917000D01*
X154574605Y-97917000D01*
X155886653Y-99229048D01*
X156202214Y-99073038D01*
X156393020Y-98698255D01*
X156507044Y-98293449D01*
X156539902Y-97874176D01*
X156490334Y-97456549D01*
X156360243Y-97056617D01*
X156202214Y-96760962D01*
X155886653Y-96604952D01*
X154574605Y-97917000D01*
X154215395Y-97917000D01*
X152903347Y-96604952D01*
X152587786Y-96760962D01*
X152396980Y-97135745D01*
X152282956Y-97540551D01*
X152250098Y-97959824D01*
X147934072Y-97959824D01*
X147934072Y-96425347D01*
X153082952Y-96425347D01*
X154395000Y-97737395D01*
X155707048Y-96425347D01*
X155551038Y-96109786D01*
X155176255Y-95918980D01*
X154771449Y-95804956D01*
X154352176Y-95772098D01*
X153934549Y-95821666D01*
X153534617Y-95951757D01*
X153238962Y-96109786D01*
X153082952Y-96425347D01*
X147934072Y-96425347D01*
X147934072Y-96290000D01*
X147921812Y-96165518D01*
X147885502Y-96045820D01*
X147826537Y-95935506D01*
X147747185Y-95838815D01*
X147650494Y-95759463D01*
X147540180Y-95700498D01*
X147420482Y-95664188D01*
X147296000Y-95651928D01*
X144296000Y-95651928D01*
X144171518Y-95664188D01*
X144051820Y-95700498D01*
X143941506Y-95759463D01*
X143844815Y-95838815D01*
X143765463Y-95935506D01*
X143706498Y-96045820D01*
X143670188Y-96165518D01*
X143657928Y-96290000D01*
X143657928Y-99290000D01*
X143670188Y-99414482D01*
X143706498Y-99534180D01*
X143765463Y-99644494D01*
X143844815Y-99741185D01*
X143941506Y-99820537D01*
X144051820Y-99879502D01*
X144171518Y-99915812D01*
X144296000Y-99928072D01*
X144483088Y-99928072D01*
X144208160Y-100203000D01*
X136652000Y-100203000D01*
X136652000Y-99678873D01*
X136996983Y-99448363D01*
X137294363Y-99150983D01*
X137528012Y-98801302D01*
X137688953Y-98412756D01*
X137771000Y-98000279D01*
X137771000Y-97579721D01*
X137688953Y-97167244D01*
X137528012Y-96778698D01*
X137294363Y-96429017D01*
X136996983Y-96131637D01*
X136647302Y-95897988D01*
X136258756Y-95737047D01*
X135846279Y-95655000D01*
X135425721Y-95655000D01*
X135013244Y-95737047D01*
X134624698Y-95897988D01*
X134275017Y-96131637D01*
X133977637Y-96429017D01*
X133743988Y-96778698D01*
X133583047Y-97167244D01*
X133501000Y-97579721D01*
X133501000Y-98000279D01*
X133583047Y-98412756D01*
X133743988Y-98801302D01*
X133977637Y-99150983D01*
X134275017Y-99448363D01*
X134620001Y-99678873D01*
X134620001Y-99861409D01*
X134620000Y-99861419D01*
X134620000Y-100203000D01*
X131240902Y-100203000D01*
X131191000Y-100198085D01*
X131141098Y-100203000D01*
X130991829Y-100217702D01*
X130800313Y-100275798D01*
X130623810Y-100370140D01*
X130469104Y-100497104D01*
X130437293Y-100535866D01*
X125984000Y-104989160D01*
X125984000Y-102312660D01*
X129616826Y-99711888D01*
X129933244Y-99842953D01*
X130345721Y-99925000D01*
X130766279Y-99925000D01*
X131178756Y-99842953D01*
X131567302Y-99682012D01*
X131916983Y-99448363D01*
X132214363Y-99150983D01*
X132448012Y-98801302D01*
X132608953Y-98412756D01*
X132691000Y-98000279D01*
X132691000Y-97579721D01*
X132608953Y-97167244D01*
X132468862Y-96829034D01*
X133307486Y-95631000D01*
X138552699Y-95631000D01*
X138986703Y-96535177D01*
X138823988Y-96778698D01*
X138663047Y-97167244D01*
X138581000Y-97579721D01*
X138581000Y-98000279D01*
X138663047Y-98412756D01*
X138823988Y-98801302D01*
X139057637Y-99150983D01*
X139355017Y-99448363D01*
X139704698Y-99682012D01*
X140093244Y-99842953D01*
X140505721Y-99925000D01*
X140926279Y-99925000D01*
X141338756Y-99842953D01*
X141727302Y-99682012D01*
X142076983Y-99448363D01*
X142374363Y-99150983D01*
X142608012Y-98801302D01*
X142768953Y-98412756D01*
X142851000Y-98000279D01*
X142851000Y-97579721D01*
X142768953Y-97167244D01*
X142608012Y-96778698D01*
X142374363Y-96429017D01*
X142076983Y-96131637D01*
X141727302Y-95897988D01*
X141338756Y-95737047D01*
X140926279Y-95655000D01*
X140818181Y-95655000D01*
X140209061Y-94386000D01*
X169381862Y-94386000D01*
X169329127Y-94438735D01*
G37*
X169329127Y-94438735D02*
X169444396Y-94554004D01*
X169162611Y-94670275D01*
X169004743Y-94988860D01*
X168912062Y-95332122D01*
X168888127Y-95686869D01*
X168933861Y-96039470D01*
X169047505Y-96376373D01*
X169162611Y-96591725D01*
X169444398Y-96707997D01*
X170521395Y-95631000D01*
X170507253Y-95616858D01*
X170686858Y-95437253D01*
X170701000Y-95451395D01*
X170715143Y-95437253D01*
X170894748Y-95616858D01*
X170880605Y-95631000D01*
X171957602Y-96707997D01*
X172239389Y-96591725D01*
X172397257Y-96273140D01*
X172489938Y-95929878D01*
X172513873Y-95575131D01*
X172468139Y-95222530D01*
X172354495Y-94885627D01*
X172239389Y-94670275D01*
X171957604Y-94554004D01*
X172072873Y-94438735D01*
X172020138Y-94386000D01*
X174393344Y-94386000D01*
X174298965Y-94480379D01*
X174101429Y-94776012D01*
X173965365Y-95104501D01*
X173896000Y-95453223D01*
X173896000Y-95808777D01*
X173965365Y-96157499D01*
X174101429Y-96485988D01*
X174298965Y-96781621D01*
X174550379Y-97033035D01*
X174764588Y-97176165D01*
X174736010Y-97191440D01*
X174581304Y-97318404D01*
X174549492Y-97357167D01*
X172671367Y-99235292D01*
X172489376Y-99310676D01*
X172303480Y-99434888D01*
X172145388Y-99592980D01*
X172021176Y-99778876D01*
X171935617Y-99985433D01*
X171892000Y-100204712D01*
X171892000Y-100428288D01*
X171935617Y-100647567D01*
X172021176Y-100854124D01*
X172145388Y-101040020D01*
X172303480Y-101198112D01*
X172489376Y-101322324D01*
X172695933Y-101407883D01*
X172915212Y-101451500D01*
X173138788Y-101451500D01*
X173358067Y-101407883D01*
X173564624Y-101322324D01*
X173750520Y-101198112D01*
X173908612Y-101040020D01*
X174032824Y-100854124D01*
X174108208Y-100672133D01*
X175724041Y-99056300D01*
X178626643Y-99056300D01*
X178808633Y-99131683D01*
X179027912Y-99175300D01*
X179251488Y-99175300D01*
X179470767Y-99131683D01*
X179677324Y-99046124D01*
X179863220Y-98921912D01*
X180021312Y-98763820D01*
X180145524Y-98577924D01*
X180231083Y-98371367D01*
X180274700Y-98152088D01*
X180274700Y-97928512D01*
X180231083Y-97709233D01*
X180145524Y-97502676D01*
X180021312Y-97316780D01*
X179998099Y-97293567D01*
X180174501Y-97366635D01*
X180340000Y-97399555D01*
X180340001Y-104332603D01*
X180241363Y-104431241D01*
X180084320Y-104666273D01*
X179976147Y-104927426D01*
X179921000Y-105204665D01*
X179921000Y-105487335D01*
X179969608Y-105731700D01*
X179801641Y-105731700D01*
X179392907Y-105322967D01*
X179317524Y-105140976D01*
X179193312Y-104955080D01*
X179035220Y-104796988D01*
X178849324Y-104672776D01*
X178642767Y-104587217D01*
X178423488Y-104543600D01*
X178199912Y-104543600D01*
X177980633Y-104587217D01*
X177774076Y-104672776D01*
X177665248Y-104745493D01*
X177659603Y-104729708D01*
X177592671Y-104604486D01*
X177348702Y-104532903D01*
X176535605Y-105346000D01*
X177235198Y-106045593D01*
X177305876Y-106216224D01*
X177430088Y-106402120D01*
X177588180Y-106560212D01*
X177774076Y-106684424D01*
X177956067Y-106759807D01*
X178627092Y-107430833D01*
X178658904Y-107469596D01*
X178813610Y-107596560D01*
X178930475Y-107659025D01*
X178990113Y-107690902D01*
X179181629Y-107748998D01*
X179380800Y-107768615D01*
X179430702Y-107763700D01*
X187412498Y-107763700D01*
X187462400Y-107768615D01*
X187512302Y-107763700D01*
X187661571Y-107748998D01*
X187853087Y-107690902D01*
X188029590Y-107596560D01*
X188184296Y-107469596D01*
X188216112Y-107430828D01*
X192129834Y-103517107D01*
X192311824Y-103441724D01*
X192497720Y-103317512D01*
X192655812Y-103159420D01*
X192780024Y-102973524D01*
X192865583Y-102766967D01*
X192909200Y-102547688D01*
X192909200Y-102324112D01*
X192865583Y-102104833D01*
X192780024Y-101898276D01*
X192655812Y-101712380D01*
X192535144Y-101591712D01*
X194448893Y-101591712D01*
X194556726Y-101866338D01*
X194863384Y-102017216D01*
X195193585Y-102105369D01*
X195534639Y-102127409D01*
X195873439Y-102082489D01*
X196196966Y-101972336D01*
X196395274Y-101866338D01*
X196503107Y-101591712D01*
X195476000Y-100564605D01*
X194448893Y-101591712D01*
X192535144Y-101591712D01*
X192497720Y-101554288D01*
X192311824Y-101430076D01*
X192105267Y-101344517D01*
X192045500Y-101332629D01*
X192045500Y-101241512D01*
X192001883Y-101022233D01*
X191916324Y-100815676D01*
X191792112Y-100629780D01*
X191634020Y-100471688D01*
X191592042Y-100443639D01*
X193733591Y-100443639D01*
X193778511Y-100782439D01*
X193888664Y-101105966D01*
X193994662Y-101304274D01*
X194269288Y-101412107D01*
X195296395Y-100385000D01*
X195655605Y-100385000D01*
X196682712Y-101412107D01*
X196957338Y-101304274D01*
X197108216Y-100997616D01*
X197196369Y-100667415D01*
X197218409Y-100326361D01*
X197173489Y-99987561D01*
X197063336Y-99664034D01*
X196957338Y-99465726D01*
X196682712Y-99357893D01*
X195655605Y-100385000D01*
X195296395Y-100385000D01*
X194269288Y-99357893D01*
X193994662Y-99465726D01*
X193843784Y-99772384D01*
X193755631Y-100102585D01*
X193733591Y-100443639D01*
X191592042Y-100443639D01*
X191448124Y-100347476D01*
X191241567Y-100261917D01*
X191022288Y-100218300D01*
X190798712Y-100218300D01*
X190711000Y-100235747D01*
X190711000Y-100214117D01*
X190644325Y-99878919D01*
X190513537Y-99563169D01*
X190323663Y-99279002D01*
X190222949Y-99178288D01*
X194448893Y-99178288D01*
X195476000Y-100205395D01*
X196503107Y-99178288D01*
X196395274Y-98903662D01*
X196088616Y-98752784D01*
X195758415Y-98664631D01*
X195417361Y-98642591D01*
X195078561Y-98687511D01*
X194755034Y-98797664D01*
X194556726Y-98903662D01*
X194448893Y-99178288D01*
X190222949Y-99178288D01*
X190081998Y-99037337D01*
X189992000Y-98977202D01*
X189992000Y-97623072D01*
X190076000Y-97623072D01*
X190200482Y-97610812D01*
X190320180Y-97574502D01*
X190430494Y-97515537D01*
X190527185Y-97436185D01*
X190606537Y-97339494D01*
X190665502Y-97229180D01*
X190701812Y-97109482D01*
X190703562Y-97091712D01*
X194448893Y-97091712D01*
X194556726Y-97366338D01*
X194863384Y-97517216D01*
X195193585Y-97605369D01*
X195534639Y-97627409D01*
X195873439Y-97582489D01*
X196196966Y-97472336D01*
X196395274Y-97366338D01*
X196503107Y-97091712D01*
X195476000Y-96064605D01*
X194448893Y-97091712D01*
X190703562Y-97091712D01*
X190714072Y-96985000D01*
X190714072Y-95943639D01*
X193733591Y-95943639D01*
X193778511Y-96282439D01*
X193888664Y-96605966D01*
X193994662Y-96804274D01*
X194269288Y-96912107D01*
X195296395Y-95885000D01*
X195655605Y-95885000D01*
X196682712Y-96912107D01*
X196957338Y-96804274D01*
X197108216Y-96497616D01*
X197196369Y-96167415D01*
X197218409Y-95826361D01*
X197173489Y-95487561D01*
X197063336Y-95164034D01*
X196957338Y-94965726D01*
X196682712Y-94857893D01*
X195655605Y-95885000D01*
X195296395Y-95885000D01*
X194269288Y-94857893D01*
X193994662Y-94965726D01*
X193843784Y-95272384D01*
X193755631Y-95602585D01*
X193733591Y-95943639D01*
X190714072Y-95943639D01*
X190714072Y-94785000D01*
X190701812Y-94660518D01*
X190665502Y-94540820D01*
X190606537Y-94430506D01*
X190570012Y-94386000D01*
X194589769Y-94386000D01*
X194556726Y-94403662D01*
X194448893Y-94678288D01*
X195476000Y-95705395D01*
X196503107Y-94678288D01*
X196395274Y-94403662D01*
X196359376Y-94386000D01*
X200219786Y-94386000D01*
X199999241Y-94533363D01*
X199799363Y-94733241D01*
X199642320Y-94968273D01*
X199568894Y-95145540D01*
X197950309Y-95885047D01*
X197919813Y-95894298D01*
X197859492Y-95926540D01*
X197842897Y-95934122D01*
X197815512Y-95950047D01*
X197743310Y-95988640D01*
X197729108Y-96000295D01*
X197713237Y-96009525D01*
X197651900Y-96063659D01*
X197588604Y-96115604D01*
X197576946Y-96129809D01*
X197563184Y-96141955D01*
X197513583Y-96207018D01*
X197461640Y-96270310D01*
X197452982Y-96286509D01*
X197441848Y-96301113D01*
X197405876Y-96374639D01*
X197367298Y-96446814D01*
X197361968Y-96464386D01*
X197353895Y-96480886D01*
X197332958Y-96560018D01*
X197309202Y-96638330D01*
X197307402Y-96656606D01*
X197302704Y-96674362D01*
X197297609Y-96756034D01*
X197294500Y-96787599D01*
X197294500Y-96805869D01*
X197290243Y-96874107D01*
X197294500Y-96905677D01*
X197294501Y-104481158D01*
X187139860Y-114635800D01*
X186754240Y-114635800D01*
X193887434Y-107502607D01*
X194069424Y-107427224D01*
X194255320Y-107303012D01*
X194413412Y-107144920D01*
X194537624Y-106959024D01*
X194623183Y-106752467D01*
X194666800Y-106533188D01*
X194666800Y-106309612D01*
X194623183Y-106090333D01*
X194537624Y-105883776D01*
X194413412Y-105697880D01*
X194255320Y-105539788D01*
X194069424Y-105415576D01*
X193862867Y-105330017D01*
X193643588Y-105286400D01*
X193420012Y-105286400D01*
X193200733Y-105330017D01*
X192994176Y-105415576D01*
X192808280Y-105539788D01*
X192650188Y-105697880D01*
X192525976Y-105883776D01*
X192450593Y-106065766D01*
X185073740Y-113442619D01*
X184941533Y-113468917D01*
X184734976Y-113554476D01*
X184549080Y-113678688D01*
X184390988Y-113836780D01*
X184266776Y-114022676D01*
X184181217Y-114229233D01*
X184137600Y-114448512D01*
X184137600Y-114610551D01*
X184052076Y-114645976D01*
X183866180Y-114770188D01*
X183708088Y-114928280D01*
X183583876Y-115114176D01*
X183498317Y-115320733D01*
X183454700Y-115540012D01*
X183454700Y-115763588D01*
X183498317Y-115982867D01*
X183583876Y-116189424D01*
X183708088Y-116375320D01*
X183866180Y-116533412D01*
X184052076Y-116657624D01*
X184258633Y-116743183D01*
X184477912Y-116786800D01*
X184701488Y-116786800D01*
X184920767Y-116743183D01*
X185102757Y-116667800D01*
X187510798Y-116667800D01*
X187560700Y-116672715D01*
X187610602Y-116667800D01*
X187759871Y-116653098D01*
X187951387Y-116595002D01*
X188127890Y-116500660D01*
X188282596Y-116373696D01*
X188314412Y-116334928D01*
X198323600Y-106325741D01*
X198323600Y-106333557D01*
X185184266Y-119472892D01*
X185155576Y-119484776D01*
X184969680Y-119608988D01*
X184811588Y-119767080D01*
X184687376Y-119952976D01*
X184601817Y-120159533D01*
X184558200Y-120378812D01*
X184558200Y-120602388D01*
X184601817Y-120821667D01*
X184687376Y-121028224D01*
X184811588Y-121214120D01*
X184969680Y-121372212D01*
X185155576Y-121496424D01*
X185362133Y-121581983D01*
X185581412Y-121625600D01*
X185804988Y-121625600D01*
X186024267Y-121581983D01*
X186230824Y-121496424D01*
X186416720Y-121372212D01*
X186574812Y-121214120D01*
X186699024Y-121028224D01*
X186710908Y-120999534D01*
X200184421Y-107526022D01*
X200225615Y-107492215D01*
X200360514Y-107327840D01*
X200460753Y-107140306D01*
X200522480Y-106936819D01*
X200538100Y-106778229D01*
X200538100Y-106778222D01*
X200543322Y-106725201D01*
X200538100Y-106672179D01*
X200538100Y-106665555D01*
X200549983Y-106636867D01*
X200593600Y-106417588D01*
X200593600Y-106194012D01*
X200549983Y-105974733D01*
X200464424Y-105768176D01*
X200340212Y-105582280D01*
X200182120Y-105424188D01*
X199996224Y-105299976D01*
X199789667Y-105214417D01*
X199570388Y-105170800D01*
X199346812Y-105170800D01*
X199287071Y-105182683D01*
X199311798Y-105101171D01*
X199326500Y-104951902D01*
X199331415Y-104902000D01*
X199326500Y-104852098D01*
X199326500Y-100718512D01*
X199473783Y-100718512D01*
X199515213Y-100998130D01*
X199610397Y-101264292D01*
X199677329Y-101389514D01*
X199921298Y-101461097D01*
X200734395Y-100648000D01*
X199921298Y-99834903D01*
X199677329Y-99906486D01*
X199556429Y-100161996D01*
X199487700Y-100436184D01*
X199473783Y-100718512D01*
X199326500Y-100718512D01*
X199326500Y-97490324D01*
X200413238Y-96993810D01*
X200495426Y-97027853D01*
X200772665Y-97083000D01*
X200912160Y-97083000D01*
X201394600Y-97565441D01*
X201394600Y-99289075D01*
X201125816Y-99221700D01*
X200843488Y-99207783D01*
X200563870Y-99249213D01*
X200297708Y-99344397D01*
X200172486Y-99411329D01*
X200100903Y-99655298D01*
X200914000Y-100468395D01*
X200928143Y-100454253D01*
X201107748Y-100633858D01*
X201093605Y-100648000D01*
X201107748Y-100662143D01*
X200928143Y-100841748D01*
X200914000Y-100827605D01*
X200100903Y-101640702D01*
X200172486Y-101884671D01*
X200427996Y-102005571D01*
X200702184Y-102074300D01*
X200984512Y-102088217D01*
X201264130Y-102046787D01*
X201360035Y-102012490D01*
X201319217Y-102111033D01*
X201275600Y-102330312D01*
X201275600Y-102553888D01*
X201319217Y-102773167D01*
X201404776Y-102979724D01*
X201528988Y-103165620D01*
X201687080Y-103323712D01*
X201872976Y-103447924D01*
X202079533Y-103533483D01*
X202298812Y-103577100D01*
X202522388Y-103577100D01*
X202741667Y-103533483D01*
X202948224Y-103447924D01*
X203134120Y-103323712D01*
X203292212Y-103165620D01*
X203416424Y-102979724D01*
X203501983Y-102773167D01*
X203545600Y-102553888D01*
X203545600Y-102330312D01*
X203501983Y-102111033D01*
X203426600Y-101929043D01*
X203426600Y-97562536D01*
X203578282Y-97663887D01*
X203969677Y-97826007D01*
X204385179Y-97908656D01*
X204808821Y-97908656D01*
X205224323Y-97826007D01*
X205615718Y-97663887D01*
X205967963Y-97428524D01*
X205969001Y-97427486D01*
X205969000Y-133966513D01*
X205967963Y-133965476D01*
X205615718Y-133730113D01*
X205224323Y-133567993D01*
X204808821Y-133485344D01*
X204385179Y-133485344D01*
X203969677Y-133567993D01*
X203578282Y-133730113D01*
X203226037Y-133965476D01*
X202926476Y-134265037D01*
X202691113Y-134617282D01*
X202528993Y-135008677D01*
X202446344Y-135424179D01*
X202446344Y-135847821D01*
X202528993Y-136263323D01*
X202691113Y-136654718D01*
X202926476Y-137006963D01*
X202927513Y-137008000D01*
X197786655Y-137008000D01*
X197923632Y-136916475D01*
X198130475Y-136709632D01*
X198292990Y-136466411D01*
X198404932Y-136196158D01*
X198462000Y-135909260D01*
X198462000Y-135616740D01*
X198404932Y-135329842D01*
X198292990Y-135059589D01*
X198130475Y-134816368D01*
X197923632Y-134609525D01*
X197680411Y-134447010D01*
X197410158Y-134335068D01*
X197123260Y-134278000D01*
X196830740Y-134278000D01*
X196543842Y-134335068D01*
X196273589Y-134447010D01*
X196030368Y-134609525D01*
X195823525Y-134816368D01*
X195701805Y-134998534D01*
X195632178Y-134881645D01*
X195437269Y-134665412D01*
X195203920Y-134491359D01*
X194941099Y-134366175D01*
X194793890Y-134321524D01*
X194564000Y-134442845D01*
X194564000Y-135636000D01*
X194584000Y-135636000D01*
X194584000Y-135890000D01*
X194564000Y-135890000D01*
X194564000Y-135910000D01*
X194310000Y-135910000D01*
X194310000Y-135890000D01*
X194290000Y-135890000D01*
X194290000Y-135636000D01*
X194310000Y-135636000D01*
X194310000Y-134442845D01*
X194080110Y-134321524D01*
X193932901Y-134366175D01*
X193670080Y-134491359D01*
X193436731Y-134665412D01*
X193241822Y-134881645D01*
X193172195Y-134998534D01*
X193050475Y-134816368D01*
X192843632Y-134609525D01*
X192600411Y-134447010D01*
X192330158Y-134335068D01*
X192043260Y-134278000D01*
X191750740Y-134278000D01*
X191463842Y-134335068D01*
X191193589Y-134447010D01*
X190950368Y-134609525D01*
X190743525Y-134816368D01*
X190627000Y-134990760D01*
X190510475Y-134816368D01*
X190303632Y-134609525D01*
X190060411Y-134447010D01*
X189790158Y-134335068D01*
X189503260Y-134278000D01*
X189210740Y-134278000D01*
X188923842Y-134335068D01*
X188653589Y-134447010D01*
X188410368Y-134609525D01*
X188278513Y-134741380D01*
X188256502Y-134668820D01*
X188197537Y-134558506D01*
X188118185Y-134461815D01*
X188021494Y-134382463D01*
X187911180Y-134323498D01*
X187833000Y-134299782D01*
X187833000Y-132131400D01*
X194249998Y-132131400D01*
X194299900Y-132136315D01*
X194349802Y-132131400D01*
X194499071Y-132116698D01*
X194690587Y-132058602D01*
X194867090Y-131964260D01*
X195021796Y-131837296D01*
X195053612Y-131798528D01*
X196857141Y-129995000D01*
X197001184Y-129995000D01*
X197297743Y-129936011D01*
X197577095Y-129820299D01*
X197828505Y-129652312D01*
X198042312Y-129438505D01*
X198210299Y-129187095D01*
X198326011Y-128907743D01*
X198385000Y-128611184D01*
X198385000Y-128308816D01*
X198326011Y-128012257D01*
X198210299Y-127732905D01*
X198042312Y-127481495D01*
X197828505Y-127267688D01*
X197577095Y-127099701D01*
X197297743Y-126983989D01*
X197001184Y-126925000D01*
X196698816Y-126925000D01*
X196402257Y-126983989D01*
X196122905Y-127099701D01*
X195871495Y-127267688D01*
X195805056Y-127334127D01*
X195799502Y-127315820D01*
X195740537Y-127205506D01*
X195661185Y-127108815D01*
X195564494Y-127029463D01*
X195454180Y-126970498D01*
X195334482Y-126934188D01*
X195210000Y-126921928D01*
X193410000Y-126921928D01*
X193285518Y-126934188D01*
X193165820Y-126970498D01*
X193055506Y-127029463D01*
X192958815Y-127108815D01*
X192879463Y-127205506D01*
X192820498Y-127315820D01*
X192784188Y-127435518D01*
X192783397Y-127443547D01*
X192629529Y-127458702D01*
X192438013Y-127516798D01*
X192261510Y-127611140D01*
X192106804Y-127738104D01*
X192074992Y-127776867D01*
X191296548Y-128555311D01*
X191244853Y-128295426D01*
X191136680Y-128034273D01*
X190979637Y-127799241D01*
X190779759Y-127599363D01*
X190544727Y-127442320D01*
X190283574Y-127334147D01*
X190006335Y-127279000D01*
X189723665Y-127279000D01*
X189446426Y-127334147D01*
X189185273Y-127442320D01*
X188950241Y-127599363D01*
X188750363Y-127799241D01*
X188593320Y-128034273D01*
X188485147Y-128295426D01*
X188430000Y-128572665D01*
X188430000Y-128855335D01*
X188475525Y-129084200D01*
X188185941Y-129084200D01*
X188021207Y-128919467D01*
X187945824Y-128737476D01*
X187821612Y-128551580D01*
X187663520Y-128393488D01*
X187477624Y-128269276D01*
X187271067Y-128183717D01*
X187051788Y-128140100D01*
X186828212Y-128140100D01*
X186608933Y-128183717D01*
X186402376Y-128269276D01*
X186216480Y-128393488D01*
X186189688Y-128420280D01*
X186164853Y-128295426D01*
X186056680Y-128034273D01*
X185899637Y-127799241D01*
X185699759Y-127599363D01*
X185464727Y-127442320D01*
X185203574Y-127334147D01*
X184926335Y-127279000D01*
X184786841Y-127279000D01*
X181483012Y-123975172D01*
X181451196Y-123936404D01*
X181296490Y-123809440D01*
X181119987Y-123715098D01*
X180928471Y-123657002D01*
X180779202Y-123642300D01*
X180729300Y-123637385D01*
X180679398Y-123642300D01*
X178319007Y-123642300D01*
X178299202Y-123577013D01*
X178204860Y-123400510D01*
X178077896Y-123245804D01*
X178039127Y-123213987D01*
X177896400Y-123071260D01*
X177896400Y-121780221D01*
X178096184Y-121830300D01*
X178378512Y-121844217D01*
X178658130Y-121802787D01*
X178924292Y-121707603D01*
X179049514Y-121640671D01*
X179121097Y-121396702D01*
X178308000Y-120583605D01*
X178293858Y-120597748D01*
X178114253Y-120418143D01*
X178128395Y-120404000D01*
X178487605Y-120404000D01*
X179300702Y-121217097D01*
X179544671Y-121145514D01*
X179665571Y-120890004D01*
X179734300Y-120615816D01*
X179748217Y-120333488D01*
X179706787Y-120053870D01*
X179611603Y-119787708D01*
X179544671Y-119662486D01*
X179300702Y-119590903D01*
X178487605Y-120404000D01*
X178128395Y-120404000D01*
X178114253Y-120389858D01*
X178293858Y-120210253D01*
X178308000Y-120224395D01*
X179121097Y-119411298D01*
X179049514Y-119167329D01*
X178922779Y-119107362D01*
X178991133Y-119039008D01*
X179029896Y-119007196D01*
X179156860Y-118852490D01*
X179251202Y-118675987D01*
X179309298Y-118484471D01*
X179324000Y-118335202D01*
X179324000Y-118335195D01*
X179327365Y-118301030D01*
X179352180Y-118293502D01*
X179462494Y-118234537D01*
X179559185Y-118155185D01*
X179638537Y-118058494D01*
X179697502Y-117948180D01*
X179733812Y-117828482D01*
X179743881Y-117726245D01*
X179808433Y-117752983D01*
X180027712Y-117796600D01*
X180251288Y-117796600D01*
X180470567Y-117752983D01*
X180677124Y-117667424D01*
X180863020Y-117543212D01*
X181021112Y-117385120D01*
X181145324Y-117199224D01*
X181230883Y-116992667D01*
X181274500Y-116773388D01*
X181274500Y-116549812D01*
X181230883Y-116330533D01*
X181219000Y-116301845D01*
X181219000Y-115104529D01*
X181224223Y-115051500D01*
X181203380Y-114839881D01*
X181163556Y-114708598D01*
X181141653Y-114636394D01*
X181041414Y-114448860D01*
X180999124Y-114397329D01*
X180940319Y-114325675D01*
X180940318Y-114325674D01*
X180906515Y-114284485D01*
X180865326Y-114250682D01*
X177643682Y-111029039D01*
X179456096Y-111029039D01*
X179496754Y-111163087D01*
X179616963Y-111417420D01*
X179784481Y-111643414D01*
X179992869Y-111832385D01*
X180234119Y-111977070D01*
X180498960Y-112071909D01*
X180721000Y-111950624D01*
X180721000Y-110807000D01*
X180975000Y-110807000D01*
X180975000Y-111950624D01*
X181197040Y-112071909D01*
X181461881Y-111977070D01*
X181703131Y-111832385D01*
X181911519Y-111643414D01*
X182079037Y-111417420D01*
X182199246Y-111163087D01*
X182239904Y-111029039D01*
X182117915Y-110807000D01*
X180975000Y-110807000D01*
X180721000Y-110807000D01*
X179578085Y-110807000D01*
X179456096Y-111029039D01*
X177643682Y-111029039D01*
X177203000Y-110588358D01*
X177203000Y-110538665D01*
X177161685Y-110330961D01*
X179456096Y-110330961D01*
X179578085Y-110553000D01*
X180721000Y-110553000D01*
X180721000Y-109409376D01*
X180975000Y-109409376D01*
X180975000Y-110553000D01*
X182117915Y-110553000D01*
X182239904Y-110330961D01*
X182199246Y-110196913D01*
X182079037Y-109942580D01*
X181911519Y-109716586D01*
X181703131Y-109527615D01*
X181461881Y-109382930D01*
X181197040Y-109288091D01*
X180975000Y-109409376D01*
X180721000Y-109409376D01*
X180498960Y-109288091D01*
X180234119Y-109382930D01*
X179992869Y-109527615D01*
X179784481Y-109716586D01*
X179616963Y-109942580D01*
X179496754Y-110196913D01*
X179456096Y-110330961D01*
X177161685Y-110330961D01*
X177147853Y-110261426D01*
X177039680Y-110000273D01*
X176882637Y-109765241D01*
X176682759Y-109565363D01*
X176447727Y-109408320D01*
X176186574Y-109300147D01*
X175909335Y-109245000D01*
X175859643Y-109245000D01*
X172953345Y-106338702D01*
X175542903Y-106338702D01*
X175614486Y-106582671D01*
X175869996Y-106703571D01*
X176144184Y-106772300D01*
X176426512Y-106786217D01*
X176706130Y-106744787D01*
X176972292Y-106649603D01*
X177097514Y-106582671D01*
X177169097Y-106338702D01*
X176356000Y-105525605D01*
X175542903Y-106338702D01*
X172953345Y-106338702D01*
X172910500Y-106295858D01*
X172910500Y-106169896D01*
X172945637Y-106134759D01*
X173102680Y-105899727D01*
X173210853Y-105638574D01*
X173255024Y-105416512D01*
X174915783Y-105416512D01*
X174957213Y-105696130D01*
X175052397Y-105962292D01*
X175119329Y-106087514D01*
X175363298Y-106159097D01*
X176176395Y-105346000D01*
X175363298Y-104532903D01*
X175119329Y-104604486D01*
X174998429Y-104859996D01*
X174929700Y-105134184D01*
X174915783Y-105416512D01*
X173255024Y-105416512D01*
X173266000Y-105361335D01*
X173266000Y-105078665D01*
X173210853Y-104801426D01*
X173102680Y-104540273D01*
X172977748Y-104353298D01*
X175542903Y-104353298D01*
X176356000Y-105166395D01*
X177169097Y-104353298D01*
X177097514Y-104109329D01*
X176842004Y-103988429D01*
X176567816Y-103919700D01*
X176285488Y-103905783D01*
X176005870Y-103947213D01*
X175739708Y-104042397D01*
X175614486Y-104109329D01*
X175542903Y-104353298D01*
X172977748Y-104353298D01*
X172945637Y-104305241D01*
X172745759Y-104105363D01*
X172510727Y-103948320D01*
X172249574Y-103840147D01*
X171972335Y-103785000D01*
X171689665Y-103785000D01*
X171412426Y-103840147D01*
X171151273Y-103948320D01*
X170916241Y-104105363D01*
X170716363Y-104305241D01*
X170559320Y-104540273D01*
X170451147Y-104801426D01*
X170396000Y-105078665D01*
X170396000Y-105361335D01*
X170451147Y-105638574D01*
X170540255Y-105853700D01*
X168041745Y-105853700D01*
X168130853Y-105638574D01*
X168186000Y-105361335D01*
X168186000Y-105078665D01*
X168130853Y-104801426D01*
X168022680Y-104540273D01*
X167865637Y-104305241D01*
X167665759Y-104105363D01*
X167430727Y-103948320D01*
X167169574Y-103840147D01*
X166892335Y-103785000D01*
X166609665Y-103785000D01*
X166332426Y-103840147D01*
X166071273Y-103948320D01*
X165836241Y-104105363D01*
X165801104Y-104140500D01*
X165197143Y-104140500D01*
X162196322Y-101139680D01*
X162196318Y-101139675D01*
X162196312Y-101139669D01*
X162162514Y-101098486D01*
X162121331Y-101064688D01*
X161099457Y-100042814D01*
X161099482Y-100042812D01*
X161219180Y-100006502D01*
X161329494Y-99947537D01*
X161426185Y-99868185D01*
X161505537Y-99771494D01*
X161564502Y-99661180D01*
X161600812Y-99541482D01*
X161613072Y-99417000D01*
X161613072Y-96887602D01*
X169624003Y-96887602D01*
X169740275Y-97169389D01*
X170058860Y-97327257D01*
X170402122Y-97419938D01*
X170756869Y-97443873D01*
X171109470Y-97398139D01*
X171446373Y-97284495D01*
X171661725Y-97169389D01*
X171777997Y-96887602D01*
X170701000Y-95810605D01*
X169624003Y-96887602D01*
X161613072Y-96887602D01*
X161613072Y-96417000D01*
X161600812Y-96292518D01*
X161564502Y-96172820D01*
X161505537Y-96062506D01*
X161426185Y-95965815D01*
X161329494Y-95886463D01*
X161219180Y-95827498D01*
X161099482Y-95791188D01*
X160975000Y-95778928D01*
X157975000Y-95778928D01*
X157850518Y-95791188D01*
X157730820Y-95827498D01*
X157620506Y-95886463D01*
X157523815Y-95965815D01*
X157444463Y-96062506D01*
X157385498Y-96172820D01*
X157349188Y-96292518D01*
X157336928Y-96417000D01*
X157336928Y-99417000D01*
X157349188Y-99541482D01*
X157385498Y-99661180D01*
X157444463Y-99771494D01*
X157523815Y-99868185D01*
X157620506Y-99947537D01*
X157730820Y-100006502D01*
X157850518Y-100042812D01*
X157975000Y-100055072D01*
X158401118Y-100055072D01*
X158411120Y-100156618D01*
X158472847Y-100360105D01*
X158573086Y-100547640D01*
X158707985Y-100712015D01*
X158749184Y-100745827D01*
X159868857Y-101865500D01*
X154506430Y-107227928D01*
X153442500Y-107227928D01*
X153318018Y-107240188D01*
X153198320Y-107276498D01*
X153088006Y-107335463D01*
X152991315Y-107414815D01*
X152911963Y-107511506D01*
X152852998Y-107621820D01*
X152816688Y-107741518D01*
X152804428Y-107866000D01*
X152804428Y-109866000D01*
X152816688Y-109990482D01*
X152852998Y-110110180D01*
X152911963Y-110220494D01*
X152991315Y-110317185D01*
X153030123Y-110349034D01*
X152309180Y-111069978D01*
X152267986Y-111103785D01*
X152133087Y-111268160D01*
X152066180Y-111393335D01*
X152032847Y-111455696D01*
X151971120Y-111659182D01*
X151950277Y-111870800D01*
X151955501Y-111923839D01*
X151955500Y-119737928D01*
X151935000Y-119737928D01*
X151810518Y-119750188D01*
X151690820Y-119786498D01*
X151580506Y-119845463D01*
X151483815Y-119924815D01*
X151404463Y-120021506D01*
X151345498Y-120131820D01*
X151309188Y-120251518D01*
X151296928Y-120376000D01*
X151296928Y-122576000D01*
X151309188Y-122700482D01*
X151345498Y-122820180D01*
X151404463Y-122930494D01*
X151483815Y-123027185D01*
X151580506Y-123106537D01*
X151690820Y-123165502D01*
X151810518Y-123201812D01*
X151935000Y-123214072D01*
X154135000Y-123214072D01*
X154259482Y-123201812D01*
X154379180Y-123165502D01*
X154489494Y-123106537D01*
X154586185Y-123027185D01*
X154665537Y-122930494D01*
X154724502Y-122820180D01*
X154760812Y-122700482D01*
X154773072Y-122576000D01*
X154773072Y-120376000D01*
X154760812Y-120251518D01*
X154724502Y-120131820D01*
X154665537Y-120021506D01*
X154586185Y-119924815D01*
X154489494Y-119845463D01*
X154379180Y-119786498D01*
X154259482Y-119750188D01*
X154135000Y-119737928D01*
X154114500Y-119737928D01*
X154114500Y-112317942D01*
X155120821Y-111311622D01*
X155162015Y-111277815D01*
X155296914Y-111113440D01*
X155397153Y-110925906D01*
X155458880Y-110722419D01*
X155474500Y-110563829D01*
X155474500Y-110563822D01*
X155479722Y-110510801D01*
X155477682Y-110490083D01*
X155591680Y-110455502D01*
X155701994Y-110396537D01*
X155798685Y-110317185D01*
X155878037Y-110220494D01*
X155927059Y-110128781D01*
X156068077Y-110241969D01*
X156343906Y-110385571D01*
X156562020Y-110456563D01*
X156808000Y-110336594D01*
X156808000Y-108993000D01*
X156788000Y-108993000D01*
X156788000Y-108739000D01*
X156808000Y-108739000D01*
X156808000Y-108719000D01*
X157062000Y-108719000D01*
X157062000Y-108739000D01*
X157082000Y-108739000D01*
X157082000Y-108993000D01*
X157062000Y-108993000D01*
X157062000Y-110336594D01*
X157307980Y-110456563D01*
X157526094Y-110385571D01*
X157801923Y-110241969D01*
X158044437Y-110047315D01*
X158199837Y-109862101D01*
X158347037Y-110041463D01*
X158588766Y-110239845D01*
X158864552Y-110387255D01*
X159163797Y-110478030D01*
X159200693Y-110481664D01*
X155483358Y-114199000D01*
X155433665Y-114199000D01*
X155156426Y-114254147D01*
X154895273Y-114362320D01*
X154660241Y-114519363D01*
X154460363Y-114719241D01*
X154303320Y-114954273D01*
X154195147Y-115215426D01*
X154140000Y-115492665D01*
X154140000Y-115775335D01*
X154195147Y-116052574D01*
X154303320Y-116313727D01*
X154460363Y-116548759D01*
X154660241Y-116748637D01*
X154895273Y-116905680D01*
X155156426Y-117013853D01*
X155433665Y-117069000D01*
X155716335Y-117069000D01*
X155993574Y-117013853D01*
X156254727Y-116905680D01*
X156489759Y-116748637D01*
X156611694Y-116626702D01*
X159761903Y-116626702D01*
X159833486Y-116870671D01*
X160088996Y-116991571D01*
X160363184Y-117060300D01*
X160645512Y-117074217D01*
X160925130Y-117032787D01*
X161191292Y-116937603D01*
X161316514Y-116870671D01*
X161388097Y-116626702D01*
X160575000Y-115813605D01*
X159761903Y-116626702D01*
X156611694Y-116626702D01*
X156689637Y-116548759D01*
X156846680Y-116313727D01*
X156954853Y-116052574D01*
X157010000Y-115775335D01*
X157010000Y-115725642D01*
X157031130Y-115704512D01*
X159134783Y-115704512D01*
X159176213Y-115984130D01*
X159271397Y-116250292D01*
X159338329Y-116375514D01*
X159582298Y-116447097D01*
X160395395Y-115634000D01*
X160754605Y-115634000D01*
X161567702Y-116447097D01*
X161811671Y-116375514D01*
X161932571Y-116120004D01*
X162001300Y-115845816D01*
X162015217Y-115563488D01*
X161973787Y-115283870D01*
X161878603Y-115017708D01*
X161811671Y-114892486D01*
X161567702Y-114820903D01*
X160754605Y-115634000D01*
X160395395Y-115634000D01*
X159582298Y-114820903D01*
X159338329Y-114892486D01*
X159217429Y-115147996D01*
X159148700Y-115422184D01*
X159134783Y-115704512D01*
X157031130Y-115704512D01*
X158094344Y-114641298D01*
X159761903Y-114641298D01*
X160575000Y-115454395D01*
X161388097Y-114641298D01*
X161316514Y-114397329D01*
X161061004Y-114276429D01*
X160786816Y-114207700D01*
X160504488Y-114193783D01*
X160224870Y-114235213D01*
X159958708Y-114330397D01*
X159833486Y-114397329D01*
X159761903Y-114641298D01*
X158094344Y-114641298D01*
X164722943Y-108012700D01*
X171574058Y-108012700D01*
X174333000Y-110771643D01*
X174333000Y-110821335D01*
X174388147Y-111098574D01*
X174496320Y-111359727D01*
X174653363Y-111594759D01*
X174853241Y-111794637D01*
X175088273Y-111951680D01*
X175349426Y-112059853D01*
X175626665Y-112115000D01*
X175676358Y-112115000D01*
X179027284Y-115465928D01*
X177508000Y-115465928D01*
X177383518Y-115478188D01*
X177263820Y-115514498D01*
X177153506Y-115573463D01*
X177056815Y-115652815D01*
X176977463Y-115749506D01*
X176918498Y-115859820D01*
X176882188Y-115979518D01*
X176869928Y-116104000D01*
X176869928Y-116939006D01*
X171181000Y-111250151D01*
X171181000Y-111110665D01*
X171125853Y-110833426D01*
X171017680Y-110572273D01*
X170860637Y-110337241D01*
X170660759Y-110137363D01*
X170425727Y-109980320D01*
X170164574Y-109872147D01*
X169887335Y-109817000D01*
X169604665Y-109817000D01*
X169327426Y-109872147D01*
X169066273Y-109980320D01*
X168831241Y-110137363D01*
X168631363Y-110337241D01*
X168474320Y-110572273D01*
X168366147Y-110833426D01*
X168311000Y-111110665D01*
X168311000Y-111393335D01*
X168366147Y-111670574D01*
X168474320Y-111931727D01*
X168631363Y-112166759D01*
X168831241Y-112366637D01*
X169066273Y-112523680D01*
X169327426Y-112631853D01*
X169604665Y-112687000D01*
X169744169Y-112687000D01*
X176108808Y-119051558D01*
X176031540Y-119145710D01*
X175937198Y-119322214D01*
X175887885Y-119484776D01*
X175879102Y-119513730D01*
X175859485Y-119712900D01*
X175864400Y-119762802D01*
X175864401Y-123442188D01*
X175859485Y-123492100D01*
X175879102Y-123691270D01*
X175923126Y-123836395D01*
X175937199Y-123882787D01*
X176031541Y-124059290D01*
X176083986Y-124123195D01*
X176025463Y-124194506D01*
X175966498Y-124304820D01*
X175930188Y-124424518D01*
X175917928Y-124549000D01*
X175917928Y-125004831D01*
X168480872Y-132441888D01*
X168442104Y-132473704D01*
X168315140Y-132628410D01*
X168220798Y-132804914D01*
X168181631Y-132934029D01*
X168162702Y-132996430D01*
X168143085Y-133195600D01*
X168148000Y-133245502D01*
X168148000Y-134299782D01*
X168069820Y-134323498D01*
X167959506Y-134382463D01*
X167862815Y-134461815D01*
X167783463Y-134558506D01*
X167724498Y-134668820D01*
X167700034Y-134749466D01*
X167624269Y-134665412D01*
X167390920Y-134491359D01*
X167128099Y-134366175D01*
X166980890Y-134321524D01*
X166751000Y-134442845D01*
X166751000Y-135636000D01*
X166771000Y-135636000D01*
X166771000Y-135890000D01*
X166751000Y-135890000D01*
X166751000Y-135910000D01*
X166497000Y-135910000D01*
X166497000Y-135890000D01*
X166477000Y-135890000D01*
X166477000Y-135636000D01*
X166497000Y-135636000D01*
X166497000Y-134442845D01*
X166267110Y-134321524D01*
X166119901Y-134366175D01*
X165857080Y-134491359D01*
X165623731Y-134665412D01*
X165428822Y-134881645D01*
X165359195Y-134998534D01*
X165237475Y-134816368D01*
X165100000Y-134678893D01*
X165100000Y-131362240D01*
X167304634Y-129157607D01*
X167486624Y-129082224D01*
X167672520Y-128958012D01*
X167830612Y-128799920D01*
X167954824Y-128614024D01*
X168040383Y-128407467D01*
X168084000Y-128188188D01*
X168084000Y-127964612D01*
X168040383Y-127745333D01*
X167954824Y-127538776D01*
X167830612Y-127352880D01*
X167672520Y-127194788D01*
X167486624Y-127070576D01*
X167280067Y-126985017D01*
X167194713Y-126968039D01*
X169486096Y-126968039D01*
X169526754Y-127102087D01*
X169646963Y-127356420D01*
X169814481Y-127582414D01*
X170022869Y-127771385D01*
X170264119Y-127916070D01*
X170528960Y-128010909D01*
X170751000Y-127889624D01*
X170751000Y-126746000D01*
X171005000Y-126746000D01*
X171005000Y-127889624D01*
X171227040Y-128010909D01*
X171491881Y-127916070D01*
X171733131Y-127771385D01*
X171941519Y-127582414D01*
X172109037Y-127356420D01*
X172229246Y-127102087D01*
X172269904Y-126968039D01*
X172147915Y-126746000D01*
X171005000Y-126746000D01*
X170751000Y-126746000D01*
X169608085Y-126746000D01*
X169486096Y-126968039D01*
X167194713Y-126968039D01*
X167060788Y-126941400D01*
X166837212Y-126941400D01*
X166617933Y-126985017D01*
X166411376Y-127070576D01*
X166225480Y-127194788D01*
X166067388Y-127352880D01*
X165943176Y-127538776D01*
X165867793Y-127720766D01*
X163400868Y-130187692D01*
X163362105Y-130219504D01*
X163235141Y-130374210D01*
X163142137Y-130548210D01*
X163140799Y-130550713D01*
X163082702Y-130742230D01*
X163063085Y-130941400D01*
X163068001Y-130991312D01*
X163068000Y-134678893D01*
X162930525Y-134816368D01*
X162814000Y-134990760D01*
X162697475Y-134816368D01*
X162490632Y-134609525D01*
X162247411Y-134447010D01*
X161977158Y-134335068D01*
X161690260Y-134278000D01*
X161397740Y-134278000D01*
X161110842Y-134335068D01*
X160840589Y-134447010D01*
X160597368Y-134609525D01*
X160390525Y-134816368D01*
X160274000Y-134990760D01*
X160157475Y-134816368D01*
X159950632Y-134609525D01*
X159707411Y-134447010D01*
X159437158Y-134335068D01*
X159150260Y-134278000D01*
X158857740Y-134278000D01*
X158570842Y-134335068D01*
X158300589Y-134447010D01*
X158057368Y-134609525D01*
X157850525Y-134816368D01*
X157734000Y-134990760D01*
X157617475Y-134816368D01*
X157410632Y-134609525D01*
X157167411Y-134447010D01*
X156897158Y-134335068D01*
X156610260Y-134278000D01*
X156317740Y-134278000D01*
X156030842Y-134335068D01*
X155760589Y-134447010D01*
X155517368Y-134609525D01*
X155310525Y-134816368D01*
X155194000Y-134990760D01*
X155077475Y-134816368D01*
X154870632Y-134609525D01*
X154627411Y-134447010D01*
X154357158Y-134335068D01*
X154070260Y-134278000D01*
X153777740Y-134278000D01*
X153490842Y-134335068D01*
X153220589Y-134447010D01*
X152977368Y-134609525D01*
X152770525Y-134816368D01*
X152654000Y-134990760D01*
X152537475Y-134816368D01*
X152330632Y-134609525D01*
X152087411Y-134447010D01*
X151817158Y-134335068D01*
X151530260Y-134278000D01*
X151237740Y-134278000D01*
X150950842Y-134335068D01*
X150680589Y-134447010D01*
X150437368Y-134609525D01*
X150230525Y-134816368D01*
X150068010Y-135059589D01*
X149956068Y-135329842D01*
X149899000Y-135616740D01*
X149899000Y-135909260D01*
X149956068Y-136196158D01*
X150068010Y-136466411D01*
X150230525Y-136709632D01*
X150437368Y-136916475D01*
X150574345Y-137008000D01*
X143973389Y-137008000D01*
X145041627Y-135477821D01*
X145077721Y-135485000D01*
X145498279Y-135485000D01*
X145910756Y-135402953D01*
X146299302Y-135242012D01*
X146648983Y-135008363D01*
X146946363Y-134710983D01*
X147180012Y-134361302D01*
X147340953Y-133972756D01*
X147423000Y-133560279D01*
X147423000Y-133139721D01*
X147340953Y-132727244D01*
X147180012Y-132338698D01*
X146946363Y-131989017D01*
X146648983Y-131691637D01*
X146304000Y-131461127D01*
X146304000Y-130302702D01*
X153554903Y-130302702D01*
X153626486Y-130546671D01*
X153881996Y-130667571D01*
X154156184Y-130736300D01*
X154438512Y-130750217D01*
X154718130Y-130708787D01*
X154984292Y-130613603D01*
X155109514Y-130546671D01*
X155181097Y-130302702D01*
X154368000Y-129489605D01*
X153554903Y-130302702D01*
X146304000Y-130302702D01*
X146304000Y-130161902D01*
X146308915Y-130112000D01*
X146289298Y-129912829D01*
X146231202Y-129721312D01*
X146196934Y-129657201D01*
X146136860Y-129544810D01*
X146009896Y-129390104D01*
X145998209Y-129380512D01*
X152927783Y-129380512D01*
X152969213Y-129660130D01*
X153064397Y-129926292D01*
X153131329Y-130051514D01*
X153375298Y-130123097D01*
X154188395Y-129310000D01*
X154547605Y-129310000D01*
X155360702Y-130123097D01*
X155604671Y-130051514D01*
X155725571Y-129796004D01*
X155794300Y-129521816D01*
X155808217Y-129239488D01*
X155766787Y-128959870D01*
X155671603Y-128693708D01*
X155604671Y-128568486D01*
X155360702Y-128496903D01*
X154547605Y-129310000D01*
X154188395Y-129310000D01*
X153375298Y-128496903D01*
X153131329Y-128568486D01*
X153010429Y-128823996D01*
X152941700Y-129098184D01*
X152927783Y-129380512D01*
X145998209Y-129380512D01*
X145971133Y-129358292D01*
X142622841Y-126010000D01*
X152929928Y-126010000D01*
X152929928Y-127610000D01*
X152942188Y-127734482D01*
X152978498Y-127854180D01*
X153037463Y-127964494D01*
X153116815Y-128061185D01*
X153213506Y-128140537D01*
X153323820Y-128199502D01*
X153443518Y-128235812D01*
X153568000Y-128248072D01*
X153575215Y-128248072D01*
X153554903Y-128317298D01*
X154368000Y-129130395D01*
X155181097Y-128317298D01*
X155160785Y-128248072D01*
X155168000Y-128248072D01*
X155292482Y-128235812D01*
X155412180Y-128199502D01*
X155522494Y-128140537D01*
X155619185Y-128061185D01*
X155698537Y-127964494D01*
X155757502Y-127854180D01*
X155765029Y-127829366D01*
X155799202Y-127826000D01*
X155948471Y-127811298D01*
X156139987Y-127753202D01*
X156316490Y-127658860D01*
X156471196Y-127531896D01*
X156598160Y-127377190D01*
X156692502Y-127200687D01*
X156750598Y-127009171D01*
X156762499Y-126888341D01*
X157173175Y-126477665D01*
X161823000Y-126477665D01*
X161823000Y-126760335D01*
X161878147Y-127037574D01*
X161986320Y-127298727D01*
X162143363Y-127533759D01*
X162343241Y-127733637D01*
X162578273Y-127890680D01*
X162839426Y-127998853D01*
X163116665Y-128054000D01*
X163399335Y-128054000D01*
X163676574Y-127998853D01*
X163937727Y-127890680D01*
X164172759Y-127733637D01*
X164372637Y-127533759D01*
X164529680Y-127298727D01*
X164637853Y-127037574D01*
X164693000Y-126760335D01*
X164693000Y-126477665D01*
X164651685Y-126269961D01*
X169486096Y-126269961D01*
X169608085Y-126492000D01*
X170751000Y-126492000D01*
X170751000Y-125348376D01*
X171005000Y-125348376D01*
X171005000Y-126492000D01*
X172147915Y-126492000D01*
X172269904Y-126269961D01*
X172229246Y-126135913D01*
X172109037Y-125881580D01*
X171941519Y-125655586D01*
X171733131Y-125466615D01*
X171491881Y-125321930D01*
X171227040Y-125227091D01*
X171005000Y-125348376D01*
X170751000Y-125348376D01*
X170528960Y-125227091D01*
X170264119Y-125321930D01*
X170022869Y-125466615D01*
X169814481Y-125655586D01*
X169646963Y-125881580D01*
X169526754Y-126135913D01*
X169486096Y-126269961D01*
X164651685Y-126269961D01*
X164637853Y-126200426D01*
X164529680Y-125939273D01*
X164372637Y-125704241D01*
X164172759Y-125504363D01*
X163937727Y-125347320D01*
X163676574Y-125239147D01*
X163399335Y-125184000D01*
X163116665Y-125184000D01*
X162839426Y-125239147D01*
X162578273Y-125347320D01*
X162343241Y-125504363D01*
X162143363Y-125704241D01*
X161986320Y-125939273D01*
X161878147Y-126200426D01*
X161823000Y-126477665D01*
X157173175Y-126477665D01*
X161569336Y-122081504D01*
X161570425Y-122085094D01*
X161720469Y-122390329D01*
X161927178Y-122660427D01*
X162182609Y-122885008D01*
X162476946Y-123055442D01*
X162798877Y-123165179D01*
X163068000Y-123047600D01*
X163068000Y-121603000D01*
X163322000Y-121603000D01*
X163322000Y-123047600D01*
X163591123Y-123165179D01*
X163913054Y-123055442D01*
X164207391Y-122885008D01*
X164462822Y-122660427D01*
X164669531Y-122390329D01*
X164819575Y-122085094D01*
X164884175Y-121872122D01*
X164766125Y-121603000D01*
X163322000Y-121603000D01*
X163068000Y-121603000D01*
X163048000Y-121603000D01*
X163048000Y-121349000D01*
X163068000Y-121349000D01*
X163068000Y-121329000D01*
X163322000Y-121329000D01*
X163322000Y-121349000D01*
X164766125Y-121349000D01*
X164884175Y-121079878D01*
X164819575Y-120866906D01*
X164669531Y-120561671D01*
X164462822Y-120291573D01*
X164207391Y-120066992D01*
X163913054Y-119896558D01*
X163887948Y-119888000D01*
X168732604Y-119888000D01*
X168831241Y-119986637D01*
X169066273Y-120143680D01*
X169327426Y-120251853D01*
X169604665Y-120307000D01*
X169887335Y-120307000D01*
X170164574Y-120251853D01*
X170425727Y-120143680D01*
X170660759Y-119986637D01*
X170860637Y-119786759D01*
X171017680Y-119551727D01*
X171125853Y-119290574D01*
X171181000Y-119013335D01*
X171181000Y-118730665D01*
X171125853Y-118453426D01*
X171017680Y-118192273D01*
X170860637Y-117957241D01*
X170660759Y-117757363D01*
X170425727Y-117600320D01*
X170164574Y-117492147D01*
X169887335Y-117437000D01*
X169604665Y-117437000D01*
X169327426Y-117492147D01*
X169066273Y-117600320D01*
X168831241Y-117757363D01*
X168732604Y-117856000D01*
X163391893Y-117856000D01*
X163341999Y-117851086D01*
X163292105Y-117856000D01*
X163292098Y-117856000D01*
X163142829Y-117870702D01*
X162951313Y-117928798D01*
X162774810Y-118023140D01*
X162620104Y-118150104D01*
X162588292Y-118188867D01*
X155369583Y-125407576D01*
X155292482Y-125384188D01*
X155168000Y-125371928D01*
X153568000Y-125371928D01*
X153443518Y-125384188D01*
X153323820Y-125420498D01*
X153213506Y-125479463D01*
X153116815Y-125558815D01*
X153037463Y-125655506D01*
X152978498Y-125765820D01*
X152942188Y-125885518D01*
X152929928Y-126010000D01*
X142622841Y-126010000D01*
X141999917Y-125387077D01*
X142139490Y-125359314D01*
X142393727Y-125254005D01*
X142622535Y-125101120D01*
X142817120Y-124906535D01*
X142970005Y-124677727D01*
X142980309Y-124652851D01*
X143050104Y-124737896D01*
X143103454Y-124781679D01*
X143186880Y-124906535D01*
X143381465Y-125101120D01*
X143610273Y-125254005D01*
X143864510Y-125359314D01*
X144134408Y-125413000D01*
X144409592Y-125413000D01*
X144679490Y-125359314D01*
X144933727Y-125254005D01*
X145162535Y-125101120D01*
X145282090Y-124981565D01*
X146026040Y-124981565D01*
X146093020Y-125221656D01*
X146342048Y-125338756D01*
X146609135Y-125405023D01*
X146884017Y-125417910D01*
X147156133Y-125376922D01*
X147415023Y-125283636D01*
X147530980Y-125221656D01*
X147597960Y-124981565D01*
X146812000Y-124195605D01*
X146026040Y-124981565D01*
X145282090Y-124981565D01*
X145357120Y-124906535D01*
X145510005Y-124677727D01*
X145539692Y-124606057D01*
X145544364Y-124619023D01*
X145606344Y-124734980D01*
X145846435Y-124801960D01*
X146632395Y-124016000D01*
X146991605Y-124016000D01*
X147777565Y-124801960D01*
X148017656Y-124734980D01*
X148134756Y-124485952D01*
X148201023Y-124218865D01*
X148213910Y-123943983D01*
X148172922Y-123671867D01*
X148079636Y-123412977D01*
X148017656Y-123297020D01*
X147777565Y-123230040D01*
X146991605Y-124016000D01*
X146632395Y-124016000D01*
X145846435Y-123230040D01*
X145606344Y-123297020D01*
X145542515Y-123432760D01*
X145510005Y-123354273D01*
X145357120Y-123125465D01*
X145282090Y-123050435D01*
X146026040Y-123050435D01*
X146812000Y-123836395D01*
X147597960Y-123050435D01*
X147530980Y-122810344D01*
X147281952Y-122693244D01*
X147014865Y-122626977D01*
X146739983Y-122614090D01*
X146467867Y-122655078D01*
X146208977Y-122748364D01*
X146093020Y-122810344D01*
X146026040Y-123050435D01*
X145282090Y-123050435D01*
X145162535Y-122930880D01*
X144933727Y-122777995D01*
X144679490Y-122672686D01*
X144409592Y-122619000D01*
X144311840Y-122619000D01*
X144253204Y-122560363D01*
X144243450Y-122549162D01*
X144217928Y-122525088D01*
X144193135Y-122500295D01*
X144181661Y-122490879D01*
X129670634Y-108803123D01*
X129603764Y-108738308D01*
X129555814Y-108707340D01*
X129510675Y-108672450D01*
X129427434Y-108631033D01*
X129380734Y-108607001D01*
X129439490Y-108595314D01*
X129693727Y-108490005D01*
X129922535Y-108337120D01*
X130117120Y-108142535D01*
X130270005Y-107913727D01*
X130302000Y-107836485D01*
X130333995Y-107913727D01*
X130486880Y-108142535D01*
X130681465Y-108337120D01*
X130910273Y-108490005D01*
X131164510Y-108595314D01*
X131434408Y-108649000D01*
X131709592Y-108649000D01*
X131979490Y-108595314D01*
X132233727Y-108490005D01*
X132462535Y-108337120D01*
X132657120Y-108142535D01*
X132810005Y-107913727D01*
X132842000Y-107836485D01*
X132873995Y-107913727D01*
X133026880Y-108142535D01*
X133221465Y-108337120D01*
X133450273Y-108490005D01*
X133704510Y-108595314D01*
X133974408Y-108649000D01*
X134072160Y-108649000D01*
X138932292Y-113509133D01*
X138964104Y-113547896D01*
X139118810Y-113674860D01*
X139295313Y-113769202D01*
X139428732Y-113809674D01*
X139486828Y-113827298D01*
X139506177Y-113829204D01*
X139636098Y-113842000D01*
X139636105Y-113842000D01*
X139685999Y-113846914D01*
X139735893Y-113842000D01*
X145471743Y-113842000D01*
X145653733Y-113917383D01*
X145873012Y-113961000D01*
X146096588Y-113961000D01*
X146315867Y-113917383D01*
X146522424Y-113831824D01*
X146708320Y-113707612D01*
X146866412Y-113549520D01*
X146990624Y-113363624D01*
X147076183Y-113157067D01*
X147119800Y-112937788D01*
X147119800Y-112714212D01*
X147076183Y-112494933D01*
X146990624Y-112288376D01*
X146866412Y-112102480D01*
X146708320Y-111944388D01*
X146522424Y-111820176D01*
X146315867Y-111734617D01*
X146096588Y-111691000D01*
X145873012Y-111691000D01*
X145653733Y-111734617D01*
X145471743Y-111810000D01*
X140106841Y-111810000D01*
X136919917Y-108623077D01*
X137059490Y-108595314D01*
X137313727Y-108490005D01*
X137542535Y-108337120D01*
X137737120Y-108142535D01*
X137890005Y-107913727D01*
X137922000Y-107836485D01*
X137953995Y-107913727D01*
X138106880Y-108142535D01*
X138301465Y-108337120D01*
X138530273Y-108490005D01*
X138784510Y-108595314D01*
X139054408Y-108649000D01*
X139329592Y-108649000D01*
X139599490Y-108595314D01*
X139853727Y-108490005D01*
X140082535Y-108337120D01*
X140277120Y-108142535D01*
X140430005Y-107913727D01*
X140462000Y-107836485D01*
X140493995Y-107913727D01*
X140646880Y-108142535D01*
X140841465Y-108337120D01*
X141070273Y-108490005D01*
X141324510Y-108595314D01*
X141594408Y-108649000D01*
X141869592Y-108649000D01*
X142139490Y-108595314D01*
X142393727Y-108490005D01*
X142622535Y-108337120D01*
X142817120Y-108142535D01*
X142970005Y-107913727D01*
X143002000Y-107836485D01*
X143033995Y-107913727D01*
X143186880Y-108142535D01*
X143381465Y-108337120D01*
X143610273Y-108490005D01*
X143864510Y-108595314D01*
X144134408Y-108649000D01*
X144409592Y-108649000D01*
X144679490Y-108595314D01*
X144933727Y-108490005D01*
X145162535Y-108337120D01*
X145282090Y-108217565D01*
X146026040Y-108217565D01*
X146093020Y-108457656D01*
X146342048Y-108574756D01*
X146609135Y-108641023D01*
X146884017Y-108653910D01*
X147156133Y-108612922D01*
X147415023Y-108519636D01*
X147530980Y-108457656D01*
X147597960Y-108217565D01*
X146812000Y-107431605D01*
X146026040Y-108217565D01*
X145282090Y-108217565D01*
X145357120Y-108142535D01*
X145510005Y-107913727D01*
X145539692Y-107842057D01*
X145544364Y-107855023D01*
X145606344Y-107970980D01*
X145846435Y-108037960D01*
X146632395Y-107252000D01*
X146991605Y-107252000D01*
X147777565Y-108037960D01*
X148017656Y-107970980D01*
X148134756Y-107721952D01*
X148201023Y-107454865D01*
X148213910Y-107179983D01*
X148172922Y-106907867D01*
X148079636Y-106648977D01*
X148017656Y-106533020D01*
X147777565Y-106466040D01*
X146991605Y-107252000D01*
X146632395Y-107252000D01*
X146618253Y-107237858D01*
X146797858Y-107058253D01*
X146812000Y-107072395D01*
X147597960Y-106286435D01*
X147530980Y-106046344D01*
X147281952Y-105929244D01*
X147014865Y-105862977D01*
X146739983Y-105850090D01*
X146636221Y-105865719D01*
X147589234Y-104912707D01*
X147771224Y-104837324D01*
X147957120Y-104713112D01*
X148115212Y-104555020D01*
X148239424Y-104369124D01*
X148324983Y-104162567D01*
X148368600Y-103943288D01*
X148368600Y-103719712D01*
X148324983Y-103500433D01*
X148239424Y-103293876D01*
X148115212Y-103107980D01*
X147957120Y-102949888D01*
X147771224Y-102825676D01*
X147631105Y-102767636D01*
X147765734Y-102633007D01*
X147947724Y-102557624D01*
X148133620Y-102433412D01*
X148291712Y-102275320D01*
X148415924Y-102089424D01*
X148501483Y-101882867D01*
X148545100Y-101663588D01*
X148545100Y-101440012D01*
X148501483Y-101220733D01*
X148415924Y-101014176D01*
X148291712Y-100828280D01*
X148133620Y-100670188D01*
X147947724Y-100545976D01*
X147741167Y-100460417D01*
X147521888Y-100416800D01*
X147298312Y-100416800D01*
X147079033Y-100460417D01*
X146872476Y-100545976D01*
X146686580Y-100670188D01*
X146528488Y-100828280D01*
X146404276Y-101014176D01*
X146328893Y-101196166D01*
X141670060Y-105855000D01*
X141594408Y-105855000D01*
X141324510Y-105908686D01*
X141070273Y-106013995D01*
X140841465Y-106166880D01*
X140646880Y-106361465D01*
X140493995Y-106590273D01*
X140462000Y-106667515D01*
X140430005Y-106590273D01*
X140277120Y-106361465D01*
X140082535Y-106166880D01*
X139853727Y-106013995D01*
X139599490Y-105908686D01*
X139329592Y-105855000D01*
X139054408Y-105855000D01*
X138784510Y-105908686D01*
X138530273Y-106013995D01*
X138301465Y-106166880D01*
X138106880Y-106361465D01*
X137953995Y-106590273D01*
X137922000Y-106667515D01*
X137890005Y-106590273D01*
X137737120Y-106361465D01*
X137542535Y-106166880D01*
X137313727Y-106013995D01*
X137059490Y-105908686D01*
X136789592Y-105855000D01*
X136514408Y-105855000D01*
X136244510Y-105908686D01*
X135990273Y-106013995D01*
X135761465Y-106166880D01*
X135566880Y-106361465D01*
X135413995Y-106590273D01*
X135382000Y-106667515D01*
X135350005Y-106590273D01*
X135197120Y-106361465D01*
X135002535Y-106166880D01*
X134773727Y-106013995D01*
X134519490Y-105908686D01*
X134249592Y-105855000D01*
X133974408Y-105855000D01*
X133704510Y-105908686D01*
X133450273Y-106013995D01*
X133221465Y-106166880D01*
X133026880Y-106361465D01*
X132873995Y-106590273D01*
X132842000Y-106667515D01*
X132810005Y-106590273D01*
X132657120Y-106361465D01*
X132462535Y-106166880D01*
X132233727Y-106013995D01*
X131979490Y-105908686D01*
X131709592Y-105855000D01*
X131434408Y-105855000D01*
X131164510Y-105908686D01*
X130910273Y-106013995D01*
X130681465Y-106166880D01*
X130486880Y-106361465D01*
X130333995Y-106590273D01*
X130302000Y-106667515D01*
X130270005Y-106590273D01*
X130117120Y-106361465D01*
X129922535Y-106166880D01*
X129693727Y-106013995D01*
X129439490Y-105908686D01*
X129169592Y-105855000D01*
X128894408Y-105855000D01*
X128624510Y-105908686D01*
X128370273Y-106013995D01*
X128141465Y-106166880D01*
X127946880Y-106361465D01*
X127793995Y-106590273D01*
X127688686Y-106844510D01*
X127635000Y-107114408D01*
X127635000Y-107389592D01*
X127688686Y-107659490D01*
X127724293Y-107745453D01*
X127571500Y-107592660D01*
X127571500Y-106275340D01*
X131611841Y-102235000D01*
X135586098Y-102235000D01*
X135636000Y-102239915D01*
X135685902Y-102235000D01*
X144579098Y-102235000D01*
X144629000Y-102239915D01*
X144678902Y-102235000D01*
X144828171Y-102220298D01*
X145019687Y-102162202D01*
X145196190Y-102067860D01*
X145350896Y-101940896D01*
X145382712Y-101902128D01*
X146479133Y-100805708D01*
X146517896Y-100773896D01*
X146644860Y-100619190D01*
X146739202Y-100442687D01*
X146797298Y-100251171D01*
X146812000Y-100101902D01*
X146812000Y-100101895D01*
X146816914Y-100052001D01*
X146812000Y-100002107D01*
X146812000Y-99928072D01*
X147296000Y-99928072D01*
X147420482Y-99915812D01*
X147540180Y-99879502D01*
X147650494Y-99820537D01*
X147747185Y-99741185D01*
X147826537Y-99644494D01*
X147885502Y-99534180D01*
X147921812Y-99414482D01*
X147922386Y-99408653D01*
X153082952Y-99408653D01*
X153238962Y-99724214D01*
X153613745Y-99915020D01*
X154018551Y-100029044D01*
X154437824Y-100061902D01*
X154855451Y-100012334D01*
X155255383Y-99882243D01*
X155551038Y-99724214D01*
X155707048Y-99408653D01*
X154395000Y-98096605D01*
X153082952Y-99408653D01*
X147922386Y-99408653D01*
X147934072Y-99290000D01*
X147934072Y-97959824D01*
X152250098Y-97959824D01*
X152299666Y-98377451D01*
X152429757Y-98777383D01*
X152587786Y-99073038D01*
X152903347Y-99229048D01*
X154215395Y-97917000D01*
X154574605Y-97917000D01*
X155886653Y-99229048D01*
X156202214Y-99073038D01*
X156393020Y-98698255D01*
X156507044Y-98293449D01*
X156539902Y-97874176D01*
X156490334Y-97456549D01*
X156360243Y-97056617D01*
X156202214Y-96760962D01*
X155886653Y-96604952D01*
X154574605Y-97917000D01*
X154215395Y-97917000D01*
X152903347Y-96604952D01*
X152587786Y-96760962D01*
X152396980Y-97135745D01*
X152282956Y-97540551D01*
X152250098Y-97959824D01*
X147934072Y-97959824D01*
X147934072Y-96425347D01*
X153082952Y-96425347D01*
X154395000Y-97737395D01*
X155707048Y-96425347D01*
X155551038Y-96109786D01*
X155176255Y-95918980D01*
X154771449Y-95804956D01*
X154352176Y-95772098D01*
X153934549Y-95821666D01*
X153534617Y-95951757D01*
X153238962Y-96109786D01*
X153082952Y-96425347D01*
X147934072Y-96425347D01*
X147934072Y-96290000D01*
X147921812Y-96165518D01*
X147885502Y-96045820D01*
X147826537Y-95935506D01*
X147747185Y-95838815D01*
X147650494Y-95759463D01*
X147540180Y-95700498D01*
X147420482Y-95664188D01*
X147296000Y-95651928D01*
X144296000Y-95651928D01*
X144171518Y-95664188D01*
X144051820Y-95700498D01*
X143941506Y-95759463D01*
X143844815Y-95838815D01*
X143765463Y-95935506D01*
X143706498Y-96045820D01*
X143670188Y-96165518D01*
X143657928Y-96290000D01*
X143657928Y-99290000D01*
X143670188Y-99414482D01*
X143706498Y-99534180D01*
X143765463Y-99644494D01*
X143844815Y-99741185D01*
X143941506Y-99820537D01*
X144051820Y-99879502D01*
X144171518Y-99915812D01*
X144296000Y-99928072D01*
X144483088Y-99928072D01*
X144208160Y-100203000D01*
X136652000Y-100203000D01*
X136652000Y-99678873D01*
X136996983Y-99448363D01*
X137294363Y-99150983D01*
X137528012Y-98801302D01*
X137688953Y-98412756D01*
X137771000Y-98000279D01*
X137771000Y-97579721D01*
X137688953Y-97167244D01*
X137528012Y-96778698D01*
X137294363Y-96429017D01*
X136996983Y-96131637D01*
X136647302Y-95897988D01*
X136258756Y-95737047D01*
X135846279Y-95655000D01*
X135425721Y-95655000D01*
X135013244Y-95737047D01*
X134624698Y-95897988D01*
X134275017Y-96131637D01*
X133977637Y-96429017D01*
X133743988Y-96778698D01*
X133583047Y-97167244D01*
X133501000Y-97579721D01*
X133501000Y-98000279D01*
X133583047Y-98412756D01*
X133743988Y-98801302D01*
X133977637Y-99150983D01*
X134275017Y-99448363D01*
X134620001Y-99678873D01*
X134620001Y-99861409D01*
X134620000Y-99861419D01*
X134620000Y-100203000D01*
X131240902Y-100203000D01*
X131191000Y-100198085D01*
X131141098Y-100203000D01*
X130991829Y-100217702D01*
X130800313Y-100275798D01*
X130623810Y-100370140D01*
X130469104Y-100497104D01*
X130437293Y-100535866D01*
X125984000Y-104989160D01*
X125984000Y-102312660D01*
X129616826Y-99711888D01*
X129933244Y-99842953D01*
X130345721Y-99925000D01*
X130766279Y-99925000D01*
X131178756Y-99842953D01*
X131567302Y-99682012D01*
X131916983Y-99448363D01*
X132214363Y-99150983D01*
X132448012Y-98801302D01*
X132608953Y-98412756D01*
X132691000Y-98000279D01*
X132691000Y-97579721D01*
X132608953Y-97167244D01*
X132468862Y-96829034D01*
X133307486Y-95631000D01*
X138552699Y-95631000D01*
X138986703Y-96535177D01*
X138823988Y-96778698D01*
X138663047Y-97167244D01*
X138581000Y-97579721D01*
X138581000Y-98000279D01*
X138663047Y-98412756D01*
X138823988Y-98801302D01*
X139057637Y-99150983D01*
X139355017Y-99448363D01*
X139704698Y-99682012D01*
X140093244Y-99842953D01*
X140505721Y-99925000D01*
X140926279Y-99925000D01*
X141338756Y-99842953D01*
X141727302Y-99682012D01*
X142076983Y-99448363D01*
X142374363Y-99150983D01*
X142608012Y-98801302D01*
X142768953Y-98412756D01*
X142851000Y-98000279D01*
X142851000Y-97579721D01*
X142768953Y-97167244D01*
X142608012Y-96778698D01*
X142374363Y-96429017D01*
X142076983Y-96131637D01*
X141727302Y-95897988D01*
X141338756Y-95737047D01*
X140926279Y-95655000D01*
X140818181Y-95655000D01*
X140209061Y-94386000D01*
X169381862Y-94386000D01*
X169329127Y-94438735D01*
G36*
X183350000Y-128715841D02*
G01*
X183350000Y-128855335D01*
X183405147Y-129132574D01*
X183513320Y-129393727D01*
X183670363Y-129628759D01*
X183870241Y-129828637D01*
X184105273Y-129985680D01*
X184366426Y-130093853D01*
X184643665Y-130149000D01*
X184783160Y-130149000D01*
X185801000Y-131166841D01*
X185801001Y-134299782D01*
X185722820Y-134323498D01*
X185612506Y-134382463D01*
X185515815Y-134461815D01*
X185436463Y-134558506D01*
X185377498Y-134668820D01*
X185341188Y-134788518D01*
X185328928Y-134913000D01*
X185328928Y-136613000D01*
X185341188Y-136737482D01*
X185377498Y-136857180D01*
X185436463Y-136967494D01*
X185469705Y-137008000D01*
X180126637Y-137008000D01*
X180324269Y-136860588D01*
X180519178Y-136644355D01*
X180668157Y-136394252D01*
X180765481Y-136119891D01*
X180644814Y-135890000D01*
X179451000Y-135890000D01*
X179451000Y-135910000D01*
X179197000Y-135910000D01*
X179197000Y-135890000D01*
X179177000Y-135890000D01*
X179177000Y-135636000D01*
X179197000Y-135636000D01*
X179197000Y-134442845D01*
X179451000Y-134442845D01*
X179451000Y-135636000D01*
X180644814Y-135636000D01*
X180765481Y-135406109D01*
X180668157Y-135131748D01*
X180519178Y-134881645D01*
X180324269Y-134665412D01*
X180090920Y-134491359D01*
X179828099Y-134366175D01*
X179680890Y-134321524D01*
X179451000Y-134442845D01*
X179197000Y-134442845D01*
X178967110Y-134321524D01*
X178819901Y-134366175D01*
X178557080Y-134491359D01*
X178323731Y-134665412D01*
X178247966Y-134749466D01*
X178223502Y-134668820D01*
X178164537Y-134558506D01*
X178085185Y-134461815D01*
X177988494Y-134382463D01*
X177878180Y-134323498D01*
X177800000Y-134299782D01*
X177800000Y-133249540D01*
X177814932Y-133234608D01*
X177996924Y-133159224D01*
X178182820Y-133035012D01*
X178340912Y-132876920D01*
X178465124Y-132691024D01*
X178550683Y-132484467D01*
X178594300Y-132265188D01*
X178594300Y-132041612D01*
X178550683Y-131822333D01*
X178465124Y-131615776D01*
X178340912Y-131429880D01*
X178182820Y-131271788D01*
X177996924Y-131147576D01*
X177790367Y-131062017D01*
X177571088Y-131018400D01*
X177347512Y-131018400D01*
X177128233Y-131062017D01*
X176921676Y-131147576D01*
X176735780Y-131271788D01*
X176577688Y-131429880D01*
X176453476Y-131615776D01*
X176378092Y-131797768D01*
X176100868Y-132074992D01*
X176062105Y-132106804D01*
X175935141Y-132261510D01*
X175853117Y-132414968D01*
X175840799Y-132438013D01*
X175782702Y-132629530D01*
X175763085Y-132828700D01*
X175768001Y-132878611D01*
X175768000Y-134299782D01*
X175689820Y-134323498D01*
X175579506Y-134382463D01*
X175482815Y-134461815D01*
X175403463Y-134558506D01*
X175344498Y-134668820D01*
X175308188Y-134788518D01*
X175295928Y-134913000D01*
X175295928Y-136613000D01*
X175308188Y-136737482D01*
X175344498Y-136857180D01*
X175403463Y-136967494D01*
X175436705Y-137008000D01*
X170511295Y-137008000D01*
X170544537Y-136967494D01*
X170603502Y-136857180D01*
X170639812Y-136737482D01*
X170652072Y-136613000D01*
X170652072Y-134913000D01*
X170639812Y-134788518D01*
X170603502Y-134668820D01*
X170544537Y-134558506D01*
X170465185Y-134461815D01*
X170368494Y-134382463D01*
X170258180Y-134323498D01*
X170180000Y-134299782D01*
X170180000Y-133616440D01*
X174954738Y-128841702D01*
X176542903Y-128841702D01*
X176614486Y-129085671D01*
X176869996Y-129206571D01*
X177144184Y-129275300D01*
X177426512Y-129289217D01*
X177706130Y-129247787D01*
X177972292Y-129152603D01*
X178097514Y-129085671D01*
X178169097Y-128841702D01*
X177356000Y-128028605D01*
X176542903Y-128841702D01*
X174954738Y-128841702D01*
X175917798Y-127878643D01*
X175915783Y-127919512D01*
X175957213Y-128199130D01*
X176052397Y-128465292D01*
X176119329Y-128590514D01*
X176363298Y-128662097D01*
X177176395Y-127849000D01*
X177535605Y-127849000D01*
X178348702Y-128662097D01*
X178592671Y-128590514D01*
X178713571Y-128335004D01*
X178782300Y-128060816D01*
X178796217Y-127778488D01*
X178754787Y-127498870D01*
X178659603Y-127232708D01*
X178592671Y-127107486D01*
X178348702Y-127035903D01*
X177535605Y-127849000D01*
X177176395Y-127849000D01*
X177162253Y-127834858D01*
X177341858Y-127655253D01*
X177356000Y-127669395D01*
X178169097Y-126856298D01*
X178148785Y-126787072D01*
X178156000Y-126787072D01*
X178280482Y-126774812D01*
X178400180Y-126738502D01*
X178510494Y-126679537D01*
X178607185Y-126600185D01*
X178686537Y-126503494D01*
X178745502Y-126393180D01*
X178781812Y-126273482D01*
X178794072Y-126149000D01*
X178794072Y-125674300D01*
X180308460Y-125674300D01*
X183350000Y-128715841D01*
G37*
X183350000Y-128715841D02*
X183350000Y-128855335D01*
X183405147Y-129132574D01*
X183513320Y-129393727D01*
X183670363Y-129628759D01*
X183870241Y-129828637D01*
X184105273Y-129985680D01*
X184366426Y-130093853D01*
X184643665Y-130149000D01*
X184783160Y-130149000D01*
X185801000Y-131166841D01*
X185801001Y-134299782D01*
X185722820Y-134323498D01*
X185612506Y-134382463D01*
X185515815Y-134461815D01*
X185436463Y-134558506D01*
X185377498Y-134668820D01*
X185341188Y-134788518D01*
X185328928Y-134913000D01*
X185328928Y-136613000D01*
X185341188Y-136737482D01*
X185377498Y-136857180D01*
X185436463Y-136967494D01*
X185469705Y-137008000D01*
X180126637Y-137008000D01*
X180324269Y-136860588D01*
X180519178Y-136644355D01*
X180668157Y-136394252D01*
X180765481Y-136119891D01*
X180644814Y-135890000D01*
X179451000Y-135890000D01*
X179451000Y-135910000D01*
X179197000Y-135910000D01*
X179197000Y-135890000D01*
X179177000Y-135890000D01*
X179177000Y-135636000D01*
X179197000Y-135636000D01*
X179197000Y-134442845D01*
X179451000Y-134442845D01*
X179451000Y-135636000D01*
X180644814Y-135636000D01*
X180765481Y-135406109D01*
X180668157Y-135131748D01*
X180519178Y-134881645D01*
X180324269Y-134665412D01*
X180090920Y-134491359D01*
X179828099Y-134366175D01*
X179680890Y-134321524D01*
X179451000Y-134442845D01*
X179197000Y-134442845D01*
X178967110Y-134321524D01*
X178819901Y-134366175D01*
X178557080Y-134491359D01*
X178323731Y-134665412D01*
X178247966Y-134749466D01*
X178223502Y-134668820D01*
X178164537Y-134558506D01*
X178085185Y-134461815D01*
X177988494Y-134382463D01*
X177878180Y-134323498D01*
X177800000Y-134299782D01*
X177800000Y-133249540D01*
X177814932Y-133234608D01*
X177996924Y-133159224D01*
X178182820Y-133035012D01*
X178340912Y-132876920D01*
X178465124Y-132691024D01*
X178550683Y-132484467D01*
X178594300Y-132265188D01*
X178594300Y-132041612D01*
X178550683Y-131822333D01*
X178465124Y-131615776D01*
X178340912Y-131429880D01*
X178182820Y-131271788D01*
X177996924Y-131147576D01*
X177790367Y-131062017D01*
X177571088Y-131018400D01*
X177347512Y-131018400D01*
X177128233Y-131062017D01*
X176921676Y-131147576D01*
X176735780Y-131271788D01*
X176577688Y-131429880D01*
X176453476Y-131615776D01*
X176378092Y-131797768D01*
X176100868Y-132074992D01*
X176062105Y-132106804D01*
X175935141Y-132261510D01*
X175853117Y-132414968D01*
X175840799Y-132438013D01*
X175782702Y-132629530D01*
X175763085Y-132828700D01*
X175768001Y-132878611D01*
X175768000Y-134299782D01*
X175689820Y-134323498D01*
X175579506Y-134382463D01*
X175482815Y-134461815D01*
X175403463Y-134558506D01*
X175344498Y-134668820D01*
X175308188Y-134788518D01*
X175295928Y-134913000D01*
X175295928Y-136613000D01*
X175308188Y-136737482D01*
X175344498Y-136857180D01*
X175403463Y-136967494D01*
X175436705Y-137008000D01*
X170511295Y-137008000D01*
X170544537Y-136967494D01*
X170603502Y-136857180D01*
X170639812Y-136737482D01*
X170652072Y-136613000D01*
X170652072Y-134913000D01*
X170639812Y-134788518D01*
X170603502Y-134668820D01*
X170544537Y-134558506D01*
X170465185Y-134461815D01*
X170368494Y-134382463D01*
X170258180Y-134323498D01*
X170180000Y-134299782D01*
X170180000Y-133616440D01*
X174954738Y-128841702D01*
X176542903Y-128841702D01*
X176614486Y-129085671D01*
X176869996Y-129206571D01*
X177144184Y-129275300D01*
X177426512Y-129289217D01*
X177706130Y-129247787D01*
X177972292Y-129152603D01*
X178097514Y-129085671D01*
X178169097Y-128841702D01*
X177356000Y-128028605D01*
X176542903Y-128841702D01*
X174954738Y-128841702D01*
X175917798Y-127878643D01*
X175915783Y-127919512D01*
X175957213Y-128199130D01*
X176052397Y-128465292D01*
X176119329Y-128590514D01*
X176363298Y-128662097D01*
X177176395Y-127849000D01*
X177535605Y-127849000D01*
X178348702Y-128662097D01*
X178592671Y-128590514D01*
X178713571Y-128335004D01*
X178782300Y-128060816D01*
X178796217Y-127778488D01*
X178754787Y-127498870D01*
X178659603Y-127232708D01*
X178592671Y-127107486D01*
X178348702Y-127035903D01*
X177535605Y-127849000D01*
X177176395Y-127849000D01*
X177162253Y-127834858D01*
X177341858Y-127655253D01*
X177356000Y-127669395D01*
X178169097Y-126856298D01*
X178148785Y-126787072D01*
X178156000Y-126787072D01*
X178280482Y-126774812D01*
X178400180Y-126738502D01*
X178510494Y-126679537D01*
X178607185Y-126600185D01*
X178686537Y-126503494D01*
X178745502Y-126393180D01*
X178781812Y-126273482D01*
X178794072Y-126149000D01*
X178794072Y-125674300D01*
X180308460Y-125674300D01*
X183350000Y-128715841D01*
M02*
