M48
; DRILL file {KiCad (5.1.0)-1} date 14/06/2020 14:54:23
; FORMAT={-:-/ absolute / inch / decimal}
; #@! TF.CreationDate,2020-06-14T14:54:23-05:00
; #@! TF.GenerationSoftware,Kicad,Pcbnew,(5.1.0)-1
; #@! TF.FileFunction,Plated,1,2,PTH
FMAT,2
INCH
T1C0.0157
T2C0.0197
T3C0.0300
T4C0.0315
T5C0.0354
T6C0.0394
T7C0.0433
T8C0.0472
T9C0.0512
T10C0.0598
%
G90
G05
T1
X7.1004Y-3.9173
X7.715Y-4.4
X7.7175Y-4.5025
X7.7625Y-4.4
X7.765Y-4.5025
X7.8118Y-4.4532
X7.8125Y-4.5025
X7.815Y-4.3975
T2
X5.7474Y-4.442
X5.8035Y-3.9981
X5.9154Y-3.9016
X6.5728Y-5.0424
X6.8121Y-3.9495
X6.9866Y-5.2029
X7.0201Y-4.1606
X7.0527Y-3.8599
X7.0921Y-4.593
X7.1457Y-4.2657
X7.2382Y-3.9902
X7.2461Y-4.122
X7.2673Y-4.5532
X7.2942Y-4.5102
X7.3108Y-4.7437
X7.3598Y-5.0896
X7.5315Y-3.9646
X7.5502Y-4.0329
X7.6194Y-4.1898
X7.8527Y-4.1853
X7.9689Y-4.0332
T3
X7.2382Y-4.6378
X8.0295Y-5.1161
X5.08Y-4.2225
X5.08Y-4.8825
X5.18Y-4.2225
X5.18Y-4.8825
X5.28Y-4.2225
X5.28Y-4.8825
X5.38Y-4.2225
X5.38Y-4.8825
X5.48Y-4.2225
X5.48Y-4.8825
X5.58Y-4.2225
X5.58Y-4.8825
X5.68Y-4.2225
X5.68Y-4.8825
X5.78Y-4.2225
X5.78Y-4.8825
T4
X6.6829Y-4.38
X6.6829Y-4.68
X7.02Y-4.6025
X7.02Y-4.7403
X7.275Y-5.0675
X7.475Y-5.0675
X6.92Y-4.3575
X7.12Y-4.3575
X6.9431Y-4.1475
X7.14Y-4.1475
X7.91Y-3.7657
X7.91Y-3.9625
X6.0775Y-4.9925
X6.0775Y-5.0909
X6.4275Y-4.985
X6.7275Y-4.985
X6.9825Y-4.935
X6.9825Y-5.0334
X6.125Y-4.5525
X6.3219Y-4.5525
X6.565Y-4.1425
X6.765Y-4.1425
T5
X7.65Y-5.0575
X7.75Y-5.0575
T6
X7.355Y-5.345
X7.455Y-5.345
X7.555Y-5.345
X7.655Y-5.345
X7.755Y-5.345
X6.96Y-5.345
X7.06Y-5.345
X5.96Y-5.345
X6.06Y-5.345
X6.16Y-5.345
X6.26Y-5.345
X6.36Y-5.345
X6.46Y-5.345
X6.56Y-5.345
X6.66Y-5.345
T7
X6.025Y-4.7825
X6.425Y-4.7825
X6.0785Y-4.2861
X6.1785Y-4.2861
X6.2785Y-4.2861
T8
X7.44Y-3.775
X7.44Y-3.9522
X7.6959Y-3.775
X7.6959Y-3.9522
T9
X6.7205Y-3.765
X6.9174Y-3.765
X7.1142Y-3.765
T10
X5.14Y-3.85
X5.34Y-3.85
X5.54Y-3.85
X5.74Y-3.85
X6.0785Y-3.855
X6.2785Y-3.855
X5.12Y-5.25
X5.32Y-5.25
X5.52Y-5.25
X5.72Y-5.25
T0
M30
