G04 #@! TF.GenerationSoftware,KiCad,Pcbnew,5.1.5+dfsg1-2build2*
G04 #@! TF.CreationDate,2020-06-09T15:57:13-05:00*
G04 #@! TF.ProjectId,ESP32_BridgeH,45535033-325f-4427-9269-646765482e6b,0*
G04 #@! TF.SameCoordinates,Original*
G04 #@! TF.FileFunction,Copper,L1,Top*
G04 #@! TF.FilePolarity,Positive*
%FSLAX46Y46*%
G04 Gerber Fmt 4.6, Leading zero omitted, Abs format (unit mm)*
G04 Created by KiCad (PCBNEW 5.1.5+dfsg1-2build2) date 2020-06-09 15:57:13*
%MOMM*%
%LPD*%
G04 APERTURE LIST*
%ADD10C,1.600000*%
%ADD11O,1.700000X1.700000*%
%ADD12R,1.700000X1.700000*%
%ADD13R,6.000000X6.000000*%
%ADD14O,0.900000X2.500000*%
%ADD15O,2.500000X0.900000*%
%ADD16O,1.905000X2.000000*%
%ADD17R,1.905000X2.000000*%
%ADD18C,1.524000*%
%ADD19R,1.524000X1.524000*%
%ADD20O,1.600000X1.600000*%
%ADD21C,3.000000*%
%ADD22R,3.000000X3.000000*%
%ADD23O,2.200000X2.200000*%
%ADD24R,2.200000X2.200000*%
%ADD25C,1.800000*%
%ADD26R,1.800000X1.800000*%
%ADD27R,1.600000X1.600000*%
%ADD28C,2.340000*%
%ADD29C,2.200000*%
%ADD30C,0.800000*%
%ADD31C,1.000000*%
%ADD32C,0.889000*%
%ADD33C,0.762000*%
G04 APERTURE END LIST*
D10*
X176356000Y-105346000D03*
X181356000Y-105346000D03*
D11*
X151384000Y-135763000D03*
X153924000Y-135763000D03*
X156464000Y-135763000D03*
X159004000Y-135763000D03*
X161544000Y-135763000D03*
X164084000Y-135763000D03*
X166624000Y-135763000D03*
D12*
X169164000Y-135763000D03*
D13*
X197575000Y-113111000D03*
D14*
X205275000Y-104411000D03*
X204005000Y-104411000D03*
X202735000Y-104411000D03*
X201465000Y-104411000D03*
X200195000Y-104411000D03*
X198925000Y-104411000D03*
X197655000Y-104411000D03*
X196385000Y-104411000D03*
X195115000Y-104411000D03*
X193845000Y-104411000D03*
X192575000Y-104411000D03*
X191305000Y-104411000D03*
X190035000Y-104411000D03*
X188765000Y-104411000D03*
D15*
X187275000Y-107696000D03*
X187275000Y-108966000D03*
X187275000Y-110236000D03*
X187275000Y-111506000D03*
X187275000Y-112776000D03*
X187275000Y-114046000D03*
X187275000Y-115316000D03*
X187275000Y-116586000D03*
X187275000Y-117856000D03*
X187275000Y-119126000D03*
D14*
X188765000Y-122411000D03*
X190035000Y-122411000D03*
X191305000Y-122411000D03*
X192575000Y-122411000D03*
X193845000Y-122411000D03*
X195115000Y-122411000D03*
X196385000Y-122411000D03*
X197655000Y-122411000D03*
X198925000Y-122411000D03*
X200195000Y-122411000D03*
X201465000Y-122411000D03*
X202735000Y-122411000D03*
X204005000Y-122411000D03*
X205275000Y-122411000D03*
D16*
X159475000Y-108866000D03*
X156935000Y-108866000D03*
D17*
X154395000Y-108866000D03*
D18*
X146812000Y-107252000D03*
X146812000Y-124016000D03*
X144272000Y-124016000D03*
X144272000Y-107252000D03*
X141732000Y-124016000D03*
X141732000Y-107252000D03*
X139192000Y-107252000D03*
X139192000Y-124016000D03*
X136652000Y-124016000D03*
X136652000Y-107252000D03*
X134112000Y-124016000D03*
X134112000Y-107252000D03*
X131572000Y-107252000D03*
X129032000Y-107252000D03*
X131572000Y-124016000D03*
D19*
X129032000Y-124016000D03*
D20*
X170878000Y-126619000D03*
D10*
X163258000Y-126619000D03*
X169746000Y-111252000D03*
D20*
X169746000Y-118872000D03*
D11*
X196977000Y-135763000D03*
X194437000Y-135763000D03*
X191897000Y-135763000D03*
X189357000Y-135763000D03*
D12*
X186817000Y-135763000D03*
D11*
X179324000Y-135763000D03*
D12*
X176784000Y-135763000D03*
D21*
X130556000Y-97790000D03*
D22*
X145796000Y-97790000D03*
D21*
X135636000Y-97790000D03*
X140716000Y-97790000D03*
X135128000Y-133350000D03*
X140208000Y-133350000D03*
D22*
X130048000Y-133350000D03*
D21*
X145288000Y-133350000D03*
D23*
X163195000Y-121476000D03*
D24*
X153035000Y-121476000D03*
D25*
X196850000Y-128460000D03*
D26*
X194310000Y-128460000D03*
D27*
X177356000Y-125349000D03*
D10*
X177356000Y-127849000D03*
X178308000Y-120404000D03*
D27*
X178308000Y-116904000D03*
D10*
X154368000Y-129310000D03*
D27*
X154368000Y-126810000D03*
D21*
X154395000Y-97917000D03*
D22*
X159475000Y-97917000D03*
D28*
X170701000Y-95631000D03*
X175701000Y-95631000D03*
X180701000Y-95631000D03*
D10*
X200914000Y-95648000D03*
X200914000Y-100648000D03*
X155575000Y-115634000D03*
X160575000Y-115634000D03*
X184785000Y-128714000D03*
D20*
X189865000Y-128714000D03*
D10*
X166751000Y-105220000D03*
D20*
X171831000Y-105220000D03*
X180848000Y-110680000D03*
D10*
X175768000Y-110680000D03*
D24*
X188976000Y-95885000D03*
D29*
X195476000Y-95885000D03*
X195476000Y-100385000D03*
X188976000Y-100385000D03*
D30*
X198437500Y-114363500D03*
X197231000Y-114363500D03*
X196024500Y-114363500D03*
X198501000Y-111696500D03*
X197167500Y-111760000D03*
X195961000Y-111760000D03*
X196007000Y-113111000D03*
X197150000Y-113111000D03*
X198420000Y-113111000D03*
D31*
X184589700Y-115651800D03*
X202410600Y-102442100D03*
X186940000Y-129275100D03*
X177459300Y-132153400D03*
X191774200Y-102435900D03*
X178311700Y-105678600D03*
X145984800Y-112826000D03*
X185272600Y-114560300D03*
X193531800Y-106421400D03*
X179139700Y-98040300D03*
X173027000Y-100316500D03*
X147410100Y-101551800D03*
X190910500Y-101353300D03*
X183287200Y-103831500D03*
X147233600Y-103831500D03*
X166949000Y-128076400D03*
X180139500Y-116661600D03*
X185693200Y-120490600D03*
X199458600Y-106305800D03*
D32*
X156935000Y-108866000D02*
X156935000Y-108457500D01*
X156935000Y-108457500D02*
X155698600Y-107221100D01*
X155698600Y-107221100D02*
X146842900Y-107221100D01*
X146842900Y-107221100D02*
X146812000Y-107252000D01*
X146812000Y-124016000D02*
X145355800Y-125472200D01*
X145355800Y-125472200D02*
X135568200Y-125472200D01*
X135568200Y-125472200D02*
X134112000Y-124016000D01*
X187275000Y-107696000D02*
X185380200Y-107696000D01*
X180848000Y-110680000D02*
X182396200Y-110680000D01*
X182396200Y-110680000D02*
X185380200Y-107696000D01*
X163195000Y-121476000D02*
X177236000Y-121476000D01*
X177236000Y-121476000D02*
X178308000Y-120404000D01*
X187275000Y-107696000D02*
X189169800Y-107696000D01*
X197575000Y-113111000D02*
X197150000Y-113111000D01*
X193930200Y-113111000D02*
X189169800Y-108350600D01*
X189169800Y-108350600D02*
X189169800Y-107696000D01*
X199397400Y-113111000D02*
X198420000Y-113111000D01*
X199397400Y-113111000D02*
X201219800Y-113111000D01*
X205275000Y-122411000D02*
X205275000Y-120516200D01*
X205275000Y-120516200D02*
X201219800Y-116461000D01*
X201219800Y-116461000D02*
X201219800Y-113111000D01*
X170878000Y-126619000D02*
X172322800Y-126619000D01*
X177356000Y-127849000D02*
X173552800Y-127849000D01*
X173552800Y-127849000D02*
X172322800Y-126619000D01*
X200914000Y-100648000D02*
X203406800Y-100648000D01*
X203406800Y-100648000D02*
X205275000Y-102516200D01*
X195476000Y-100385000D02*
X200651000Y-100385000D01*
X200651000Y-100385000D02*
X200914000Y-100648000D01*
X205275000Y-104411000D02*
X205275000Y-102516200D01*
X196007000Y-113111000D02*
X193930200Y-113111000D01*
X197150000Y-113111000D02*
X196007000Y-113111000D01*
X198420000Y-113111000D02*
X197575000Y-113111000D01*
D33*
X169746000Y-118872000D02*
X173678100Y-118872000D01*
X173678100Y-118872000D02*
X177027400Y-115522700D01*
X177027400Y-115522700D02*
X184460600Y-115522700D01*
X184460600Y-115522700D02*
X184589700Y-115651800D01*
X188976000Y-95885000D02*
X190657300Y-95885000D01*
X200914000Y-95648000D02*
X198995700Y-97566300D01*
X198995700Y-97566300D02*
X192338600Y-97566300D01*
X192338600Y-97566300D02*
X190657300Y-95885000D01*
X202410600Y-102442100D02*
X202548200Y-102579700D01*
X202548200Y-102579700D02*
X202735000Y-102579700D01*
X202735000Y-104411000D02*
X202735000Y-102579700D01*
X136652000Y-107252000D02*
X138000500Y-105903500D01*
X138000500Y-105903500D02*
X156512500Y-105903500D01*
X156512500Y-105903500D02*
X159475000Y-108866000D01*
X181356000Y-105346000D02*
X182252300Y-106242300D01*
X182252300Y-106242300D02*
X190992000Y-106242300D01*
X190992000Y-106242300D02*
X192309800Y-107560100D01*
X192309800Y-107560100D02*
X202687200Y-107560100D01*
X202687200Y-107560100D02*
X204005000Y-106242300D01*
X169746000Y-111252000D02*
X173255800Y-107742200D01*
X173255800Y-107742200D02*
X178959800Y-107742200D01*
X178959800Y-107742200D02*
X181356000Y-105346000D01*
X169746000Y-111252000D02*
X163394800Y-111252000D01*
X163394800Y-111252000D02*
X161008800Y-108866000D01*
X204005000Y-104411000D02*
X204005000Y-106242300D01*
X131572000Y-124016000D02*
X132915400Y-122672600D01*
X132915400Y-122672600D02*
X147433300Y-122672600D01*
X147433300Y-122672600D02*
X149162300Y-124401600D01*
X149162300Y-124401600D02*
X175027300Y-124401600D01*
X175027300Y-124401600D02*
X175974700Y-125349000D01*
X177356000Y-125349000D02*
X175974700Y-125349000D01*
X159475000Y-108866000D02*
X161008800Y-108866000D01*
X163258000Y-126619000D02*
X166883300Y-130244300D01*
X166883300Y-130244300D02*
X185970800Y-130244300D01*
X185970800Y-130244300D02*
X186940000Y-129275100D01*
D32*
X129032000Y-124016000D02*
X131572000Y-121476000D01*
X131572000Y-121476000D02*
X153035000Y-121476000D01*
D33*
X177459300Y-132153400D02*
X185734900Y-132153400D01*
X185734900Y-132153400D02*
X189865000Y-128023300D01*
X189865000Y-128023300D02*
X189865000Y-127332700D01*
X189865000Y-128714000D02*
X189865000Y-128023300D01*
X189865000Y-127332700D02*
X188765000Y-126232700D01*
X188765000Y-126232700D02*
X188765000Y-122411000D01*
X189357000Y-135763000D02*
X193021700Y-132098300D01*
X193021700Y-132098300D02*
X196739200Y-132098300D01*
X196739200Y-132098300D02*
X200195000Y-128642500D01*
X200195000Y-128642500D02*
X200195000Y-122411000D01*
X191897000Y-135763000D02*
X194599400Y-133060600D01*
X194599400Y-133060600D02*
X197137800Y-133060600D01*
X197137800Y-133060600D02*
X201465000Y-128733400D01*
X201465000Y-128733400D02*
X201465000Y-122411000D01*
X129032000Y-107252000D02*
X131357200Y-104926800D01*
X131357200Y-104926800D02*
X164504400Y-104926800D01*
X164504400Y-104926800D02*
X166357500Y-106779900D01*
X166357500Y-106779900D02*
X177210400Y-106779900D01*
X177210400Y-106779900D02*
X178311700Y-105678600D01*
X191305000Y-104411000D02*
X191305000Y-102579700D01*
X191774200Y-102435900D02*
X191630400Y-102579700D01*
X191630400Y-102579700D02*
X191305000Y-102579700D01*
X188765000Y-104411000D02*
X185568000Y-104411000D01*
X185568000Y-104411000D02*
X183860300Y-102703300D01*
X183860300Y-102703300D02*
X131630400Y-102703300D01*
X131630400Y-102703300D02*
X127664300Y-106669400D01*
X127664300Y-106669400D02*
X127664300Y-107786200D01*
X127664300Y-107786200D02*
X128519800Y-108641700D01*
X128519800Y-108641700D02*
X130182300Y-108641700D01*
X130182300Y-108641700D02*
X131572000Y-107252000D01*
X145984800Y-112826000D02*
X181701100Y-112826000D01*
X181701100Y-112826000D02*
X185561100Y-108966000D01*
X185561100Y-108966000D02*
X187275000Y-108966000D01*
X196385000Y-106242300D02*
X196205900Y-106421400D01*
X196205900Y-106421400D02*
X193531800Y-106421400D01*
X196385000Y-104411000D02*
X196385000Y-106242300D01*
X139192000Y-107252000D02*
X139192000Y-107562400D01*
X139192000Y-107562400D02*
X148651900Y-117022300D01*
X148651900Y-117022300D02*
X174166900Y-117022300D01*
X174166900Y-117022300D02*
X176628900Y-114560300D01*
X176628900Y-114560300D02*
X185272600Y-114560300D01*
X173027000Y-100316500D02*
X171791700Y-101551800D01*
X171791700Y-101551800D02*
X147410100Y-101551800D01*
X195115000Y-104411000D02*
X195115000Y-102579700D01*
X179139700Y-98040300D02*
X190575600Y-98040300D01*
X190575600Y-98040300D02*
X195115000Y-102579700D01*
X183287200Y-103831500D02*
X147233600Y-103831500D01*
X190910500Y-101353300D02*
X192247200Y-101353300D01*
X192247200Y-101353300D02*
X192871900Y-101978000D01*
X192871900Y-101978000D02*
X192871900Y-102996500D01*
X192871900Y-102996500D02*
X192575000Y-103293400D01*
X192575000Y-103293400D02*
X192575000Y-104411000D01*
X202735000Y-122411000D02*
X202735000Y-120579700D01*
X202735000Y-120579700D02*
X188302200Y-120579700D01*
X188302200Y-120579700D02*
X179614200Y-129267700D01*
X179614200Y-129267700D02*
X168140300Y-129267700D01*
X168140300Y-129267700D02*
X166949000Y-128076400D01*
X161544000Y-135763000D02*
X163110000Y-134197000D01*
X163110000Y-134197000D02*
X188011500Y-134197000D01*
X188011500Y-134197000D02*
X191814800Y-130393700D01*
X191814800Y-130393700D02*
X197082900Y-130393700D01*
X197082900Y-130393700D02*
X198925000Y-128551600D01*
X198925000Y-128551600D02*
X198925000Y-122411000D01*
X151384000Y-135763000D02*
X153912300Y-133234700D01*
X153912300Y-133234700D02*
X187330000Y-133234700D01*
X187330000Y-133234700D02*
X191285500Y-129279200D01*
X191285500Y-129279200D02*
X191285500Y-125492800D01*
X191285500Y-125492800D02*
X190035000Y-124242300D01*
X190035000Y-122411000D02*
X190035000Y-124242300D01*
X190035000Y-102579700D02*
X185097600Y-102579700D01*
X185097600Y-102579700D02*
X183452100Y-100934200D01*
X183452100Y-100934200D02*
X180504400Y-100934200D01*
X180504400Y-100934200D02*
X175701000Y-96130800D01*
X175701000Y-96130800D02*
X175701000Y-95631000D01*
X190035000Y-104411000D02*
X190035000Y-102579700D01*
D32*
X198925000Y-106305800D02*
X199458600Y-106305800D01*
X198925000Y-104411000D02*
X198925000Y-106305800D01*
X180139500Y-116661600D02*
X183968500Y-120490600D01*
X183968500Y-120490600D02*
X185693200Y-120490600D01*
M02*
