G04 #@! TF.GenerationSoftware,KiCad,Pcbnew,(5.1.0)-1*
G04 #@! TF.CreationDate,2020-06-14T14:54:15-05:00*
G04 #@! TF.ProjectId,ESP32_BridgeH,45535033-325f-4427-9269-646765482e6b,0*
G04 #@! TF.SameCoordinates,Original*
G04 #@! TF.FileFunction,Copper,L2,Bot*
G04 #@! TF.FilePolarity,Positive*
%FSLAX46Y46*%
G04 Gerber Fmt 4.6, Leading zero omitted, Abs format (unit mm)*
G04 Created by KiCad (PCBNEW (5.1.0)-1) date 2020-06-14 14:54:15*
%MOMM*%
%LPD*%
G04 APERTURE LIST*
%ADD10C,0.100000*%
%ADD11C,1.600000*%
%ADD12O,1.700000X1.700000*%
%ADD13R,1.700000X1.700000*%
%ADD14O,1.905000X2.000000*%
%ADD15R,1.905000X2.000000*%
%ADD16C,1.524000*%
%ADD17R,1.524000X1.524000*%
%ADD18O,1.600000X1.600000*%
%ADD19C,3.000000*%
%ADD20R,3.000000X3.000000*%
%ADD21O,2.200000X2.200000*%
%ADD22R,2.200000X2.200000*%
%ADD23C,1.800000*%
%ADD24R,1.800000X1.800000*%
%ADD25R,1.600000X1.600000*%
%ADD26C,2.340000*%
%ADD27C,2.200000*%
%ADD28C,0.800000*%
%ADD29C,1.000000*%
%ADD30C,0.889000*%
%ADD31C,0.762000*%
%ADD32C,0.508000*%
%ADD33C,1.016000*%
%ADD34C,0.254000*%
G04 APERTURE END LIST*
D10*
G36*
X159750000Y-105150000D02*
G01*
X154500000Y-105150000D01*
X154500000Y-103400000D01*
X159300000Y-103250000D01*
X159750000Y-105150000D01*
G37*
X159750000Y-105150000D02*
X154500000Y-105150000D01*
X154500000Y-103400000D01*
X159300000Y-103250000D01*
X159750000Y-105150000D01*
G36*
X154450000Y-103000000D02*
G01*
X154300000Y-108950000D01*
X150300000Y-108950000D01*
X150250000Y-105200000D01*
X152700000Y-102950000D01*
X154450000Y-103000000D01*
G37*
X154450000Y-103000000D02*
X154300000Y-108950000D01*
X150300000Y-108950000D01*
X150250000Y-105200000D01*
X152700000Y-102950000D01*
X154450000Y-103000000D01*
D11*
X176356000Y-105346000D03*
X181356000Y-105346000D03*
D12*
X151384000Y-135763000D03*
X153924000Y-135763000D03*
X156464000Y-135763000D03*
X159004000Y-135763000D03*
X161544000Y-135763000D03*
X164084000Y-135763000D03*
X166624000Y-135763000D03*
D13*
X169164000Y-135763000D03*
D14*
X159475000Y-108866000D03*
X156935000Y-108866000D03*
D15*
X154395000Y-108866000D03*
D16*
X146812000Y-107252000D03*
X146812000Y-124016000D03*
X144272000Y-124016000D03*
X144272000Y-107252000D03*
X141732000Y-124016000D03*
X141732000Y-107252000D03*
X139192000Y-107252000D03*
X139192000Y-124016000D03*
X136652000Y-124016000D03*
X136652000Y-107252000D03*
X134112000Y-124016000D03*
X134112000Y-107252000D03*
X131572000Y-107252000D03*
X129032000Y-107252000D03*
X131572000Y-124016000D03*
D17*
X129032000Y-124016000D03*
D18*
X170878000Y-126619000D03*
D11*
X163258000Y-126619000D03*
X169746000Y-111252000D03*
D18*
X169746000Y-118872000D03*
D12*
X196977000Y-135763000D03*
X194437000Y-135763000D03*
X191897000Y-135763000D03*
X189357000Y-135763000D03*
D13*
X186817000Y-135763000D03*
D12*
X179324000Y-135763000D03*
D13*
X176784000Y-135763000D03*
D19*
X130556000Y-97790000D03*
D20*
X145796000Y-97790000D03*
D19*
X135636000Y-97790000D03*
X140716000Y-97790000D03*
X135128000Y-133350000D03*
X140208000Y-133350000D03*
D20*
X130048000Y-133350000D03*
D19*
X145288000Y-133350000D03*
D21*
X163195000Y-121476000D03*
D22*
X153035000Y-121476000D03*
D23*
X196850000Y-128460000D03*
D24*
X194310000Y-128460000D03*
D25*
X177356000Y-125349000D03*
D11*
X177356000Y-127849000D03*
X178308000Y-120404000D03*
D25*
X178308000Y-116904000D03*
D11*
X154368000Y-129310000D03*
D25*
X154368000Y-126810000D03*
D19*
X154395000Y-97917000D03*
D20*
X159475000Y-97917000D03*
D26*
X170701000Y-95631000D03*
X175701000Y-95631000D03*
X180701000Y-95631000D03*
D11*
X200914000Y-95648000D03*
X200914000Y-100648000D03*
X155575000Y-115634000D03*
X160575000Y-115634000D03*
X184785000Y-128714000D03*
D18*
X189865000Y-128714000D03*
D11*
X166751000Y-105220000D03*
D18*
X171831000Y-105220000D03*
X180848000Y-110680000D03*
D11*
X175768000Y-110680000D03*
D22*
X188976000Y-95885000D03*
D27*
X195476000Y-95885000D03*
X195476000Y-100385000D03*
X188976000Y-100385000D03*
D28*
X198437500Y-114363500D03*
X197231000Y-114363500D03*
X196024500Y-114363500D03*
X198501000Y-111696500D03*
X197167500Y-111760000D03*
X195961000Y-111760000D03*
X198420000Y-113111000D03*
D29*
X184589700Y-115651800D03*
X202410600Y-102442100D03*
X181500000Y-108350000D03*
X184050000Y-104700000D03*
X186940000Y-129275100D03*
X177459300Y-132153400D03*
X178311700Y-105678600D03*
X191774200Y-102435900D03*
X145984800Y-112826000D03*
X185272600Y-114560300D03*
X193531800Y-106421400D03*
X179139700Y-98040300D03*
X147410100Y-101551800D03*
X173027000Y-100316500D03*
X191300000Y-100700000D03*
X183850000Y-101350000D03*
X150250000Y-99100000D03*
D16*
X203950000Y-129950000D03*
D29*
X166949000Y-128076400D03*
D16*
X183850000Y-117800000D03*
D29*
X180139500Y-116661600D03*
X185693200Y-120490600D03*
X199458600Y-106305800D03*
D28*
X180350000Y-99500000D03*
D30*
X180848000Y-110680000D02*
X180848000Y-112124800D01*
X178308000Y-120404000D02*
X181284300Y-117427700D01*
X181284300Y-117427700D02*
X181284300Y-112561100D01*
X181284300Y-112561100D02*
X180848000Y-112124800D01*
X195476000Y-100385000D02*
X185584500Y-110276500D01*
X185584500Y-110276500D02*
X180848000Y-110276500D01*
X180848000Y-110680000D02*
X180848000Y-110276500D01*
X195476000Y-100385000D02*
X195476000Y-95885000D01*
X194437000Y-135763000D02*
X194437000Y-134268200D01*
X194437000Y-134268200D02*
X200914000Y-127791200D01*
X200914000Y-127791200D02*
X200914000Y-100648000D01*
D31*
X188976000Y-95885000D02*
X188976000Y-97566300D01*
X188976000Y-100385000D02*
X188976000Y-97566300D01*
X200914000Y-95648000D02*
X202410600Y-97144600D01*
X202410600Y-97144600D02*
X202410600Y-102442100D01*
X185899200Y-115651800D02*
X184589700Y-115651800D01*
X198310500Y-104902000D02*
X187560700Y-115651800D01*
X187560700Y-115651800D02*
X185899200Y-115651800D01*
X198310500Y-96837500D02*
X198310500Y-104902000D01*
X200914000Y-95648000D02*
X198310500Y-96837500D01*
X155930000Y-126810000D02*
X158350000Y-124390000D01*
X154368000Y-126810000D02*
X155930000Y-126810000D01*
X158350000Y-124390000D02*
X158350000Y-121100000D01*
X160578000Y-118872000D02*
X169746000Y-118872000D01*
X158350000Y-121100000D02*
X160578000Y-118872000D01*
X184785000Y-129845370D02*
X184785000Y-128714000D01*
X185205000Y-135763000D02*
X184785000Y-135343000D01*
X186817000Y-135763000D02*
X185205000Y-135763000D01*
X193935000Y-132565000D02*
X184785000Y-132565000D01*
X196850000Y-129650000D02*
X193935000Y-132565000D01*
X196850000Y-128460000D02*
X196850000Y-129650000D01*
X184785000Y-135343000D02*
X184785000Y-132565000D01*
X184785000Y-132565000D02*
X184785000Y-129845370D01*
X184785000Y-125835000D02*
X184785000Y-128714000D01*
X184300000Y-125350000D02*
X184785000Y-125835000D01*
X178919000Y-125350000D02*
X184300000Y-125350000D01*
X177356000Y-125349000D02*
X178918000Y-125349000D01*
X178918000Y-125349000D02*
X178919000Y-125350000D01*
X170545999Y-112051999D02*
X170551999Y-112051999D01*
X169746000Y-111252000D02*
X170545999Y-112051999D01*
X170551999Y-112051999D02*
X175404000Y-116904000D01*
X177356000Y-125349000D02*
X177356000Y-123856000D01*
X177356000Y-123856000D02*
X176250000Y-122750000D01*
X176250000Y-117000000D02*
X176154000Y-116904000D01*
X176250000Y-122750000D02*
X176250000Y-117000000D01*
X175404000Y-116904000D02*
X176154000Y-116904000D01*
X176154000Y-116904000D02*
X178308000Y-116904000D01*
X177356000Y-125349000D02*
X175751000Y-125349000D01*
X175751000Y-125349000D02*
X172800000Y-128300000D01*
X172800000Y-128300000D02*
X172800000Y-133850000D01*
X170887000Y-135763000D02*
X169164000Y-135763000D01*
X172800000Y-133850000D02*
X170887000Y-135763000D01*
D32*
X180701000Y-97285629D02*
X182400000Y-98984629D01*
X180701000Y-95631000D02*
X180701000Y-97285629D01*
X182400000Y-98984629D02*
X182400000Y-103050000D01*
X182400000Y-103050000D02*
X184050000Y-104700000D01*
D31*
X194310000Y-130122000D02*
X193532000Y-130900000D01*
X194310000Y-128460000D02*
X194310000Y-130122000D01*
X188564900Y-130900000D02*
X186940000Y-129275100D01*
X193532000Y-130900000D02*
X188564900Y-130900000D01*
D30*
X151046000Y-121476000D02*
X150100000Y-120530000D01*
X153035000Y-121476000D02*
X151046000Y-121476000D01*
X150100000Y-120530000D02*
X150100000Y-113700000D01*
X159480000Y-100311000D02*
X159480000Y-102880000D01*
X159475000Y-97917000D02*
X159475000Y-100306000D01*
X159475000Y-100306000D02*
X159480000Y-100311000D01*
X150116000Y-108866000D02*
X150100000Y-108850000D01*
X159480000Y-104180000D02*
X160520000Y-105220000D01*
X152320000Y-102880000D02*
X154430000Y-102880000D01*
X150100000Y-108850000D02*
X150100000Y-105100000D01*
X150100000Y-105100000D02*
X152320000Y-102880000D01*
X154395000Y-102915000D02*
X154430000Y-102880000D01*
X154430000Y-102880000D02*
X159480000Y-102880000D01*
D31*
X154530000Y-103520000D02*
X154395000Y-103655000D01*
X159480000Y-103520000D02*
X154530000Y-103520000D01*
D30*
X154395000Y-103655000D02*
X154395000Y-102915000D01*
X159480000Y-102880000D02*
X159480000Y-103520000D01*
X159480000Y-103520000D02*
X159480000Y-104180000D01*
D31*
X154720000Y-105220000D02*
X154395000Y-105545000D01*
X165020000Y-105220000D02*
X154720000Y-105220000D01*
D30*
X154395000Y-105545000D02*
X154395000Y-103655000D01*
X166751000Y-105220000D02*
X165020000Y-105220000D01*
X165020000Y-105220000D02*
X160520000Y-105220000D01*
D33*
X166751000Y-105220000D02*
X153480000Y-105220000D01*
X154395000Y-106105000D02*
X154395000Y-105905000D01*
D30*
X154395000Y-108866000D02*
X154395000Y-106105000D01*
X154395000Y-106105000D02*
X154395000Y-105545000D01*
D33*
X154395000Y-105905000D02*
X155600000Y-104700000D01*
D30*
X150100000Y-109200000D02*
X150100000Y-108850000D01*
X154395000Y-108866000D02*
X150916000Y-108866000D01*
X150916000Y-108866000D02*
X150116000Y-108866000D01*
D31*
X150916000Y-108866000D02*
X150434000Y-108866000D01*
X150434000Y-108866000D02*
X150100000Y-109200000D01*
X150100000Y-109682000D02*
X150916000Y-108866000D01*
X150100000Y-110950000D02*
X150100000Y-109682000D01*
D30*
X150100000Y-113700000D02*
X150100000Y-110950000D01*
X150100000Y-110950000D02*
X150100000Y-109200000D01*
D33*
X139192000Y-124016000D02*
X139192000Y-127508000D01*
X139192000Y-127508000D02*
X141234000Y-129550000D01*
X141234000Y-129550000D02*
X144400000Y-129550000D01*
X145288000Y-130438000D02*
X145288000Y-133350000D01*
X144400000Y-129550000D02*
X145288000Y-130438000D01*
X135128000Y-133350000D02*
X135128000Y-135272000D01*
X135128000Y-135272000D02*
X136256000Y-136400000D01*
X136256000Y-136400000D02*
X143600000Y-136400000D01*
X143600000Y-136400000D02*
X143650000Y-136350000D01*
X143650000Y-136350000D02*
X144400000Y-136350000D01*
X144400000Y-136350000D02*
X145350000Y-135400000D01*
X145350000Y-133412000D02*
X145288000Y-133350000D01*
X145350000Y-135400000D02*
X145350000Y-133412000D01*
X138708001Y-131850001D02*
X138700001Y-131850001D01*
X140208000Y-133350000D02*
X138708001Y-131850001D01*
X138700001Y-131850001D02*
X136400000Y-129550000D01*
X136400000Y-129550000D02*
X131050000Y-129550000D01*
X130048000Y-130552000D02*
X130048000Y-133350000D01*
X131050000Y-129550000D02*
X130048000Y-130552000D01*
X136652000Y-125093630D02*
X136650000Y-125095630D01*
X136652000Y-124016000D02*
X136652000Y-125093630D01*
X136650000Y-129300000D02*
X136400000Y-129550000D01*
X136650000Y-125095630D02*
X136650000Y-129300000D01*
X141732000Y-122482000D02*
X141732000Y-124016000D01*
X128434680Y-97790000D02*
X123950000Y-102274680D01*
X130556000Y-97790000D02*
X128434680Y-97790000D01*
X123950000Y-102274680D02*
X123950000Y-110900000D01*
X123950000Y-110900000D02*
X126700000Y-113650000D01*
X126700000Y-113650000D02*
X132900000Y-113650000D01*
X132900000Y-113650000D02*
X141732000Y-122482000D01*
X140716000Y-95668680D02*
X140716000Y-97790000D01*
X139997320Y-94950000D02*
X140716000Y-95668680D01*
X131274680Y-94950000D02*
X139997320Y-94950000D01*
X130556000Y-95668680D02*
X131274680Y-94950000D01*
X130556000Y-97790000D02*
X130556000Y-95668680D01*
D31*
X144272000Y-124016000D02*
X143772000Y-124016000D01*
D33*
X128350000Y-101550000D02*
X126150000Y-103750000D01*
X126150000Y-103750000D02*
X126150000Y-109550000D01*
X126150000Y-109550000D02*
X128400000Y-111800000D01*
X132056000Y-111800000D02*
X132106000Y-111750000D01*
X128400000Y-111800000D02*
X132056000Y-111800000D01*
X132106000Y-111750000D02*
X134450000Y-111750000D01*
X144272000Y-121572000D02*
X144272000Y-124016000D01*
X134450000Y-111750000D02*
X144272000Y-121572000D01*
X132350000Y-101550000D02*
X128350000Y-101550000D01*
X145796000Y-100306000D02*
X145796000Y-97790000D01*
X144552000Y-101550000D02*
X145796000Y-100306000D01*
X135600000Y-99947320D02*
X135600000Y-101550000D01*
X135636000Y-99911320D02*
X135600000Y-99947320D01*
X135636000Y-97790000D02*
X135636000Y-99911320D01*
X132350000Y-101550000D02*
X135600000Y-101550000D01*
X135600000Y-101550000D02*
X144552000Y-101550000D01*
D31*
X176784000Y-135763000D02*
X176784000Y-132828700D01*
X176784000Y-132828700D02*
X177459300Y-132153400D01*
X178311700Y-105678600D02*
X179380800Y-106747700D01*
X187462400Y-106747700D02*
X191774200Y-102435900D01*
X179380800Y-106747700D02*
X187462400Y-106747700D01*
X134112000Y-107252000D02*
X139686000Y-112826000D01*
X139686000Y-112826000D02*
X145984800Y-112826000D01*
X193531800Y-106421400D02*
X185392900Y-114560300D01*
X185392900Y-114560300D02*
X185272600Y-114560300D01*
X147410100Y-101551800D02*
X141732000Y-107229900D01*
X141732000Y-107229900D02*
X141732000Y-107252000D01*
X179139700Y-98040300D02*
X175303200Y-98040300D01*
X175303200Y-98040300D02*
X173027000Y-100316500D01*
D32*
X185300000Y-102400000D02*
X183850000Y-101350000D01*
X191300000Y-100700000D02*
X190100000Y-102400000D01*
X190100000Y-102400000D02*
X185300000Y-102400000D01*
X150250000Y-99100000D02*
X150250000Y-101274000D01*
X150250000Y-101274000D02*
X144272000Y-107252000D01*
D31*
X164084000Y-135763000D02*
X164084000Y-130941400D01*
X164084000Y-130941400D02*
X166949000Y-128076400D01*
D30*
X185693200Y-120490600D02*
X199458600Y-106725200D01*
X199458600Y-106725200D02*
X199458600Y-106305800D01*
X180139500Y-116661600D02*
X180139500Y-115051500D01*
X180139500Y-115051500D02*
X175768000Y-110680000D01*
D31*
X158959000Y-112250000D02*
X155575000Y-115634000D01*
X165988000Y-108862000D02*
X165976000Y-108850000D01*
X165976000Y-108850000D02*
X164550000Y-108850000D01*
X175768000Y-110680000D02*
X173950000Y-108862000D01*
X164550000Y-108850000D02*
X161150000Y-112250000D01*
X161150000Y-112250000D02*
X158959000Y-112250000D01*
X171831000Y-106351370D02*
X171850000Y-106370370D01*
X171831000Y-105220000D02*
X171831000Y-106351370D01*
X171850000Y-108700000D02*
X172012000Y-108862000D01*
X171850000Y-106370370D02*
X171850000Y-108700000D01*
X173950000Y-108862000D02*
X172012000Y-108862000D01*
X172012000Y-108862000D02*
X165988000Y-108862000D01*
D32*
X181356000Y-105346000D02*
X181356000Y-100506000D01*
X181356000Y-100506000D02*
X180350000Y-99500000D01*
D34*
G36*
X123137868Y-111712133D02*
G01*
X123181478Y-111747923D01*
X125852081Y-114418528D01*
X125887867Y-114462133D01*
X125931471Y-114497918D01*
X125931477Y-114497924D01*
X126042117Y-114588723D01*
X126061911Y-114604968D01*
X126260477Y-114711103D01*
X126410574Y-114756635D01*
X126475932Y-114776461D01*
X126498600Y-114778694D01*
X126643854Y-114793000D01*
X126643860Y-114793000D01*
X126699999Y-114798529D01*
X126756138Y-114793000D01*
X132426555Y-114793000D01*
X140589000Y-122955446D01*
X140589000Y-123212088D01*
X140493995Y-123354273D01*
X140462000Y-123431515D01*
X140430005Y-123354273D01*
X140277120Y-123125465D01*
X140082535Y-122930880D01*
X139853727Y-122777995D01*
X139599490Y-122672686D01*
X139329592Y-122619000D01*
X139054408Y-122619000D01*
X138784510Y-122672686D01*
X138530273Y-122777995D01*
X138301465Y-122930880D01*
X138106880Y-123125465D01*
X137953995Y-123354273D01*
X137922000Y-123431515D01*
X137890005Y-123354273D01*
X137737120Y-123125465D01*
X137542535Y-122930880D01*
X137313727Y-122777995D01*
X137059490Y-122672686D01*
X136789592Y-122619000D01*
X136514408Y-122619000D01*
X136244510Y-122672686D01*
X135990273Y-122777995D01*
X135761465Y-122930880D01*
X135566880Y-123125465D01*
X135413995Y-123354273D01*
X135384308Y-123425943D01*
X135379636Y-123412977D01*
X135317656Y-123297020D01*
X135077565Y-123230040D01*
X134291605Y-124016000D01*
X135077565Y-124801960D01*
X135317656Y-124734980D01*
X135381485Y-124599240D01*
X135413995Y-124677727D01*
X135509000Y-124819912D01*
X135509000Y-125019179D01*
X135507000Y-125039485D01*
X135507000Y-125039491D01*
X135501471Y-125095630D01*
X135507000Y-125151769D01*
X135507001Y-128407000D01*
X131106139Y-128407000D01*
X131050000Y-128401471D01*
X130993861Y-128407000D01*
X130993854Y-128407000D01*
X130846517Y-128421512D01*
X130825932Y-128423539D01*
X130760574Y-128443365D01*
X130610477Y-128488897D01*
X130411911Y-128595032D01*
X130301531Y-128685619D01*
X130291675Y-128693708D01*
X130237867Y-128737867D01*
X130202077Y-128781477D01*
X129279482Y-129704073D01*
X129235867Y-129739867D01*
X129093032Y-129913912D01*
X128986897Y-130112478D01*
X128955231Y-130216866D01*
X128923591Y-130321171D01*
X128921539Y-130327934D01*
X128905000Y-130495855D01*
X128905000Y-130495861D01*
X128899471Y-130552000D01*
X128905000Y-130608139D01*
X128905000Y-131211928D01*
X128548000Y-131211928D01*
X128423518Y-131224188D01*
X128303820Y-131260498D01*
X128193506Y-131319463D01*
X128096815Y-131398815D01*
X128017463Y-131495506D01*
X127958498Y-131605820D01*
X127922188Y-131725518D01*
X127909928Y-131850000D01*
X127909928Y-134850000D01*
X127922188Y-134974482D01*
X127958498Y-135094180D01*
X128017463Y-135204494D01*
X128096815Y-135301185D01*
X128193506Y-135380537D01*
X128303820Y-135439502D01*
X128423518Y-135475812D01*
X128548000Y-135488072D01*
X131548000Y-135488072D01*
X131672482Y-135475812D01*
X131792180Y-135439502D01*
X131902494Y-135380537D01*
X131999185Y-135301185D01*
X132078537Y-135204494D01*
X132137502Y-135094180D01*
X132173812Y-134974482D01*
X132186072Y-134850000D01*
X132186072Y-131850000D01*
X132173812Y-131725518D01*
X132137502Y-131605820D01*
X132078537Y-131495506D01*
X131999185Y-131398815D01*
X131902494Y-131319463D01*
X131792180Y-131260498D01*
X131672482Y-131224188D01*
X131548000Y-131211928D01*
X131191000Y-131211928D01*
X131191000Y-131025445D01*
X131523446Y-130693000D01*
X135926555Y-130693000D01*
X137852076Y-132618522D01*
X137887868Y-132662134D01*
X137976097Y-132734542D01*
X138124146Y-132882592D01*
X138073000Y-133139721D01*
X138073000Y-133560279D01*
X138155047Y-133972756D01*
X138315988Y-134361302D01*
X138549637Y-134710983D01*
X138847017Y-135008363D01*
X139196698Y-135242012D01*
X139232882Y-135257000D01*
X136729446Y-135257000D01*
X136484083Y-135011637D01*
X136488983Y-135008363D01*
X136786363Y-134710983D01*
X137020012Y-134361302D01*
X137180953Y-133972756D01*
X137263000Y-133560279D01*
X137263000Y-133139721D01*
X137180953Y-132727244D01*
X137020012Y-132338698D01*
X136786363Y-131989017D01*
X136488983Y-131691637D01*
X136139302Y-131457988D01*
X135750756Y-131297047D01*
X135338279Y-131215000D01*
X134917721Y-131215000D01*
X134505244Y-131297047D01*
X134116698Y-131457988D01*
X133767017Y-131691637D01*
X133469637Y-131989017D01*
X133235988Y-132338698D01*
X133075047Y-132727244D01*
X132993000Y-133139721D01*
X132993000Y-133560279D01*
X133075047Y-133972756D01*
X133235988Y-134361302D01*
X133469637Y-134710983D01*
X133767017Y-135008363D01*
X133985001Y-135154015D01*
X133985001Y-135215852D01*
X133979471Y-135272000D01*
X134001539Y-135496067D01*
X134053141Y-135666173D01*
X134066898Y-135711523D01*
X134173033Y-135910089D01*
X134196147Y-135938253D01*
X134278080Y-136038088D01*
X134315868Y-136084133D01*
X134359478Y-136119923D01*
X135247554Y-137008000D01*
X126116381Y-137008000D01*
X126259994Y-136831913D01*
X126458001Y-136459517D01*
X126579905Y-136055752D01*
X126621062Y-135636000D01*
X126620219Y-135575660D01*
X126567358Y-135157220D01*
X126434228Y-134757017D01*
X126225901Y-134390294D01*
X125950311Y-134071020D01*
X125617955Y-133811355D01*
X125241493Y-133621190D01*
X124835264Y-133507769D01*
X124414742Y-133475412D01*
X123995944Y-133525351D01*
X123594821Y-133655683D01*
X123226653Y-133861446D01*
X123088000Y-133979449D01*
X123088000Y-123254000D01*
X127631928Y-123254000D01*
X127631928Y-124778000D01*
X127644188Y-124902482D01*
X127680498Y-125022180D01*
X127739463Y-125132494D01*
X127818815Y-125229185D01*
X127915506Y-125308537D01*
X128025820Y-125367502D01*
X128145518Y-125403812D01*
X128270000Y-125416072D01*
X129794000Y-125416072D01*
X129918482Y-125403812D01*
X130038180Y-125367502D01*
X130148494Y-125308537D01*
X130245185Y-125229185D01*
X130324537Y-125132494D01*
X130383502Y-125022180D01*
X130419812Y-124902482D01*
X130428080Y-124818535D01*
X130486880Y-124906535D01*
X130681465Y-125101120D01*
X130910273Y-125254005D01*
X131164510Y-125359314D01*
X131434408Y-125413000D01*
X131709592Y-125413000D01*
X131979490Y-125359314D01*
X132233727Y-125254005D01*
X132462535Y-125101120D01*
X132582090Y-124981565D01*
X133326040Y-124981565D01*
X133393020Y-125221656D01*
X133642048Y-125338756D01*
X133909135Y-125405023D01*
X134184017Y-125417910D01*
X134456133Y-125376922D01*
X134715023Y-125283636D01*
X134830980Y-125221656D01*
X134897960Y-124981565D01*
X134112000Y-124195605D01*
X133326040Y-124981565D01*
X132582090Y-124981565D01*
X132657120Y-124906535D01*
X132810005Y-124677727D01*
X132839692Y-124606057D01*
X132844364Y-124619023D01*
X132906344Y-124734980D01*
X133146435Y-124801960D01*
X133932395Y-124016000D01*
X133146435Y-123230040D01*
X132906344Y-123297020D01*
X132842515Y-123432760D01*
X132810005Y-123354273D01*
X132657120Y-123125465D01*
X132582090Y-123050435D01*
X133326040Y-123050435D01*
X134112000Y-123836395D01*
X134897960Y-123050435D01*
X134830980Y-122810344D01*
X134581952Y-122693244D01*
X134314865Y-122626977D01*
X134039983Y-122614090D01*
X133767867Y-122655078D01*
X133508977Y-122748364D01*
X133393020Y-122810344D01*
X133326040Y-123050435D01*
X132582090Y-123050435D01*
X132462535Y-122930880D01*
X132233727Y-122777995D01*
X131979490Y-122672686D01*
X131709592Y-122619000D01*
X131434408Y-122619000D01*
X131164510Y-122672686D01*
X130910273Y-122777995D01*
X130681465Y-122930880D01*
X130486880Y-123125465D01*
X130428080Y-123213465D01*
X130419812Y-123129518D01*
X130383502Y-123009820D01*
X130324537Y-122899506D01*
X130245185Y-122802815D01*
X130148494Y-122723463D01*
X130038180Y-122664498D01*
X129918482Y-122628188D01*
X129794000Y-122615928D01*
X128270000Y-122615928D01*
X128145518Y-122628188D01*
X128025820Y-122664498D01*
X127915506Y-122723463D01*
X127818815Y-122802815D01*
X127739463Y-122899506D01*
X127680498Y-123009820D01*
X127644188Y-123129518D01*
X127631928Y-123254000D01*
X123088000Y-123254000D01*
X123088000Y-111651369D01*
X123137868Y-111712133D01*
X123137868Y-111712133D01*
G37*
X123137868Y-111712133D02*
X123181478Y-111747923D01*
X125852081Y-114418528D01*
X125887867Y-114462133D01*
X125931471Y-114497918D01*
X125931477Y-114497924D01*
X126042117Y-114588723D01*
X126061911Y-114604968D01*
X126260477Y-114711103D01*
X126410574Y-114756635D01*
X126475932Y-114776461D01*
X126498600Y-114778694D01*
X126643854Y-114793000D01*
X126643860Y-114793000D01*
X126699999Y-114798529D01*
X126756138Y-114793000D01*
X132426555Y-114793000D01*
X140589000Y-122955446D01*
X140589000Y-123212088D01*
X140493995Y-123354273D01*
X140462000Y-123431515D01*
X140430005Y-123354273D01*
X140277120Y-123125465D01*
X140082535Y-122930880D01*
X139853727Y-122777995D01*
X139599490Y-122672686D01*
X139329592Y-122619000D01*
X139054408Y-122619000D01*
X138784510Y-122672686D01*
X138530273Y-122777995D01*
X138301465Y-122930880D01*
X138106880Y-123125465D01*
X137953995Y-123354273D01*
X137922000Y-123431515D01*
X137890005Y-123354273D01*
X137737120Y-123125465D01*
X137542535Y-122930880D01*
X137313727Y-122777995D01*
X137059490Y-122672686D01*
X136789592Y-122619000D01*
X136514408Y-122619000D01*
X136244510Y-122672686D01*
X135990273Y-122777995D01*
X135761465Y-122930880D01*
X135566880Y-123125465D01*
X135413995Y-123354273D01*
X135384308Y-123425943D01*
X135379636Y-123412977D01*
X135317656Y-123297020D01*
X135077565Y-123230040D01*
X134291605Y-124016000D01*
X135077565Y-124801960D01*
X135317656Y-124734980D01*
X135381485Y-124599240D01*
X135413995Y-124677727D01*
X135509000Y-124819912D01*
X135509000Y-125019179D01*
X135507000Y-125039485D01*
X135507000Y-125039491D01*
X135501471Y-125095630D01*
X135507000Y-125151769D01*
X135507001Y-128407000D01*
X131106139Y-128407000D01*
X131050000Y-128401471D01*
X130993861Y-128407000D01*
X130993854Y-128407000D01*
X130846517Y-128421512D01*
X130825932Y-128423539D01*
X130760574Y-128443365D01*
X130610477Y-128488897D01*
X130411911Y-128595032D01*
X130301531Y-128685619D01*
X130291675Y-128693708D01*
X130237867Y-128737867D01*
X130202077Y-128781477D01*
X129279482Y-129704073D01*
X129235867Y-129739867D01*
X129093032Y-129913912D01*
X128986897Y-130112478D01*
X128955231Y-130216866D01*
X128923591Y-130321171D01*
X128921539Y-130327934D01*
X128905000Y-130495855D01*
X128905000Y-130495861D01*
X128899471Y-130552000D01*
X128905000Y-130608139D01*
X128905000Y-131211928D01*
X128548000Y-131211928D01*
X128423518Y-131224188D01*
X128303820Y-131260498D01*
X128193506Y-131319463D01*
X128096815Y-131398815D01*
X128017463Y-131495506D01*
X127958498Y-131605820D01*
X127922188Y-131725518D01*
X127909928Y-131850000D01*
X127909928Y-134850000D01*
X127922188Y-134974482D01*
X127958498Y-135094180D01*
X128017463Y-135204494D01*
X128096815Y-135301185D01*
X128193506Y-135380537D01*
X128303820Y-135439502D01*
X128423518Y-135475812D01*
X128548000Y-135488072D01*
X131548000Y-135488072D01*
X131672482Y-135475812D01*
X131792180Y-135439502D01*
X131902494Y-135380537D01*
X131999185Y-135301185D01*
X132078537Y-135204494D01*
X132137502Y-135094180D01*
X132173812Y-134974482D01*
X132186072Y-134850000D01*
X132186072Y-131850000D01*
X132173812Y-131725518D01*
X132137502Y-131605820D01*
X132078537Y-131495506D01*
X131999185Y-131398815D01*
X131902494Y-131319463D01*
X131792180Y-131260498D01*
X131672482Y-131224188D01*
X131548000Y-131211928D01*
X131191000Y-131211928D01*
X131191000Y-131025445D01*
X131523446Y-130693000D01*
X135926555Y-130693000D01*
X137852076Y-132618522D01*
X137887868Y-132662134D01*
X137976097Y-132734542D01*
X138124146Y-132882592D01*
X138073000Y-133139721D01*
X138073000Y-133560279D01*
X138155047Y-133972756D01*
X138315988Y-134361302D01*
X138549637Y-134710983D01*
X138847017Y-135008363D01*
X139196698Y-135242012D01*
X139232882Y-135257000D01*
X136729446Y-135257000D01*
X136484083Y-135011637D01*
X136488983Y-135008363D01*
X136786363Y-134710983D01*
X137020012Y-134361302D01*
X137180953Y-133972756D01*
X137263000Y-133560279D01*
X137263000Y-133139721D01*
X137180953Y-132727244D01*
X137020012Y-132338698D01*
X136786363Y-131989017D01*
X136488983Y-131691637D01*
X136139302Y-131457988D01*
X135750756Y-131297047D01*
X135338279Y-131215000D01*
X134917721Y-131215000D01*
X134505244Y-131297047D01*
X134116698Y-131457988D01*
X133767017Y-131691637D01*
X133469637Y-131989017D01*
X133235988Y-132338698D01*
X133075047Y-132727244D01*
X132993000Y-133139721D01*
X132993000Y-133560279D01*
X133075047Y-133972756D01*
X133235988Y-134361302D01*
X133469637Y-134710983D01*
X133767017Y-135008363D01*
X133985001Y-135154015D01*
X133985001Y-135215852D01*
X133979471Y-135272000D01*
X134001539Y-135496067D01*
X134053141Y-135666173D01*
X134066898Y-135711523D01*
X134173033Y-135910089D01*
X134196147Y-135938253D01*
X134278080Y-136038088D01*
X134315868Y-136084133D01*
X134359478Y-136119923D01*
X135247554Y-137008000D01*
X126116381Y-137008000D01*
X126259994Y-136831913D01*
X126458001Y-136459517D01*
X126579905Y-136055752D01*
X126621062Y-135636000D01*
X126620219Y-135575660D01*
X126567358Y-135157220D01*
X126434228Y-134757017D01*
X126225901Y-134390294D01*
X125950311Y-134071020D01*
X125617955Y-133811355D01*
X125241493Y-133621190D01*
X124835264Y-133507769D01*
X124414742Y-133475412D01*
X123995944Y-133525351D01*
X123594821Y-133655683D01*
X123226653Y-133861446D01*
X123088000Y-133979449D01*
X123088000Y-123254000D01*
X127631928Y-123254000D01*
X127631928Y-124778000D01*
X127644188Y-124902482D01*
X127680498Y-125022180D01*
X127739463Y-125132494D01*
X127818815Y-125229185D01*
X127915506Y-125308537D01*
X128025820Y-125367502D01*
X128145518Y-125403812D01*
X128270000Y-125416072D01*
X129794000Y-125416072D01*
X129918482Y-125403812D01*
X130038180Y-125367502D01*
X130148494Y-125308537D01*
X130245185Y-125229185D01*
X130324537Y-125132494D01*
X130383502Y-125022180D01*
X130419812Y-124902482D01*
X130428080Y-124818535D01*
X130486880Y-124906535D01*
X130681465Y-125101120D01*
X130910273Y-125254005D01*
X131164510Y-125359314D01*
X131434408Y-125413000D01*
X131709592Y-125413000D01*
X131979490Y-125359314D01*
X132233727Y-125254005D01*
X132462535Y-125101120D01*
X132582090Y-124981565D01*
X133326040Y-124981565D01*
X133393020Y-125221656D01*
X133642048Y-125338756D01*
X133909135Y-125405023D01*
X134184017Y-125417910D01*
X134456133Y-125376922D01*
X134715023Y-125283636D01*
X134830980Y-125221656D01*
X134897960Y-124981565D01*
X134112000Y-124195605D01*
X133326040Y-124981565D01*
X132582090Y-124981565D01*
X132657120Y-124906535D01*
X132810005Y-124677727D01*
X132839692Y-124606057D01*
X132844364Y-124619023D01*
X132906344Y-124734980D01*
X133146435Y-124801960D01*
X133932395Y-124016000D01*
X133146435Y-123230040D01*
X132906344Y-123297020D01*
X132842515Y-123432760D01*
X132810005Y-123354273D01*
X132657120Y-123125465D01*
X132582090Y-123050435D01*
X133326040Y-123050435D01*
X134112000Y-123836395D01*
X134897960Y-123050435D01*
X134830980Y-122810344D01*
X134581952Y-122693244D01*
X134314865Y-122626977D01*
X134039983Y-122614090D01*
X133767867Y-122655078D01*
X133508977Y-122748364D01*
X133393020Y-122810344D01*
X133326040Y-123050435D01*
X132582090Y-123050435D01*
X132462535Y-122930880D01*
X132233727Y-122777995D01*
X131979490Y-122672686D01*
X131709592Y-122619000D01*
X131434408Y-122619000D01*
X131164510Y-122672686D01*
X130910273Y-122777995D01*
X130681465Y-122930880D01*
X130486880Y-123125465D01*
X130428080Y-123213465D01*
X130419812Y-123129518D01*
X130383502Y-123009820D01*
X130324537Y-122899506D01*
X130245185Y-122802815D01*
X130148494Y-122723463D01*
X130038180Y-122664498D01*
X129918482Y-122628188D01*
X129794000Y-122615928D01*
X128270000Y-122615928D01*
X128145518Y-122628188D01*
X128025820Y-122664498D01*
X127915506Y-122723463D01*
X127818815Y-122802815D01*
X127739463Y-122899506D01*
X127680498Y-123009820D01*
X127644188Y-123129518D01*
X127631928Y-123254000D01*
X123088000Y-123254000D01*
X123088000Y-111651369D01*
X123137868Y-111712133D01*
G36*
X169329127Y-94438735D02*
G01*
X169444396Y-94554004D01*
X169162611Y-94670275D01*
X169004743Y-94988860D01*
X168912062Y-95332122D01*
X168888127Y-95686869D01*
X168933861Y-96039470D01*
X169047505Y-96376373D01*
X169162611Y-96591725D01*
X169444398Y-96707997D01*
X170521395Y-95631000D01*
X170507253Y-95616858D01*
X170686858Y-95437253D01*
X170701000Y-95451395D01*
X170715143Y-95437253D01*
X170894748Y-95616858D01*
X170880605Y-95631000D01*
X171957602Y-96707997D01*
X172239389Y-96591725D01*
X172397257Y-96273140D01*
X172489938Y-95929878D01*
X172513873Y-95575131D01*
X172468139Y-95222530D01*
X172354495Y-94885627D01*
X172239389Y-94670275D01*
X171957604Y-94554004D01*
X172072873Y-94438735D01*
X172020138Y-94386000D01*
X174393344Y-94386000D01*
X174298965Y-94480379D01*
X174101429Y-94776012D01*
X173965365Y-95104501D01*
X173896000Y-95453223D01*
X173896000Y-95808777D01*
X173965365Y-96157499D01*
X174101429Y-96485988D01*
X174298965Y-96781621D01*
X174550379Y-97033035D01*
X174764588Y-97176165D01*
X174736010Y-97191440D01*
X174581304Y-97318404D01*
X174549492Y-97357167D01*
X172671367Y-99235292D01*
X172489376Y-99310676D01*
X172303480Y-99434888D01*
X172145388Y-99592980D01*
X172021176Y-99778876D01*
X171935617Y-99985433D01*
X171892000Y-100204712D01*
X171892000Y-100428288D01*
X171935617Y-100647567D01*
X172021176Y-100854124D01*
X172145388Y-101040020D01*
X172303480Y-101198112D01*
X172489376Y-101322324D01*
X172695933Y-101407883D01*
X172915212Y-101451500D01*
X173138788Y-101451500D01*
X173358067Y-101407883D01*
X173564624Y-101322324D01*
X173750520Y-101198112D01*
X173908612Y-101040020D01*
X174032824Y-100854124D01*
X174108208Y-100672133D01*
X175724041Y-99056300D01*
X178626643Y-99056300D01*
X178808633Y-99131683D01*
X179027912Y-99175300D01*
X179251488Y-99175300D01*
X179374341Y-99150863D01*
X179354774Y-99198102D01*
X179315000Y-99398061D01*
X179315000Y-99601939D01*
X179354774Y-99801898D01*
X179432795Y-99990256D01*
X179546063Y-100159774D01*
X179690226Y-100303937D01*
X179859744Y-100417205D01*
X180048102Y-100495226D01*
X180097895Y-100505130D01*
X180467001Y-100874237D01*
X180467000Y-104214151D01*
X180441241Y-104231363D01*
X180241363Y-104431241D01*
X180084320Y-104666273D01*
X179976147Y-104927426D01*
X179921000Y-105204665D01*
X179921000Y-105487335D01*
X179969608Y-105731700D01*
X179801641Y-105731700D01*
X179392907Y-105322967D01*
X179317524Y-105140976D01*
X179193312Y-104955080D01*
X179035220Y-104796988D01*
X178849324Y-104672776D01*
X178642767Y-104587217D01*
X178423488Y-104543600D01*
X178199912Y-104543600D01*
X177980633Y-104587217D01*
X177774076Y-104672776D01*
X177665248Y-104745493D01*
X177659603Y-104729708D01*
X177592671Y-104604486D01*
X177348702Y-104532903D01*
X176535605Y-105346000D01*
X177235198Y-106045593D01*
X177305876Y-106216224D01*
X177430088Y-106402120D01*
X177588180Y-106560212D01*
X177774076Y-106684424D01*
X177956067Y-106759807D01*
X178627092Y-107430833D01*
X178658904Y-107469596D01*
X178813610Y-107596560D01*
X178931345Y-107659490D01*
X178990113Y-107690902D01*
X179181629Y-107748998D01*
X179380800Y-107768615D01*
X179430702Y-107763700D01*
X180526700Y-107763700D01*
X180494176Y-107812376D01*
X180408617Y-108018933D01*
X180365000Y-108238212D01*
X180365000Y-108461788D01*
X180408617Y-108681067D01*
X180494176Y-108887624D01*
X180618388Y-109073520D01*
X180776480Y-109231612D01*
X180796517Y-109245000D01*
X180720998Y-109245000D01*
X180720998Y-109409375D01*
X180498960Y-109288091D01*
X180234119Y-109382930D01*
X179992869Y-109527615D01*
X179784481Y-109716586D01*
X179616963Y-109942580D01*
X179496754Y-110196913D01*
X179456096Y-110330961D01*
X179578085Y-110553000D01*
X180721000Y-110553000D01*
X180721000Y-110533000D01*
X180975000Y-110533000D01*
X180975000Y-110553000D01*
X182117915Y-110553000D01*
X182239904Y-110330961D01*
X182199246Y-110196913D01*
X182079037Y-109942580D01*
X181911519Y-109716586D01*
X181703131Y-109527615D01*
X181627022Y-109481970D01*
X181831067Y-109441383D01*
X182037624Y-109355824D01*
X182223520Y-109231612D01*
X182381612Y-109073520D01*
X182505824Y-108887624D01*
X182591383Y-108681067D01*
X182635000Y-108461788D01*
X182635000Y-108238212D01*
X182591383Y-108018933D01*
X182505824Y-107812376D01*
X182473300Y-107763700D01*
X187412498Y-107763700D01*
X187462400Y-107768615D01*
X187512302Y-107763700D01*
X187661571Y-107748998D01*
X187853087Y-107690902D01*
X188029590Y-107596560D01*
X188184296Y-107469596D01*
X188216112Y-107430828D01*
X192129834Y-103517107D01*
X192311824Y-103441724D01*
X192497720Y-103317512D01*
X192655812Y-103159420D01*
X192780024Y-102973524D01*
X192865583Y-102766967D01*
X192909200Y-102547688D01*
X192909200Y-102324112D01*
X192865583Y-102104833D01*
X192780024Y-101898276D01*
X192655812Y-101712380D01*
X192535144Y-101591712D01*
X194448893Y-101591712D01*
X194556726Y-101866338D01*
X194863384Y-102017216D01*
X195193585Y-102105369D01*
X195534639Y-102127409D01*
X195873439Y-102082489D01*
X196196966Y-101972336D01*
X196395274Y-101866338D01*
X196503107Y-101591712D01*
X195476000Y-100564605D01*
X194448893Y-101591712D01*
X192535144Y-101591712D01*
X192497720Y-101554288D01*
X192311824Y-101430076D01*
X192206408Y-101386411D01*
X192305824Y-101237624D01*
X192391383Y-101031067D01*
X192435000Y-100811788D01*
X192435000Y-100588212D01*
X192406243Y-100443639D01*
X193733591Y-100443639D01*
X193778511Y-100782439D01*
X193888664Y-101105966D01*
X193994662Y-101304274D01*
X194269288Y-101412107D01*
X195296395Y-100385000D01*
X195655605Y-100385000D01*
X196682712Y-101412107D01*
X196957338Y-101304274D01*
X197108216Y-100997616D01*
X197196369Y-100667415D01*
X197218409Y-100326361D01*
X197173489Y-99987561D01*
X197063336Y-99664034D01*
X196957338Y-99465726D01*
X196682712Y-99357893D01*
X195655605Y-100385000D01*
X195296395Y-100385000D01*
X194269288Y-99357893D01*
X193994662Y-99465726D01*
X193843784Y-99772384D01*
X193755631Y-100102585D01*
X193733591Y-100443639D01*
X192406243Y-100443639D01*
X192391383Y-100368933D01*
X192305824Y-100162376D01*
X192181612Y-99976480D01*
X192023520Y-99818388D01*
X191837624Y-99694176D01*
X191631067Y-99608617D01*
X191411788Y-99565000D01*
X191188212Y-99565000D01*
X190968933Y-99608617D01*
X190762376Y-99694176D01*
X190609980Y-99796004D01*
X190513537Y-99563169D01*
X190323663Y-99279002D01*
X190222949Y-99178288D01*
X194448893Y-99178288D01*
X195476000Y-100205395D01*
X196503107Y-99178288D01*
X196395274Y-98903662D01*
X196088616Y-98752784D01*
X195758415Y-98664631D01*
X195417361Y-98642591D01*
X195078561Y-98687511D01*
X194755034Y-98797664D01*
X194556726Y-98903662D01*
X194448893Y-99178288D01*
X190222949Y-99178288D01*
X190081998Y-99037337D01*
X189992000Y-98977202D01*
X189992000Y-97623072D01*
X190076000Y-97623072D01*
X190200482Y-97610812D01*
X190320180Y-97574502D01*
X190430494Y-97515537D01*
X190527185Y-97436185D01*
X190606537Y-97339494D01*
X190665502Y-97229180D01*
X190701812Y-97109482D01*
X190703562Y-97091712D01*
X194448893Y-97091712D01*
X194556726Y-97366338D01*
X194863384Y-97517216D01*
X195193585Y-97605369D01*
X195534639Y-97627409D01*
X195873439Y-97582489D01*
X196196966Y-97472336D01*
X196395274Y-97366338D01*
X196503107Y-97091712D01*
X195476000Y-96064605D01*
X194448893Y-97091712D01*
X190703562Y-97091712D01*
X190714072Y-96985000D01*
X190714072Y-95943639D01*
X193733591Y-95943639D01*
X193778511Y-96282439D01*
X193888664Y-96605966D01*
X193994662Y-96804274D01*
X194269288Y-96912107D01*
X195296395Y-95885000D01*
X195655605Y-95885000D01*
X196682712Y-96912107D01*
X196957338Y-96804274D01*
X197108216Y-96497616D01*
X197196369Y-96167415D01*
X197218409Y-95826361D01*
X197173489Y-95487561D01*
X197063336Y-95164034D01*
X196957338Y-94965726D01*
X196682712Y-94857893D01*
X195655605Y-95885000D01*
X195296395Y-95885000D01*
X194269288Y-94857893D01*
X193994662Y-94965726D01*
X193843784Y-95272384D01*
X193755631Y-95602585D01*
X193733591Y-95943639D01*
X190714072Y-95943639D01*
X190714072Y-94785000D01*
X190701812Y-94660518D01*
X190665502Y-94540820D01*
X190606537Y-94430506D01*
X190570012Y-94386000D01*
X194589769Y-94386000D01*
X194556726Y-94403662D01*
X194448893Y-94678288D01*
X195476000Y-95705395D01*
X196503107Y-94678288D01*
X196395274Y-94403662D01*
X196359376Y-94386000D01*
X200219786Y-94386000D01*
X199999241Y-94533363D01*
X199799363Y-94733241D01*
X199642320Y-94968273D01*
X199568894Y-95145540D01*
X197950309Y-95885047D01*
X197919813Y-95894298D01*
X197859492Y-95926540D01*
X197842897Y-95934122D01*
X197815512Y-95950047D01*
X197743310Y-95988640D01*
X197729108Y-96000295D01*
X197713237Y-96009525D01*
X197651900Y-96063659D01*
X197588604Y-96115604D01*
X197576946Y-96129809D01*
X197563184Y-96141955D01*
X197513583Y-96207018D01*
X197461640Y-96270310D01*
X197452982Y-96286509D01*
X197441848Y-96301113D01*
X197405876Y-96374639D01*
X197367298Y-96446814D01*
X197361968Y-96464386D01*
X197353895Y-96480886D01*
X197332958Y-96560018D01*
X197309202Y-96638330D01*
X197307402Y-96656606D01*
X197302704Y-96674362D01*
X197297609Y-96756034D01*
X197294500Y-96787599D01*
X197294500Y-96805869D01*
X197290243Y-96874107D01*
X197294500Y-96905677D01*
X197294501Y-104481158D01*
X187139860Y-114635800D01*
X186754240Y-114635800D01*
X193887434Y-107502607D01*
X194069424Y-107427224D01*
X194255320Y-107303012D01*
X194413412Y-107144920D01*
X194537624Y-106959024D01*
X194623183Y-106752467D01*
X194666800Y-106533188D01*
X194666800Y-106309612D01*
X194623183Y-106090333D01*
X194537624Y-105883776D01*
X194413412Y-105697880D01*
X194255320Y-105539788D01*
X194069424Y-105415576D01*
X193862867Y-105330017D01*
X193643588Y-105286400D01*
X193420012Y-105286400D01*
X193200733Y-105330017D01*
X192994176Y-105415576D01*
X192808280Y-105539788D01*
X192650188Y-105697880D01*
X192525976Y-105883776D01*
X192450593Y-106065766D01*
X185073740Y-113442619D01*
X184941533Y-113468917D01*
X184734976Y-113554476D01*
X184549080Y-113678688D01*
X184390988Y-113836780D01*
X184266776Y-114022676D01*
X184181217Y-114229233D01*
X184137600Y-114448512D01*
X184137600Y-114610551D01*
X184052076Y-114645976D01*
X183866180Y-114770188D01*
X183708088Y-114928280D01*
X183583876Y-115114176D01*
X183498317Y-115320733D01*
X183454700Y-115540012D01*
X183454700Y-115763588D01*
X183498317Y-115982867D01*
X183583876Y-116189424D01*
X183708088Y-116375320D01*
X183735768Y-116403000D01*
X183712408Y-116403000D01*
X183442510Y-116456686D01*
X183188273Y-116561995D01*
X182959465Y-116714880D01*
X182764880Y-116909465D01*
X182611995Y-117138273D01*
X182506686Y-117392510D01*
X182453000Y-117662408D01*
X182453000Y-117937592D01*
X182506686Y-118207490D01*
X182611995Y-118461727D01*
X182764880Y-118690535D01*
X182959465Y-118885120D01*
X183188273Y-119038005D01*
X183442510Y-119143314D01*
X183712408Y-119197000D01*
X183987592Y-119197000D01*
X184257490Y-119143314D01*
X184511727Y-119038005D01*
X184740535Y-118885120D01*
X184935120Y-118690535D01*
X185088005Y-118461727D01*
X185193314Y-118207490D01*
X185247000Y-117937592D01*
X185247000Y-117662408D01*
X185193314Y-117392510D01*
X185088005Y-117138273D01*
X184935120Y-116909465D01*
X184794044Y-116768389D01*
X184920767Y-116743183D01*
X185102757Y-116667800D01*
X187510798Y-116667800D01*
X187560700Y-116672715D01*
X187610602Y-116667800D01*
X187759871Y-116653098D01*
X187951387Y-116595002D01*
X188127890Y-116500660D01*
X188282596Y-116373696D01*
X188314412Y-116334928D01*
X198323600Y-106325741D01*
X198323600Y-106333557D01*
X185184266Y-119472892D01*
X185155576Y-119484776D01*
X184969680Y-119608988D01*
X184811588Y-119767080D01*
X184687376Y-119952976D01*
X184601817Y-120159533D01*
X184558200Y-120378812D01*
X184558200Y-120602388D01*
X184601817Y-120821667D01*
X184687376Y-121028224D01*
X184811588Y-121214120D01*
X184969680Y-121372212D01*
X185155576Y-121496424D01*
X185362133Y-121581983D01*
X185581412Y-121625600D01*
X185804988Y-121625600D01*
X186024267Y-121581983D01*
X186230824Y-121496424D01*
X186416720Y-121372212D01*
X186574812Y-121214120D01*
X186699024Y-121028224D01*
X186710908Y-120999534D01*
X200184421Y-107526022D01*
X200225615Y-107492215D01*
X200360514Y-107327840D01*
X200460753Y-107140306D01*
X200522480Y-106936819D01*
X200538100Y-106778229D01*
X200538100Y-106778222D01*
X200543322Y-106725201D01*
X200538100Y-106672179D01*
X200538100Y-106665555D01*
X200549983Y-106636867D01*
X200593600Y-106417588D01*
X200593600Y-106194012D01*
X200549983Y-105974733D01*
X200464424Y-105768176D01*
X200340212Y-105582280D01*
X200182120Y-105424188D01*
X199996224Y-105299976D01*
X199789667Y-105214417D01*
X199570388Y-105170800D01*
X199346812Y-105170800D01*
X199287071Y-105182683D01*
X199311798Y-105101171D01*
X199326500Y-104951902D01*
X199331415Y-104902000D01*
X199326500Y-104852098D01*
X199326500Y-100718512D01*
X199473783Y-100718512D01*
X199515213Y-100998130D01*
X199610397Y-101264292D01*
X199677329Y-101389514D01*
X199921298Y-101461097D01*
X200734395Y-100648000D01*
X199921298Y-99834903D01*
X199677329Y-99906486D01*
X199556429Y-100161996D01*
X199487700Y-100436184D01*
X199473783Y-100718512D01*
X199326500Y-100718512D01*
X199326500Y-97490324D01*
X200413238Y-96993810D01*
X200495426Y-97027853D01*
X200772665Y-97083000D01*
X200912160Y-97083000D01*
X201394600Y-97565441D01*
X201394600Y-99289075D01*
X201125816Y-99221700D01*
X200843488Y-99207783D01*
X200563870Y-99249213D01*
X200297708Y-99344397D01*
X200172486Y-99411329D01*
X200100903Y-99655298D01*
X200914000Y-100468395D01*
X200928143Y-100454253D01*
X201107748Y-100633858D01*
X201093605Y-100648000D01*
X201107748Y-100662143D01*
X200928143Y-100841748D01*
X200914000Y-100827605D01*
X200100903Y-101640702D01*
X200172486Y-101884671D01*
X200427996Y-102005571D01*
X200702184Y-102074300D01*
X200984512Y-102088217D01*
X201264130Y-102046787D01*
X201360035Y-102012490D01*
X201319217Y-102111033D01*
X201275600Y-102330312D01*
X201275600Y-102553888D01*
X201319217Y-102773167D01*
X201404776Y-102979724D01*
X201528988Y-103165620D01*
X201687080Y-103323712D01*
X201872976Y-103447924D01*
X202079533Y-103533483D01*
X202298812Y-103577100D01*
X202522388Y-103577100D01*
X202741667Y-103533483D01*
X202948224Y-103447924D01*
X203134120Y-103323712D01*
X203292212Y-103165620D01*
X203416424Y-102979724D01*
X203501983Y-102773167D01*
X203545600Y-102553888D01*
X203545600Y-102330312D01*
X203501983Y-102111033D01*
X203426600Y-101929043D01*
X203426600Y-97573053D01*
X203787452Y-97761702D01*
X204192057Y-97880784D01*
X204612087Y-97919009D01*
X205031542Y-97874923D01*
X205434445Y-97750203D01*
X205805451Y-97549602D01*
X205969001Y-97414301D01*
X205969000Y-133978585D01*
X205754955Y-133811355D01*
X205378493Y-133621190D01*
X204972264Y-133507769D01*
X204551742Y-133475412D01*
X204132944Y-133525351D01*
X203731821Y-133655683D01*
X203363653Y-133861446D01*
X203042462Y-134134800D01*
X202780483Y-134465335D01*
X202587695Y-134840460D01*
X202471441Y-135245887D01*
X202436149Y-135666173D01*
X202483162Y-136085310D01*
X202610692Y-136487333D01*
X202813879Y-136856929D01*
X202940642Y-137008000D01*
X197797980Y-137008000D01*
X197806014Y-137003706D01*
X198032134Y-136818134D01*
X198217706Y-136592014D01*
X198355599Y-136334034D01*
X198440513Y-136054111D01*
X198469185Y-135763000D01*
X198440513Y-135471889D01*
X198355599Y-135191966D01*
X198217706Y-134933986D01*
X198032134Y-134707866D01*
X197806014Y-134522294D01*
X197548034Y-134384401D01*
X197268111Y-134299487D01*
X197049950Y-134278000D01*
X196904050Y-134278000D01*
X196685889Y-134299487D01*
X196405966Y-134384401D01*
X196147986Y-134522294D01*
X195921866Y-134707866D01*
X195736294Y-134933986D01*
X195701799Y-134998523D01*
X195632178Y-134881645D01*
X195437269Y-134665412D01*
X195203920Y-134491359D01*
X194941099Y-134366175D01*
X194793890Y-134321524D01*
X194564000Y-134442845D01*
X194564000Y-135636000D01*
X194584000Y-135636000D01*
X194584000Y-135890000D01*
X194564000Y-135890000D01*
X194564000Y-135910000D01*
X194310000Y-135910000D01*
X194310000Y-135890000D01*
X194290000Y-135890000D01*
X194290000Y-135636000D01*
X194310000Y-135636000D01*
X194310000Y-134442845D01*
X194080110Y-134321524D01*
X193932901Y-134366175D01*
X193670080Y-134491359D01*
X193436731Y-134665412D01*
X193241822Y-134881645D01*
X193172201Y-134998523D01*
X193137706Y-134933986D01*
X192952134Y-134707866D01*
X192726014Y-134522294D01*
X192468034Y-134384401D01*
X192188111Y-134299487D01*
X191969950Y-134278000D01*
X191824050Y-134278000D01*
X191605889Y-134299487D01*
X191325966Y-134384401D01*
X191067986Y-134522294D01*
X190841866Y-134707866D01*
X190656294Y-134933986D01*
X190627000Y-134988791D01*
X190597706Y-134933986D01*
X190412134Y-134707866D01*
X190186014Y-134522294D01*
X189928034Y-134384401D01*
X189648111Y-134299487D01*
X189429950Y-134278000D01*
X189284050Y-134278000D01*
X189065889Y-134299487D01*
X188785966Y-134384401D01*
X188527986Y-134522294D01*
X188301866Y-134707866D01*
X188277393Y-134737687D01*
X188256502Y-134668820D01*
X188197537Y-134558506D01*
X188118185Y-134461815D01*
X188021494Y-134382463D01*
X187911180Y-134323498D01*
X187791482Y-134287188D01*
X187667000Y-134274928D01*
X185967000Y-134274928D01*
X185842518Y-134287188D01*
X185801000Y-134299782D01*
X185801000Y-133581000D01*
X193885098Y-133581000D01*
X193935000Y-133585915D01*
X193984902Y-133581000D01*
X194134171Y-133566298D01*
X194325687Y-133508202D01*
X194502190Y-133413860D01*
X194656896Y-133286896D01*
X194688712Y-133248128D01*
X197533133Y-130403708D01*
X197571896Y-130371896D01*
X197698860Y-130217190D01*
X197793202Y-130040687D01*
X197851298Y-129849171D01*
X197854918Y-129812408D01*
X202553000Y-129812408D01*
X202553000Y-130087592D01*
X202606686Y-130357490D01*
X202711995Y-130611727D01*
X202864880Y-130840535D01*
X203059465Y-131035120D01*
X203288273Y-131188005D01*
X203542510Y-131293314D01*
X203812408Y-131347000D01*
X204087592Y-131347000D01*
X204357490Y-131293314D01*
X204611727Y-131188005D01*
X204840535Y-131035120D01*
X205035120Y-130840535D01*
X205188005Y-130611727D01*
X205293314Y-130357490D01*
X205347000Y-130087592D01*
X205347000Y-129812408D01*
X205293314Y-129542510D01*
X205188005Y-129288273D01*
X205035120Y-129059465D01*
X204840535Y-128864880D01*
X204611727Y-128711995D01*
X204357490Y-128606686D01*
X204087592Y-128553000D01*
X203812408Y-128553000D01*
X203542510Y-128606686D01*
X203288273Y-128711995D01*
X203059465Y-128864880D01*
X202864880Y-129059465D01*
X202711995Y-129288273D01*
X202606686Y-129542510D01*
X202553000Y-129812408D01*
X197854918Y-129812408D01*
X197866000Y-129699902D01*
X197870915Y-129650000D01*
X197867320Y-129613497D01*
X198042312Y-129438505D01*
X198210299Y-129187095D01*
X198326011Y-128907743D01*
X198385000Y-128611184D01*
X198385000Y-128308816D01*
X198326011Y-128012257D01*
X198210299Y-127732905D01*
X198042312Y-127481495D01*
X197828505Y-127267688D01*
X197577095Y-127099701D01*
X197297743Y-126983989D01*
X197001184Y-126925000D01*
X196698816Y-126925000D01*
X196402257Y-126983989D01*
X196122905Y-127099701D01*
X195871495Y-127267688D01*
X195805056Y-127334127D01*
X195799502Y-127315820D01*
X195740537Y-127205506D01*
X195661185Y-127108815D01*
X195564494Y-127029463D01*
X195454180Y-126970498D01*
X195334482Y-126934188D01*
X195210000Y-126921928D01*
X193410000Y-126921928D01*
X193285518Y-126934188D01*
X193165820Y-126970498D01*
X193055506Y-127029463D01*
X192958815Y-127108815D01*
X192879463Y-127205506D01*
X192820498Y-127315820D01*
X192784188Y-127435518D01*
X192771928Y-127560000D01*
X192771928Y-129360000D01*
X192784188Y-129484482D01*
X192820498Y-129604180D01*
X192879463Y-129714494D01*
X192958815Y-129811185D01*
X193047541Y-129884000D01*
X190701355Y-129884000D01*
X190884608Y-129733608D01*
X191063932Y-129515101D01*
X191197182Y-129265808D01*
X191279236Y-128995309D01*
X191306943Y-128714000D01*
X191279236Y-128432691D01*
X191197182Y-128162192D01*
X191063932Y-127912899D01*
X190884608Y-127694392D01*
X190666101Y-127515068D01*
X190416808Y-127381818D01*
X190146309Y-127299764D01*
X189935492Y-127279000D01*
X189794508Y-127279000D01*
X189583691Y-127299764D01*
X189313192Y-127381818D01*
X189063899Y-127515068D01*
X188845392Y-127694392D01*
X188666068Y-127912899D01*
X188532818Y-128162192D01*
X188450764Y-128432691D01*
X188423057Y-128714000D01*
X188450764Y-128995309D01*
X188532818Y-129265808D01*
X188666068Y-129515101D01*
X188845392Y-129733608D01*
X189028645Y-129884000D01*
X188985741Y-129884000D01*
X188021208Y-128919467D01*
X187945824Y-128737476D01*
X187821612Y-128551580D01*
X187663520Y-128393488D01*
X187477624Y-128269276D01*
X187271067Y-128183717D01*
X187051788Y-128140100D01*
X186828212Y-128140100D01*
X186608933Y-128183717D01*
X186402376Y-128269276D01*
X186216480Y-128393488D01*
X186189688Y-128420280D01*
X186164853Y-128295426D01*
X186056680Y-128034273D01*
X185899637Y-127799241D01*
X185801000Y-127700604D01*
X185801000Y-125884902D01*
X185805915Y-125835000D01*
X185786298Y-125635829D01*
X185728202Y-125444313D01*
X185711465Y-125413000D01*
X185633860Y-125267810D01*
X185506896Y-125113104D01*
X185468127Y-125081287D01*
X185053713Y-124666873D01*
X185021896Y-124628104D01*
X184867190Y-124501140D01*
X184690687Y-124406798D01*
X184499171Y-124348702D01*
X184349902Y-124334000D01*
X184300000Y-124329085D01*
X184250098Y-124334000D01*
X178978055Y-124334000D01*
X178967902Y-124333000D01*
X178918000Y-124328085D01*
X178868098Y-124333000D01*
X178754050Y-124333000D01*
X178745502Y-124304820D01*
X178686537Y-124194506D01*
X178607185Y-124097815D01*
X178510494Y-124018463D01*
X178400180Y-123959498D01*
X178372000Y-123950950D01*
X178372000Y-123905893D01*
X178376914Y-123855999D01*
X178372000Y-123806105D01*
X178372000Y-123806098D01*
X178357298Y-123656829D01*
X178299202Y-123465313D01*
X178204860Y-123288810D01*
X178077896Y-123134104D01*
X178039133Y-123102292D01*
X177266000Y-122329160D01*
X177266000Y-121396702D01*
X177494903Y-121396702D01*
X177566486Y-121640671D01*
X177821996Y-121761571D01*
X178096184Y-121830300D01*
X178378512Y-121844217D01*
X178658130Y-121802787D01*
X178924292Y-121707603D01*
X179049514Y-121640671D01*
X179121097Y-121396702D01*
X178308000Y-120583605D01*
X177494903Y-121396702D01*
X177266000Y-121396702D01*
X177266000Y-121202632D01*
X177315298Y-121217097D01*
X178128395Y-120404000D01*
X178487605Y-120404000D01*
X179300702Y-121217097D01*
X179544671Y-121145514D01*
X179665571Y-120890004D01*
X179734300Y-120615816D01*
X179748217Y-120333488D01*
X179706787Y-120053870D01*
X179611603Y-119787708D01*
X179544671Y-119662486D01*
X179300702Y-119590903D01*
X178487605Y-120404000D01*
X178128395Y-120404000D01*
X177315298Y-119590903D01*
X177266000Y-119605368D01*
X177266000Y-119411298D01*
X177494903Y-119411298D01*
X178308000Y-120224395D01*
X179121097Y-119411298D01*
X179049514Y-119167329D01*
X178794004Y-119046429D01*
X178519816Y-118977700D01*
X178237488Y-118963783D01*
X177957870Y-119005213D01*
X177691708Y-119100397D01*
X177566486Y-119167329D01*
X177494903Y-119411298D01*
X177266000Y-119411298D01*
X177266000Y-118294163D01*
X177383518Y-118329812D01*
X177508000Y-118342072D01*
X179108000Y-118342072D01*
X179232482Y-118329812D01*
X179352180Y-118293502D01*
X179462494Y-118234537D01*
X179559185Y-118155185D01*
X179638537Y-118058494D01*
X179697502Y-117948180D01*
X179733812Y-117828482D01*
X179743881Y-117726245D01*
X179808433Y-117752983D01*
X180027712Y-117796600D01*
X180251288Y-117796600D01*
X180470567Y-117752983D01*
X180677124Y-117667424D01*
X180863020Y-117543212D01*
X181021112Y-117385120D01*
X181145324Y-117199224D01*
X181230883Y-116992667D01*
X181274500Y-116773388D01*
X181274500Y-116549812D01*
X181230883Y-116330533D01*
X181219000Y-116301845D01*
X181219000Y-115104529D01*
X181224223Y-115051500D01*
X181203380Y-114839881D01*
X181166784Y-114719241D01*
X181141653Y-114636394D01*
X181041414Y-114448860D01*
X181041128Y-114448512D01*
X180940319Y-114325675D01*
X180940318Y-114325674D01*
X180906515Y-114284485D01*
X180865326Y-114250682D01*
X177643682Y-111029039D01*
X179456096Y-111029039D01*
X179496754Y-111163087D01*
X179616963Y-111417420D01*
X179784481Y-111643414D01*
X179992869Y-111832385D01*
X180234119Y-111977070D01*
X180498960Y-112071909D01*
X180721000Y-111950624D01*
X180721000Y-110807000D01*
X180975000Y-110807000D01*
X180975000Y-111950624D01*
X181197040Y-112071909D01*
X181461881Y-111977070D01*
X181703131Y-111832385D01*
X181911519Y-111643414D01*
X182079037Y-111417420D01*
X182199246Y-111163087D01*
X182239904Y-111029039D01*
X182117915Y-110807000D01*
X180975000Y-110807000D01*
X180721000Y-110807000D01*
X179578085Y-110807000D01*
X179456096Y-111029039D01*
X177643682Y-111029039D01*
X177203000Y-110588358D01*
X177203000Y-110538665D01*
X177147853Y-110261426D01*
X177039680Y-110000273D01*
X176882637Y-109765241D01*
X176682759Y-109565363D01*
X176447727Y-109408320D01*
X176186574Y-109300147D01*
X175909335Y-109245000D01*
X175769841Y-109245000D01*
X174703712Y-108178872D01*
X174671896Y-108140104D01*
X174517190Y-108013140D01*
X174340687Y-107918798D01*
X174149171Y-107860702D01*
X173999902Y-107846000D01*
X173950000Y-107841085D01*
X173900098Y-107846000D01*
X172866000Y-107846000D01*
X172866000Y-106420271D01*
X172870915Y-106370369D01*
X172867796Y-106338702D01*
X175542903Y-106338702D01*
X175614486Y-106582671D01*
X175869996Y-106703571D01*
X176144184Y-106772300D01*
X176426512Y-106786217D01*
X176706130Y-106744787D01*
X176972292Y-106649603D01*
X177097514Y-106582671D01*
X177169097Y-106338702D01*
X176356000Y-105525605D01*
X175542903Y-106338702D01*
X172867796Y-106338702D01*
X172859332Y-106252771D01*
X172857240Y-106231527D01*
X173029932Y-106021101D01*
X173163182Y-105771808D01*
X173245236Y-105501309D01*
X173253587Y-105416512D01*
X174915783Y-105416512D01*
X174957213Y-105696130D01*
X175052397Y-105962292D01*
X175119329Y-106087514D01*
X175363298Y-106159097D01*
X176176395Y-105346000D01*
X175363298Y-104532903D01*
X175119329Y-104604486D01*
X174998429Y-104859996D01*
X174929700Y-105134184D01*
X174915783Y-105416512D01*
X173253587Y-105416512D01*
X173272943Y-105220000D01*
X173245236Y-104938691D01*
X173163182Y-104668192D01*
X173029932Y-104418899D01*
X172976095Y-104353298D01*
X175542903Y-104353298D01*
X176356000Y-105166395D01*
X177169097Y-104353298D01*
X177097514Y-104109329D01*
X176842004Y-103988429D01*
X176567816Y-103919700D01*
X176285488Y-103905783D01*
X176005870Y-103947213D01*
X175739708Y-104042397D01*
X175614486Y-104109329D01*
X175542903Y-104353298D01*
X172976095Y-104353298D01*
X172850608Y-104200392D01*
X172632101Y-104021068D01*
X172382808Y-103887818D01*
X172112309Y-103805764D01*
X171901492Y-103785000D01*
X171760508Y-103785000D01*
X171549691Y-103805764D01*
X171279192Y-103887818D01*
X171029899Y-104021068D01*
X170811392Y-104200392D01*
X170632068Y-104418899D01*
X170498818Y-104668192D01*
X170416764Y-104938691D01*
X170389057Y-105220000D01*
X170416764Y-105501309D01*
X170498818Y-105771808D01*
X170632068Y-106021101D01*
X170811392Y-106239608D01*
X170815001Y-106242570D01*
X170815001Y-106301459D01*
X170810085Y-106351370D01*
X170829702Y-106550540D01*
X170834000Y-106564709D01*
X170834001Y-107846000D01*
X166147738Y-107846000D01*
X166025902Y-107834000D01*
X165976000Y-107829085D01*
X165926098Y-107834000D01*
X164599901Y-107834000D01*
X164549999Y-107829085D01*
X164428164Y-107841085D01*
X164350829Y-107848702D01*
X164159313Y-107906798D01*
X163982810Y-108001140D01*
X163828104Y-108128104D01*
X163796292Y-108166867D01*
X160729160Y-111234000D01*
X159008902Y-111234000D01*
X158959000Y-111229085D01*
X158909098Y-111234000D01*
X158759829Y-111248702D01*
X158568313Y-111306798D01*
X158391810Y-111401140D01*
X158237104Y-111528104D01*
X158205293Y-111566866D01*
X155573160Y-114199000D01*
X155433665Y-114199000D01*
X155156426Y-114254147D01*
X154895273Y-114362320D01*
X154660241Y-114519363D01*
X154460363Y-114719241D01*
X154303320Y-114954273D01*
X154195147Y-115215426D01*
X154140000Y-115492665D01*
X154140000Y-115775335D01*
X154195147Y-116052574D01*
X154303320Y-116313727D01*
X154460363Y-116548759D01*
X154660241Y-116748637D01*
X154895273Y-116905680D01*
X155156426Y-117013853D01*
X155433665Y-117069000D01*
X155716335Y-117069000D01*
X155993574Y-117013853D01*
X156254727Y-116905680D01*
X156489759Y-116748637D01*
X156611694Y-116626702D01*
X159761903Y-116626702D01*
X159833486Y-116870671D01*
X160088996Y-116991571D01*
X160363184Y-117060300D01*
X160645512Y-117074217D01*
X160925130Y-117032787D01*
X161191292Y-116937603D01*
X161316514Y-116870671D01*
X161388097Y-116626702D01*
X160575000Y-115813605D01*
X159761903Y-116626702D01*
X156611694Y-116626702D01*
X156689637Y-116548759D01*
X156846680Y-116313727D01*
X156954853Y-116052574D01*
X157010000Y-115775335D01*
X157010000Y-115704512D01*
X159134783Y-115704512D01*
X159176213Y-115984130D01*
X159271397Y-116250292D01*
X159338329Y-116375514D01*
X159582298Y-116447097D01*
X160395395Y-115634000D01*
X160754605Y-115634000D01*
X161567702Y-116447097D01*
X161811671Y-116375514D01*
X161932571Y-116120004D01*
X162001300Y-115845816D01*
X162015217Y-115563488D01*
X161973787Y-115283870D01*
X161878603Y-115017708D01*
X161811671Y-114892486D01*
X161567702Y-114820903D01*
X160754605Y-115634000D01*
X160395395Y-115634000D01*
X159582298Y-114820903D01*
X159338329Y-114892486D01*
X159217429Y-115147996D01*
X159148700Y-115422184D01*
X159134783Y-115704512D01*
X157010000Y-115704512D01*
X157010000Y-115635840D01*
X158004542Y-114641298D01*
X159761903Y-114641298D01*
X160575000Y-115454395D01*
X161388097Y-114641298D01*
X161316514Y-114397329D01*
X161061004Y-114276429D01*
X160786816Y-114207700D01*
X160504488Y-114193783D01*
X160224870Y-114235213D01*
X159958708Y-114330397D01*
X159833486Y-114397329D01*
X159761903Y-114641298D01*
X158004542Y-114641298D01*
X159379841Y-113266000D01*
X161100098Y-113266000D01*
X161150000Y-113270915D01*
X161199902Y-113266000D01*
X161349171Y-113251298D01*
X161540687Y-113193202D01*
X161717190Y-113098860D01*
X161871896Y-112971896D01*
X161903712Y-112933128D01*
X164970841Y-109866000D01*
X165816262Y-109866000D01*
X165938098Y-109878000D01*
X165988000Y-109882915D01*
X166037902Y-109878000D01*
X169313296Y-109878000D01*
X169066273Y-109980320D01*
X168831241Y-110137363D01*
X168631363Y-110337241D01*
X168474320Y-110572273D01*
X168366147Y-110833426D01*
X168311000Y-111110665D01*
X168311000Y-111393335D01*
X168366147Y-111670574D01*
X168474320Y-111931727D01*
X168631363Y-112166759D01*
X168831241Y-112366637D01*
X169066273Y-112523680D01*
X169327426Y-112631853D01*
X169604665Y-112687000D01*
X169744159Y-112687000D01*
X169792291Y-112735132D01*
X169824103Y-112773895D01*
X169896331Y-112833171D01*
X174650292Y-117587133D01*
X174682104Y-117625896D01*
X174828845Y-117746323D01*
X174836810Y-117752860D01*
X175013313Y-117847202D01*
X175204829Y-117905298D01*
X175234001Y-117908171D01*
X175234000Y-122700098D01*
X175229085Y-122750000D01*
X175240655Y-122867470D01*
X175248702Y-122949170D01*
X175306798Y-123140686D01*
X175401140Y-123317190D01*
X175528104Y-123471896D01*
X175566872Y-123503712D01*
X176135660Y-124072501D01*
X176104815Y-124097815D01*
X176025463Y-124194506D01*
X175966498Y-124304820D01*
X175957950Y-124333000D01*
X175800893Y-124333000D01*
X175750999Y-124328086D01*
X175701105Y-124333000D01*
X175701098Y-124333000D01*
X175551829Y-124347702D01*
X175360313Y-124405798D01*
X175183810Y-124500140D01*
X175029104Y-124627104D01*
X174997292Y-124665867D01*
X172116872Y-127546288D01*
X172078104Y-127578104D01*
X171951140Y-127732810D01*
X171856798Y-127909314D01*
X171818892Y-128034273D01*
X171798702Y-128100830D01*
X171779085Y-128300000D01*
X171784000Y-128349902D01*
X171784001Y-133429158D01*
X170582894Y-134630266D01*
X170544537Y-134558506D01*
X170465185Y-134461815D01*
X170368494Y-134382463D01*
X170258180Y-134323498D01*
X170138482Y-134287188D01*
X170014000Y-134274928D01*
X168314000Y-134274928D01*
X168189518Y-134287188D01*
X168069820Y-134323498D01*
X167959506Y-134382463D01*
X167862815Y-134461815D01*
X167783463Y-134558506D01*
X167724498Y-134668820D01*
X167700034Y-134749466D01*
X167624269Y-134665412D01*
X167390920Y-134491359D01*
X167128099Y-134366175D01*
X166980890Y-134321524D01*
X166751000Y-134442845D01*
X166751000Y-135636000D01*
X166771000Y-135636000D01*
X166771000Y-135890000D01*
X166751000Y-135890000D01*
X166751000Y-135910000D01*
X166497000Y-135910000D01*
X166497000Y-135890000D01*
X166477000Y-135890000D01*
X166477000Y-135636000D01*
X166497000Y-135636000D01*
X166497000Y-134442845D01*
X166267110Y-134321524D01*
X166119901Y-134366175D01*
X165857080Y-134491359D01*
X165623731Y-134665412D01*
X165428822Y-134881645D01*
X165359201Y-134998523D01*
X165324706Y-134933986D01*
X165139134Y-134707866D01*
X165100000Y-134675750D01*
X165100000Y-131362240D01*
X167304634Y-129157607D01*
X167486624Y-129082224D01*
X167672520Y-128958012D01*
X167830612Y-128799920D01*
X167954824Y-128614024D01*
X168040383Y-128407467D01*
X168084000Y-128188188D01*
X168084000Y-127964612D01*
X168040383Y-127745333D01*
X167954824Y-127538776D01*
X167830612Y-127352880D01*
X167672520Y-127194788D01*
X167486624Y-127070576D01*
X167280067Y-126985017D01*
X167194713Y-126968039D01*
X169486096Y-126968039D01*
X169526754Y-127102087D01*
X169646963Y-127356420D01*
X169814481Y-127582414D01*
X170022869Y-127771385D01*
X170264119Y-127916070D01*
X170528960Y-128010909D01*
X170751000Y-127889624D01*
X170751000Y-126746000D01*
X171005000Y-126746000D01*
X171005000Y-127889624D01*
X171227040Y-128010909D01*
X171491881Y-127916070D01*
X171733131Y-127771385D01*
X171941519Y-127582414D01*
X172109037Y-127356420D01*
X172229246Y-127102087D01*
X172269904Y-126968039D01*
X172147915Y-126746000D01*
X171005000Y-126746000D01*
X170751000Y-126746000D01*
X169608085Y-126746000D01*
X169486096Y-126968039D01*
X167194713Y-126968039D01*
X167060788Y-126941400D01*
X166837212Y-126941400D01*
X166617933Y-126985017D01*
X166411376Y-127070576D01*
X166225480Y-127194788D01*
X166067388Y-127352880D01*
X165943176Y-127538776D01*
X165867793Y-127720766D01*
X163400868Y-130187692D01*
X163362105Y-130219504D01*
X163235141Y-130374210D01*
X163170121Y-130495855D01*
X163140799Y-130550713D01*
X163082702Y-130742230D01*
X163063085Y-130941400D01*
X163068001Y-130991312D01*
X163068000Y-134675749D01*
X163028866Y-134707866D01*
X162843294Y-134933986D01*
X162814000Y-134988791D01*
X162784706Y-134933986D01*
X162599134Y-134707866D01*
X162373014Y-134522294D01*
X162115034Y-134384401D01*
X161835111Y-134299487D01*
X161616950Y-134278000D01*
X161471050Y-134278000D01*
X161252889Y-134299487D01*
X160972966Y-134384401D01*
X160714986Y-134522294D01*
X160488866Y-134707866D01*
X160303294Y-134933986D01*
X160274000Y-134988791D01*
X160244706Y-134933986D01*
X160059134Y-134707866D01*
X159833014Y-134522294D01*
X159575034Y-134384401D01*
X159295111Y-134299487D01*
X159076950Y-134278000D01*
X158931050Y-134278000D01*
X158712889Y-134299487D01*
X158432966Y-134384401D01*
X158174986Y-134522294D01*
X157948866Y-134707866D01*
X157763294Y-134933986D01*
X157734000Y-134988791D01*
X157704706Y-134933986D01*
X157519134Y-134707866D01*
X157293014Y-134522294D01*
X157035034Y-134384401D01*
X156755111Y-134299487D01*
X156536950Y-134278000D01*
X156391050Y-134278000D01*
X156172889Y-134299487D01*
X155892966Y-134384401D01*
X155634986Y-134522294D01*
X155408866Y-134707866D01*
X155223294Y-134933986D01*
X155194000Y-134988791D01*
X155164706Y-134933986D01*
X154979134Y-134707866D01*
X154753014Y-134522294D01*
X154495034Y-134384401D01*
X154215111Y-134299487D01*
X153996950Y-134278000D01*
X153851050Y-134278000D01*
X153632889Y-134299487D01*
X153352966Y-134384401D01*
X153094986Y-134522294D01*
X152868866Y-134707866D01*
X152683294Y-134933986D01*
X152654000Y-134988791D01*
X152624706Y-134933986D01*
X152439134Y-134707866D01*
X152213014Y-134522294D01*
X151955034Y-134384401D01*
X151675111Y-134299487D01*
X151456950Y-134278000D01*
X151311050Y-134278000D01*
X151092889Y-134299487D01*
X150812966Y-134384401D01*
X150554986Y-134522294D01*
X150328866Y-134707866D01*
X150143294Y-134933986D01*
X150005401Y-135191966D01*
X149920487Y-135471889D01*
X149891815Y-135763000D01*
X149920487Y-136054111D01*
X150005401Y-136334034D01*
X150143294Y-136592014D01*
X150328866Y-136818134D01*
X150554986Y-137003706D01*
X150563020Y-137008000D01*
X145358445Y-137008000D01*
X146118524Y-136247922D01*
X146162133Y-136212133D01*
X146210100Y-136153686D01*
X146246537Y-136109287D01*
X146304968Y-136038089D01*
X146411103Y-135839523D01*
X146476461Y-135624067D01*
X146493000Y-135456146D01*
X146493000Y-135456139D01*
X146498529Y-135400000D01*
X146493000Y-135343861D01*
X146493000Y-135112587D01*
X146648983Y-135008363D01*
X146946363Y-134710983D01*
X147180012Y-134361302D01*
X147340953Y-133972756D01*
X147423000Y-133560279D01*
X147423000Y-133139721D01*
X147340953Y-132727244D01*
X147180012Y-132338698D01*
X146946363Y-131989017D01*
X146648983Y-131691637D01*
X146431000Y-131545986D01*
X146431000Y-130494139D01*
X146436529Y-130438000D01*
X146431000Y-130381861D01*
X146431000Y-130381854D01*
X146423205Y-130302702D01*
X153554903Y-130302702D01*
X153626486Y-130546671D01*
X153881996Y-130667571D01*
X154156184Y-130736300D01*
X154438512Y-130750217D01*
X154718130Y-130708787D01*
X154984292Y-130613603D01*
X155109514Y-130546671D01*
X155181097Y-130302702D01*
X154368000Y-129489605D01*
X153554903Y-130302702D01*
X146423205Y-130302702D01*
X146414461Y-130213933D01*
X146414461Y-130213932D01*
X146349103Y-129998476D01*
X146303902Y-129913911D01*
X146242968Y-129799911D01*
X146100133Y-129625867D01*
X146056524Y-129590078D01*
X145846958Y-129380512D01*
X152927783Y-129380512D01*
X152969213Y-129660130D01*
X153064397Y-129926292D01*
X153131329Y-130051514D01*
X153375298Y-130123097D01*
X154188395Y-129310000D01*
X154547605Y-129310000D01*
X155360702Y-130123097D01*
X155604671Y-130051514D01*
X155725571Y-129796004D01*
X155794300Y-129521816D01*
X155808217Y-129239488D01*
X155766787Y-128959870D01*
X155671603Y-128693708D01*
X155604671Y-128568486D01*
X155360702Y-128496903D01*
X154547605Y-129310000D01*
X154188395Y-129310000D01*
X153375298Y-128496903D01*
X153131329Y-128568486D01*
X153010429Y-128823996D01*
X152941700Y-129098184D01*
X152927783Y-129380512D01*
X145846958Y-129380512D01*
X145247927Y-128781482D01*
X145212133Y-128737867D01*
X145038089Y-128595032D01*
X144839523Y-128488897D01*
X144624067Y-128423539D01*
X144456146Y-128407000D01*
X144456139Y-128407000D01*
X144400000Y-128401471D01*
X144343861Y-128407000D01*
X141707446Y-128407000D01*
X140335000Y-127034555D01*
X140335000Y-126010000D01*
X152929928Y-126010000D01*
X152929928Y-127610000D01*
X152942188Y-127734482D01*
X152978498Y-127854180D01*
X153037463Y-127964494D01*
X153116815Y-128061185D01*
X153213506Y-128140537D01*
X153323820Y-128199502D01*
X153443518Y-128235812D01*
X153568000Y-128248072D01*
X153575215Y-128248072D01*
X153554903Y-128317298D01*
X154368000Y-129130395D01*
X155181097Y-128317298D01*
X155160785Y-128248072D01*
X155168000Y-128248072D01*
X155292482Y-128235812D01*
X155412180Y-128199502D01*
X155522494Y-128140537D01*
X155619185Y-128061185D01*
X155698537Y-127964494D01*
X155757502Y-127854180D01*
X155766050Y-127826000D01*
X155880098Y-127826000D01*
X155930000Y-127830915D01*
X155979902Y-127826000D01*
X156129171Y-127811298D01*
X156320687Y-127753202D01*
X156497190Y-127658860D01*
X156651896Y-127531896D01*
X156683712Y-127493128D01*
X157699175Y-126477665D01*
X161823000Y-126477665D01*
X161823000Y-126760335D01*
X161878147Y-127037574D01*
X161986320Y-127298727D01*
X162143363Y-127533759D01*
X162343241Y-127733637D01*
X162578273Y-127890680D01*
X162839426Y-127998853D01*
X163116665Y-128054000D01*
X163399335Y-128054000D01*
X163676574Y-127998853D01*
X163937727Y-127890680D01*
X164172759Y-127733637D01*
X164372637Y-127533759D01*
X164529680Y-127298727D01*
X164637853Y-127037574D01*
X164693000Y-126760335D01*
X164693000Y-126477665D01*
X164651685Y-126269961D01*
X169486096Y-126269961D01*
X169608085Y-126492000D01*
X170751000Y-126492000D01*
X170751000Y-125348376D01*
X171005000Y-125348376D01*
X171005000Y-126492000D01*
X172147915Y-126492000D01*
X172269904Y-126269961D01*
X172229246Y-126135913D01*
X172109037Y-125881580D01*
X171941519Y-125655586D01*
X171733131Y-125466615D01*
X171491881Y-125321930D01*
X171227040Y-125227091D01*
X171005000Y-125348376D01*
X170751000Y-125348376D01*
X170528960Y-125227091D01*
X170264119Y-125321930D01*
X170022869Y-125466615D01*
X169814481Y-125655586D01*
X169646963Y-125881580D01*
X169526754Y-126135913D01*
X169486096Y-126269961D01*
X164651685Y-126269961D01*
X164637853Y-126200426D01*
X164529680Y-125939273D01*
X164372637Y-125704241D01*
X164172759Y-125504363D01*
X163937727Y-125347320D01*
X163676574Y-125239147D01*
X163399335Y-125184000D01*
X163116665Y-125184000D01*
X162839426Y-125239147D01*
X162578273Y-125347320D01*
X162343241Y-125504363D01*
X162143363Y-125704241D01*
X161986320Y-125939273D01*
X161878147Y-126200426D01*
X161823000Y-126477665D01*
X157699175Y-126477665D01*
X159033133Y-125143708D01*
X159071896Y-125111896D01*
X159198860Y-124957190D01*
X159293202Y-124780687D01*
X159351298Y-124589171D01*
X159366000Y-124439902D01*
X159366000Y-124439901D01*
X159370915Y-124390000D01*
X159366000Y-124340098D01*
X159366000Y-121872122D01*
X161505825Y-121872122D01*
X161570425Y-122085094D01*
X161720469Y-122390329D01*
X161927178Y-122660427D01*
X162182609Y-122885008D01*
X162476946Y-123055442D01*
X162798877Y-123165179D01*
X163068000Y-123047600D01*
X163068000Y-121603000D01*
X163322000Y-121603000D01*
X163322000Y-123047600D01*
X163591123Y-123165179D01*
X163913054Y-123055442D01*
X164207391Y-122885008D01*
X164462822Y-122660427D01*
X164669531Y-122390329D01*
X164819575Y-122085094D01*
X164884175Y-121872122D01*
X164766125Y-121603000D01*
X163322000Y-121603000D01*
X163068000Y-121603000D01*
X161623875Y-121603000D01*
X161505825Y-121872122D01*
X159366000Y-121872122D01*
X159366000Y-121520840D01*
X160998841Y-119888000D01*
X162502052Y-119888000D01*
X162476946Y-119896558D01*
X162182609Y-120066992D01*
X161927178Y-120291573D01*
X161720469Y-120561671D01*
X161570425Y-120866906D01*
X161505825Y-121079878D01*
X161623875Y-121349000D01*
X163068000Y-121349000D01*
X163068000Y-121329000D01*
X163322000Y-121329000D01*
X163322000Y-121349000D01*
X164766125Y-121349000D01*
X164884175Y-121079878D01*
X164819575Y-120866906D01*
X164669531Y-120561671D01*
X164462822Y-120291573D01*
X164207391Y-120066992D01*
X163913054Y-119896558D01*
X163887948Y-119888000D01*
X168723431Y-119888000D01*
X168726392Y-119891608D01*
X168944899Y-120070932D01*
X169194192Y-120204182D01*
X169464691Y-120286236D01*
X169675508Y-120307000D01*
X169816492Y-120307000D01*
X170027309Y-120286236D01*
X170297808Y-120204182D01*
X170547101Y-120070932D01*
X170765608Y-119891608D01*
X170944932Y-119673101D01*
X171078182Y-119423808D01*
X171160236Y-119153309D01*
X171187943Y-118872000D01*
X171160236Y-118590691D01*
X171078182Y-118320192D01*
X170944932Y-118070899D01*
X170765608Y-117852392D01*
X170547101Y-117673068D01*
X170297808Y-117539818D01*
X170027309Y-117457764D01*
X169816492Y-117437000D01*
X169675508Y-117437000D01*
X169464691Y-117457764D01*
X169194192Y-117539818D01*
X168944899Y-117673068D01*
X168726392Y-117852392D01*
X168723431Y-117856000D01*
X160627902Y-117856000D01*
X160578000Y-117851085D01*
X160528098Y-117856000D01*
X160378829Y-117870702D01*
X160187313Y-117928798D01*
X160010810Y-118023140D01*
X159856104Y-118150104D01*
X159824292Y-118188867D01*
X157666868Y-120346292D01*
X157628105Y-120378104D01*
X157501141Y-120532810D01*
X157474299Y-120583029D01*
X157406799Y-120709313D01*
X157348702Y-120900830D01*
X157329085Y-121100000D01*
X157334001Y-121149911D01*
X157334000Y-123969159D01*
X155675601Y-125627559D01*
X155619185Y-125558815D01*
X155522494Y-125479463D01*
X155412180Y-125420498D01*
X155292482Y-125384188D01*
X155168000Y-125371928D01*
X153568000Y-125371928D01*
X153443518Y-125384188D01*
X153323820Y-125420498D01*
X153213506Y-125479463D01*
X153116815Y-125558815D01*
X153037463Y-125655506D01*
X152978498Y-125765820D01*
X152942188Y-125885518D01*
X152929928Y-126010000D01*
X140335000Y-126010000D01*
X140335000Y-124819912D01*
X140430005Y-124677727D01*
X140462000Y-124600485D01*
X140493995Y-124677727D01*
X140646880Y-124906535D01*
X140841465Y-125101120D01*
X141070273Y-125254005D01*
X141324510Y-125359314D01*
X141594408Y-125413000D01*
X141869592Y-125413000D01*
X142139490Y-125359314D01*
X142393727Y-125254005D01*
X142622535Y-125101120D01*
X142817120Y-124906535D01*
X142970005Y-124677727D01*
X142980309Y-124652851D01*
X143050104Y-124737896D01*
X143103454Y-124781679D01*
X143186880Y-124906535D01*
X143381465Y-125101120D01*
X143610273Y-125254005D01*
X143864510Y-125359314D01*
X144134408Y-125413000D01*
X144409592Y-125413000D01*
X144679490Y-125359314D01*
X144933727Y-125254005D01*
X145162535Y-125101120D01*
X145282090Y-124981565D01*
X146026040Y-124981565D01*
X146093020Y-125221656D01*
X146342048Y-125338756D01*
X146609135Y-125405023D01*
X146884017Y-125417910D01*
X147156133Y-125376922D01*
X147415023Y-125283636D01*
X147530980Y-125221656D01*
X147597960Y-124981565D01*
X146812000Y-124195605D01*
X146026040Y-124981565D01*
X145282090Y-124981565D01*
X145357120Y-124906535D01*
X145510005Y-124677727D01*
X145539692Y-124606057D01*
X145544364Y-124619023D01*
X145606344Y-124734980D01*
X145846435Y-124801960D01*
X146632395Y-124016000D01*
X146991605Y-124016000D01*
X147777565Y-124801960D01*
X148017656Y-124734980D01*
X148134756Y-124485952D01*
X148201023Y-124218865D01*
X148213910Y-123943983D01*
X148172922Y-123671867D01*
X148079636Y-123412977D01*
X148017656Y-123297020D01*
X147777565Y-123230040D01*
X146991605Y-124016000D01*
X146632395Y-124016000D01*
X145846435Y-123230040D01*
X145606344Y-123297020D01*
X145542515Y-123432760D01*
X145510005Y-123354273D01*
X145415000Y-123212088D01*
X145415000Y-123050435D01*
X146026040Y-123050435D01*
X146812000Y-123836395D01*
X147597960Y-123050435D01*
X147530980Y-122810344D01*
X147281952Y-122693244D01*
X147014865Y-122626977D01*
X146739983Y-122614090D01*
X146467867Y-122655078D01*
X146208977Y-122748364D01*
X146093020Y-122810344D01*
X146026040Y-123050435D01*
X145415000Y-123050435D01*
X145415000Y-121628139D01*
X145420529Y-121572000D01*
X145415000Y-121515861D01*
X145415000Y-121515854D01*
X145398461Y-121347933D01*
X145383015Y-121297015D01*
X145333103Y-121132476D01*
X145273139Y-121020292D01*
X145226968Y-120933911D01*
X145084133Y-120759867D01*
X145040524Y-120724078D01*
X135297928Y-110981483D01*
X135262133Y-110937867D01*
X135088089Y-110795032D01*
X134889523Y-110688897D01*
X134674067Y-110623539D01*
X134506146Y-110607000D01*
X134506139Y-110607000D01*
X134450000Y-110601471D01*
X134393861Y-110607000D01*
X132162139Y-110607000D01*
X132106000Y-110601471D01*
X132049861Y-110607000D01*
X132049854Y-110607000D01*
X131881933Y-110623539D01*
X131771627Y-110657000D01*
X128873446Y-110657000D01*
X127293000Y-109076555D01*
X127293000Y-104223445D01*
X128823446Y-102693000D01*
X135543854Y-102693000D01*
X135600000Y-102698530D01*
X135656146Y-102693000D01*
X144495861Y-102693000D01*
X144552000Y-102698529D01*
X144608139Y-102693000D01*
X144608146Y-102693000D01*
X144776067Y-102676461D01*
X144880181Y-102644878D01*
X141670060Y-105855000D01*
X141594408Y-105855000D01*
X141324510Y-105908686D01*
X141070273Y-106013995D01*
X140841465Y-106166880D01*
X140646880Y-106361465D01*
X140493995Y-106590273D01*
X140462000Y-106667515D01*
X140430005Y-106590273D01*
X140277120Y-106361465D01*
X140082535Y-106166880D01*
X139853727Y-106013995D01*
X139599490Y-105908686D01*
X139329592Y-105855000D01*
X139054408Y-105855000D01*
X138784510Y-105908686D01*
X138530273Y-106013995D01*
X138301465Y-106166880D01*
X138106880Y-106361465D01*
X137953995Y-106590273D01*
X137922000Y-106667515D01*
X137890005Y-106590273D01*
X137737120Y-106361465D01*
X137542535Y-106166880D01*
X137313727Y-106013995D01*
X137059490Y-105908686D01*
X136789592Y-105855000D01*
X136514408Y-105855000D01*
X136244510Y-105908686D01*
X135990273Y-106013995D01*
X135761465Y-106166880D01*
X135566880Y-106361465D01*
X135413995Y-106590273D01*
X135382000Y-106667515D01*
X135350005Y-106590273D01*
X135197120Y-106361465D01*
X135002535Y-106166880D01*
X134773727Y-106013995D01*
X134519490Y-105908686D01*
X134249592Y-105855000D01*
X133974408Y-105855000D01*
X133704510Y-105908686D01*
X133450273Y-106013995D01*
X133221465Y-106166880D01*
X133026880Y-106361465D01*
X132873995Y-106590273D01*
X132842000Y-106667515D01*
X132810005Y-106590273D01*
X132657120Y-106361465D01*
X132462535Y-106166880D01*
X132233727Y-106013995D01*
X131979490Y-105908686D01*
X131709592Y-105855000D01*
X131434408Y-105855000D01*
X131164510Y-105908686D01*
X130910273Y-106013995D01*
X130681465Y-106166880D01*
X130486880Y-106361465D01*
X130333995Y-106590273D01*
X130302000Y-106667515D01*
X130270005Y-106590273D01*
X130117120Y-106361465D01*
X129922535Y-106166880D01*
X129693727Y-106013995D01*
X129439490Y-105908686D01*
X129169592Y-105855000D01*
X128894408Y-105855000D01*
X128624510Y-105908686D01*
X128370273Y-106013995D01*
X128141465Y-106166880D01*
X127946880Y-106361465D01*
X127793995Y-106590273D01*
X127688686Y-106844510D01*
X127635000Y-107114408D01*
X127635000Y-107389592D01*
X127688686Y-107659490D01*
X127793995Y-107913727D01*
X127946880Y-108142535D01*
X128141465Y-108337120D01*
X128370273Y-108490005D01*
X128624510Y-108595314D01*
X128894408Y-108649000D01*
X129169592Y-108649000D01*
X129439490Y-108595314D01*
X129693727Y-108490005D01*
X129922535Y-108337120D01*
X130117120Y-108142535D01*
X130270005Y-107913727D01*
X130302000Y-107836485D01*
X130333995Y-107913727D01*
X130486880Y-108142535D01*
X130681465Y-108337120D01*
X130910273Y-108490005D01*
X131164510Y-108595314D01*
X131434408Y-108649000D01*
X131709592Y-108649000D01*
X131979490Y-108595314D01*
X132233727Y-108490005D01*
X132462535Y-108337120D01*
X132657120Y-108142535D01*
X132810005Y-107913727D01*
X132842000Y-107836485D01*
X132873995Y-107913727D01*
X133026880Y-108142535D01*
X133221465Y-108337120D01*
X133450273Y-108490005D01*
X133704510Y-108595314D01*
X133974408Y-108649000D01*
X134072160Y-108649000D01*
X138932292Y-113509133D01*
X138964104Y-113547896D01*
X139118810Y-113674860D01*
X139295313Y-113769202D01*
X139428732Y-113809674D01*
X139486828Y-113827298D01*
X139506177Y-113829204D01*
X139636098Y-113842000D01*
X139636105Y-113842000D01*
X139685999Y-113846914D01*
X139735893Y-113842000D01*
X145471743Y-113842000D01*
X145653733Y-113917383D01*
X145873012Y-113961000D01*
X146096588Y-113961000D01*
X146315867Y-113917383D01*
X146522424Y-113831824D01*
X146708320Y-113707612D01*
X146866412Y-113549520D01*
X146990624Y-113363624D01*
X147076183Y-113157067D01*
X147119800Y-112937788D01*
X147119800Y-112714212D01*
X147076183Y-112494933D01*
X146990624Y-112288376D01*
X146866412Y-112102480D01*
X146708320Y-111944388D01*
X146522424Y-111820176D01*
X146315867Y-111734617D01*
X146096588Y-111691000D01*
X145873012Y-111691000D01*
X145653733Y-111734617D01*
X145471743Y-111810000D01*
X140106841Y-111810000D01*
X136919917Y-108623077D01*
X137059490Y-108595314D01*
X137313727Y-108490005D01*
X137542535Y-108337120D01*
X137737120Y-108142535D01*
X137890005Y-107913727D01*
X137922000Y-107836485D01*
X137953995Y-107913727D01*
X138106880Y-108142535D01*
X138301465Y-108337120D01*
X138530273Y-108490005D01*
X138784510Y-108595314D01*
X139054408Y-108649000D01*
X139329592Y-108649000D01*
X139599490Y-108595314D01*
X139853727Y-108490005D01*
X140082535Y-108337120D01*
X140277120Y-108142535D01*
X140430005Y-107913727D01*
X140462000Y-107836485D01*
X140493995Y-107913727D01*
X140646880Y-108142535D01*
X140841465Y-108337120D01*
X141070273Y-108490005D01*
X141324510Y-108595314D01*
X141594408Y-108649000D01*
X141869592Y-108649000D01*
X142139490Y-108595314D01*
X142393727Y-108490005D01*
X142622535Y-108337120D01*
X142817120Y-108142535D01*
X142970005Y-107913727D01*
X143002000Y-107836485D01*
X143033995Y-107913727D01*
X143186880Y-108142535D01*
X143381465Y-108337120D01*
X143610273Y-108490005D01*
X143864510Y-108595314D01*
X144134408Y-108649000D01*
X144409592Y-108649000D01*
X144679490Y-108595314D01*
X144933727Y-108490005D01*
X145162535Y-108337120D01*
X145282090Y-108217565D01*
X146026040Y-108217565D01*
X146093020Y-108457656D01*
X146342048Y-108574756D01*
X146609135Y-108641023D01*
X146884017Y-108653910D01*
X147156133Y-108612922D01*
X147415023Y-108519636D01*
X147530980Y-108457656D01*
X147597960Y-108217565D01*
X146812000Y-107431605D01*
X146026040Y-108217565D01*
X145282090Y-108217565D01*
X145357120Y-108142535D01*
X145510005Y-107913727D01*
X145539692Y-107842057D01*
X145544364Y-107855023D01*
X145606344Y-107970980D01*
X145846435Y-108037960D01*
X146632395Y-107252000D01*
X146991605Y-107252000D01*
X147777565Y-108037960D01*
X148017656Y-107970980D01*
X148134756Y-107721952D01*
X148201023Y-107454865D01*
X148213910Y-107179983D01*
X148172922Y-106907867D01*
X148079636Y-106648977D01*
X148017656Y-106533020D01*
X147777565Y-106466040D01*
X146991605Y-107252000D01*
X146632395Y-107252000D01*
X146618253Y-107237858D01*
X146797858Y-107058253D01*
X146812000Y-107072395D01*
X147597960Y-106286435D01*
X147530980Y-106046344D01*
X147281952Y-105929244D01*
X147014865Y-105862977D01*
X146922585Y-105858651D01*
X147681236Y-105100000D01*
X149015277Y-105100000D01*
X149020501Y-105153039D01*
X149020500Y-108796971D01*
X149015277Y-108850000D01*
X149020500Y-108903028D01*
X149020500Y-111003028D01*
X149020501Y-111003038D01*
X149020500Y-113753028D01*
X149020501Y-113753038D01*
X149020500Y-120476971D01*
X149015277Y-120530000D01*
X149020500Y-120583028D01*
X149036120Y-120741618D01*
X149097847Y-120945105D01*
X149198086Y-121132640D01*
X149332985Y-121297015D01*
X149374184Y-121330826D01*
X150245178Y-122201820D01*
X150278985Y-122243015D01*
X150443360Y-122377914D01*
X150630894Y-122478153D01*
X150834381Y-122539880D01*
X150992971Y-122555500D01*
X150992978Y-122555500D01*
X151045999Y-122560722D01*
X151099021Y-122555500D01*
X151296928Y-122555500D01*
X151296928Y-122576000D01*
X151309188Y-122700482D01*
X151345498Y-122820180D01*
X151404463Y-122930494D01*
X151483815Y-123027185D01*
X151580506Y-123106537D01*
X151690820Y-123165502D01*
X151810518Y-123201812D01*
X151935000Y-123214072D01*
X154135000Y-123214072D01*
X154259482Y-123201812D01*
X154379180Y-123165502D01*
X154489494Y-123106537D01*
X154586185Y-123027185D01*
X154665537Y-122930494D01*
X154724502Y-122820180D01*
X154760812Y-122700482D01*
X154773072Y-122576000D01*
X154773072Y-120376000D01*
X154760812Y-120251518D01*
X154724502Y-120131820D01*
X154665537Y-120021506D01*
X154586185Y-119924815D01*
X154489494Y-119845463D01*
X154379180Y-119786498D01*
X154259482Y-119750188D01*
X154135000Y-119737928D01*
X151935000Y-119737928D01*
X151810518Y-119750188D01*
X151690820Y-119786498D01*
X151580506Y-119845463D01*
X151483815Y-119924815D01*
X151404463Y-120021506D01*
X151345498Y-120131820D01*
X151318259Y-120221616D01*
X151179500Y-120082858D01*
X151179500Y-110039340D01*
X151273341Y-109945500D01*
X152812258Y-109945500D01*
X152816688Y-109990482D01*
X152852998Y-110110180D01*
X152911963Y-110220494D01*
X152991315Y-110317185D01*
X153088006Y-110396537D01*
X153198320Y-110455502D01*
X153318018Y-110491812D01*
X153442500Y-110504072D01*
X155347500Y-110504072D01*
X155471982Y-110491812D01*
X155591680Y-110455502D01*
X155701994Y-110396537D01*
X155798685Y-110317185D01*
X155878037Y-110220494D01*
X155927059Y-110128781D01*
X156068077Y-110241969D01*
X156343906Y-110385571D01*
X156562020Y-110456563D01*
X156808000Y-110336594D01*
X156808000Y-108993000D01*
X156788000Y-108993000D01*
X156788000Y-108739000D01*
X156808000Y-108739000D01*
X156808000Y-107395406D01*
X157062000Y-107395406D01*
X157062000Y-108739000D01*
X157082000Y-108739000D01*
X157082000Y-108993000D01*
X157062000Y-108993000D01*
X157062000Y-110336594D01*
X157307980Y-110456563D01*
X157526094Y-110385571D01*
X157801923Y-110241969D01*
X158044437Y-110047315D01*
X158199837Y-109862101D01*
X158347037Y-110041463D01*
X158588766Y-110239845D01*
X158864552Y-110387255D01*
X159163797Y-110478030D01*
X159475000Y-110508681D01*
X159786204Y-110478030D01*
X160085449Y-110387255D01*
X160361235Y-110239845D01*
X160602963Y-110041463D01*
X160801345Y-109799734D01*
X160948755Y-109523948D01*
X161039530Y-109224703D01*
X161062500Y-108991485D01*
X161062500Y-108740514D01*
X161039530Y-108507296D01*
X160948755Y-108208051D01*
X160801345Y-107932265D01*
X160602963Y-107690537D01*
X160361234Y-107492155D01*
X160085448Y-107344745D01*
X159786203Y-107253970D01*
X159475000Y-107223319D01*
X159163796Y-107253970D01*
X158864551Y-107344745D01*
X158588765Y-107492155D01*
X158347037Y-107690537D01*
X158199838Y-107869900D01*
X158044437Y-107684685D01*
X157801923Y-107490031D01*
X157526094Y-107346429D01*
X157307980Y-107275437D01*
X157062000Y-107395406D01*
X156808000Y-107395406D01*
X156562020Y-107275437D01*
X156343906Y-107346429D01*
X156068077Y-107490031D01*
X155927059Y-107603219D01*
X155878037Y-107511506D01*
X155798685Y-107414815D01*
X155701994Y-107335463D01*
X155591680Y-107276498D01*
X155474500Y-107240952D01*
X155474500Y-106483876D01*
X155492758Y-106423687D01*
X155553446Y-106363000D01*
X165878689Y-106363000D01*
X166071273Y-106491680D01*
X166332426Y-106599853D01*
X166609665Y-106655000D01*
X166892335Y-106655000D01*
X167169574Y-106599853D01*
X167430727Y-106491680D01*
X167665759Y-106334637D01*
X167865637Y-106134759D01*
X168022680Y-105899727D01*
X168130853Y-105638574D01*
X168186000Y-105361335D01*
X168186000Y-105078665D01*
X168130853Y-104801426D01*
X168022680Y-104540273D01*
X167865637Y-104305241D01*
X167665759Y-104105363D01*
X167430727Y-103948320D01*
X167169574Y-103840147D01*
X166892335Y-103785000D01*
X166609665Y-103785000D01*
X166332426Y-103840147D01*
X166071273Y-103948320D01*
X165878689Y-104077000D01*
X160903643Y-104077000D01*
X160559500Y-103732858D01*
X160559500Y-102933029D01*
X160564723Y-102880000D01*
X160559500Y-102826971D01*
X160559500Y-100364021D01*
X160564722Y-100310999D01*
X160559500Y-100257978D01*
X160559500Y-100257971D01*
X160554500Y-100207206D01*
X160554500Y-100055072D01*
X160975000Y-100055072D01*
X161099482Y-100042812D01*
X161219180Y-100006502D01*
X161329494Y-99947537D01*
X161426185Y-99868185D01*
X161505537Y-99771494D01*
X161564502Y-99661180D01*
X161600812Y-99541482D01*
X161613072Y-99417000D01*
X161613072Y-96887602D01*
X169624003Y-96887602D01*
X169740275Y-97169389D01*
X170058860Y-97327257D01*
X170402122Y-97419938D01*
X170756869Y-97443873D01*
X171109470Y-97398139D01*
X171446373Y-97284495D01*
X171661725Y-97169389D01*
X171777997Y-96887602D01*
X170701000Y-95810605D01*
X169624003Y-96887602D01*
X161613072Y-96887602D01*
X161613072Y-96417000D01*
X161600812Y-96292518D01*
X161564502Y-96172820D01*
X161505537Y-96062506D01*
X161426185Y-95965815D01*
X161329494Y-95886463D01*
X161219180Y-95827498D01*
X161099482Y-95791188D01*
X160975000Y-95778928D01*
X157975000Y-95778928D01*
X157850518Y-95791188D01*
X157730820Y-95827498D01*
X157620506Y-95886463D01*
X157523815Y-95965815D01*
X157444463Y-96062506D01*
X157385498Y-96172820D01*
X157349188Y-96292518D01*
X157336928Y-96417000D01*
X157336928Y-99417000D01*
X157349188Y-99541482D01*
X157385498Y-99661180D01*
X157444463Y-99771494D01*
X157523815Y-99868185D01*
X157620506Y-99947537D01*
X157730820Y-100006502D01*
X157850518Y-100042812D01*
X157975000Y-100055072D01*
X158395501Y-100055072D01*
X158395501Y-100252961D01*
X158390277Y-100306000D01*
X158400500Y-100409794D01*
X158400501Y-101800500D01*
X154483021Y-101800500D01*
X154429999Y-101795278D01*
X154376978Y-101800500D01*
X152373021Y-101800500D01*
X152319999Y-101795278D01*
X152266978Y-101800500D01*
X152266971Y-101800500D01*
X152108381Y-101816120D01*
X151904894Y-101877847D01*
X151717360Y-101978086D01*
X151552985Y-102112985D01*
X151519178Y-102154179D01*
X149374180Y-104299178D01*
X149332986Y-104332985D01*
X149198087Y-104497360D01*
X149105418Y-104670731D01*
X149097847Y-104684896D01*
X149036120Y-104888382D01*
X149015277Y-105100000D01*
X147681236Y-105100000D01*
X150847742Y-101933494D01*
X150881659Y-101905659D01*
X150992753Y-101770291D01*
X151075303Y-101615851D01*
X151113176Y-101490998D01*
X151126136Y-101448275D01*
X151130308Y-101405915D01*
X151139000Y-101317667D01*
X151139000Y-101317660D01*
X151143300Y-101274000D01*
X151139000Y-101230340D01*
X151139000Y-99812463D01*
X151255824Y-99637624D01*
X151341383Y-99431067D01*
X151345841Y-99408653D01*
X153082952Y-99408653D01*
X153238962Y-99724214D01*
X153613745Y-99915020D01*
X154018551Y-100029044D01*
X154437824Y-100061902D01*
X154855451Y-100012334D01*
X155255383Y-99882243D01*
X155551038Y-99724214D01*
X155707048Y-99408653D01*
X154395000Y-98096605D01*
X153082952Y-99408653D01*
X151345841Y-99408653D01*
X151385000Y-99211788D01*
X151385000Y-98988212D01*
X151341383Y-98768933D01*
X151255824Y-98562376D01*
X151131612Y-98376480D01*
X150973520Y-98218388D01*
X150787624Y-98094176D01*
X150581067Y-98008617D01*
X150361788Y-97965000D01*
X150138212Y-97965000D01*
X149918933Y-98008617D01*
X149712376Y-98094176D01*
X149526480Y-98218388D01*
X149368388Y-98376480D01*
X149244176Y-98562376D01*
X149158617Y-98768933D01*
X149115000Y-98988212D01*
X149115000Y-99211788D01*
X149158617Y-99431067D01*
X149244176Y-99637624D01*
X149361000Y-99812464D01*
X149361001Y-100905763D01*
X148530680Y-101736085D01*
X148545100Y-101663588D01*
X148545100Y-101440012D01*
X148501483Y-101220733D01*
X148415924Y-101014176D01*
X148291712Y-100828280D01*
X148133620Y-100670188D01*
X147947724Y-100545976D01*
X147741167Y-100460417D01*
X147521888Y-100416800D01*
X147298312Y-100416800D01*
X147079033Y-100460417D01*
X146922953Y-100525067D01*
X146929321Y-100460417D01*
X146939000Y-100362146D01*
X146939000Y-100362139D01*
X146944529Y-100306000D01*
X146939000Y-100249861D01*
X146939000Y-99928072D01*
X147296000Y-99928072D01*
X147420482Y-99915812D01*
X147540180Y-99879502D01*
X147650494Y-99820537D01*
X147747185Y-99741185D01*
X147826537Y-99644494D01*
X147885502Y-99534180D01*
X147921812Y-99414482D01*
X147934072Y-99290000D01*
X147934072Y-97959824D01*
X152250098Y-97959824D01*
X152299666Y-98377451D01*
X152429757Y-98777383D01*
X152587786Y-99073038D01*
X152903347Y-99229048D01*
X154215395Y-97917000D01*
X154574605Y-97917000D01*
X155886653Y-99229048D01*
X156202214Y-99073038D01*
X156393020Y-98698255D01*
X156507044Y-98293449D01*
X156539902Y-97874176D01*
X156490334Y-97456549D01*
X156360243Y-97056617D01*
X156202214Y-96760962D01*
X155886653Y-96604952D01*
X154574605Y-97917000D01*
X154215395Y-97917000D01*
X152903347Y-96604952D01*
X152587786Y-96760962D01*
X152396980Y-97135745D01*
X152282956Y-97540551D01*
X152250098Y-97959824D01*
X147934072Y-97959824D01*
X147934072Y-96425347D01*
X153082952Y-96425347D01*
X154395000Y-97737395D01*
X155707048Y-96425347D01*
X155551038Y-96109786D01*
X155176255Y-95918980D01*
X154771449Y-95804956D01*
X154352176Y-95772098D01*
X153934549Y-95821666D01*
X153534617Y-95951757D01*
X153238962Y-96109786D01*
X153082952Y-96425347D01*
X147934072Y-96425347D01*
X147934072Y-96290000D01*
X147921812Y-96165518D01*
X147885502Y-96045820D01*
X147826537Y-95935506D01*
X147747185Y-95838815D01*
X147650494Y-95759463D01*
X147540180Y-95700498D01*
X147420482Y-95664188D01*
X147296000Y-95651928D01*
X144296000Y-95651928D01*
X144171518Y-95664188D01*
X144051820Y-95700498D01*
X143941506Y-95759463D01*
X143844815Y-95838815D01*
X143765463Y-95935506D01*
X143706498Y-96045820D01*
X143670188Y-96165518D01*
X143657928Y-96290000D01*
X143657928Y-99290000D01*
X143670188Y-99414482D01*
X143706498Y-99534180D01*
X143765463Y-99644494D01*
X143844815Y-99741185D01*
X143941506Y-99820537D01*
X144051820Y-99879502D01*
X144171518Y-99915812D01*
X144296000Y-99928072D01*
X144557482Y-99928072D01*
X144078555Y-100407000D01*
X136743000Y-100407000D01*
X136743000Y-100199541D01*
X136762461Y-100135387D01*
X136779000Y-99967466D01*
X136779000Y-99967459D01*
X136784529Y-99911320D01*
X136779000Y-99855181D01*
X136779000Y-99594014D01*
X136996983Y-99448363D01*
X137294363Y-99150983D01*
X137528012Y-98801302D01*
X137688953Y-98412756D01*
X137771000Y-98000279D01*
X137771000Y-97579721D01*
X137688953Y-97167244D01*
X137528012Y-96778698D01*
X137294363Y-96429017D01*
X136996983Y-96131637D01*
X136939159Y-96093000D01*
X139412841Y-96093000D01*
X139355017Y-96131637D01*
X139057637Y-96429017D01*
X138823988Y-96778698D01*
X138663047Y-97167244D01*
X138581000Y-97579721D01*
X138581000Y-98000279D01*
X138663047Y-98412756D01*
X138823988Y-98801302D01*
X139057637Y-99150983D01*
X139355017Y-99448363D01*
X139704698Y-99682012D01*
X140093244Y-99842953D01*
X140505721Y-99925000D01*
X140926279Y-99925000D01*
X141338756Y-99842953D01*
X141727302Y-99682012D01*
X142076983Y-99448363D01*
X142374363Y-99150983D01*
X142608012Y-98801302D01*
X142768953Y-98412756D01*
X142851000Y-98000279D01*
X142851000Y-97579721D01*
X142768953Y-97167244D01*
X142608012Y-96778698D01*
X142374363Y-96429017D01*
X142076983Y-96131637D01*
X141859000Y-95985986D01*
X141859000Y-95724818D01*
X141864529Y-95668679D01*
X141859000Y-95612540D01*
X141859000Y-95612534D01*
X141842461Y-95444613D01*
X141777103Y-95229157D01*
X141670968Y-95030591D01*
X141528133Y-94856547D01*
X141484519Y-94820754D01*
X141049765Y-94386000D01*
X169381862Y-94386000D01*
X169329127Y-94438735D01*
X169329127Y-94438735D01*
G37*
X169329127Y-94438735D02*
X169444396Y-94554004D01*
X169162611Y-94670275D01*
X169004743Y-94988860D01*
X168912062Y-95332122D01*
X168888127Y-95686869D01*
X168933861Y-96039470D01*
X169047505Y-96376373D01*
X169162611Y-96591725D01*
X169444398Y-96707997D01*
X170521395Y-95631000D01*
X170507253Y-95616858D01*
X170686858Y-95437253D01*
X170701000Y-95451395D01*
X170715143Y-95437253D01*
X170894748Y-95616858D01*
X170880605Y-95631000D01*
X171957602Y-96707997D01*
X172239389Y-96591725D01*
X172397257Y-96273140D01*
X172489938Y-95929878D01*
X172513873Y-95575131D01*
X172468139Y-95222530D01*
X172354495Y-94885627D01*
X172239389Y-94670275D01*
X171957604Y-94554004D01*
X172072873Y-94438735D01*
X172020138Y-94386000D01*
X174393344Y-94386000D01*
X174298965Y-94480379D01*
X174101429Y-94776012D01*
X173965365Y-95104501D01*
X173896000Y-95453223D01*
X173896000Y-95808777D01*
X173965365Y-96157499D01*
X174101429Y-96485988D01*
X174298965Y-96781621D01*
X174550379Y-97033035D01*
X174764588Y-97176165D01*
X174736010Y-97191440D01*
X174581304Y-97318404D01*
X174549492Y-97357167D01*
X172671367Y-99235292D01*
X172489376Y-99310676D01*
X172303480Y-99434888D01*
X172145388Y-99592980D01*
X172021176Y-99778876D01*
X171935617Y-99985433D01*
X171892000Y-100204712D01*
X171892000Y-100428288D01*
X171935617Y-100647567D01*
X172021176Y-100854124D01*
X172145388Y-101040020D01*
X172303480Y-101198112D01*
X172489376Y-101322324D01*
X172695933Y-101407883D01*
X172915212Y-101451500D01*
X173138788Y-101451500D01*
X173358067Y-101407883D01*
X173564624Y-101322324D01*
X173750520Y-101198112D01*
X173908612Y-101040020D01*
X174032824Y-100854124D01*
X174108208Y-100672133D01*
X175724041Y-99056300D01*
X178626643Y-99056300D01*
X178808633Y-99131683D01*
X179027912Y-99175300D01*
X179251488Y-99175300D01*
X179374341Y-99150863D01*
X179354774Y-99198102D01*
X179315000Y-99398061D01*
X179315000Y-99601939D01*
X179354774Y-99801898D01*
X179432795Y-99990256D01*
X179546063Y-100159774D01*
X179690226Y-100303937D01*
X179859744Y-100417205D01*
X180048102Y-100495226D01*
X180097895Y-100505130D01*
X180467001Y-100874237D01*
X180467000Y-104214151D01*
X180441241Y-104231363D01*
X180241363Y-104431241D01*
X180084320Y-104666273D01*
X179976147Y-104927426D01*
X179921000Y-105204665D01*
X179921000Y-105487335D01*
X179969608Y-105731700D01*
X179801641Y-105731700D01*
X179392907Y-105322967D01*
X179317524Y-105140976D01*
X179193312Y-104955080D01*
X179035220Y-104796988D01*
X178849324Y-104672776D01*
X178642767Y-104587217D01*
X178423488Y-104543600D01*
X178199912Y-104543600D01*
X177980633Y-104587217D01*
X177774076Y-104672776D01*
X177665248Y-104745493D01*
X177659603Y-104729708D01*
X177592671Y-104604486D01*
X177348702Y-104532903D01*
X176535605Y-105346000D01*
X177235198Y-106045593D01*
X177305876Y-106216224D01*
X177430088Y-106402120D01*
X177588180Y-106560212D01*
X177774076Y-106684424D01*
X177956067Y-106759807D01*
X178627092Y-107430833D01*
X178658904Y-107469596D01*
X178813610Y-107596560D01*
X178931345Y-107659490D01*
X178990113Y-107690902D01*
X179181629Y-107748998D01*
X179380800Y-107768615D01*
X179430702Y-107763700D01*
X180526700Y-107763700D01*
X180494176Y-107812376D01*
X180408617Y-108018933D01*
X180365000Y-108238212D01*
X180365000Y-108461788D01*
X180408617Y-108681067D01*
X180494176Y-108887624D01*
X180618388Y-109073520D01*
X180776480Y-109231612D01*
X180796517Y-109245000D01*
X180720998Y-109245000D01*
X180720998Y-109409375D01*
X180498960Y-109288091D01*
X180234119Y-109382930D01*
X179992869Y-109527615D01*
X179784481Y-109716586D01*
X179616963Y-109942580D01*
X179496754Y-110196913D01*
X179456096Y-110330961D01*
X179578085Y-110553000D01*
X180721000Y-110553000D01*
X180721000Y-110533000D01*
X180975000Y-110533000D01*
X180975000Y-110553000D01*
X182117915Y-110553000D01*
X182239904Y-110330961D01*
X182199246Y-110196913D01*
X182079037Y-109942580D01*
X181911519Y-109716586D01*
X181703131Y-109527615D01*
X181627022Y-109481970D01*
X181831067Y-109441383D01*
X182037624Y-109355824D01*
X182223520Y-109231612D01*
X182381612Y-109073520D01*
X182505824Y-108887624D01*
X182591383Y-108681067D01*
X182635000Y-108461788D01*
X182635000Y-108238212D01*
X182591383Y-108018933D01*
X182505824Y-107812376D01*
X182473300Y-107763700D01*
X187412498Y-107763700D01*
X187462400Y-107768615D01*
X187512302Y-107763700D01*
X187661571Y-107748998D01*
X187853087Y-107690902D01*
X188029590Y-107596560D01*
X188184296Y-107469596D01*
X188216112Y-107430828D01*
X192129834Y-103517107D01*
X192311824Y-103441724D01*
X192497720Y-103317512D01*
X192655812Y-103159420D01*
X192780024Y-102973524D01*
X192865583Y-102766967D01*
X192909200Y-102547688D01*
X192909200Y-102324112D01*
X192865583Y-102104833D01*
X192780024Y-101898276D01*
X192655812Y-101712380D01*
X192535144Y-101591712D01*
X194448893Y-101591712D01*
X194556726Y-101866338D01*
X194863384Y-102017216D01*
X195193585Y-102105369D01*
X195534639Y-102127409D01*
X195873439Y-102082489D01*
X196196966Y-101972336D01*
X196395274Y-101866338D01*
X196503107Y-101591712D01*
X195476000Y-100564605D01*
X194448893Y-101591712D01*
X192535144Y-101591712D01*
X192497720Y-101554288D01*
X192311824Y-101430076D01*
X192206408Y-101386411D01*
X192305824Y-101237624D01*
X192391383Y-101031067D01*
X192435000Y-100811788D01*
X192435000Y-100588212D01*
X192406243Y-100443639D01*
X193733591Y-100443639D01*
X193778511Y-100782439D01*
X193888664Y-101105966D01*
X193994662Y-101304274D01*
X194269288Y-101412107D01*
X195296395Y-100385000D01*
X195655605Y-100385000D01*
X196682712Y-101412107D01*
X196957338Y-101304274D01*
X197108216Y-100997616D01*
X197196369Y-100667415D01*
X197218409Y-100326361D01*
X197173489Y-99987561D01*
X197063336Y-99664034D01*
X196957338Y-99465726D01*
X196682712Y-99357893D01*
X195655605Y-100385000D01*
X195296395Y-100385000D01*
X194269288Y-99357893D01*
X193994662Y-99465726D01*
X193843784Y-99772384D01*
X193755631Y-100102585D01*
X193733591Y-100443639D01*
X192406243Y-100443639D01*
X192391383Y-100368933D01*
X192305824Y-100162376D01*
X192181612Y-99976480D01*
X192023520Y-99818388D01*
X191837624Y-99694176D01*
X191631067Y-99608617D01*
X191411788Y-99565000D01*
X191188212Y-99565000D01*
X190968933Y-99608617D01*
X190762376Y-99694176D01*
X190609980Y-99796004D01*
X190513537Y-99563169D01*
X190323663Y-99279002D01*
X190222949Y-99178288D01*
X194448893Y-99178288D01*
X195476000Y-100205395D01*
X196503107Y-99178288D01*
X196395274Y-98903662D01*
X196088616Y-98752784D01*
X195758415Y-98664631D01*
X195417361Y-98642591D01*
X195078561Y-98687511D01*
X194755034Y-98797664D01*
X194556726Y-98903662D01*
X194448893Y-99178288D01*
X190222949Y-99178288D01*
X190081998Y-99037337D01*
X189992000Y-98977202D01*
X189992000Y-97623072D01*
X190076000Y-97623072D01*
X190200482Y-97610812D01*
X190320180Y-97574502D01*
X190430494Y-97515537D01*
X190527185Y-97436185D01*
X190606537Y-97339494D01*
X190665502Y-97229180D01*
X190701812Y-97109482D01*
X190703562Y-97091712D01*
X194448893Y-97091712D01*
X194556726Y-97366338D01*
X194863384Y-97517216D01*
X195193585Y-97605369D01*
X195534639Y-97627409D01*
X195873439Y-97582489D01*
X196196966Y-97472336D01*
X196395274Y-97366338D01*
X196503107Y-97091712D01*
X195476000Y-96064605D01*
X194448893Y-97091712D01*
X190703562Y-97091712D01*
X190714072Y-96985000D01*
X190714072Y-95943639D01*
X193733591Y-95943639D01*
X193778511Y-96282439D01*
X193888664Y-96605966D01*
X193994662Y-96804274D01*
X194269288Y-96912107D01*
X195296395Y-95885000D01*
X195655605Y-95885000D01*
X196682712Y-96912107D01*
X196957338Y-96804274D01*
X197108216Y-96497616D01*
X197196369Y-96167415D01*
X197218409Y-95826361D01*
X197173489Y-95487561D01*
X197063336Y-95164034D01*
X196957338Y-94965726D01*
X196682712Y-94857893D01*
X195655605Y-95885000D01*
X195296395Y-95885000D01*
X194269288Y-94857893D01*
X193994662Y-94965726D01*
X193843784Y-95272384D01*
X193755631Y-95602585D01*
X193733591Y-95943639D01*
X190714072Y-95943639D01*
X190714072Y-94785000D01*
X190701812Y-94660518D01*
X190665502Y-94540820D01*
X190606537Y-94430506D01*
X190570012Y-94386000D01*
X194589769Y-94386000D01*
X194556726Y-94403662D01*
X194448893Y-94678288D01*
X195476000Y-95705395D01*
X196503107Y-94678288D01*
X196395274Y-94403662D01*
X196359376Y-94386000D01*
X200219786Y-94386000D01*
X199999241Y-94533363D01*
X199799363Y-94733241D01*
X199642320Y-94968273D01*
X199568894Y-95145540D01*
X197950309Y-95885047D01*
X197919813Y-95894298D01*
X197859492Y-95926540D01*
X197842897Y-95934122D01*
X197815512Y-95950047D01*
X197743310Y-95988640D01*
X197729108Y-96000295D01*
X197713237Y-96009525D01*
X197651900Y-96063659D01*
X197588604Y-96115604D01*
X197576946Y-96129809D01*
X197563184Y-96141955D01*
X197513583Y-96207018D01*
X197461640Y-96270310D01*
X197452982Y-96286509D01*
X197441848Y-96301113D01*
X197405876Y-96374639D01*
X197367298Y-96446814D01*
X197361968Y-96464386D01*
X197353895Y-96480886D01*
X197332958Y-96560018D01*
X197309202Y-96638330D01*
X197307402Y-96656606D01*
X197302704Y-96674362D01*
X197297609Y-96756034D01*
X197294500Y-96787599D01*
X197294500Y-96805869D01*
X197290243Y-96874107D01*
X197294500Y-96905677D01*
X197294501Y-104481158D01*
X187139860Y-114635800D01*
X186754240Y-114635800D01*
X193887434Y-107502607D01*
X194069424Y-107427224D01*
X194255320Y-107303012D01*
X194413412Y-107144920D01*
X194537624Y-106959024D01*
X194623183Y-106752467D01*
X194666800Y-106533188D01*
X194666800Y-106309612D01*
X194623183Y-106090333D01*
X194537624Y-105883776D01*
X194413412Y-105697880D01*
X194255320Y-105539788D01*
X194069424Y-105415576D01*
X193862867Y-105330017D01*
X193643588Y-105286400D01*
X193420012Y-105286400D01*
X193200733Y-105330017D01*
X192994176Y-105415576D01*
X192808280Y-105539788D01*
X192650188Y-105697880D01*
X192525976Y-105883776D01*
X192450593Y-106065766D01*
X185073740Y-113442619D01*
X184941533Y-113468917D01*
X184734976Y-113554476D01*
X184549080Y-113678688D01*
X184390988Y-113836780D01*
X184266776Y-114022676D01*
X184181217Y-114229233D01*
X184137600Y-114448512D01*
X184137600Y-114610551D01*
X184052076Y-114645976D01*
X183866180Y-114770188D01*
X183708088Y-114928280D01*
X183583876Y-115114176D01*
X183498317Y-115320733D01*
X183454700Y-115540012D01*
X183454700Y-115763588D01*
X183498317Y-115982867D01*
X183583876Y-116189424D01*
X183708088Y-116375320D01*
X183735768Y-116403000D01*
X183712408Y-116403000D01*
X183442510Y-116456686D01*
X183188273Y-116561995D01*
X182959465Y-116714880D01*
X182764880Y-116909465D01*
X182611995Y-117138273D01*
X182506686Y-117392510D01*
X182453000Y-117662408D01*
X182453000Y-117937592D01*
X182506686Y-118207490D01*
X182611995Y-118461727D01*
X182764880Y-118690535D01*
X182959465Y-118885120D01*
X183188273Y-119038005D01*
X183442510Y-119143314D01*
X183712408Y-119197000D01*
X183987592Y-119197000D01*
X184257490Y-119143314D01*
X184511727Y-119038005D01*
X184740535Y-118885120D01*
X184935120Y-118690535D01*
X185088005Y-118461727D01*
X185193314Y-118207490D01*
X185247000Y-117937592D01*
X185247000Y-117662408D01*
X185193314Y-117392510D01*
X185088005Y-117138273D01*
X184935120Y-116909465D01*
X184794044Y-116768389D01*
X184920767Y-116743183D01*
X185102757Y-116667800D01*
X187510798Y-116667800D01*
X187560700Y-116672715D01*
X187610602Y-116667800D01*
X187759871Y-116653098D01*
X187951387Y-116595002D01*
X188127890Y-116500660D01*
X188282596Y-116373696D01*
X188314412Y-116334928D01*
X198323600Y-106325741D01*
X198323600Y-106333557D01*
X185184266Y-119472892D01*
X185155576Y-119484776D01*
X184969680Y-119608988D01*
X184811588Y-119767080D01*
X184687376Y-119952976D01*
X184601817Y-120159533D01*
X184558200Y-120378812D01*
X184558200Y-120602388D01*
X184601817Y-120821667D01*
X184687376Y-121028224D01*
X184811588Y-121214120D01*
X184969680Y-121372212D01*
X185155576Y-121496424D01*
X185362133Y-121581983D01*
X185581412Y-121625600D01*
X185804988Y-121625600D01*
X186024267Y-121581983D01*
X186230824Y-121496424D01*
X186416720Y-121372212D01*
X186574812Y-121214120D01*
X186699024Y-121028224D01*
X186710908Y-120999534D01*
X200184421Y-107526022D01*
X200225615Y-107492215D01*
X200360514Y-107327840D01*
X200460753Y-107140306D01*
X200522480Y-106936819D01*
X200538100Y-106778229D01*
X200538100Y-106778222D01*
X200543322Y-106725201D01*
X200538100Y-106672179D01*
X200538100Y-106665555D01*
X200549983Y-106636867D01*
X200593600Y-106417588D01*
X200593600Y-106194012D01*
X200549983Y-105974733D01*
X200464424Y-105768176D01*
X200340212Y-105582280D01*
X200182120Y-105424188D01*
X199996224Y-105299976D01*
X199789667Y-105214417D01*
X199570388Y-105170800D01*
X199346812Y-105170800D01*
X199287071Y-105182683D01*
X199311798Y-105101171D01*
X199326500Y-104951902D01*
X199331415Y-104902000D01*
X199326500Y-104852098D01*
X199326500Y-100718512D01*
X199473783Y-100718512D01*
X199515213Y-100998130D01*
X199610397Y-101264292D01*
X199677329Y-101389514D01*
X199921298Y-101461097D01*
X200734395Y-100648000D01*
X199921298Y-99834903D01*
X199677329Y-99906486D01*
X199556429Y-100161996D01*
X199487700Y-100436184D01*
X199473783Y-100718512D01*
X199326500Y-100718512D01*
X199326500Y-97490324D01*
X200413238Y-96993810D01*
X200495426Y-97027853D01*
X200772665Y-97083000D01*
X200912160Y-97083000D01*
X201394600Y-97565441D01*
X201394600Y-99289075D01*
X201125816Y-99221700D01*
X200843488Y-99207783D01*
X200563870Y-99249213D01*
X200297708Y-99344397D01*
X200172486Y-99411329D01*
X200100903Y-99655298D01*
X200914000Y-100468395D01*
X200928143Y-100454253D01*
X201107748Y-100633858D01*
X201093605Y-100648000D01*
X201107748Y-100662143D01*
X200928143Y-100841748D01*
X200914000Y-100827605D01*
X200100903Y-101640702D01*
X200172486Y-101884671D01*
X200427996Y-102005571D01*
X200702184Y-102074300D01*
X200984512Y-102088217D01*
X201264130Y-102046787D01*
X201360035Y-102012490D01*
X201319217Y-102111033D01*
X201275600Y-102330312D01*
X201275600Y-102553888D01*
X201319217Y-102773167D01*
X201404776Y-102979724D01*
X201528988Y-103165620D01*
X201687080Y-103323712D01*
X201872976Y-103447924D01*
X202079533Y-103533483D01*
X202298812Y-103577100D01*
X202522388Y-103577100D01*
X202741667Y-103533483D01*
X202948224Y-103447924D01*
X203134120Y-103323712D01*
X203292212Y-103165620D01*
X203416424Y-102979724D01*
X203501983Y-102773167D01*
X203545600Y-102553888D01*
X203545600Y-102330312D01*
X203501983Y-102111033D01*
X203426600Y-101929043D01*
X203426600Y-97573053D01*
X203787452Y-97761702D01*
X204192057Y-97880784D01*
X204612087Y-97919009D01*
X205031542Y-97874923D01*
X205434445Y-97750203D01*
X205805451Y-97549602D01*
X205969001Y-97414301D01*
X205969000Y-133978585D01*
X205754955Y-133811355D01*
X205378493Y-133621190D01*
X204972264Y-133507769D01*
X204551742Y-133475412D01*
X204132944Y-133525351D01*
X203731821Y-133655683D01*
X203363653Y-133861446D01*
X203042462Y-134134800D01*
X202780483Y-134465335D01*
X202587695Y-134840460D01*
X202471441Y-135245887D01*
X202436149Y-135666173D01*
X202483162Y-136085310D01*
X202610692Y-136487333D01*
X202813879Y-136856929D01*
X202940642Y-137008000D01*
X197797980Y-137008000D01*
X197806014Y-137003706D01*
X198032134Y-136818134D01*
X198217706Y-136592014D01*
X198355599Y-136334034D01*
X198440513Y-136054111D01*
X198469185Y-135763000D01*
X198440513Y-135471889D01*
X198355599Y-135191966D01*
X198217706Y-134933986D01*
X198032134Y-134707866D01*
X197806014Y-134522294D01*
X197548034Y-134384401D01*
X197268111Y-134299487D01*
X197049950Y-134278000D01*
X196904050Y-134278000D01*
X196685889Y-134299487D01*
X196405966Y-134384401D01*
X196147986Y-134522294D01*
X195921866Y-134707866D01*
X195736294Y-134933986D01*
X195701799Y-134998523D01*
X195632178Y-134881645D01*
X195437269Y-134665412D01*
X195203920Y-134491359D01*
X194941099Y-134366175D01*
X194793890Y-134321524D01*
X194564000Y-134442845D01*
X194564000Y-135636000D01*
X194584000Y-135636000D01*
X194584000Y-135890000D01*
X194564000Y-135890000D01*
X194564000Y-135910000D01*
X194310000Y-135910000D01*
X194310000Y-135890000D01*
X194290000Y-135890000D01*
X194290000Y-135636000D01*
X194310000Y-135636000D01*
X194310000Y-134442845D01*
X194080110Y-134321524D01*
X193932901Y-134366175D01*
X193670080Y-134491359D01*
X193436731Y-134665412D01*
X193241822Y-134881645D01*
X193172201Y-134998523D01*
X193137706Y-134933986D01*
X192952134Y-134707866D01*
X192726014Y-134522294D01*
X192468034Y-134384401D01*
X192188111Y-134299487D01*
X191969950Y-134278000D01*
X191824050Y-134278000D01*
X191605889Y-134299487D01*
X191325966Y-134384401D01*
X191067986Y-134522294D01*
X190841866Y-134707866D01*
X190656294Y-134933986D01*
X190627000Y-134988791D01*
X190597706Y-134933986D01*
X190412134Y-134707866D01*
X190186014Y-134522294D01*
X189928034Y-134384401D01*
X189648111Y-134299487D01*
X189429950Y-134278000D01*
X189284050Y-134278000D01*
X189065889Y-134299487D01*
X188785966Y-134384401D01*
X188527986Y-134522294D01*
X188301866Y-134707866D01*
X188277393Y-134737687D01*
X188256502Y-134668820D01*
X188197537Y-134558506D01*
X188118185Y-134461815D01*
X188021494Y-134382463D01*
X187911180Y-134323498D01*
X187791482Y-134287188D01*
X187667000Y-134274928D01*
X185967000Y-134274928D01*
X185842518Y-134287188D01*
X185801000Y-134299782D01*
X185801000Y-133581000D01*
X193885098Y-133581000D01*
X193935000Y-133585915D01*
X193984902Y-133581000D01*
X194134171Y-133566298D01*
X194325687Y-133508202D01*
X194502190Y-133413860D01*
X194656896Y-133286896D01*
X194688712Y-133248128D01*
X197533133Y-130403708D01*
X197571896Y-130371896D01*
X197698860Y-130217190D01*
X197793202Y-130040687D01*
X197851298Y-129849171D01*
X197854918Y-129812408D01*
X202553000Y-129812408D01*
X202553000Y-130087592D01*
X202606686Y-130357490D01*
X202711995Y-130611727D01*
X202864880Y-130840535D01*
X203059465Y-131035120D01*
X203288273Y-131188005D01*
X203542510Y-131293314D01*
X203812408Y-131347000D01*
X204087592Y-131347000D01*
X204357490Y-131293314D01*
X204611727Y-131188005D01*
X204840535Y-131035120D01*
X205035120Y-130840535D01*
X205188005Y-130611727D01*
X205293314Y-130357490D01*
X205347000Y-130087592D01*
X205347000Y-129812408D01*
X205293314Y-129542510D01*
X205188005Y-129288273D01*
X205035120Y-129059465D01*
X204840535Y-128864880D01*
X204611727Y-128711995D01*
X204357490Y-128606686D01*
X204087592Y-128553000D01*
X203812408Y-128553000D01*
X203542510Y-128606686D01*
X203288273Y-128711995D01*
X203059465Y-128864880D01*
X202864880Y-129059465D01*
X202711995Y-129288273D01*
X202606686Y-129542510D01*
X202553000Y-129812408D01*
X197854918Y-129812408D01*
X197866000Y-129699902D01*
X197870915Y-129650000D01*
X197867320Y-129613497D01*
X198042312Y-129438505D01*
X198210299Y-129187095D01*
X198326011Y-128907743D01*
X198385000Y-128611184D01*
X198385000Y-128308816D01*
X198326011Y-128012257D01*
X198210299Y-127732905D01*
X198042312Y-127481495D01*
X197828505Y-127267688D01*
X197577095Y-127099701D01*
X197297743Y-126983989D01*
X197001184Y-126925000D01*
X196698816Y-126925000D01*
X196402257Y-126983989D01*
X196122905Y-127099701D01*
X195871495Y-127267688D01*
X195805056Y-127334127D01*
X195799502Y-127315820D01*
X195740537Y-127205506D01*
X195661185Y-127108815D01*
X195564494Y-127029463D01*
X195454180Y-126970498D01*
X195334482Y-126934188D01*
X195210000Y-126921928D01*
X193410000Y-126921928D01*
X193285518Y-126934188D01*
X193165820Y-126970498D01*
X193055506Y-127029463D01*
X192958815Y-127108815D01*
X192879463Y-127205506D01*
X192820498Y-127315820D01*
X192784188Y-127435518D01*
X192771928Y-127560000D01*
X192771928Y-129360000D01*
X192784188Y-129484482D01*
X192820498Y-129604180D01*
X192879463Y-129714494D01*
X192958815Y-129811185D01*
X193047541Y-129884000D01*
X190701355Y-129884000D01*
X190884608Y-129733608D01*
X191063932Y-129515101D01*
X191197182Y-129265808D01*
X191279236Y-128995309D01*
X191306943Y-128714000D01*
X191279236Y-128432691D01*
X191197182Y-128162192D01*
X191063932Y-127912899D01*
X190884608Y-127694392D01*
X190666101Y-127515068D01*
X190416808Y-127381818D01*
X190146309Y-127299764D01*
X189935492Y-127279000D01*
X189794508Y-127279000D01*
X189583691Y-127299764D01*
X189313192Y-127381818D01*
X189063899Y-127515068D01*
X188845392Y-127694392D01*
X188666068Y-127912899D01*
X188532818Y-128162192D01*
X188450764Y-128432691D01*
X188423057Y-128714000D01*
X188450764Y-128995309D01*
X188532818Y-129265808D01*
X188666068Y-129515101D01*
X188845392Y-129733608D01*
X189028645Y-129884000D01*
X188985741Y-129884000D01*
X188021208Y-128919467D01*
X187945824Y-128737476D01*
X187821612Y-128551580D01*
X187663520Y-128393488D01*
X187477624Y-128269276D01*
X187271067Y-128183717D01*
X187051788Y-128140100D01*
X186828212Y-128140100D01*
X186608933Y-128183717D01*
X186402376Y-128269276D01*
X186216480Y-128393488D01*
X186189688Y-128420280D01*
X186164853Y-128295426D01*
X186056680Y-128034273D01*
X185899637Y-127799241D01*
X185801000Y-127700604D01*
X185801000Y-125884902D01*
X185805915Y-125835000D01*
X185786298Y-125635829D01*
X185728202Y-125444313D01*
X185711465Y-125413000D01*
X185633860Y-125267810D01*
X185506896Y-125113104D01*
X185468127Y-125081287D01*
X185053713Y-124666873D01*
X185021896Y-124628104D01*
X184867190Y-124501140D01*
X184690687Y-124406798D01*
X184499171Y-124348702D01*
X184349902Y-124334000D01*
X184300000Y-124329085D01*
X184250098Y-124334000D01*
X178978055Y-124334000D01*
X178967902Y-124333000D01*
X178918000Y-124328085D01*
X178868098Y-124333000D01*
X178754050Y-124333000D01*
X178745502Y-124304820D01*
X178686537Y-124194506D01*
X178607185Y-124097815D01*
X178510494Y-124018463D01*
X178400180Y-123959498D01*
X178372000Y-123950950D01*
X178372000Y-123905893D01*
X178376914Y-123855999D01*
X178372000Y-123806105D01*
X178372000Y-123806098D01*
X178357298Y-123656829D01*
X178299202Y-123465313D01*
X178204860Y-123288810D01*
X178077896Y-123134104D01*
X178039133Y-123102292D01*
X177266000Y-122329160D01*
X177266000Y-121396702D01*
X177494903Y-121396702D01*
X177566486Y-121640671D01*
X177821996Y-121761571D01*
X178096184Y-121830300D01*
X178378512Y-121844217D01*
X178658130Y-121802787D01*
X178924292Y-121707603D01*
X179049514Y-121640671D01*
X179121097Y-121396702D01*
X178308000Y-120583605D01*
X177494903Y-121396702D01*
X177266000Y-121396702D01*
X177266000Y-121202632D01*
X177315298Y-121217097D01*
X178128395Y-120404000D01*
X178487605Y-120404000D01*
X179300702Y-121217097D01*
X179544671Y-121145514D01*
X179665571Y-120890004D01*
X179734300Y-120615816D01*
X179748217Y-120333488D01*
X179706787Y-120053870D01*
X179611603Y-119787708D01*
X179544671Y-119662486D01*
X179300702Y-119590903D01*
X178487605Y-120404000D01*
X178128395Y-120404000D01*
X177315298Y-119590903D01*
X177266000Y-119605368D01*
X177266000Y-119411298D01*
X177494903Y-119411298D01*
X178308000Y-120224395D01*
X179121097Y-119411298D01*
X179049514Y-119167329D01*
X178794004Y-119046429D01*
X178519816Y-118977700D01*
X178237488Y-118963783D01*
X177957870Y-119005213D01*
X177691708Y-119100397D01*
X177566486Y-119167329D01*
X177494903Y-119411298D01*
X177266000Y-119411298D01*
X177266000Y-118294163D01*
X177383518Y-118329812D01*
X177508000Y-118342072D01*
X179108000Y-118342072D01*
X179232482Y-118329812D01*
X179352180Y-118293502D01*
X179462494Y-118234537D01*
X179559185Y-118155185D01*
X179638537Y-118058494D01*
X179697502Y-117948180D01*
X179733812Y-117828482D01*
X179743881Y-117726245D01*
X179808433Y-117752983D01*
X180027712Y-117796600D01*
X180251288Y-117796600D01*
X180470567Y-117752983D01*
X180677124Y-117667424D01*
X180863020Y-117543212D01*
X181021112Y-117385120D01*
X181145324Y-117199224D01*
X181230883Y-116992667D01*
X181274500Y-116773388D01*
X181274500Y-116549812D01*
X181230883Y-116330533D01*
X181219000Y-116301845D01*
X181219000Y-115104529D01*
X181224223Y-115051500D01*
X181203380Y-114839881D01*
X181166784Y-114719241D01*
X181141653Y-114636394D01*
X181041414Y-114448860D01*
X181041128Y-114448512D01*
X180940319Y-114325675D01*
X180940318Y-114325674D01*
X180906515Y-114284485D01*
X180865326Y-114250682D01*
X177643682Y-111029039D01*
X179456096Y-111029039D01*
X179496754Y-111163087D01*
X179616963Y-111417420D01*
X179784481Y-111643414D01*
X179992869Y-111832385D01*
X180234119Y-111977070D01*
X180498960Y-112071909D01*
X180721000Y-111950624D01*
X180721000Y-110807000D01*
X180975000Y-110807000D01*
X180975000Y-111950624D01*
X181197040Y-112071909D01*
X181461881Y-111977070D01*
X181703131Y-111832385D01*
X181911519Y-111643414D01*
X182079037Y-111417420D01*
X182199246Y-111163087D01*
X182239904Y-111029039D01*
X182117915Y-110807000D01*
X180975000Y-110807000D01*
X180721000Y-110807000D01*
X179578085Y-110807000D01*
X179456096Y-111029039D01*
X177643682Y-111029039D01*
X177203000Y-110588358D01*
X177203000Y-110538665D01*
X177147853Y-110261426D01*
X177039680Y-110000273D01*
X176882637Y-109765241D01*
X176682759Y-109565363D01*
X176447727Y-109408320D01*
X176186574Y-109300147D01*
X175909335Y-109245000D01*
X175769841Y-109245000D01*
X174703712Y-108178872D01*
X174671896Y-108140104D01*
X174517190Y-108013140D01*
X174340687Y-107918798D01*
X174149171Y-107860702D01*
X173999902Y-107846000D01*
X173950000Y-107841085D01*
X173900098Y-107846000D01*
X172866000Y-107846000D01*
X172866000Y-106420271D01*
X172870915Y-106370369D01*
X172867796Y-106338702D01*
X175542903Y-106338702D01*
X175614486Y-106582671D01*
X175869996Y-106703571D01*
X176144184Y-106772300D01*
X176426512Y-106786217D01*
X176706130Y-106744787D01*
X176972292Y-106649603D01*
X177097514Y-106582671D01*
X177169097Y-106338702D01*
X176356000Y-105525605D01*
X175542903Y-106338702D01*
X172867796Y-106338702D01*
X172859332Y-106252771D01*
X172857240Y-106231527D01*
X173029932Y-106021101D01*
X173163182Y-105771808D01*
X173245236Y-105501309D01*
X173253587Y-105416512D01*
X174915783Y-105416512D01*
X174957213Y-105696130D01*
X175052397Y-105962292D01*
X175119329Y-106087514D01*
X175363298Y-106159097D01*
X176176395Y-105346000D01*
X175363298Y-104532903D01*
X175119329Y-104604486D01*
X174998429Y-104859996D01*
X174929700Y-105134184D01*
X174915783Y-105416512D01*
X173253587Y-105416512D01*
X173272943Y-105220000D01*
X173245236Y-104938691D01*
X173163182Y-104668192D01*
X173029932Y-104418899D01*
X172976095Y-104353298D01*
X175542903Y-104353298D01*
X176356000Y-105166395D01*
X177169097Y-104353298D01*
X177097514Y-104109329D01*
X176842004Y-103988429D01*
X176567816Y-103919700D01*
X176285488Y-103905783D01*
X176005870Y-103947213D01*
X175739708Y-104042397D01*
X175614486Y-104109329D01*
X175542903Y-104353298D01*
X172976095Y-104353298D01*
X172850608Y-104200392D01*
X172632101Y-104021068D01*
X172382808Y-103887818D01*
X172112309Y-103805764D01*
X171901492Y-103785000D01*
X171760508Y-103785000D01*
X171549691Y-103805764D01*
X171279192Y-103887818D01*
X171029899Y-104021068D01*
X170811392Y-104200392D01*
X170632068Y-104418899D01*
X170498818Y-104668192D01*
X170416764Y-104938691D01*
X170389057Y-105220000D01*
X170416764Y-105501309D01*
X170498818Y-105771808D01*
X170632068Y-106021101D01*
X170811392Y-106239608D01*
X170815001Y-106242570D01*
X170815001Y-106301459D01*
X170810085Y-106351370D01*
X170829702Y-106550540D01*
X170834000Y-106564709D01*
X170834001Y-107846000D01*
X166147738Y-107846000D01*
X166025902Y-107834000D01*
X165976000Y-107829085D01*
X165926098Y-107834000D01*
X164599901Y-107834000D01*
X164549999Y-107829085D01*
X164428164Y-107841085D01*
X164350829Y-107848702D01*
X164159313Y-107906798D01*
X163982810Y-108001140D01*
X163828104Y-108128104D01*
X163796292Y-108166867D01*
X160729160Y-111234000D01*
X159008902Y-111234000D01*
X158959000Y-111229085D01*
X158909098Y-111234000D01*
X158759829Y-111248702D01*
X158568313Y-111306798D01*
X158391810Y-111401140D01*
X158237104Y-111528104D01*
X158205293Y-111566866D01*
X155573160Y-114199000D01*
X155433665Y-114199000D01*
X155156426Y-114254147D01*
X154895273Y-114362320D01*
X154660241Y-114519363D01*
X154460363Y-114719241D01*
X154303320Y-114954273D01*
X154195147Y-115215426D01*
X154140000Y-115492665D01*
X154140000Y-115775335D01*
X154195147Y-116052574D01*
X154303320Y-116313727D01*
X154460363Y-116548759D01*
X154660241Y-116748637D01*
X154895273Y-116905680D01*
X155156426Y-117013853D01*
X155433665Y-117069000D01*
X155716335Y-117069000D01*
X155993574Y-117013853D01*
X156254727Y-116905680D01*
X156489759Y-116748637D01*
X156611694Y-116626702D01*
X159761903Y-116626702D01*
X159833486Y-116870671D01*
X160088996Y-116991571D01*
X160363184Y-117060300D01*
X160645512Y-117074217D01*
X160925130Y-117032787D01*
X161191292Y-116937603D01*
X161316514Y-116870671D01*
X161388097Y-116626702D01*
X160575000Y-115813605D01*
X159761903Y-116626702D01*
X156611694Y-116626702D01*
X156689637Y-116548759D01*
X156846680Y-116313727D01*
X156954853Y-116052574D01*
X157010000Y-115775335D01*
X157010000Y-115704512D01*
X159134783Y-115704512D01*
X159176213Y-115984130D01*
X159271397Y-116250292D01*
X159338329Y-116375514D01*
X159582298Y-116447097D01*
X160395395Y-115634000D01*
X160754605Y-115634000D01*
X161567702Y-116447097D01*
X161811671Y-116375514D01*
X161932571Y-116120004D01*
X162001300Y-115845816D01*
X162015217Y-115563488D01*
X161973787Y-115283870D01*
X161878603Y-115017708D01*
X161811671Y-114892486D01*
X161567702Y-114820903D01*
X160754605Y-115634000D01*
X160395395Y-115634000D01*
X159582298Y-114820903D01*
X159338329Y-114892486D01*
X159217429Y-115147996D01*
X159148700Y-115422184D01*
X159134783Y-115704512D01*
X157010000Y-115704512D01*
X157010000Y-115635840D01*
X158004542Y-114641298D01*
X159761903Y-114641298D01*
X160575000Y-115454395D01*
X161388097Y-114641298D01*
X161316514Y-114397329D01*
X161061004Y-114276429D01*
X160786816Y-114207700D01*
X160504488Y-114193783D01*
X160224870Y-114235213D01*
X159958708Y-114330397D01*
X159833486Y-114397329D01*
X159761903Y-114641298D01*
X158004542Y-114641298D01*
X159379841Y-113266000D01*
X161100098Y-113266000D01*
X161150000Y-113270915D01*
X161199902Y-113266000D01*
X161349171Y-113251298D01*
X161540687Y-113193202D01*
X161717190Y-113098860D01*
X161871896Y-112971896D01*
X161903712Y-112933128D01*
X164970841Y-109866000D01*
X165816262Y-109866000D01*
X165938098Y-109878000D01*
X165988000Y-109882915D01*
X166037902Y-109878000D01*
X169313296Y-109878000D01*
X169066273Y-109980320D01*
X168831241Y-110137363D01*
X168631363Y-110337241D01*
X168474320Y-110572273D01*
X168366147Y-110833426D01*
X168311000Y-111110665D01*
X168311000Y-111393335D01*
X168366147Y-111670574D01*
X168474320Y-111931727D01*
X168631363Y-112166759D01*
X168831241Y-112366637D01*
X169066273Y-112523680D01*
X169327426Y-112631853D01*
X169604665Y-112687000D01*
X169744159Y-112687000D01*
X169792291Y-112735132D01*
X169824103Y-112773895D01*
X169896331Y-112833171D01*
X174650292Y-117587133D01*
X174682104Y-117625896D01*
X174828845Y-117746323D01*
X174836810Y-117752860D01*
X175013313Y-117847202D01*
X175204829Y-117905298D01*
X175234001Y-117908171D01*
X175234000Y-122700098D01*
X175229085Y-122750000D01*
X175240655Y-122867470D01*
X175248702Y-122949170D01*
X175306798Y-123140686D01*
X175401140Y-123317190D01*
X175528104Y-123471896D01*
X175566872Y-123503712D01*
X176135660Y-124072501D01*
X176104815Y-124097815D01*
X176025463Y-124194506D01*
X175966498Y-124304820D01*
X175957950Y-124333000D01*
X175800893Y-124333000D01*
X175750999Y-124328086D01*
X175701105Y-124333000D01*
X175701098Y-124333000D01*
X175551829Y-124347702D01*
X175360313Y-124405798D01*
X175183810Y-124500140D01*
X175029104Y-124627104D01*
X174997292Y-124665867D01*
X172116872Y-127546288D01*
X172078104Y-127578104D01*
X171951140Y-127732810D01*
X171856798Y-127909314D01*
X171818892Y-128034273D01*
X171798702Y-128100830D01*
X171779085Y-128300000D01*
X171784000Y-128349902D01*
X171784001Y-133429158D01*
X170582894Y-134630266D01*
X170544537Y-134558506D01*
X170465185Y-134461815D01*
X170368494Y-134382463D01*
X170258180Y-134323498D01*
X170138482Y-134287188D01*
X170014000Y-134274928D01*
X168314000Y-134274928D01*
X168189518Y-134287188D01*
X168069820Y-134323498D01*
X167959506Y-134382463D01*
X167862815Y-134461815D01*
X167783463Y-134558506D01*
X167724498Y-134668820D01*
X167700034Y-134749466D01*
X167624269Y-134665412D01*
X167390920Y-134491359D01*
X167128099Y-134366175D01*
X166980890Y-134321524D01*
X166751000Y-134442845D01*
X166751000Y-135636000D01*
X166771000Y-135636000D01*
X166771000Y-135890000D01*
X166751000Y-135890000D01*
X166751000Y-135910000D01*
X166497000Y-135910000D01*
X166497000Y-135890000D01*
X166477000Y-135890000D01*
X166477000Y-135636000D01*
X166497000Y-135636000D01*
X166497000Y-134442845D01*
X166267110Y-134321524D01*
X166119901Y-134366175D01*
X165857080Y-134491359D01*
X165623731Y-134665412D01*
X165428822Y-134881645D01*
X165359201Y-134998523D01*
X165324706Y-134933986D01*
X165139134Y-134707866D01*
X165100000Y-134675750D01*
X165100000Y-131362240D01*
X167304634Y-129157607D01*
X167486624Y-129082224D01*
X167672520Y-128958012D01*
X167830612Y-128799920D01*
X167954824Y-128614024D01*
X168040383Y-128407467D01*
X168084000Y-128188188D01*
X168084000Y-127964612D01*
X168040383Y-127745333D01*
X167954824Y-127538776D01*
X167830612Y-127352880D01*
X167672520Y-127194788D01*
X167486624Y-127070576D01*
X167280067Y-126985017D01*
X167194713Y-126968039D01*
X169486096Y-126968039D01*
X169526754Y-127102087D01*
X169646963Y-127356420D01*
X169814481Y-127582414D01*
X170022869Y-127771385D01*
X170264119Y-127916070D01*
X170528960Y-128010909D01*
X170751000Y-127889624D01*
X170751000Y-126746000D01*
X171005000Y-126746000D01*
X171005000Y-127889624D01*
X171227040Y-128010909D01*
X171491881Y-127916070D01*
X171733131Y-127771385D01*
X171941519Y-127582414D01*
X172109037Y-127356420D01*
X172229246Y-127102087D01*
X172269904Y-126968039D01*
X172147915Y-126746000D01*
X171005000Y-126746000D01*
X170751000Y-126746000D01*
X169608085Y-126746000D01*
X169486096Y-126968039D01*
X167194713Y-126968039D01*
X167060788Y-126941400D01*
X166837212Y-126941400D01*
X166617933Y-126985017D01*
X166411376Y-127070576D01*
X166225480Y-127194788D01*
X166067388Y-127352880D01*
X165943176Y-127538776D01*
X165867793Y-127720766D01*
X163400868Y-130187692D01*
X163362105Y-130219504D01*
X163235141Y-130374210D01*
X163170121Y-130495855D01*
X163140799Y-130550713D01*
X163082702Y-130742230D01*
X163063085Y-130941400D01*
X163068001Y-130991312D01*
X163068000Y-134675749D01*
X163028866Y-134707866D01*
X162843294Y-134933986D01*
X162814000Y-134988791D01*
X162784706Y-134933986D01*
X162599134Y-134707866D01*
X162373014Y-134522294D01*
X162115034Y-134384401D01*
X161835111Y-134299487D01*
X161616950Y-134278000D01*
X161471050Y-134278000D01*
X161252889Y-134299487D01*
X160972966Y-134384401D01*
X160714986Y-134522294D01*
X160488866Y-134707866D01*
X160303294Y-134933986D01*
X160274000Y-134988791D01*
X160244706Y-134933986D01*
X160059134Y-134707866D01*
X159833014Y-134522294D01*
X159575034Y-134384401D01*
X159295111Y-134299487D01*
X159076950Y-134278000D01*
X158931050Y-134278000D01*
X158712889Y-134299487D01*
X158432966Y-134384401D01*
X158174986Y-134522294D01*
X157948866Y-134707866D01*
X157763294Y-134933986D01*
X157734000Y-134988791D01*
X157704706Y-134933986D01*
X157519134Y-134707866D01*
X157293014Y-134522294D01*
X157035034Y-134384401D01*
X156755111Y-134299487D01*
X156536950Y-134278000D01*
X156391050Y-134278000D01*
X156172889Y-134299487D01*
X155892966Y-134384401D01*
X155634986Y-134522294D01*
X155408866Y-134707866D01*
X155223294Y-134933986D01*
X155194000Y-134988791D01*
X155164706Y-134933986D01*
X154979134Y-134707866D01*
X154753014Y-134522294D01*
X154495034Y-134384401D01*
X154215111Y-134299487D01*
X153996950Y-134278000D01*
X153851050Y-134278000D01*
X153632889Y-134299487D01*
X153352966Y-134384401D01*
X153094986Y-134522294D01*
X152868866Y-134707866D01*
X152683294Y-134933986D01*
X152654000Y-134988791D01*
X152624706Y-134933986D01*
X152439134Y-134707866D01*
X152213014Y-134522294D01*
X151955034Y-134384401D01*
X151675111Y-134299487D01*
X151456950Y-134278000D01*
X151311050Y-134278000D01*
X151092889Y-134299487D01*
X150812966Y-134384401D01*
X150554986Y-134522294D01*
X150328866Y-134707866D01*
X150143294Y-134933986D01*
X150005401Y-135191966D01*
X149920487Y-135471889D01*
X149891815Y-135763000D01*
X149920487Y-136054111D01*
X150005401Y-136334034D01*
X150143294Y-136592014D01*
X150328866Y-136818134D01*
X150554986Y-137003706D01*
X150563020Y-137008000D01*
X145358445Y-137008000D01*
X146118524Y-136247922D01*
X146162133Y-136212133D01*
X146210100Y-136153686D01*
X146246537Y-136109287D01*
X146304968Y-136038089D01*
X146411103Y-135839523D01*
X146476461Y-135624067D01*
X146493000Y-135456146D01*
X146493000Y-135456139D01*
X146498529Y-135400000D01*
X146493000Y-135343861D01*
X146493000Y-135112587D01*
X146648983Y-135008363D01*
X146946363Y-134710983D01*
X147180012Y-134361302D01*
X147340953Y-133972756D01*
X147423000Y-133560279D01*
X147423000Y-133139721D01*
X147340953Y-132727244D01*
X147180012Y-132338698D01*
X146946363Y-131989017D01*
X146648983Y-131691637D01*
X146431000Y-131545986D01*
X146431000Y-130494139D01*
X146436529Y-130438000D01*
X146431000Y-130381861D01*
X146431000Y-130381854D01*
X146423205Y-130302702D01*
X153554903Y-130302702D01*
X153626486Y-130546671D01*
X153881996Y-130667571D01*
X154156184Y-130736300D01*
X154438512Y-130750217D01*
X154718130Y-130708787D01*
X154984292Y-130613603D01*
X155109514Y-130546671D01*
X155181097Y-130302702D01*
X154368000Y-129489605D01*
X153554903Y-130302702D01*
X146423205Y-130302702D01*
X146414461Y-130213933D01*
X146414461Y-130213932D01*
X146349103Y-129998476D01*
X146303902Y-129913911D01*
X146242968Y-129799911D01*
X146100133Y-129625867D01*
X146056524Y-129590078D01*
X145846958Y-129380512D01*
X152927783Y-129380512D01*
X152969213Y-129660130D01*
X153064397Y-129926292D01*
X153131329Y-130051514D01*
X153375298Y-130123097D01*
X154188395Y-129310000D01*
X154547605Y-129310000D01*
X155360702Y-130123097D01*
X155604671Y-130051514D01*
X155725571Y-129796004D01*
X155794300Y-129521816D01*
X155808217Y-129239488D01*
X155766787Y-128959870D01*
X155671603Y-128693708D01*
X155604671Y-128568486D01*
X155360702Y-128496903D01*
X154547605Y-129310000D01*
X154188395Y-129310000D01*
X153375298Y-128496903D01*
X153131329Y-128568486D01*
X153010429Y-128823996D01*
X152941700Y-129098184D01*
X152927783Y-129380512D01*
X145846958Y-129380512D01*
X145247927Y-128781482D01*
X145212133Y-128737867D01*
X145038089Y-128595032D01*
X144839523Y-128488897D01*
X144624067Y-128423539D01*
X144456146Y-128407000D01*
X144456139Y-128407000D01*
X144400000Y-128401471D01*
X144343861Y-128407000D01*
X141707446Y-128407000D01*
X140335000Y-127034555D01*
X140335000Y-126010000D01*
X152929928Y-126010000D01*
X152929928Y-127610000D01*
X152942188Y-127734482D01*
X152978498Y-127854180D01*
X153037463Y-127964494D01*
X153116815Y-128061185D01*
X153213506Y-128140537D01*
X153323820Y-128199502D01*
X153443518Y-128235812D01*
X153568000Y-128248072D01*
X153575215Y-128248072D01*
X153554903Y-128317298D01*
X154368000Y-129130395D01*
X155181097Y-128317298D01*
X155160785Y-128248072D01*
X155168000Y-128248072D01*
X155292482Y-128235812D01*
X155412180Y-128199502D01*
X155522494Y-128140537D01*
X155619185Y-128061185D01*
X155698537Y-127964494D01*
X155757502Y-127854180D01*
X155766050Y-127826000D01*
X155880098Y-127826000D01*
X155930000Y-127830915D01*
X155979902Y-127826000D01*
X156129171Y-127811298D01*
X156320687Y-127753202D01*
X156497190Y-127658860D01*
X156651896Y-127531896D01*
X156683712Y-127493128D01*
X157699175Y-126477665D01*
X161823000Y-126477665D01*
X161823000Y-126760335D01*
X161878147Y-127037574D01*
X161986320Y-127298727D01*
X162143363Y-127533759D01*
X162343241Y-127733637D01*
X162578273Y-127890680D01*
X162839426Y-127998853D01*
X163116665Y-128054000D01*
X163399335Y-128054000D01*
X163676574Y-127998853D01*
X163937727Y-127890680D01*
X164172759Y-127733637D01*
X164372637Y-127533759D01*
X164529680Y-127298727D01*
X164637853Y-127037574D01*
X164693000Y-126760335D01*
X164693000Y-126477665D01*
X164651685Y-126269961D01*
X169486096Y-126269961D01*
X169608085Y-126492000D01*
X170751000Y-126492000D01*
X170751000Y-125348376D01*
X171005000Y-125348376D01*
X171005000Y-126492000D01*
X172147915Y-126492000D01*
X172269904Y-126269961D01*
X172229246Y-126135913D01*
X172109037Y-125881580D01*
X171941519Y-125655586D01*
X171733131Y-125466615D01*
X171491881Y-125321930D01*
X171227040Y-125227091D01*
X171005000Y-125348376D01*
X170751000Y-125348376D01*
X170528960Y-125227091D01*
X170264119Y-125321930D01*
X170022869Y-125466615D01*
X169814481Y-125655586D01*
X169646963Y-125881580D01*
X169526754Y-126135913D01*
X169486096Y-126269961D01*
X164651685Y-126269961D01*
X164637853Y-126200426D01*
X164529680Y-125939273D01*
X164372637Y-125704241D01*
X164172759Y-125504363D01*
X163937727Y-125347320D01*
X163676574Y-125239147D01*
X163399335Y-125184000D01*
X163116665Y-125184000D01*
X162839426Y-125239147D01*
X162578273Y-125347320D01*
X162343241Y-125504363D01*
X162143363Y-125704241D01*
X161986320Y-125939273D01*
X161878147Y-126200426D01*
X161823000Y-126477665D01*
X157699175Y-126477665D01*
X159033133Y-125143708D01*
X159071896Y-125111896D01*
X159198860Y-124957190D01*
X159293202Y-124780687D01*
X159351298Y-124589171D01*
X159366000Y-124439902D01*
X159366000Y-124439901D01*
X159370915Y-124390000D01*
X159366000Y-124340098D01*
X159366000Y-121872122D01*
X161505825Y-121872122D01*
X161570425Y-122085094D01*
X161720469Y-122390329D01*
X161927178Y-122660427D01*
X162182609Y-122885008D01*
X162476946Y-123055442D01*
X162798877Y-123165179D01*
X163068000Y-123047600D01*
X163068000Y-121603000D01*
X163322000Y-121603000D01*
X163322000Y-123047600D01*
X163591123Y-123165179D01*
X163913054Y-123055442D01*
X164207391Y-122885008D01*
X164462822Y-122660427D01*
X164669531Y-122390329D01*
X164819575Y-122085094D01*
X164884175Y-121872122D01*
X164766125Y-121603000D01*
X163322000Y-121603000D01*
X163068000Y-121603000D01*
X161623875Y-121603000D01*
X161505825Y-121872122D01*
X159366000Y-121872122D01*
X159366000Y-121520840D01*
X160998841Y-119888000D01*
X162502052Y-119888000D01*
X162476946Y-119896558D01*
X162182609Y-120066992D01*
X161927178Y-120291573D01*
X161720469Y-120561671D01*
X161570425Y-120866906D01*
X161505825Y-121079878D01*
X161623875Y-121349000D01*
X163068000Y-121349000D01*
X163068000Y-121329000D01*
X163322000Y-121329000D01*
X163322000Y-121349000D01*
X164766125Y-121349000D01*
X164884175Y-121079878D01*
X164819575Y-120866906D01*
X164669531Y-120561671D01*
X164462822Y-120291573D01*
X164207391Y-120066992D01*
X163913054Y-119896558D01*
X163887948Y-119888000D01*
X168723431Y-119888000D01*
X168726392Y-119891608D01*
X168944899Y-120070932D01*
X169194192Y-120204182D01*
X169464691Y-120286236D01*
X169675508Y-120307000D01*
X169816492Y-120307000D01*
X170027309Y-120286236D01*
X170297808Y-120204182D01*
X170547101Y-120070932D01*
X170765608Y-119891608D01*
X170944932Y-119673101D01*
X171078182Y-119423808D01*
X171160236Y-119153309D01*
X171187943Y-118872000D01*
X171160236Y-118590691D01*
X171078182Y-118320192D01*
X170944932Y-118070899D01*
X170765608Y-117852392D01*
X170547101Y-117673068D01*
X170297808Y-117539818D01*
X170027309Y-117457764D01*
X169816492Y-117437000D01*
X169675508Y-117437000D01*
X169464691Y-117457764D01*
X169194192Y-117539818D01*
X168944899Y-117673068D01*
X168726392Y-117852392D01*
X168723431Y-117856000D01*
X160627902Y-117856000D01*
X160578000Y-117851085D01*
X160528098Y-117856000D01*
X160378829Y-117870702D01*
X160187313Y-117928798D01*
X160010810Y-118023140D01*
X159856104Y-118150104D01*
X159824292Y-118188867D01*
X157666868Y-120346292D01*
X157628105Y-120378104D01*
X157501141Y-120532810D01*
X157474299Y-120583029D01*
X157406799Y-120709313D01*
X157348702Y-120900830D01*
X157329085Y-121100000D01*
X157334001Y-121149911D01*
X157334000Y-123969159D01*
X155675601Y-125627559D01*
X155619185Y-125558815D01*
X155522494Y-125479463D01*
X155412180Y-125420498D01*
X155292482Y-125384188D01*
X155168000Y-125371928D01*
X153568000Y-125371928D01*
X153443518Y-125384188D01*
X153323820Y-125420498D01*
X153213506Y-125479463D01*
X153116815Y-125558815D01*
X153037463Y-125655506D01*
X152978498Y-125765820D01*
X152942188Y-125885518D01*
X152929928Y-126010000D01*
X140335000Y-126010000D01*
X140335000Y-124819912D01*
X140430005Y-124677727D01*
X140462000Y-124600485D01*
X140493995Y-124677727D01*
X140646880Y-124906535D01*
X140841465Y-125101120D01*
X141070273Y-125254005D01*
X141324510Y-125359314D01*
X141594408Y-125413000D01*
X141869592Y-125413000D01*
X142139490Y-125359314D01*
X142393727Y-125254005D01*
X142622535Y-125101120D01*
X142817120Y-124906535D01*
X142970005Y-124677727D01*
X142980309Y-124652851D01*
X143050104Y-124737896D01*
X143103454Y-124781679D01*
X143186880Y-124906535D01*
X143381465Y-125101120D01*
X143610273Y-125254005D01*
X143864510Y-125359314D01*
X144134408Y-125413000D01*
X144409592Y-125413000D01*
X144679490Y-125359314D01*
X144933727Y-125254005D01*
X145162535Y-125101120D01*
X145282090Y-124981565D01*
X146026040Y-124981565D01*
X146093020Y-125221656D01*
X146342048Y-125338756D01*
X146609135Y-125405023D01*
X146884017Y-125417910D01*
X147156133Y-125376922D01*
X147415023Y-125283636D01*
X147530980Y-125221656D01*
X147597960Y-124981565D01*
X146812000Y-124195605D01*
X146026040Y-124981565D01*
X145282090Y-124981565D01*
X145357120Y-124906535D01*
X145510005Y-124677727D01*
X145539692Y-124606057D01*
X145544364Y-124619023D01*
X145606344Y-124734980D01*
X145846435Y-124801960D01*
X146632395Y-124016000D01*
X146991605Y-124016000D01*
X147777565Y-124801960D01*
X148017656Y-124734980D01*
X148134756Y-124485952D01*
X148201023Y-124218865D01*
X148213910Y-123943983D01*
X148172922Y-123671867D01*
X148079636Y-123412977D01*
X148017656Y-123297020D01*
X147777565Y-123230040D01*
X146991605Y-124016000D01*
X146632395Y-124016000D01*
X145846435Y-123230040D01*
X145606344Y-123297020D01*
X145542515Y-123432760D01*
X145510005Y-123354273D01*
X145415000Y-123212088D01*
X145415000Y-123050435D01*
X146026040Y-123050435D01*
X146812000Y-123836395D01*
X147597960Y-123050435D01*
X147530980Y-122810344D01*
X147281952Y-122693244D01*
X147014865Y-122626977D01*
X146739983Y-122614090D01*
X146467867Y-122655078D01*
X146208977Y-122748364D01*
X146093020Y-122810344D01*
X146026040Y-123050435D01*
X145415000Y-123050435D01*
X145415000Y-121628139D01*
X145420529Y-121572000D01*
X145415000Y-121515861D01*
X145415000Y-121515854D01*
X145398461Y-121347933D01*
X145383015Y-121297015D01*
X145333103Y-121132476D01*
X145273139Y-121020292D01*
X145226968Y-120933911D01*
X145084133Y-120759867D01*
X145040524Y-120724078D01*
X135297928Y-110981483D01*
X135262133Y-110937867D01*
X135088089Y-110795032D01*
X134889523Y-110688897D01*
X134674067Y-110623539D01*
X134506146Y-110607000D01*
X134506139Y-110607000D01*
X134450000Y-110601471D01*
X134393861Y-110607000D01*
X132162139Y-110607000D01*
X132106000Y-110601471D01*
X132049861Y-110607000D01*
X132049854Y-110607000D01*
X131881933Y-110623539D01*
X131771627Y-110657000D01*
X128873446Y-110657000D01*
X127293000Y-109076555D01*
X127293000Y-104223445D01*
X128823446Y-102693000D01*
X135543854Y-102693000D01*
X135600000Y-102698530D01*
X135656146Y-102693000D01*
X144495861Y-102693000D01*
X144552000Y-102698529D01*
X144608139Y-102693000D01*
X144608146Y-102693000D01*
X144776067Y-102676461D01*
X144880181Y-102644878D01*
X141670060Y-105855000D01*
X141594408Y-105855000D01*
X141324510Y-105908686D01*
X141070273Y-106013995D01*
X140841465Y-106166880D01*
X140646880Y-106361465D01*
X140493995Y-106590273D01*
X140462000Y-106667515D01*
X140430005Y-106590273D01*
X140277120Y-106361465D01*
X140082535Y-106166880D01*
X139853727Y-106013995D01*
X139599490Y-105908686D01*
X139329592Y-105855000D01*
X139054408Y-105855000D01*
X138784510Y-105908686D01*
X138530273Y-106013995D01*
X138301465Y-106166880D01*
X138106880Y-106361465D01*
X137953995Y-106590273D01*
X137922000Y-106667515D01*
X137890005Y-106590273D01*
X137737120Y-106361465D01*
X137542535Y-106166880D01*
X137313727Y-106013995D01*
X137059490Y-105908686D01*
X136789592Y-105855000D01*
X136514408Y-105855000D01*
X136244510Y-105908686D01*
X135990273Y-106013995D01*
X135761465Y-106166880D01*
X135566880Y-106361465D01*
X135413995Y-106590273D01*
X135382000Y-106667515D01*
X135350005Y-106590273D01*
X135197120Y-106361465D01*
X135002535Y-106166880D01*
X134773727Y-106013995D01*
X134519490Y-105908686D01*
X134249592Y-105855000D01*
X133974408Y-105855000D01*
X133704510Y-105908686D01*
X133450273Y-106013995D01*
X133221465Y-106166880D01*
X133026880Y-106361465D01*
X132873995Y-106590273D01*
X132842000Y-106667515D01*
X132810005Y-106590273D01*
X132657120Y-106361465D01*
X132462535Y-106166880D01*
X132233727Y-106013995D01*
X131979490Y-105908686D01*
X131709592Y-105855000D01*
X131434408Y-105855000D01*
X131164510Y-105908686D01*
X130910273Y-106013995D01*
X130681465Y-106166880D01*
X130486880Y-106361465D01*
X130333995Y-106590273D01*
X130302000Y-106667515D01*
X130270005Y-106590273D01*
X130117120Y-106361465D01*
X129922535Y-106166880D01*
X129693727Y-106013995D01*
X129439490Y-105908686D01*
X129169592Y-105855000D01*
X128894408Y-105855000D01*
X128624510Y-105908686D01*
X128370273Y-106013995D01*
X128141465Y-106166880D01*
X127946880Y-106361465D01*
X127793995Y-106590273D01*
X127688686Y-106844510D01*
X127635000Y-107114408D01*
X127635000Y-107389592D01*
X127688686Y-107659490D01*
X127793995Y-107913727D01*
X127946880Y-108142535D01*
X128141465Y-108337120D01*
X128370273Y-108490005D01*
X128624510Y-108595314D01*
X128894408Y-108649000D01*
X129169592Y-108649000D01*
X129439490Y-108595314D01*
X129693727Y-108490005D01*
X129922535Y-108337120D01*
X130117120Y-108142535D01*
X130270005Y-107913727D01*
X130302000Y-107836485D01*
X130333995Y-107913727D01*
X130486880Y-108142535D01*
X130681465Y-108337120D01*
X130910273Y-108490005D01*
X131164510Y-108595314D01*
X131434408Y-108649000D01*
X131709592Y-108649000D01*
X131979490Y-108595314D01*
X132233727Y-108490005D01*
X132462535Y-108337120D01*
X132657120Y-108142535D01*
X132810005Y-107913727D01*
X132842000Y-107836485D01*
X132873995Y-107913727D01*
X133026880Y-108142535D01*
X133221465Y-108337120D01*
X133450273Y-108490005D01*
X133704510Y-108595314D01*
X133974408Y-108649000D01*
X134072160Y-108649000D01*
X138932292Y-113509133D01*
X138964104Y-113547896D01*
X139118810Y-113674860D01*
X139295313Y-113769202D01*
X139428732Y-113809674D01*
X139486828Y-113827298D01*
X139506177Y-113829204D01*
X139636098Y-113842000D01*
X139636105Y-113842000D01*
X139685999Y-113846914D01*
X139735893Y-113842000D01*
X145471743Y-113842000D01*
X145653733Y-113917383D01*
X145873012Y-113961000D01*
X146096588Y-113961000D01*
X146315867Y-113917383D01*
X146522424Y-113831824D01*
X146708320Y-113707612D01*
X146866412Y-113549520D01*
X146990624Y-113363624D01*
X147076183Y-113157067D01*
X147119800Y-112937788D01*
X147119800Y-112714212D01*
X147076183Y-112494933D01*
X146990624Y-112288376D01*
X146866412Y-112102480D01*
X146708320Y-111944388D01*
X146522424Y-111820176D01*
X146315867Y-111734617D01*
X146096588Y-111691000D01*
X145873012Y-111691000D01*
X145653733Y-111734617D01*
X145471743Y-111810000D01*
X140106841Y-111810000D01*
X136919917Y-108623077D01*
X137059490Y-108595314D01*
X137313727Y-108490005D01*
X137542535Y-108337120D01*
X137737120Y-108142535D01*
X137890005Y-107913727D01*
X137922000Y-107836485D01*
X137953995Y-107913727D01*
X138106880Y-108142535D01*
X138301465Y-108337120D01*
X138530273Y-108490005D01*
X138784510Y-108595314D01*
X139054408Y-108649000D01*
X139329592Y-108649000D01*
X139599490Y-108595314D01*
X139853727Y-108490005D01*
X140082535Y-108337120D01*
X140277120Y-108142535D01*
X140430005Y-107913727D01*
X140462000Y-107836485D01*
X140493995Y-107913727D01*
X140646880Y-108142535D01*
X140841465Y-108337120D01*
X141070273Y-108490005D01*
X141324510Y-108595314D01*
X141594408Y-108649000D01*
X141869592Y-108649000D01*
X142139490Y-108595314D01*
X142393727Y-108490005D01*
X142622535Y-108337120D01*
X142817120Y-108142535D01*
X142970005Y-107913727D01*
X143002000Y-107836485D01*
X143033995Y-107913727D01*
X143186880Y-108142535D01*
X143381465Y-108337120D01*
X143610273Y-108490005D01*
X143864510Y-108595314D01*
X144134408Y-108649000D01*
X144409592Y-108649000D01*
X144679490Y-108595314D01*
X144933727Y-108490005D01*
X145162535Y-108337120D01*
X145282090Y-108217565D01*
X146026040Y-108217565D01*
X146093020Y-108457656D01*
X146342048Y-108574756D01*
X146609135Y-108641023D01*
X146884017Y-108653910D01*
X147156133Y-108612922D01*
X147415023Y-108519636D01*
X147530980Y-108457656D01*
X147597960Y-108217565D01*
X146812000Y-107431605D01*
X146026040Y-108217565D01*
X145282090Y-108217565D01*
X145357120Y-108142535D01*
X145510005Y-107913727D01*
X145539692Y-107842057D01*
X145544364Y-107855023D01*
X145606344Y-107970980D01*
X145846435Y-108037960D01*
X146632395Y-107252000D01*
X146991605Y-107252000D01*
X147777565Y-108037960D01*
X148017656Y-107970980D01*
X148134756Y-107721952D01*
X148201023Y-107454865D01*
X148213910Y-107179983D01*
X148172922Y-106907867D01*
X148079636Y-106648977D01*
X148017656Y-106533020D01*
X147777565Y-106466040D01*
X146991605Y-107252000D01*
X146632395Y-107252000D01*
X146618253Y-107237858D01*
X146797858Y-107058253D01*
X146812000Y-107072395D01*
X147597960Y-106286435D01*
X147530980Y-106046344D01*
X147281952Y-105929244D01*
X147014865Y-105862977D01*
X146922585Y-105858651D01*
X147681236Y-105100000D01*
X149015277Y-105100000D01*
X149020501Y-105153039D01*
X149020500Y-108796971D01*
X149015277Y-108850000D01*
X149020500Y-108903028D01*
X149020500Y-111003028D01*
X149020501Y-111003038D01*
X149020500Y-113753028D01*
X149020501Y-113753038D01*
X149020500Y-120476971D01*
X149015277Y-120530000D01*
X149020500Y-120583028D01*
X149036120Y-120741618D01*
X149097847Y-120945105D01*
X149198086Y-121132640D01*
X149332985Y-121297015D01*
X149374184Y-121330826D01*
X150245178Y-122201820D01*
X150278985Y-122243015D01*
X150443360Y-122377914D01*
X150630894Y-122478153D01*
X150834381Y-122539880D01*
X150992971Y-122555500D01*
X150992978Y-122555500D01*
X151045999Y-122560722D01*
X151099021Y-122555500D01*
X151296928Y-122555500D01*
X151296928Y-122576000D01*
X151309188Y-122700482D01*
X151345498Y-122820180D01*
X151404463Y-122930494D01*
X151483815Y-123027185D01*
X151580506Y-123106537D01*
X151690820Y-123165502D01*
X151810518Y-123201812D01*
X151935000Y-123214072D01*
X154135000Y-123214072D01*
X154259482Y-123201812D01*
X154379180Y-123165502D01*
X154489494Y-123106537D01*
X154586185Y-123027185D01*
X154665537Y-122930494D01*
X154724502Y-122820180D01*
X154760812Y-122700482D01*
X154773072Y-122576000D01*
X154773072Y-120376000D01*
X154760812Y-120251518D01*
X154724502Y-120131820D01*
X154665537Y-120021506D01*
X154586185Y-119924815D01*
X154489494Y-119845463D01*
X154379180Y-119786498D01*
X154259482Y-119750188D01*
X154135000Y-119737928D01*
X151935000Y-119737928D01*
X151810518Y-119750188D01*
X151690820Y-119786498D01*
X151580506Y-119845463D01*
X151483815Y-119924815D01*
X151404463Y-120021506D01*
X151345498Y-120131820D01*
X151318259Y-120221616D01*
X151179500Y-120082858D01*
X151179500Y-110039340D01*
X151273341Y-109945500D01*
X152812258Y-109945500D01*
X152816688Y-109990482D01*
X152852998Y-110110180D01*
X152911963Y-110220494D01*
X152991315Y-110317185D01*
X153088006Y-110396537D01*
X153198320Y-110455502D01*
X153318018Y-110491812D01*
X153442500Y-110504072D01*
X155347500Y-110504072D01*
X155471982Y-110491812D01*
X155591680Y-110455502D01*
X155701994Y-110396537D01*
X155798685Y-110317185D01*
X155878037Y-110220494D01*
X155927059Y-110128781D01*
X156068077Y-110241969D01*
X156343906Y-110385571D01*
X156562020Y-110456563D01*
X156808000Y-110336594D01*
X156808000Y-108993000D01*
X156788000Y-108993000D01*
X156788000Y-108739000D01*
X156808000Y-108739000D01*
X156808000Y-107395406D01*
X157062000Y-107395406D01*
X157062000Y-108739000D01*
X157082000Y-108739000D01*
X157082000Y-108993000D01*
X157062000Y-108993000D01*
X157062000Y-110336594D01*
X157307980Y-110456563D01*
X157526094Y-110385571D01*
X157801923Y-110241969D01*
X158044437Y-110047315D01*
X158199837Y-109862101D01*
X158347037Y-110041463D01*
X158588766Y-110239845D01*
X158864552Y-110387255D01*
X159163797Y-110478030D01*
X159475000Y-110508681D01*
X159786204Y-110478030D01*
X160085449Y-110387255D01*
X160361235Y-110239845D01*
X160602963Y-110041463D01*
X160801345Y-109799734D01*
X160948755Y-109523948D01*
X161039530Y-109224703D01*
X161062500Y-108991485D01*
X161062500Y-108740514D01*
X161039530Y-108507296D01*
X160948755Y-108208051D01*
X160801345Y-107932265D01*
X160602963Y-107690537D01*
X160361234Y-107492155D01*
X160085448Y-107344745D01*
X159786203Y-107253970D01*
X159475000Y-107223319D01*
X159163796Y-107253970D01*
X158864551Y-107344745D01*
X158588765Y-107492155D01*
X158347037Y-107690537D01*
X158199838Y-107869900D01*
X158044437Y-107684685D01*
X157801923Y-107490031D01*
X157526094Y-107346429D01*
X157307980Y-107275437D01*
X157062000Y-107395406D01*
X156808000Y-107395406D01*
X156562020Y-107275437D01*
X156343906Y-107346429D01*
X156068077Y-107490031D01*
X155927059Y-107603219D01*
X155878037Y-107511506D01*
X155798685Y-107414815D01*
X155701994Y-107335463D01*
X155591680Y-107276498D01*
X155474500Y-107240952D01*
X155474500Y-106483876D01*
X155492758Y-106423687D01*
X155553446Y-106363000D01*
X165878689Y-106363000D01*
X166071273Y-106491680D01*
X166332426Y-106599853D01*
X166609665Y-106655000D01*
X166892335Y-106655000D01*
X167169574Y-106599853D01*
X167430727Y-106491680D01*
X167665759Y-106334637D01*
X167865637Y-106134759D01*
X168022680Y-105899727D01*
X168130853Y-105638574D01*
X168186000Y-105361335D01*
X168186000Y-105078665D01*
X168130853Y-104801426D01*
X168022680Y-104540273D01*
X167865637Y-104305241D01*
X167665759Y-104105363D01*
X167430727Y-103948320D01*
X167169574Y-103840147D01*
X166892335Y-103785000D01*
X166609665Y-103785000D01*
X166332426Y-103840147D01*
X166071273Y-103948320D01*
X165878689Y-104077000D01*
X160903643Y-104077000D01*
X160559500Y-103732858D01*
X160559500Y-102933029D01*
X160564723Y-102880000D01*
X160559500Y-102826971D01*
X160559500Y-100364021D01*
X160564722Y-100310999D01*
X160559500Y-100257978D01*
X160559500Y-100257971D01*
X160554500Y-100207206D01*
X160554500Y-100055072D01*
X160975000Y-100055072D01*
X161099482Y-100042812D01*
X161219180Y-100006502D01*
X161329494Y-99947537D01*
X161426185Y-99868185D01*
X161505537Y-99771494D01*
X161564502Y-99661180D01*
X161600812Y-99541482D01*
X161613072Y-99417000D01*
X161613072Y-96887602D01*
X169624003Y-96887602D01*
X169740275Y-97169389D01*
X170058860Y-97327257D01*
X170402122Y-97419938D01*
X170756869Y-97443873D01*
X171109470Y-97398139D01*
X171446373Y-97284495D01*
X171661725Y-97169389D01*
X171777997Y-96887602D01*
X170701000Y-95810605D01*
X169624003Y-96887602D01*
X161613072Y-96887602D01*
X161613072Y-96417000D01*
X161600812Y-96292518D01*
X161564502Y-96172820D01*
X161505537Y-96062506D01*
X161426185Y-95965815D01*
X161329494Y-95886463D01*
X161219180Y-95827498D01*
X161099482Y-95791188D01*
X160975000Y-95778928D01*
X157975000Y-95778928D01*
X157850518Y-95791188D01*
X157730820Y-95827498D01*
X157620506Y-95886463D01*
X157523815Y-95965815D01*
X157444463Y-96062506D01*
X157385498Y-96172820D01*
X157349188Y-96292518D01*
X157336928Y-96417000D01*
X157336928Y-99417000D01*
X157349188Y-99541482D01*
X157385498Y-99661180D01*
X157444463Y-99771494D01*
X157523815Y-99868185D01*
X157620506Y-99947537D01*
X157730820Y-100006502D01*
X157850518Y-100042812D01*
X157975000Y-100055072D01*
X158395501Y-100055072D01*
X158395501Y-100252961D01*
X158390277Y-100306000D01*
X158400500Y-100409794D01*
X158400501Y-101800500D01*
X154483021Y-101800500D01*
X154429999Y-101795278D01*
X154376978Y-101800500D01*
X152373021Y-101800500D01*
X152319999Y-101795278D01*
X152266978Y-101800500D01*
X152266971Y-101800500D01*
X152108381Y-101816120D01*
X151904894Y-101877847D01*
X151717360Y-101978086D01*
X151552985Y-102112985D01*
X151519178Y-102154179D01*
X149374180Y-104299178D01*
X149332986Y-104332985D01*
X149198087Y-104497360D01*
X149105418Y-104670731D01*
X149097847Y-104684896D01*
X149036120Y-104888382D01*
X149015277Y-105100000D01*
X147681236Y-105100000D01*
X150847742Y-101933494D01*
X150881659Y-101905659D01*
X150992753Y-101770291D01*
X151075303Y-101615851D01*
X151113176Y-101490998D01*
X151126136Y-101448275D01*
X151130308Y-101405915D01*
X151139000Y-101317667D01*
X151139000Y-101317660D01*
X151143300Y-101274000D01*
X151139000Y-101230340D01*
X151139000Y-99812463D01*
X151255824Y-99637624D01*
X151341383Y-99431067D01*
X151345841Y-99408653D01*
X153082952Y-99408653D01*
X153238962Y-99724214D01*
X153613745Y-99915020D01*
X154018551Y-100029044D01*
X154437824Y-100061902D01*
X154855451Y-100012334D01*
X155255383Y-99882243D01*
X155551038Y-99724214D01*
X155707048Y-99408653D01*
X154395000Y-98096605D01*
X153082952Y-99408653D01*
X151345841Y-99408653D01*
X151385000Y-99211788D01*
X151385000Y-98988212D01*
X151341383Y-98768933D01*
X151255824Y-98562376D01*
X151131612Y-98376480D01*
X150973520Y-98218388D01*
X150787624Y-98094176D01*
X150581067Y-98008617D01*
X150361788Y-97965000D01*
X150138212Y-97965000D01*
X149918933Y-98008617D01*
X149712376Y-98094176D01*
X149526480Y-98218388D01*
X149368388Y-98376480D01*
X149244176Y-98562376D01*
X149158617Y-98768933D01*
X149115000Y-98988212D01*
X149115000Y-99211788D01*
X149158617Y-99431067D01*
X149244176Y-99637624D01*
X149361000Y-99812464D01*
X149361001Y-100905763D01*
X148530680Y-101736085D01*
X148545100Y-101663588D01*
X148545100Y-101440012D01*
X148501483Y-101220733D01*
X148415924Y-101014176D01*
X148291712Y-100828280D01*
X148133620Y-100670188D01*
X147947724Y-100545976D01*
X147741167Y-100460417D01*
X147521888Y-100416800D01*
X147298312Y-100416800D01*
X147079033Y-100460417D01*
X146922953Y-100525067D01*
X146929321Y-100460417D01*
X146939000Y-100362146D01*
X146939000Y-100362139D01*
X146944529Y-100306000D01*
X146939000Y-100249861D01*
X146939000Y-99928072D01*
X147296000Y-99928072D01*
X147420482Y-99915812D01*
X147540180Y-99879502D01*
X147650494Y-99820537D01*
X147747185Y-99741185D01*
X147826537Y-99644494D01*
X147885502Y-99534180D01*
X147921812Y-99414482D01*
X147934072Y-99290000D01*
X147934072Y-97959824D01*
X152250098Y-97959824D01*
X152299666Y-98377451D01*
X152429757Y-98777383D01*
X152587786Y-99073038D01*
X152903347Y-99229048D01*
X154215395Y-97917000D01*
X154574605Y-97917000D01*
X155886653Y-99229048D01*
X156202214Y-99073038D01*
X156393020Y-98698255D01*
X156507044Y-98293449D01*
X156539902Y-97874176D01*
X156490334Y-97456549D01*
X156360243Y-97056617D01*
X156202214Y-96760962D01*
X155886653Y-96604952D01*
X154574605Y-97917000D01*
X154215395Y-97917000D01*
X152903347Y-96604952D01*
X152587786Y-96760962D01*
X152396980Y-97135745D01*
X152282956Y-97540551D01*
X152250098Y-97959824D01*
X147934072Y-97959824D01*
X147934072Y-96425347D01*
X153082952Y-96425347D01*
X154395000Y-97737395D01*
X155707048Y-96425347D01*
X155551038Y-96109786D01*
X155176255Y-95918980D01*
X154771449Y-95804956D01*
X154352176Y-95772098D01*
X153934549Y-95821666D01*
X153534617Y-95951757D01*
X153238962Y-96109786D01*
X153082952Y-96425347D01*
X147934072Y-96425347D01*
X147934072Y-96290000D01*
X147921812Y-96165518D01*
X147885502Y-96045820D01*
X147826537Y-95935506D01*
X147747185Y-95838815D01*
X147650494Y-95759463D01*
X147540180Y-95700498D01*
X147420482Y-95664188D01*
X147296000Y-95651928D01*
X144296000Y-95651928D01*
X144171518Y-95664188D01*
X144051820Y-95700498D01*
X143941506Y-95759463D01*
X143844815Y-95838815D01*
X143765463Y-95935506D01*
X143706498Y-96045820D01*
X143670188Y-96165518D01*
X143657928Y-96290000D01*
X143657928Y-99290000D01*
X143670188Y-99414482D01*
X143706498Y-99534180D01*
X143765463Y-99644494D01*
X143844815Y-99741185D01*
X143941506Y-99820537D01*
X144051820Y-99879502D01*
X144171518Y-99915812D01*
X144296000Y-99928072D01*
X144557482Y-99928072D01*
X144078555Y-100407000D01*
X136743000Y-100407000D01*
X136743000Y-100199541D01*
X136762461Y-100135387D01*
X136779000Y-99967466D01*
X136779000Y-99967459D01*
X136784529Y-99911320D01*
X136779000Y-99855181D01*
X136779000Y-99594014D01*
X136996983Y-99448363D01*
X137294363Y-99150983D01*
X137528012Y-98801302D01*
X137688953Y-98412756D01*
X137771000Y-98000279D01*
X137771000Y-97579721D01*
X137688953Y-97167244D01*
X137528012Y-96778698D01*
X137294363Y-96429017D01*
X136996983Y-96131637D01*
X136939159Y-96093000D01*
X139412841Y-96093000D01*
X139355017Y-96131637D01*
X139057637Y-96429017D01*
X138823988Y-96778698D01*
X138663047Y-97167244D01*
X138581000Y-97579721D01*
X138581000Y-98000279D01*
X138663047Y-98412756D01*
X138823988Y-98801302D01*
X139057637Y-99150983D01*
X139355017Y-99448363D01*
X139704698Y-99682012D01*
X140093244Y-99842953D01*
X140505721Y-99925000D01*
X140926279Y-99925000D01*
X141338756Y-99842953D01*
X141727302Y-99682012D01*
X142076983Y-99448363D01*
X142374363Y-99150983D01*
X142608012Y-98801302D01*
X142768953Y-98412756D01*
X142851000Y-98000279D01*
X142851000Y-97579721D01*
X142768953Y-97167244D01*
X142608012Y-96778698D01*
X142374363Y-96429017D01*
X142076983Y-96131637D01*
X141859000Y-95985986D01*
X141859000Y-95724818D01*
X141864529Y-95668679D01*
X141859000Y-95612540D01*
X141859000Y-95612534D01*
X141842461Y-95444613D01*
X141777103Y-95229157D01*
X141670968Y-95030591D01*
X141528133Y-94856547D01*
X141484519Y-94820754D01*
X141049765Y-94386000D01*
X169381862Y-94386000D01*
X169329127Y-94438735D01*
G36*
X178869098Y-126366000D02*
G01*
X178869105Y-126366000D01*
X178918999Y-126370914D01*
X178968893Y-126366000D01*
X183769000Y-126366000D01*
X183769001Y-127700603D01*
X183670363Y-127799241D01*
X183513320Y-128034273D01*
X183405147Y-128295426D01*
X183350000Y-128572665D01*
X183350000Y-128855335D01*
X183405147Y-129132574D01*
X183513320Y-129393727D01*
X183670363Y-129628759D01*
X183769000Y-129727396D01*
X183769000Y-129895271D01*
X183769001Y-129895281D01*
X183769000Y-132515098D01*
X183764085Y-132565000D01*
X183769001Y-132614912D01*
X183769000Y-135293098D01*
X183764085Y-135343000D01*
X183769000Y-135392901D01*
X183783702Y-135542170D01*
X183841798Y-135733686D01*
X183936140Y-135910190D01*
X184063104Y-136064896D01*
X184101873Y-136096713D01*
X184451287Y-136446127D01*
X184483104Y-136484896D01*
X184637810Y-136611860D01*
X184814313Y-136706202D01*
X185005829Y-136764298D01*
X185113512Y-136774904D01*
X185205000Y-136783915D01*
X185254902Y-136779000D01*
X185353782Y-136779000D01*
X185377498Y-136857180D01*
X185436463Y-136967494D01*
X185469705Y-137008000D01*
X180126637Y-137008000D01*
X180324269Y-136860588D01*
X180519178Y-136644355D01*
X180668157Y-136394252D01*
X180765481Y-136119891D01*
X180644814Y-135890000D01*
X179451000Y-135890000D01*
X179451000Y-135910000D01*
X179197000Y-135910000D01*
X179197000Y-135890000D01*
X179177000Y-135890000D01*
X179177000Y-135636000D01*
X179197000Y-135636000D01*
X179197000Y-134442845D01*
X179451000Y-134442845D01*
X179451000Y-135636000D01*
X180644814Y-135636000D01*
X180765481Y-135406109D01*
X180668157Y-135131748D01*
X180519178Y-134881645D01*
X180324269Y-134665412D01*
X180090920Y-134491359D01*
X179828099Y-134366175D01*
X179680890Y-134321524D01*
X179451000Y-134442845D01*
X179197000Y-134442845D01*
X178967110Y-134321524D01*
X178819901Y-134366175D01*
X178557080Y-134491359D01*
X178323731Y-134665412D01*
X178247966Y-134749466D01*
X178223502Y-134668820D01*
X178164537Y-134558506D01*
X178085185Y-134461815D01*
X177988494Y-134382463D01*
X177878180Y-134323498D01*
X177800000Y-134299782D01*
X177800000Y-133249540D01*
X177814932Y-133234608D01*
X177996924Y-133159224D01*
X178182820Y-133035012D01*
X178340912Y-132876920D01*
X178465124Y-132691024D01*
X178550683Y-132484467D01*
X178594300Y-132265188D01*
X178594300Y-132041612D01*
X178550683Y-131822333D01*
X178465124Y-131615776D01*
X178340912Y-131429880D01*
X178182820Y-131271788D01*
X177996924Y-131147576D01*
X177790367Y-131062017D01*
X177571088Y-131018400D01*
X177347512Y-131018400D01*
X177128233Y-131062017D01*
X176921676Y-131147576D01*
X176735780Y-131271788D01*
X176577688Y-131429880D01*
X176453476Y-131615776D01*
X176378092Y-131797768D01*
X176100868Y-132074992D01*
X176062105Y-132106804D01*
X175935141Y-132261510D01*
X175863773Y-132395032D01*
X175840799Y-132438013D01*
X175782702Y-132629530D01*
X175763085Y-132828700D01*
X175768001Y-132878611D01*
X175768000Y-134299782D01*
X175689820Y-134323498D01*
X175579506Y-134382463D01*
X175482815Y-134461815D01*
X175403463Y-134558506D01*
X175344498Y-134668820D01*
X175308188Y-134788518D01*
X175295928Y-134913000D01*
X175295928Y-136613000D01*
X175308188Y-136737482D01*
X175344498Y-136857180D01*
X175403463Y-136967494D01*
X175436705Y-137008000D01*
X170511295Y-137008000D01*
X170544537Y-136967494D01*
X170603502Y-136857180D01*
X170627218Y-136779000D01*
X170837098Y-136779000D01*
X170887000Y-136783915D01*
X170936902Y-136779000D01*
X171086171Y-136764298D01*
X171277687Y-136706202D01*
X171454190Y-136611860D01*
X171608896Y-136484896D01*
X171640712Y-136446128D01*
X173483133Y-134603708D01*
X173521896Y-134571896D01*
X173648860Y-134417190D01*
X173743202Y-134240687D01*
X173801298Y-134049171D01*
X173816000Y-133899902D01*
X173820915Y-133850000D01*
X173816000Y-133800098D01*
X173816000Y-128841702D01*
X176542903Y-128841702D01*
X176614486Y-129085671D01*
X176869996Y-129206571D01*
X177144184Y-129275300D01*
X177426512Y-129289217D01*
X177706130Y-129247787D01*
X177972292Y-129152603D01*
X178097514Y-129085671D01*
X178169097Y-128841702D01*
X177356000Y-128028605D01*
X176542903Y-128841702D01*
X173816000Y-128841702D01*
X173816000Y-128720840D01*
X174617328Y-127919512D01*
X175915783Y-127919512D01*
X175957213Y-128199130D01*
X176052397Y-128465292D01*
X176119329Y-128590514D01*
X176363298Y-128662097D01*
X177176395Y-127849000D01*
X177535605Y-127849000D01*
X178348702Y-128662097D01*
X178592671Y-128590514D01*
X178713571Y-128335004D01*
X178782300Y-128060816D01*
X178796217Y-127778488D01*
X178754787Y-127498870D01*
X178659603Y-127232708D01*
X178592671Y-127107486D01*
X178348702Y-127035903D01*
X177535605Y-127849000D01*
X177176395Y-127849000D01*
X176363298Y-127035903D01*
X176119329Y-127107486D01*
X175998429Y-127362996D01*
X175929700Y-127637184D01*
X175915783Y-127919512D01*
X174617328Y-127919512D01*
X176029017Y-126507824D01*
X176104815Y-126600185D01*
X176201506Y-126679537D01*
X176311820Y-126738502D01*
X176431518Y-126774812D01*
X176556000Y-126787072D01*
X176563215Y-126787072D01*
X176542903Y-126856298D01*
X177356000Y-127669395D01*
X178169097Y-126856298D01*
X178148785Y-126787072D01*
X178156000Y-126787072D01*
X178280482Y-126774812D01*
X178400180Y-126738502D01*
X178510494Y-126679537D01*
X178607185Y-126600185D01*
X178686537Y-126503494D01*
X178745502Y-126393180D01*
X178754050Y-126365000D01*
X178858945Y-126365000D01*
X178869098Y-126366000D01*
X178869098Y-126366000D01*
G37*
X178869098Y-126366000D02*
X178869105Y-126366000D01*
X178918999Y-126370914D01*
X178968893Y-126366000D01*
X183769000Y-126366000D01*
X183769001Y-127700603D01*
X183670363Y-127799241D01*
X183513320Y-128034273D01*
X183405147Y-128295426D01*
X183350000Y-128572665D01*
X183350000Y-128855335D01*
X183405147Y-129132574D01*
X183513320Y-129393727D01*
X183670363Y-129628759D01*
X183769000Y-129727396D01*
X183769000Y-129895271D01*
X183769001Y-129895281D01*
X183769000Y-132515098D01*
X183764085Y-132565000D01*
X183769001Y-132614912D01*
X183769000Y-135293098D01*
X183764085Y-135343000D01*
X183769000Y-135392901D01*
X183783702Y-135542170D01*
X183841798Y-135733686D01*
X183936140Y-135910190D01*
X184063104Y-136064896D01*
X184101873Y-136096713D01*
X184451287Y-136446127D01*
X184483104Y-136484896D01*
X184637810Y-136611860D01*
X184814313Y-136706202D01*
X185005829Y-136764298D01*
X185113512Y-136774904D01*
X185205000Y-136783915D01*
X185254902Y-136779000D01*
X185353782Y-136779000D01*
X185377498Y-136857180D01*
X185436463Y-136967494D01*
X185469705Y-137008000D01*
X180126637Y-137008000D01*
X180324269Y-136860588D01*
X180519178Y-136644355D01*
X180668157Y-136394252D01*
X180765481Y-136119891D01*
X180644814Y-135890000D01*
X179451000Y-135890000D01*
X179451000Y-135910000D01*
X179197000Y-135910000D01*
X179197000Y-135890000D01*
X179177000Y-135890000D01*
X179177000Y-135636000D01*
X179197000Y-135636000D01*
X179197000Y-134442845D01*
X179451000Y-134442845D01*
X179451000Y-135636000D01*
X180644814Y-135636000D01*
X180765481Y-135406109D01*
X180668157Y-135131748D01*
X180519178Y-134881645D01*
X180324269Y-134665412D01*
X180090920Y-134491359D01*
X179828099Y-134366175D01*
X179680890Y-134321524D01*
X179451000Y-134442845D01*
X179197000Y-134442845D01*
X178967110Y-134321524D01*
X178819901Y-134366175D01*
X178557080Y-134491359D01*
X178323731Y-134665412D01*
X178247966Y-134749466D01*
X178223502Y-134668820D01*
X178164537Y-134558506D01*
X178085185Y-134461815D01*
X177988494Y-134382463D01*
X177878180Y-134323498D01*
X177800000Y-134299782D01*
X177800000Y-133249540D01*
X177814932Y-133234608D01*
X177996924Y-133159224D01*
X178182820Y-133035012D01*
X178340912Y-132876920D01*
X178465124Y-132691024D01*
X178550683Y-132484467D01*
X178594300Y-132265188D01*
X178594300Y-132041612D01*
X178550683Y-131822333D01*
X178465124Y-131615776D01*
X178340912Y-131429880D01*
X178182820Y-131271788D01*
X177996924Y-131147576D01*
X177790367Y-131062017D01*
X177571088Y-131018400D01*
X177347512Y-131018400D01*
X177128233Y-131062017D01*
X176921676Y-131147576D01*
X176735780Y-131271788D01*
X176577688Y-131429880D01*
X176453476Y-131615776D01*
X176378092Y-131797768D01*
X176100868Y-132074992D01*
X176062105Y-132106804D01*
X175935141Y-132261510D01*
X175863773Y-132395032D01*
X175840799Y-132438013D01*
X175782702Y-132629530D01*
X175763085Y-132828700D01*
X175768001Y-132878611D01*
X175768000Y-134299782D01*
X175689820Y-134323498D01*
X175579506Y-134382463D01*
X175482815Y-134461815D01*
X175403463Y-134558506D01*
X175344498Y-134668820D01*
X175308188Y-134788518D01*
X175295928Y-134913000D01*
X175295928Y-136613000D01*
X175308188Y-136737482D01*
X175344498Y-136857180D01*
X175403463Y-136967494D01*
X175436705Y-137008000D01*
X170511295Y-137008000D01*
X170544537Y-136967494D01*
X170603502Y-136857180D01*
X170627218Y-136779000D01*
X170837098Y-136779000D01*
X170887000Y-136783915D01*
X170936902Y-136779000D01*
X171086171Y-136764298D01*
X171277687Y-136706202D01*
X171454190Y-136611860D01*
X171608896Y-136484896D01*
X171640712Y-136446128D01*
X173483133Y-134603708D01*
X173521896Y-134571896D01*
X173648860Y-134417190D01*
X173743202Y-134240687D01*
X173801298Y-134049171D01*
X173816000Y-133899902D01*
X173820915Y-133850000D01*
X173816000Y-133800098D01*
X173816000Y-128841702D01*
X176542903Y-128841702D01*
X176614486Y-129085671D01*
X176869996Y-129206571D01*
X177144184Y-129275300D01*
X177426512Y-129289217D01*
X177706130Y-129247787D01*
X177972292Y-129152603D01*
X178097514Y-129085671D01*
X178169097Y-128841702D01*
X177356000Y-128028605D01*
X176542903Y-128841702D01*
X173816000Y-128841702D01*
X173816000Y-128720840D01*
X174617328Y-127919512D01*
X175915783Y-127919512D01*
X175957213Y-128199130D01*
X176052397Y-128465292D01*
X176119329Y-128590514D01*
X176363298Y-128662097D01*
X177176395Y-127849000D01*
X177535605Y-127849000D01*
X178348702Y-128662097D01*
X178592671Y-128590514D01*
X178713571Y-128335004D01*
X178782300Y-128060816D01*
X178796217Y-127778488D01*
X178754787Y-127498870D01*
X178659603Y-127232708D01*
X178592671Y-127107486D01*
X178348702Y-127035903D01*
X177535605Y-127849000D01*
X177176395Y-127849000D01*
X176363298Y-127035903D01*
X176119329Y-127107486D01*
X175998429Y-127362996D01*
X175929700Y-127637184D01*
X175915783Y-127919512D01*
X174617328Y-127919512D01*
X176029017Y-126507824D01*
X176104815Y-126600185D01*
X176201506Y-126679537D01*
X176311820Y-126738502D01*
X176431518Y-126774812D01*
X176556000Y-126787072D01*
X176563215Y-126787072D01*
X176542903Y-126856298D01*
X177356000Y-127669395D01*
X178169097Y-126856298D01*
X178148785Y-126787072D01*
X178156000Y-126787072D01*
X178280482Y-126774812D01*
X178400180Y-126738502D01*
X178510494Y-126679537D01*
X178607185Y-126600185D01*
X178686537Y-126503494D01*
X178745502Y-126393180D01*
X178754050Y-126365000D01*
X178858945Y-126365000D01*
X178869098Y-126366000D01*
M02*
